<svg xmlns="http://www.w3.org/2000/svg" version="1.1" xmlns:xlink="http://www.w3.org/1999/xlink" xmlns:svgjs="http://svgjs.com/svgjs" width="512" height="512" x="0" y="0" viewBox="0 0 512 512" style="enable-background:new 0 0 512 512" xml:space="preserve" class=""><g>
<path xmlns="http://www.w3.org/2000/svg" style="" d="M497.702,50.076H314H14.298C6.403,50.076,0,56.479,0,64.374v261.995l251.483,36.051L512,326.369  V64.374C511.999,56.479,505.596,50.076,497.702,50.076z" fill="#4d4d4d" data-original="#4d4d4d" class=""></path>
<path xmlns="http://www.w3.org/2000/svg" style="" d="M497.702,50.076H314l-196.472,324.76h92.922h91.111h196.141c7.894,0,14.297-6.403,14.297-14.309  V326.37V64.374C511.999,56.479,505.596,50.076,497.702,50.076z" fill="#3b3b3b" data-original="#3b3b3b" className=""></path>
<polygon xmlns="http://www.w3.org/2000/svg" style="" points="301.561,367.734 312.284,456.372 199.727,456.372 210.45,367.734 " fill="#808080" data-original="#808080"></polygon>
<polygon xmlns="http://www.w3.org/2000/svg" style="" points="308.676,426.548 301.561,367.734 210.45,367.734 203.335,426.548 " fill="#616161" data-original="#616161" className=""></polygon>
<path xmlns="http://www.w3.org/2000/svg" style="" d="M146.845,326.369H0v34.158c0,7.906,6.403,14.309,14.298,14.309h103.231h92.922h91.111h196.141  c7.894,0,14.297-6.403,14.297-14.309v-34.158H146.845z" fill="#cccccc" data-original="#cccccc" className=""></path>
<path xmlns="http://www.w3.org/2000/svg" style="" d="M146.85,326.369l-29.322,48.467h380.174c7.894,0,14.297-6.403,14.297-14.309V326.37L146.85,326.369  L146.85,326.369z" fill="#adadad" data-original="#adadad" className=""></path>
<path xmlns="http://www.w3.org/2000/svg" style="" d="M352.308,461.923H159.696c-4.142,0-7.5-3.358-7.5-7.5s3.358-7.5,7.5-7.5h192.611  c4.142,0,7.5,3.358,7.5,7.5S356.45,461.923,352.308,461.923z" fill="#cccccc" data-original="#cccccc" className=""></path>
<g xmlns="http://www.w3.org/2000/svg">
</g>
<g xmlns="http://www.w3.org/2000/svg">
</g>
<g xmlns="http://www.w3.org/2000/svg">
</g>
<g xmlns="http://www.w3.org/2000/svg">
</g>
<g xmlns="http://www.w3.org/2000/svg">
</g>
<g xmlns="http://www.w3.org/2000/svg">
</g>
<g xmlns="http://www.w3.org/2000/svg">
</g>
<g xmlns="http://www.w3.org/2000/svg">
</g>
<g xmlns="http://www.w3.org/2000/svg">
</g>
<g xmlns="http://www.w3.org/2000/svg">
</g>
<g xmlns="http://www.w3.org/2000/svg">
</g>
<g xmlns="http://www.w3.org/2000/svg">
</g>
<g xmlns="http://www.w3.org/2000/svg">
</g>
<g xmlns="http://www.w3.org/2000/svg">
</g>
<g xmlns="http://www.w3.org/2000/svg">
</g>
</g></svg>