<svg xmlns="http://www.w3.org/2000/svg" version="1.1" xmlns:xlink="http://www.w3.org/1999/xlink" xmlns:svgjs="http://svgjs.com/svgjs" width="512" height="512" x="0" y="0" viewBox="0 0 64 64" style="enable-background:new 0 0 512 512" xml:space="preserve" className=""><g><path xmlns="http://www.w3.org/2000/svg" d="m40.65 20.64c.4-.4.4-1.03.01-1.42-.4-.4-1.03-.39-1.42.01-.39.39-.39 1.01.01 1.41.38.38 1.01.39 1.4 0z" fill="#ffb400" data-original="#000000" className=""></path><circle xmlns="http://www.w3.org/2000/svg" cx="36.73" cy="23.14" r="1" fill="#ffb400" data-original="#000000" className=""></circle><path xmlns="http://www.w3.org/2000/svg" d="m44.78 24.76c.39-.39.4-1.02 0-1.41-.39-.39-1.03-.39-1.41 0-.4.4-.39 1.03 0 1.41.39.4 1.02.4 1.41 0z" fill="#ffb400" data-original="#000000" className=""></path><path xmlns="http://www.w3.org/2000/svg" d="m41.57 27.98c.39-.39.4-1.02 0-1.41-.39-.39-1.03-.39-1.41 0-.39.39-.39 1.03 0 1.41.39.39 1.02.39 1.41 0z" fill="#ffb400" data-original="#000000" className=""></path><path xmlns="http://www.w3.org/2000/svg" d="m60.41 20.14c-.37-.37-.95-.39-1.35-.06l-4.14 3.45c-1.65 1.38-3.97 1.48-5.75.33.223-.751.851-1.672.2-2.34 0 0-.83-.83-.83-.83.686-1.349 2.035-2.307 3.57-2.29.43 0 .81-.28.95-.68l2.76-8.27c.24-.72-.55-1.5-1.27-1.27l-8.27 2.76c-.41.14-.68.52-.68.95.017 1.536-.942 2.884-2.29 3.57l-.83-.83c-.672-.643-1.588-.026-2.34.2-1.14-1.78-1.05-4.09.33-5.75l3.45-4.14c.33-.4.3-.98-.06-1.35-5.32-5.32-16.06-4.65-22.09 1.38s-6.7 16.77-1.38 22.09c.37.37.95.39 1.35.06l4.14-3.45c1.66-1.38 3.97-1.48 5.75-.33-.223.751-.851 1.672-.2 2.34 0 0 .67.67.67.67l-4.79 4.79c-1.193-1.623-3.825-1.372-4.46.61 0 0-1.24 3.71-1.24 3.71l-16.21 16.21-3.71 1.24c-1.712.508-2.275 2.878-.97 4.1 0 0 6.27 6.27 6.27 6.27 1.221 1.303 3.593.743 4.1-.97 0 0 1.24-3.71 1.24-3.71l16.2-16.2 3.71-1.24c1.982-.635 2.233-3.267.61-4.46l4.79-4.79.67.67c.672.643 1.588.026 2.34-.2 1.14 1.78 1.05 4.09-.33 5.75l-3.45 4.14c-.33.4-.3.98.06 1.35 5.32 5.32 16.06 4.65 22.09-1.38 6.04-6.04 6.71-16.78 1.39-22.1zm-51.22 41.54c-.07.22-.25.29-.34.32-.1.02-.28.04-.45-.13l-6.27-6.27c-.246-.314-.191-.625.18-.79 0 0 3.35-1.12 3.35-1.12l4.64 4.64zm2.26-5.03-4.1-4.1 15.13-15.13 4.1 4.1zm20.48-17.73c-.02.1-.09.27-.31.34l-3.35 1.12-4.64-4.64 1.12-3.35c.159-.363.486-.432.79-.18 1.243 1.245 3.978 3.977 5.2 5.2.336.409 1.358 1.125 1.19 1.51zm-.49-3.64-2.72-2.72 4.79-4.79 2.72 2.72zm24.59-10.1c2.07 3.41 1.29 9.03-1.87 12.19s-8.78 3.93-12.19 1.87c1.76-2.25 1.94-5.29.52-7.7 2.446-1.361 4.482-3.4 5.84-5.85 2.41 1.43 5.45 1.25 7.7-.51zm-8.47-12.56 5.74-1.91-1.91 5.74c-1.76.23-3.36 1.25-4.29 2.79l-2.32-2.32c1.53-.94 2.55-2.54 2.78-4.3zm-26.36 12.35c-3.83-4.73-2.97-13.63 1.99-18.59s13.85-5.82 18.59-1.99l-1.67 2c-4.18-2.72-10.99-1.88-14.88 2.02-3.9 3.9-4.74 10.71-2.02 14.88zm3.57-2.95c-2.07-3.41-1.29-9.03 1.87-12.19s8.78-3.93 12.19-1.87c-1.76 2.25-1.94 5.29-.52 7.7-2.442 1.347-4.478 3.376-5.82 5.82-2.43-1.4-5.47-1.22-7.72.54zm13.58 7.77c-1.203-1.203-3.867-3.867-5.09-5.09 1.224-3.867 4.378-6.988 8.23-8.23 1.3 1.3 4.749 4.749 6.05 6.05-1.234 3.867-4.365 6.995-8.23 8.23zm19.26 11.02c-4.96 4.96-13.85 5.82-18.59 1.99l1.67-2c4.18 2.72 10.99 1.88 14.88-2.02 3.9-3.9 4.74-10.71 2.02-14.88l2-1.67c3.84 4.73 2.98 13.62-1.98 18.58z" fill="#ffb400" data-original="#000000" className=""></path></g></svg>