<svg xmlns="http://www.w3.org/2000/svg" version="1.1" xmlns:xlink="http://www.w3.org/1999/xlink" xmlns:svgjs="http://svgjs.com/svgjs" width="512" height="512" x="0" y="0" viewBox="0 0 64 64" style="enable-background:new 0 0 512 512" xml:space="preserve" className=""><g><g xmlns="http://www.w3.org/2000/svg"><path d="m51.761 36.416c-1.025 0-1.898-.784-1.99-1.824-.098-1.1.716-2.071 1.816-2.168h.002c.134-1.096 1.124-1.869 2.229-1.741 1.097.135 1.876 1.133 1.741 2.229-.229 1.861-1.752 3.331-3.62 3.496-.06.006-.12.008-.178.008z" fill="#ffffff" data-original="#000000" className=""></path></g><g xmlns="http://www.w3.org/2000/svg"><path d="m19.277 39.258c-1.026 0-1.899-.785-1.99-1.826-.097-1.101.718-2.07 1.818-2.167l32.483-2.842c1.106-.102 2.07.718 2.166 1.818.097 1.101-.718 2.07-1.818 2.167l-32.483 2.842c-.058.005-.118.008-.176.008z" fill="#ffffff" data-original="#000000" className=""></path></g><g xmlns="http://www.w3.org/2000/svg"><path d="m53.576 34.668c-.082 0-.164-.005-.247-.015-1.097-.135-1.876-1.133-1.741-2.229l2.427-19.703c.136-1.096 1.141-1.875 2.229-1.74 1.097.135 1.876 1.133 1.741 2.229l-2.427 19.703c-.124 1.013-.987 1.755-1.982 1.755z" fill="#ffffff" data-original="#000000" className=""></path></g><g xmlns="http://www.w3.org/2000/svg"><path d="m13.95 18.644c-1.026 0-1.899-.785-1.99-1.826-.097-1.101.718-2.07 1.818-2.167l42.048-3.679c1.104-.101 2.07.718 2.166 1.818.097 1.101-.718 2.07-1.818 2.167l-42.048 3.679c-.059.005-.118.008-.176.008z" fill="#ffffff" data-original="#000000" className=""></path></g><g xmlns="http://www.w3.org/2000/svg"><path d="m13.429 14.736c-.986 0-1.845-.73-1.979-1.735v-.002c-1.104 0-2-.895-2-2s.896-2 2-2c1.996 0 3.7 1.492 3.965 3.471.146 1.095-.623 2.101-1.718 2.248-.091.012-.179.018-.268.018z" fill="#ffffff" data-original="#000000" className=""></path></g><g xmlns="http://www.w3.org/2000/svg"><path d="m11.449 13h-3.449c-1.104 0-2-.896-2-2s.896-2 2-2h3.449c1.104 0 2 .896 2 2s-.895 2-2 2z" fill="#ffffff" data-original="#000000" className=""></path></g><g xmlns="http://www.w3.org/2000/svg"><path d="m16.223 35.691c-.986 0-1.846-.73-1.979-1.736l-2.795-20.955c-.146-1.095.623-2.101 1.718-2.247 1.088-.148 2.102.623 2.247 1.718l2.794 20.956c.146 1.095-.623 2.101-1.718 2.247-.09.012-.178.017-.267.017z" fill="#ffffff" data-original="#000000" className=""></path></g><g xmlns="http://www.w3.org/2000/svg"><path d="m25.217 55c-3.794 0-7-3.206-7-7s3.206-7 7-7 7 3.206 7 7-3.206 7-7 7zm0-10c-1.598 0-3 1.402-3 3s1.402 3 3 3 3-1.402 3-3-1.403-3-3-3z" fill="#ffffff" data-original="#000000" className=""></path></g><g xmlns="http://www.w3.org/2000/svg"><path d="m44.217 55c-3.794 0-7-3.206-7-7s3.206-7 7-7 7 3.206 7 7-3.206 7-7 7zm0-10c-1.598 0-3 1.402-3 3s1.402 3 3 3 3-1.402 3-3-1.403-3-3-3z" fill="#ffffff" data-original="#000000" className=""></path></g><g xmlns="http://www.w3.org/2000/svg"><path d="m20.181 39.163c-2.981 0-5.537-2.198-5.938-5.208-.146-1.095.624-2.101 1.719-2.246 1.087-.149 2.101.624 2.246 1.719.142 1.063 1.106 1.812 2.156 1.728 1.125-.096 2.071.719 2.167 1.818.097 1.1-.718 2.07-1.817 2.167-.179.014-.358.022-.533.022z" fill="#ffffff" data-original="#000000" className=""></path></g></g></svg>