<svg xmlns="http://www.w3.org/2000/svg" version="1.1" xmlns:xlink="http://www.w3.org/1999/xlink" xmlns:svgjs="http://svgjs.com/svgjs" width="512" height="512" x="0" y="0" viewBox="0 0 98.693 98.693" style="enable-background:new 0 0 512 512" xml:space="preserve" className="hovered-paths"><g>
<g xmlns="http://www.w3.org/2000/svg">
	<g>
		<path d="M98.534,74.299l-3.021-9.729l-1.822-0.27l1.05-2.217l-0.621-2.002h-1.26l0.65-1.964l-1.56-5.013    c0.975-1.543,1.286-3.439,0.325-5.151l-3.21-5.714l-1.749,0.667l0.142-3.528l-1.872-0.671l-5.952,2.933l6.117-5.302l-0.677-1.206    c-1.342-2.388-4.316-2.812-6.54-2.193l-0.019,0.007c0,0-0.774,0.245-1.405,0.581c-0.658,0.351-1.168,0.878-1.168,0.878    c-0.126,0.118-0.249,0.246-0.369,0.377c-0.044-0.086-0.081-0.174-0.128-0.259c-0.991-1.765-2.667-2.899-4.508-3.266l-0.354,1.353    l-2.243-1.357c-0.425,0.084-0.844,0.211-1.252,0.381l0.573,3.565l-3.693-0.913c-1.229,1.994-1.369,4.575-0.141,6.761    c1.803,3.208,5.863,4.349,9.07,2.547c0.782-0.439,1.438-1.014,1.962-1.676l0.36,0.643c-0.492,1.216-1.018,2.312-1.465,2.879    c-0.592,0.75-2.096,1.907-3.647,2.972c2.189,0.912,4.343,1.757,3.728,1.666c-0.644-0.095-3.422-0.39-5.354-0.59    c-0.183,0.115-0.361,0.226-0.533,0.333l0.694,0.264l0.326,2.029l-2.48,1.594c-0.096,0.734,1.343,1.264,2.227,1.264    c0.449,0,0.903-0.117,1.319-0.363c0.968-0.577,5.9-3.575,7.784-5.964c0.154-0.196,0.306-0.417,0.454-0.646l2.369,4.217    c-3.454,2.494-5.994,4.492-7.608,5.982l1.605,0.693l-3.54,1.5c-0.32,0.564-0.999,2.103-1.888,8.307l1.371,0.35l-1.569,1.101    c-0.058,0.426-0.114,0.87-0.172,1.335l3.63,1.001l-3.949,1.694c-0.028,0.25-0.056,0.496-0.084,0.756    c-0.211,1.936,1.186,3.678,3.122,3.89c0.13,0.015,0.261,0.021,0.389,0.021c1.775,0,3.304-1.336,3.503-3.143    c0.504-4.626,1.331-10.273,1.813-11.82c1.051-1.107,5.144-4.266,8.562-6.703l5.972,19.217c0.47,1.512,1.862,2.48,3.366,2.48    c0.348,0,0.7-0.051,1.048-0.16C98.072,78.135,99.112,76.157,98.534,74.299z" fill="#ffb400" data-original="#000000" className="hovered-path"></path>
		<path d="M59.154,39.991c-1.414,0.208-2.39,1.523-2.182,2.937c0.189,1.285,1.295,2.209,2.557,2.209    c0.126,0,0.252-0.009,0.381-0.028c1.499-0.221,3.352-0.585,4.914-1.075c-1.185-1.123-2.166-2.831-2.55-4.726    C61.211,39.611,60.165,39.843,59.154,39.991z" fill="#ffb400" data-original="#000000" className="hovered-path"></path>
		<circle cx="31.724" cy="26.605" r="6.789" fill="#ffb400" data-original="#000000" className="hovered-path"></circle>
		<path d="M56.938,26.578l2.755,4.923l4.324-4.762l-4.007-3.637c0.207-0.461,0.11-1.021-0.283-1.38    c-0.396-0.359-0.962-0.399-1.4-0.147l-0.467-0.424l-2.673,2.944l0.42,0.382L45.079,35.613c-0.724-0.173-1.512-0.049-2.157,0.43    c-0.772,0.507-4.783,2.029-6.292,2.602c-0.307,0.116-0.587,0.223-0.828,0.314c-1.435-0.698-4.699-3.277-5.409-4.027    c-0.118-0.127-0.248-0.238-0.384-0.336c-0.392-0.563-0.858-1.064-1.356-1.468c0,0-0.557-0.499-1.251-0.808    c-0.667-0.295-1.473-0.487-1.473-0.487l-0.018-0.006c-2.307-0.466-5.3,0.182-6.488,2.708l-6.382,13.561    c-0.46,0.975-0.534,1.977-0.338,2.929l-1.74,10.885l-9.527,6.635c-1.519,1.055-1.892,3.143-0.834,4.66    c0.649,0.936,1.69,1.436,2.75,1.436c0.66,0,1.327-0.195,1.91-0.602l10.696-7.447c0.745-0.52,1.249-1.32,1.393-2.219l1.127-7.058    c0.103,0.165,0.213,0.325,0.346,0.473l6.04,6.744l-2.189,9.397c-0.418,1.802,0.701,3.602,2.502,4.021    c0.256,0.06,0.512,0.088,0.761,0.088c1.523,0,2.899-1.044,3.259-2.588l2.584-11.094c0.248-1.063-0.038-2.181-0.767-2.994    l-6.858-7.657c0.056-0.099,0.111-0.195,0.161-0.301l2.759-5.861c0.647,0.744,1.313,1.118,2.094,1.245    c0.516,0.084,1.457,0.16,2.543,0.219c-0.439,0.368-0.483,0.782,0.804,1.213c2.686,0.902,2.182-0.115,2.627-0.604l0.465-0.493    c0.086,0,0.174,0.001,0.257,0.001c0.754,0,1.391-0.016,1.799-0.052c1.45-0.129,2.521-1.409,2.394-2.859    c-0.044-0.481-0.222-0.914-0.482-1.282l2.653-2.804c1.944-0.784,3.165-1.354,3.804-1.826c0.989-0.731,1.318-2.029,0.877-3.121    L56.938,26.578z M30.758,43.666c-0.275-0.454-0.606-1.15-0.947-1.937l0.128-0.271c1.216,0.917,2.613,1.824,3.947,2.361    C32.735,43.784,31.553,43.729,30.758,43.666z" fill="#ffb400" data-original="#000000" className="hovered-path"></path>
		<path d="M74.229,27.706c0.832,0.083,1.314-0.167,1.656,0c0.341,0.166,0,1.498,0,1.498l1.257-1.54l0.333-1.009l-1.249-0.53h-1.165    C75.061,26.125,73.396,27.622,74.229,27.706z" fill="#ffb400" data-original="#000000" className="hovered-path"></path>
		<path d="M66.439,27.664c0,0-1.165,1.998-0.832,2.081c0.334,0.083,3.079,0,3.079,0l-1.568-1.665L66.439,27.664z" fill="#ffb400" data-original="#000000" className="hovered-path"></path>
		<path d="M65.993,23.581c0,0,1.996,0.02,2.413-0.146c0.417-0.167-0.417,1.166-0.417,1.166l2.498-2.165l-2.33-0.999l-2.663,0.417    l-1.748,3.163h2.247V23.581z" fill="#ffb400" data-original="#000000" className="hovered-path"></path>
		<polygon points="74.568,19.94 72.023,29.798 72.674,29.943   " fill="#ffb400" data-original="#000000" className="hovered-path"></polygon>
		<polygon points="61.78,35.03 54.152,35.363 61.78,35.696   " fill="#ffb400" data-original="#000000" className="hovered-path"></polygon>
	</g>
</g>
<g xmlns="http://www.w3.org/2000/svg">
</g>
<g xmlns="http://www.w3.org/2000/svg">
</g>
<g xmlns="http://www.w3.org/2000/svg">
</g>
<g xmlns="http://www.w3.org/2000/svg">
</g>
<g xmlns="http://www.w3.org/2000/svg">
</g>
<g xmlns="http://www.w3.org/2000/svg">
</g>
<g xmlns="http://www.w3.org/2000/svg">
</g>
<g xmlns="http://www.w3.org/2000/svg">
</g>
<g xmlns="http://www.w3.org/2000/svg">
</g>
<g xmlns="http://www.w3.org/2000/svg">
</g>
<g xmlns="http://www.w3.org/2000/svg">
</g>
<g xmlns="http://www.w3.org/2000/svg">
</g>
<g xmlns="http://www.w3.org/2000/svg">
</g>
<g xmlns="http://www.w3.org/2000/svg">
</g>
<g xmlns="http://www.w3.org/2000/svg">
</g>
</g></svg>