<svg xmlns="http://www.w3.org/2000/svg" version="1.1" xmlns:xlink="http://www.w3.org/1999/xlink" xmlns:svgjs="http://svgjs.com/svgjs" width="512" height="512" x="0" y="0" viewBox="0 0 512 512" style="enable-background:new 0 0 512 512" xml:space="preserve" className=""><g><path xmlns="http://www.w3.org/2000/svg" d="m502 422c0 11.046875-8.953125 20-20 20h-452c-11.046875 0-20-8.953125-20-20v-392c0-11.046875 8.953125-20 20-20h452c11.046875 0 20 8.953125 20 20zm0 0" fill="#ffffff" data-original="#ffffff" className=""></path><path xmlns="http://www.w3.org/2000/svg" d="m482 10h-452c-11.046875 0-20 8.953125-20 20v52h492v-52c0-11.046875-8.953125-20-20-20zm0 0" fill="#6a80ff" data-original="#6a80ff"></path><path xmlns="http://www.w3.org/2000/svg" d="m64 138h88v88h-88zm0 0" fill="#feda9b" data-original="#feda9b" className=""></path><path xmlns="http://www.w3.org/2000/svg" d="m212.128906 138h88v88h-88zm0 0" fill="#ffb9b7" data-original="#ffb9b7"></path><path xmlns="http://www.w3.org/2000/svg" d="m360.253906 138h88v88h-88zm0 0" fill="#6a80ff" data-original="#6a80ff"></path><path xmlns="http://www.w3.org/2000/svg" d="m64 282.167969h88v88h-88zm0 0" fill="#ffc66c" data-original="#ffc66c"></path><path xmlns="http://www.w3.org/2000/svg" d="m212.128906 282.167969h88v88h-88zm0 0" fill="#ff5d5d" data-original="#ff5d5d"></path><path xmlns="http://www.w3.org/2000/svg" d="m360.253906 282.167969h88v88h-88zm0 0" fill="#99bbff" data-original="#99bbff"></path><path xmlns="http://www.w3.org/2000/svg" d="m448 56c5.523438 0 10-4.476562 10-10s-4.476562-10-10-10h-225.933594c-5.523437 0-10 4.476562-10 10s4.476563 10 10 10zm0 0" fill="#000000" data-original="#000000" className=""></path><path xmlns="http://www.w3.org/2000/svg" d="m104 36c-2.628906 0-5.210938 1.070312-7.070312 2.929688-1.859376 1.859374-2.929688 4.441406-2.929688 7.070312s1.070312 5.210938 2.929688 7.070312c1.859374 1.859376 4.441406 2.929688 7.070312 2.929688s5.210938-1.070312 7.070312-2.929688c1.859376-1.859374 2.929688-4.441406 2.929688-7.070312s-1.070312-5.210938-2.929688-7.070312c-1.859374-1.859376-4.441406-2.929688-7.070312-2.929688zm0 0" fill="#000000" data-original="#000000" className=""></path><path xmlns="http://www.w3.org/2000/svg" d="m64 36c-2.628906 0-5.210938 1.070312-7.070312 2.929688-1.859376 1.859374-2.929688 4.441406-2.929688 7.070312s1.070312 5.210938 2.929688 7.070312c1.859374 1.859376 4.441406 2.929688 7.070312 2.929688s5.210938-1.070312 7.070312-2.929688c1.859376-1.859374 2.929688-4.441406 2.929688-7.070312s-1.070312-5.210938-2.929688-7.070312c-1.859374-1.859376-4.441406-2.929688-7.070312-2.929688zm0 0" fill="#000000" data-original="#000000" className=""></path><path xmlns="http://www.w3.org/2000/svg" d="m144 36c-2.628906 0-5.210938 1.070312-7.070312 2.929688-1.859376 1.859374-2.929688 4.441406-2.929688 7.070312s1.070312 5.210938 2.929688 7.070312c1.859374 1.859376 4.441406 2.929688 7.070312 2.929688s5.210938-1.070312 7.070312-2.929688c1.859376-1.859374 2.929688-4.441406 2.929688-7.070312s-1.070312-5.210938-2.929688-7.070312c-1.859374-1.859376-4.441406-2.929688-7.070312-2.929688zm0 0" fill="#000000" data-original="#000000" className=""></path><path xmlns="http://www.w3.org/2000/svg" d="m482 0h-452c-16.542969 0-30 13.457031-30 30v392c0 16.542969 13.457031 30 30 30h452c16.542969 0 30-13.457031 30-30v-392c0-16.542969-13.457031-30-30-30zm0 432h-452c-5.515625 0-10-4.484375-10-10v-330.050781c.328125.03125.664062.050781 1.003906.050781h185.707032c5.523437 0 10-4.476562 10-10s-4.476563-10-10-10h-185.707032c-.339844 0-.675781.019531-1.003906.050781v-42.050781c0-5.515625 4.484375-10 10-10h452c5.515625 0 10 4.484375 10 10v42h-186.710938c-5.523437 0-10 4.476562-10 10s4.476563 10 10 10h186.710938v330c0 5.515625-4.484375 10-10 10zm0 0" fill="#000000" data-original="#000000" className=""></path><path xmlns="http://www.w3.org/2000/svg" d="m152 128h-88c-5.523438 0-10 4.476562-10 10v88c0 5.523438 4.476562 10 10 10h88c5.523438 0 10-4.476562 10-10v-88c0-5.523438-4.476562-10-10-10zm-10 88h-68v-68h68zm0 0" fill="#000000" data-original="#000000" className=""></path><path xmlns="http://www.w3.org/2000/svg" d="m300.128906 128h-88c-5.523437 0-10 4.476562-10 10v88c0 5.523438 4.476563 10 10 10h88c5.519532 0 10-4.476562 10-10v-88c0-5.523438-4.480468-10-10-10zm-10 88h-68v-68h68zm0 0" fill="#000000" data-original="#000000" className=""></path><path xmlns="http://www.w3.org/2000/svg" d="m448.253906 128h-88c-5.523437 0-10 4.476562-10 10v88c0 5.523438 4.476563 10 10 10h88c5.523438 0 10-4.476562 10-10v-88c0-5.523438-4.476562-10-10-10zm-10 88h-68v-68h68zm0 0" fill="#000000" data-original="#000000" className=""></path><path xmlns="http://www.w3.org/2000/svg" d="m152 272.167969h-88c-5.523438 0-10 4.476562-10 10v88c0 5.519531 4.476562 10 10 10h88c5.523438 0 10-4.480469 10-10v-88c0-5.523438-4.476562-10-10-10zm-10 88h-68v-68h68zm0 0" fill="#000000" data-original="#000000" className=""></path><path xmlns="http://www.w3.org/2000/svg" d="m300.128906 272.167969h-88c-5.523437 0-10 4.476562-10 10v88c0 5.519531 4.476563 10 10 10h88c5.519532 0 10-4.480469 10-10v-88c0-5.523438-4.480468-10-10-10zm-10 88h-68v-68h68zm0 0" fill="#000000" data-original="#000000" className=""></path><path xmlns="http://www.w3.org/2000/svg" d="m448.253906 272.167969h-88c-5.523437 0-10 4.476562-10 10v88c0 5.519531 4.476563 10 10 10h88c5.523438 0 10-4.480469 10-10v-88c0-5.523438-4.476562-10-10-10zm-10 88h-68v-68h68zm0 0" fill="#000000" data-original="#000000" className=""></path><path xmlns="http://www.w3.org/2000/svg" d="m249.078125 74.929688c-1.859375 1.859374-2.929687 4.441406-2.929687 7.070312s1.070312 5.210938 2.929687 7.070312c1.859375 1.859376 4.441406 2.929688 7.070313 2.929688 2.632812 0 5.210937-1.070312 7.070312-2.929688 1.859375-1.859374 2.929688-4.441406 2.929688-7.070312s-1.070313-5.210938-2.929688-7.070312c-1.859375-1.859376-4.4375-2.929688-7.070312-2.929688-2.628907 0-5.210938 1.070312-7.070313 2.929688zm0 0" fill="#000000" data-original="#000000" className=""></path></g></svg>