<svg xmlns="http://www.w3.org/2000/svg" version="1.1" xmlns:xlink="http://www.w3.org/1999/xlink" xmlns:svgjs="http://svgjs.com/svgjs" width="512" height="512" x="0" y="0" viewBox="0 0 409.6 409.6" style="enable-background:new 0 0 512 512" xml:space="preserve" className=""><g>
<g xmlns="http://www.w3.org/2000/svg">
	<g>
		<path d="M68.265,170.65h-34.13c0,131.963,106.967,238.95,238.93,238.95v-34.135C159.949,375.465,68.265,283.766,68.265,170.65z" fill="#0044e2" data-original="#000000" className=""></path>
	</g>
</g>
<g xmlns="http://www.w3.org/2000/svg">
	<g>
		<path d="M273.065,34.135V0C178.801,0,102.4,76.401,102.4,170.65c0,94.264,76.401,170.685,170.665,170.685V307.2    c-75.412,0-136.53-61.133-136.53-136.545C136.535,95.268,197.652,34.135,273.065,34.135z" fill="#0044e2" data-original="#000000" className=""></path>
	</g>
</g>
<g xmlns="http://www.w3.org/2000/svg">
	<g>
		<path d="M273.065,68.265c-56.566,0-102.4,45.834-102.4,102.385c0,56.566,45.834,102.415,102.4,102.415v-34.13    c-37.714,0-68.265-30.571-68.265-68.27c0-37.699,30.551-68.265,68.265-68.265c37.719,0,68.27,30.566,68.27,68.265l34.13-0.015    C375.465,114.099,329.636,68.265,273.065,68.265z" fill="#0044e2" data-original="#000000" className=""></path>
	</g>
</g>
<g xmlns="http://www.w3.org/2000/svg">
</g>
<g xmlns="http://www.w3.org/2000/svg">
</g>
<g xmlns="http://www.w3.org/2000/svg">
</g>
<g xmlns="http://www.w3.org/2000/svg">
</g>
<g xmlns="http://www.w3.org/2000/svg">
</g>
<g xmlns="http://www.w3.org/2000/svg">
</g>
<g xmlns="http://www.w3.org/2000/svg">
</g>
<g xmlns="http://www.w3.org/2000/svg">
</g>
<g xmlns="http://www.w3.org/2000/svg">
</g>
<g xmlns="http://www.w3.org/2000/svg">
</g>
<g xmlns="http://www.w3.org/2000/svg">
</g>
<g xmlns="http://www.w3.org/2000/svg">
</g>
<g xmlns="http://www.w3.org/2000/svg">
</g>
<g xmlns="http://www.w3.org/2000/svg">
</g>
<g xmlns="http://www.w3.org/2000/svg">
</g>
</g></svg>