<svg xmlns="http://www.w3.org/2000/svg" version="1.1" xmlns:xlink="http://www.w3.org/1999/xlink" xmlns:svgjs="http://svgjs.com/svgjs" width="512" height="512" x="0" y="0" viewBox="0 0 512 512" style="enable-background:new 0 0 512 512" xml:space="preserve" className=""><g><g xmlns="http://www.w3.org/2000/svg" id="filled_outline" data-name="filled outline"><path d="m447.99 224a8 8 0 0 1 -7.928-7.009l-10-80a8 8 0 1 1 15.876-1.984l10 80a8 8 0 0 1 -6.946 8.93 8.084 8.084 0 0 1 -1.002.063z" fill="#6ee7f5" data-original="#6ee7f5"></path><path d="m417.749 382.664a8.005 8.005 0 0 1 -7.356-11.139l37.656-88.368a8 8 0 0 1 14.72 6.273l-37.657 88.37a8 8 0 0 1 -7.363 4.864z" fill="#6ee7f5" data-original="#6ee7f5"></path><path d="m371 456h-83a8 8 0 0 1 0-16h83a8 8 0 0 1 0 16z" fill="#2cbff4" data-original="#2cbff4"></path><path d="m87.994 368a8 8 0 0 1 -7.755-6.062l-16-64a8 8 0 0 1 15.522-3.88l16 64a8.008 8.008 0 0 1 -7.767 9.942z" fill="#2cbff4" data-original="#2cbff4"></path><path d="m152 96a8 8 0 0 1 -2.529-15.591l72-24a8 8 0 0 1 5.06 15.178l-72 24a7.988 7.988 0 0 1 -2.531.413z" fill="#6ee7f5" data-original="#6ee7f5"></path><path d="m408 264h-48a8 8 0 0 1 0-16h48a8 8 0 0 1 0 16z" fill="#2cbff4" data-original="#2cbff4"></path><path d="m256 160a8 8 0 0 1 -8-8v-56a8 8 0 0 1 16 0v56a8 8 0 0 1 -8 8z" fill="#2cbff4" data-original="#2cbff4"></path><path d="m188 196a7.976 7.976 0 0 1 -5.657-2.343l-64-64a8 8 0 1 1 11.314-11.314l64 64a8 8 0 0 1 -5.657 13.657z" fill="#2cbff4" data-original="#2cbff4"></path><path d="m152 264h-48a8 8 0 0 1 0-16h48a8 8 0 0 1 0 16z" fill="#6ee7f5" data-original="#6ee7f5"></path><path d="m128 392a8 8 0 0 1 -5.657-13.657l56-56a8 8 0 1 1 11.314 11.314l-56 56a7.976 7.976 0 0 1 -5.657 2.343z" fill="#6ee7f5" data-original="#6ee7f5"></path><path d="m388.34 396.34a7.974 7.974 0 0 1 -5.657-2.34l-60.34-60.34a8 8 0 0 1 11.314-11.314l60.343 60.337a8 8 0 0 1 -5.657 13.657z" fill="#6ee7f5" data-original="#6ee7f5"></path><path d="m328 192a8 8 0 0 1 -5.657-13.657l60-60a8 8 0 1 1 11.314 11.314l-60 60a7.976 7.976 0 0 1 -5.657 2.343z" fill="#6ee7f5" data-original="#6ee7f5"></path><circle cx="256" cy="256" fill="#d18d28" r="104" data-original="#d18d28" className=""></circle><circle cx="88" cy="88" fill="#0bafea" r="64" data-original="#0bafea"></circle><path d="m128 136v1.97a64.036 64.036 0 0 1 -80 0v-1.97a24.006 24.006 0 0 1 24-24h32a24.006 24.006 0 0 1 24 24z" fill="#0276b4" data-original="#0276b4"></path><circle cx="88" cy="88" fill="#0296e5" r="24" data-original="#0296e5"></circle><path d="m104 112h-32a24.006 24.006 0 0 0 -24 24v1.97a64.036 64.036 0 0 0 80 0v-1.97a24.006 24.006 0 0 0 -24-24z" fill="#0296e5" data-original="#0296e5"></path><circle cx="88" cy="424" fill="#02a437" r="64" data-original="#02a437" className=""></circle><path d="m288 248a32 32 0 1 0 -57.86 18.843 49.777 49.777 0 0 1 9.86 29.317h32a48.313 48.313 0 0 1 9.621-28.994 31.834 31.834 0 0 0 6.379-19.166z" fill="#fbb540" data-original="#fbb540" className=""></path><path d="m240 296.16h32a0 0 0 0 1 0 0v15.84a16 16 0 0 1 -16 16 16 16 0 0 1 -16-16v-15.84a0 0 0 0 1 0 0z" fill="#cbcbcb" data-original="#cbcbcb"></path><g fill="#fbb540"><path d="m256 200a8 8 0 0 1 -8-8v-16a8 8 0 0 1 16 0v16a8 8 0 0 1 -8 8z" fill="#fbb540" data-original="#fbb540" className=""></path><path d="m224 208a7.976 7.976 0 0 1 -5.657-2.343l-8-8a8 8 0 0 1 11.314-11.314l8 8a8 8 0 0 1 -5.657 13.657z" fill="#fbb540" data-original="#fbb540" className=""></path><path d="m288 208a8 8 0 0 1 -5.657-13.657l8-8a8 8 0 0 1 11.314 11.314l-8 8a7.976 7.976 0 0 1 -5.657 2.343z" fill="#fbb540" data-original="#fbb540" className=""></path><circle cx="64" cy="256" r="40" fill="#fbb540" data-original="#fbb540" className=""></circle><circle cx="448" cy="256" r="40" fill="#fbb540" data-original="#fbb540" className=""></circle><circle cx="256" cy="448" r="32" fill="#fbb540" data-original="#fbb540" className=""></circle><circle cx="256" cy="64" r="32" fill="#fbb540" data-original="#fbb540" className=""></circle></g><path d="m240 296h32v8h-32z" fill="#a8a8a8" data-original="#a8a8a8"></path><circle cx="424" cy="87.147" fill="#ff3444" r="64" data-original="#ff3444"></circle><circle cx="424" cy="87.147" fill="#961b20" r="24" data-original="#961b20"></circle><path d="m440 111.147h-32a24.006 24.006 0 0 0 -24 24v1.97a64.036 64.036 0 0 0 80 0v-1.97a24.006 24.006 0 0 0 -24-24z" fill="#961b20" data-original="#961b20"></path><circle cx="88" cy="424" fill="#027226" r="24" data-original="#027226" className=""></circle><path d="m128 472v1.97a64.036 64.036 0 0 1 -80 0v-1.97a24.006 24.006 0 0 1 24-24h32a24.006 24.006 0 0 1 24 24z" fill="#027226" data-original="#027226" className=""></path><circle cx="424" cy="424" fill="#ffd6db" r="64" data-original="#ffd6db"></circle><path d="m464 472v1.97a64.036 64.036 0 0 1 -80 0v-1.97a24.006 24.006 0 0 1 24-24h32a24.006 24.006 0 0 1 24 24z" fill="#faa6b2" data-original="#faa6b2"></path><path d="m464 472v1.97a64.036 64.036 0 0 1 -80 0v-1.97a24.006 24.006 0 0 1 24-24h32a24.006 24.006 0 0 1 24 24z" fill="#faa6b2" data-original="#faa6b2"></path><circle cx="424" cy="424" fill="#faa6b2" r="24" data-original="#faa6b2"></circle><path d="m283.288 218.753a39.662 39.662 0 0 0 -30.111-10.653 40 40 0 0 0 -29.5 63.464 41.612 41.612 0 0 1 8.32 24.6v15.836a24 24 0 0 0 48 0v-15.84a40.562 40.562 0 0 1 8.021-24.2 39.642 39.642 0 0 0 7.982-23.96 40.143 40.143 0 0 0 -12.712-29.247zm-19.288 93.247a8 8 0 0 1 -16 0v-7.84h16zm11.221-49.634a56.56 56.56 0 0 0 -10.646 25.794h-17.157a58.416 58.416 0 0 0 -10.818-26.036 23.75 23.75 0 0 1 -4.542-15.818 24 24 0 0 1 40.313-15.856 23.993 23.993 0 0 1 2.85 31.916z" fill="#000000" data-original="#000000" className=""></path><path d="m256 200a8 8 0 0 0 8-8v-16a8 8 0 0 0 -16 0v16a8 8 0 0 0 8 8z" fill="#000000" data-original="#000000" className=""></path><path d="m224 208a8 8 0 0 0 5.657-13.657l-8-8a8 8 0 0 0 -11.314 11.314l8 8a7.976 7.976 0 0 0 5.657 2.343z" fill="#000000" data-original="#000000" className=""></path><path d="m290.343 186.343-8 8a8 8 0 0 0 11.314 11.314l8-8a8 8 0 0 0 -11.314-11.314z" fill="#000000" data-original="#000000" className=""></path><path d="m496 256a48.073 48.073 0 0 0 -40.871-47.468l-6.605-52.838a72.071 72.071 0 1 0 -80.743-22.788l-38.481 38.479a111.536 111.536 0 0 0 -65.3-27.1v-41.085a40 40 0 1 0 -47.56-45.108l-57.255 19.081a72.1 72.1 0 1 0 -26.279 67.046l37.437 37.438a8.073 8.073 0 0 0 1.136.937 111.524 111.524 0 0 0 -27.19 65.406h-32.968a48 48 0 1 0 -47.321 56c.584 0 1.163-.023 1.743-.044l12.19 48.763a72.081 72.081 0 1 0 66.286 26.375l38.48-38.479a111.794 111.794 0 0 0 146.6 0l38.48 38.479a71.706 71.706 0 0 0 -13.965 60.906h-58.614a40 40 0 1 0 0 16h64.333a71.99 71.99 0 1 0 75.687-103.122l18.459-49.225a48.062 48.062 0 0 0 42.321-47.653zm-240 216a24 24 0 1 1 24-24 24.028 24.028 0 0 1 -24 24zm123.094-104.219-38.479-38.481a111.536 111.536 0 0 0 27.1-65.3h32.968a48.123 48.123 0 0 0 36.264 38.7l-18.578 49.541a71.63 71.63 0 0 0 -39.275 15.54zm100.906-111.781a32 32 0 1 1 -32-32 32.036 32.036 0 0 1 32 32zm-40.956-47.149a48.113 48.113 0 0 0 -38.365 39.149h-32.968a111.536 111.536 0 0 0 -27.1-65.3l38.479-38.48a71.468 71.468 0 0 0 53.773 15.215zm-31.044-120.851a16 16 0 1 1 16 16 16.019 16.019 0 0 1 -16-16zm0 32h32a16.014 16.014 0 0 1 15.863 14.014 55.827 55.827 0 0 1 -63.726 0 16.014 16.014 0 0 1 15.863-14.014zm16-88a55.965 55.965 0 0 1 44.645 89.759 32.166 32.166 0 0 0 -18.069-15.959 32 32 0 1 0 -53.152 0 32.166 32.166 0 0 0 -18.069 15.955 55.965 55.965 0 0 1 44.645-89.755zm-168 8a24 24 0 1 1 -24 24 24.028 24.028 0 0 1 24-24zm-224 48a56 56 0 1 1 100.645 33.759 32.166 32.166 0 0 0 -18.069-15.959 32 32 0 1 0 -53.152 0 32.166 32.166 0 0 0 -18.069 15.955 55.711 55.711 0 0 1 -11.355-33.755zm40 0a16 16 0 1 1 16 16 16.019 16.019 0 0 1 -16-16zm-15.863 46.014a16.014 16.014 0 0 1 15.863-14.014h32a16.014 16.014 0 0 1 15.863 14.014 55.827 55.827 0 0 1 -63.726 0zm88.082-1.108a71.625 71.625 0 0 0 15.523-39.054l57.7-19.233a40.128 40.128 0 0 0 30.558 28.581v41.094a111.524 111.524 0 0 0 -65.406 27.19 8.073 8.073 0 0 0 -.937-1.136zm-112.219 123.094a32 32 0 1 1 32 32 32.036 32.036 0 0 1 -32-32zm79.321 8h32.968a111.536 111.536 0 0 0 27.1 65.3l-38.479 38.48a71.622 71.622 0 0 0 -38.59-15.486l-12.9-51.582a48.14 48.14 0 0 0 29.901-36.712zm-55.184 206.014a16.014 16.014 0 0 1 15.863-14.014h32a16.014 16.014 0 0 1 15.863 14.014 55.827 55.827 0 0 1 -63.726 0zm15.863-46.014a16 16 0 1 1 16 16 16.019 16.019 0 0 1 -16-16zm60.645 33.759a32.166 32.166 0 0 0 -18.069-15.959 32 32 0 1 0 -53.152 0 32.166 32.166 0 0 0 -18.069 15.955 56 56 0 1 1 89.29 0zm27.355-201.759a96 96 0 1 1 96 96 96.108 96.108 0 0 1 -96-96zm232.137 214.014a16.014 16.014 0 0 1 15.863-14.014h32a16.014 16.014 0 0 1 15.863 14.014 55.827 55.827 0 0 1 -63.726 0zm15.863-46.014a16 16 0 1 1 16 16 16.019 16.019 0 0 1 -16-16zm72 0a55.711 55.711 0 0 1 -11.355 33.759 32.166 32.166 0 0 0 -18.069-15.959 32 32 0 1 0 -53.152 0 32.166 32.166 0 0 0 -18.069 15.955 55.988 55.988 0 1 1 100.645-33.755z" fill="#000000" data-original="#000000" className=""></path></g></g></svg>