<svg xmlns="http://www.w3.org/2000/svg" version="1.1" xmlns:xlink="http://www.w3.org/1999/xlink" xmlns:svgjs="http://svgjs.com/svgjs" width="512" height="512" x="0" y="0" viewBox="0 0 176 176" style="enable-background:new 0 0 512 512" xml:space="preserve" className="hovered-paths"><g><g xmlns="http://www.w3.org/2000/svg" id="Layer_2" data-name="Layer 2"><g id="bludgeon_copy" data-name="bludgeon copy"><path d="m132.17 0h-88.34a44 44 0 0 0 -43.83 43.83v88.34a44 44 0 0 0 43.83 43.83h88.34a44 44 0 0 0 43.83-43.83v-88.34a44 44 0 0 0 -43.83-43.83zm-58.68 54.14 12.76 12.76-11.13 11.1-12.72-12.77-3.13-14.09zm8 53.44a5.93 5.93 0 0 1 -8.36 0l-3.1-3.1-13.2 13.2.25.25a4.06 4.06 0 1 1 -5.74 5.74l-7.13-7.12a4.06 4.06 0 0 1 5.74-5.75l.13.13 13.2-13.21-3-3a5.91 5.91 0 1 1 8.36-8.36l.8.81 33.06-33.06 14.22-3-3.12 14.12-32.95 33.17.82.82a5.91 5.91 0 0 1 0 8.36zm50.34 9-7.13 7.12a4.06 4.06 0 1 1 -5.74-5.74l.25-.25-13.21-13.23-3.1 3.1a5.91 5.91 0 0 1 -8.36-8.36l.82-.82-5.6-5.64 11.14-11.22 5.66 5.66.8-.81a5.91 5.91 0 1 1 8.36 8.36l-3 3 13.2 13.21.13-.13a4.06 4.06 0 0 1 5.74 5.75z" fill="#ffb400" data-original="#000000" className="hovered-path"></path></g></g></g></svg>