<svg xmlns="http://www.w3.org/2000/svg" version="1.1" xmlns:xlink="http://www.w3.org/1999/xlink" xmlns:svgjs="http://svgjs.com/svgjs" width="512" height="512" x="0" y="0" viewBox="0 0 512.768 512.768" style="enable-background:new 0 0 512 512" xml:space="preserve" className=""><g><g xmlns="http://www.w3.org/2000/svg"><g><g><g><path d="m505.268 504.787v-240.545c0-141.439-84.847-256.098-226.518-256.098-86.849 0-127.321 50.998-127.321 108.166 0 31.522 19.187 82.989 102.17 93.818 7.776 1.015 15.737 2.135 23.801 3.393l5.438 199.591-59.24 91.674" fill="#ffb400" data-original="#ff6ef9" className=""></path><path d="m278.75 8.144c-4.942 0-9.725.173-14.367.495 132.251 8.131 210.885 119.449 210.885 255.602v240.545h30v-240.544c0-141.439-84.847-256.098-226.518-256.098z" fill="#ffb400" data-original="#f55bee" className=""></path><path d="m175.202 94.994c-63.727 0-115.388 52.178-115.388 116.543v160.422c0 87.502 85.181 133.186 163.785 133.186 78.601 0 163.785-45.687 163.785-133.186v-131.545z" fill="#ffb400" data-original="#ffd8bf" className=""></path><path d="m357.384 218.977v152.981c0 81.954-74.73 127.225-148.785 132.634 5.011.366 10.019.551 15 .551 78.601 0 163.785-45.687 163.785-133.186v-131.543z" fill="#ffb400" data-original="#ffcdad" className=""></path><path d="m178.769 44.545c-18.43 19.476-27.34 44.942-27.34 71.766 0 31.522 19.187 82.989 102.17 93.818 51.049 6.662 98.712 17.842 133.79 43.135 21.944 15.822 38.962 37.167 48.803 66.383 0 0 27.754-37.947 9.016-99.002" fill="#ffb400" data-original="#ff6ef9" className=""></path><path d="m59.814 271.855-5.208-4.118c-12.844-10.154-31.493-7.344-40.843 6.154-5.544 8.003-6.683 18.303-3.024 27.344l20.13 49.74c4.372 10.803 14.779 17.861 26.333 17.861h2.612z" fill="#ffb400" data-original="#ffcdad" className=""></path></g></g></g><g><path d="m443.008 213.474c-3.96 1.215-6.185 5.411-4.97 9.37 11.161 36.369 5.063 63.66-.947 78.835-32.164-69.101-110.76-89.407-180-98.654-30.847-7.098-66.669-17.466-85.732-44.843-22.806-32.753-12.964-81.997 13.775-109.437 6.767-6.946-3.976-17.415-10.743-10.469-13.961 14.328-23.464 32.471-27.794 52.597-54.864 13.209-94.283 63.327-94.283 120.664v45.992c-15.694-7.457-34.891-2.093-44.717 12.092-7.014 10.125-8.438 22.995-3.811 34.428l7.584 18.74-8.61 7.041c-7.604 6.218 2.141 17.626 9.495 11.612l5.007-4.094 4.902 12.112-5.966 4.879c-7.604 6.218 2.14 17.625 9.495 11.612l3.619-2.959c5.711 7.097 13.918 11.791 23.06 13.023 3.224 123.625 167.909 166.445 264.118 115.215 8.665-4.353 1.932-17.759-6.732-13.404-85.141 44.888-240.128 13.492-242.445-105.866.001 0 .001-52.913.001-52.913l23.109 37.33c1.367 2.208 3.78 3.552 6.377 3.552h45.146c4.142 0 7.5-3.358 7.5-7.5v-19.787c0-9.697-15-9.697-15 0v12.287h-33.468l-33.664-54.381v-79.01c0-48.362 31.845-90.873 76.96-104.498-4.855 64.856 50.024 102.618 108.355 110.527 43.607 5.69 90.225 14.344 127.255 39.6v33.381l-33.663 54.381h-33.468v-12.287c0-9.697-15-9.697-15 0v19.787c0 4.142 3.357 7.5 7.5 7.5h45.146c2.598 0 5.01-1.344 6.377-3.552l23.108-37.33c-.401 53.425 7.16 95.725-36.783 136.083-7.193 6.59 3.049 17.55 10.133 11.06 27.248-24.965 41.65-57.549 41.65-94.23v-102.976c15.803 14.406 27.098 31.973 34.2 53.057 1.84 5.461 9.426 7.142 13.161 2.034 1.224-1.673 29.747-41.716 10.133-105.63-1.215-3.961-5.413-6.188-9.37-4.971zm-402.077 140.017 6.762-5.529c7.507-6.139-1.987-17.75-9.495-11.612l-3.875 3.169-4.902-12.113 4.834-3.953c7.507-6.139-1.988-17.751-9.495-11.612l-1.231 1.007-5.838-14.425c-2.724-6.731-1.888-14.304 2.237-20.259 7.658-11.056 22.853-11.573 32.386-2.676v17.081c-.001.074-.001.148 0 .222v67.969c-4.496-1.086-8.491-3.645-11.383-7.269z" fill="#000000" data-original="#000000" className=""></path><path d="m450.879 78.33c-53.314-66.801-158.538-97.476-239.991-64.916-8.889 3.876-2.893 17.629 5.995 13.75 75.621-29.751 173.219-.956 222.507 60.812 37.646 44.825 58.377 107.423 58.377 176.265v240.545c0 9.697 15 9.697 15 0v-240.545c.001-72.364-21.979-138.389-61.888-185.911z" fill="#000000" data-original="#000000" className=""></path><path d="m391.004 147.701c21.385 19.545 31.715 38.191 31.816 38.377 4.503 8.253 17.79 1.319 13.173-7.174-20.188-36.448-75.307-85.55-142.979-91.368-9.643-1.023-11.239 13.882-1.598 14.915 37.642 4.033 71.149 19.257 99.588 45.25z" fill="#000000" data-original="#000000" className=""></path><path d="m433.946 397.221c-4.143 0-7.5 3.358-7.5 7.5v100.423c0 9.697 15 9.697 15 0v-100.423c0-4.142-3.358-7.5-7.5-7.5z" fill="#000000" data-original="#000000" className=""></path><path d="m266.428 313.079 9.828-17.912h61.613c9.697 0 9.697-15 0-15h-66.053c-2.738 0-5.258 1.492-6.575 3.892l-11.964 21.804c-4.548 8.29 8.541 15.618 13.151 7.216z" fill="#000000" data-original="#000000" className=""></path><path d="m193.921 305.863-11.964-21.804c-1.317-2.4-3.837-3.892-6.575-3.892h-66.053c-9.697 0-9.697 15 0 15h61.613l9.828 17.912c4.525 8.245 17.804 1.264 13.151-7.216z" fill="#000000" data-original="#000000" className=""></path><path d="m195.549 432.616h56.1c9.931-.344 9.924-14.659 0-15h-56.1c-9.93.344-9.923 14.659 0 15z" fill="#000000" data-original="#000000" className=""></path></g></g></g></svg>