<svg xmlns="http://www.w3.org/2000/svg" version="1.1" xmlns:xlink="http://www.w3.org/1999/xlink" xmlns:svgjs="http://svgjs.com/svgjs" width="512" height="512" x="0" y="0" viewBox="0 0 512 512" style="enable-background:new 0 0 512 512" xml:space="preserve" className="hovered-paths"><g><g xmlns="http://www.w3.org/2000/svg"><path d="m100.684 171.811c-4.001-1.069-8.112 1.311-9.179 5.314-3.811 14.287-5.743 29.097-5.743 44.019 0 93.909 76.368 170.31 170.238 170.31s170.238-76.401 170.238-170.31-76.368-170.31-170.238-170.31c-64.116 0-122.167 35.465-151.5 92.557-1.893 3.684-.441 8.206 3.244 10.098 3.682 1.892 8.205.441 10.098-3.244 26.752-52.066 79.69-84.411 138.158-84.411 85.599 0 155.238 69.672 155.238 155.31s-69.639 155.31-155.238 155.31-155.238-69.672-155.238-155.31c0-13.618 1.762-27.127 5.236-40.154 1.068-4.002-1.311-8.112-5.314-9.179z" fill="#ffffff" data-original="#000000" className="hovered-path"></path><path d="m412.307 64.773c-41.751-41.77-97.262-64.773-156.307-64.773s-114.555 23.003-156.306 64.773c-41.75 41.769-64.743 97.302-64.743 156.371 0 50.681 17.571 100.204 49.478 139.448 30.775 37.853 73.539 64.686 120.708 75.812l44.482 72.037c1.366 2.212 3.781 3.56 6.381 3.56s5.015-1.347 6.381-3.56l44.481-72.037c37.82-8.913 72.718-27.771 101.104-54.664 3.007-2.849 3.135-7.596.286-10.603s-7.597-3.135-10.603-.286c-27.187 25.757-60.774 43.605-97.132 51.615-1.982.437-3.702 1.657-4.769 3.384l-39.748 64.375-39.751-64.375c-1.066-1.727-2.786-2.947-4.768-3.384-45.104-9.937-86.092-35.271-115.415-71.337-29.738-36.578-46.116-82.74-46.116-129.985.001-113.668 92.434-206.144 206.05-206.144s206.049 92.476 206.049 206.144c0 45.471-14.503 88.583-41.94 124.674-2.507 3.298-1.866 8.003 1.432 10.51s8.003 1.865 10.51-1.432c29.438-38.725 44.999-84.975 44.999-133.752-.001-59.069-22.993-114.603-64.743-156.371z" fill="#ffffff" data-original="#000000" className="hovered-path"></path><path d="m322.214 154.902c-4.25-4.252-9.9-6.594-15.911-6.594s-11.662 2.341-15.912 6.594l-34.403 34.422-34.413-34.395c-4.25-4.252-9.9-6.594-15.911-6.594s-11.662 2.342-15.911 6.594c-8.77 8.774-8.77 23.052.003 31.829l34.417 34.398-34.395 34.413c-4.252 4.25-6.594 9.9-6.594 15.911s2.342 11.662 6.593 15.911c4.387 4.386 10.149 6.579 15.913 6.578 5.763 0 11.528-2.194 15.917-6.581l34.398-34.417 34.411 34.392c8.774 8.771 23.052 8.771 31.826.001 4.252-4.25 6.594-9.9 6.594-15.912s-2.342-11.662-6.594-15.911l-34.422-34.403 34.392-34.411c8.773-8.773 8.773-23.051.002-31.825zm-10.61 21.222-39.694 39.716c-2.928 2.93-2.927 7.678.003 10.606l39.727 39.705c1.417 1.416 2.197 3.299 2.197 5.301s-.78 3.885-2.197 5.302c-2.928 2.926-7.691 2.926-10.619 0l-39.716-39.694c-2.93-2.929-7.679-2.927-10.606.003l-39.699 39.72c-2.926 2.927-7.69 2.925-10.618 0-1.417-1.417-2.197-3.299-2.197-5.302s.78-3.885 2.2-5.305l39.699-39.721c2.928-2.93 2.927-7.678-.003-10.606l-39.719-39.697c-2.926-2.928-2.926-7.691 0-10.619 1.417-1.417 3.299-2.197 5.302-2.197s3.885.78 5.305 2.2l39.721 39.7c1.406 1.406 3.313 2.195 5.302 2.195h.002c1.989 0 3.896-.791 5.303-2.198l39.703-39.727c1.416-1.417 3.3-2.198 5.303-2.198 2.002 0 3.885.78 5.302 2.198 2.926 2.927 2.926 7.69-.001 10.618z" fill="#ffffff" data-original="#000000" className="hovered-path"></path></g></g></svg>