<svg xmlns="http://www.w3.org/2000/svg" version="1.1" xmlns:xlink="http://www.w3.org/1999/xlink" xmlns:svgjs="http://svgjs.com/svgjs" width="512" height="512" x="0" y="0" viewBox="0 0 512 512" style="enable-background:new 0 0 512 512" xml:space="preserve" className=""><g><g xmlns="http://www.w3.org/2000/svg"><g><path clip-rule="evenodd" d="m179.972 92.823h152.055c98.966 0 179.972 81.053 179.972 180.14v7.804c0 99.087-81.007 180.14-179.972 180.14h-152.055-35.948c-3.855 0-3.417-.146-6.833 1.608l-71.983 37.034c-3.855 1.432-5.724.351-5.519-3.595l4.176-76.932c.088-.614.234-.702-.175-1.052-38.897-33.117-63.69-82.398-63.69-137.203v-7.804c0-99.087 80.977-180.14 179.972-180.14z" fill="#ffb400" fill-rule="evenodd" data-original="#8dcafc" className=""></path></g><g><path clip-rule="evenodd" d="m424.978 46.611-105.128 221.354 29.786 27.417 38.022 4.852 105.127-221.354z" fill="#8af9ad" fill-rule="evenodd" data-original="#fb8627" className=""></path></g><g><path clip-rule="evenodd" d="m420.101 56.9 67.807 32.269 15.302-32.24c5.548-11.692-.496-26.306-13.433-32.474l-10.367-4.911-10.367-4.94c-12.936-6.167-28.092-1.637-33.641 10.055z" fill="#fe636e" fill-rule="evenodd" data-original="#fe636e" className=""></path></g><g><path clip-rule="evenodd" d="m353.842 331.626-15.974-18.385-20.996.789-2.979 46.036c.058 3.8 3.183 5.29 6.162 2.952z" fill="#9c9c9c" fill-rule="evenodd" data-original="#9c9c9c" className=""></path></g><g><path clip-rule="evenodd" d="m467.554 13.933c11.944 6.547 17.346 20.49 12.002 31.743l-15.302 32.211 23.654 11.283 15.302-32.24c5.548-11.692-.496-26.306-13.433-32.474l-10.367-4.911-10.367-4.94c-.496-.234-.992-.468-1.489-.672z" fill="#f92c3d" fill-rule="evenodd" data-original="#f92c3d" className=""></path></g><g><path clip-rule="evenodd" d="m464.255 77.887-100.28 211.094 23.683 11.253 100.25-211.065z" fill="#2ae565" fill-rule="evenodd" data-original="#f2671f" className=""></path></g><g><path clip-rule="evenodd" d="m353.842 331.626-23.654-11.253-14.601 13.562-1.694 26.131c.058 3.8 3.183 5.29 6.162 2.952z" fill="#5c5c5c" fill-rule="evenodd" data-original="#838383" className=""></path></g><g><path clip-rule="evenodd" d="m387.658 300.234-67.808-32.269-2.978 46.065 36.97 17.596z" fill="#fcd79f" fill-rule="evenodd" data-original="#fcd79f" className=""></path></g><g><path clip-rule="evenodd" d="m387.658 300.234-23.683-11.253-33.787 31.392 23.654 11.253z" fill="#fac574" fill-rule="evenodd" data-original="#fac574"></path></g><g><path clip-rule="evenodd" d="m240.8 92.823c52.973 0 100.747 23.208 133.775 59.949l22.632-47.644c-20.237-7.95-42.226-12.306-65.179-12.306h-91.228z" fill="#ffbf27" fill-rule="evenodd" data-original="#8ac9fe" className=""></path></g><g><path clip-rule="evenodd" d="m460.429 147.043-43.131 90.757c2.278 11.37 3.475 23.12 3.475 35.163v7.804c0 99.087-80.977 180.14-179.972 180.14h91.227c98.966 0 179.972-81.053 179.972-180.14v-7.804c0-48.871-19.711-93.388-51.571-125.92z" fill="#bc8400" fill-rule="evenodd" data-original="#64b9fc" className=""></path></g><g><path d="m278.705 312.578h-167.941c-4.267 0-7.726-3.459-7.726-7.726s3.459-7.726 7.726-7.726h167.941c4.267 0 7.726 3.459 7.726 7.726s-3.459 7.726-7.726 7.726z" fill="#f8f6f6" data-original="#f8f6f6" className=""></path></g><g><path d="m313.893 367.793h-203.129c-4.267 0-7.726-3.459-7.726-7.726s3.459-7.726 7.726-7.726h203.129c4.267 0 7.726 3.459 7.726 7.726 0 4.266-3.459 7.726-7.726 7.726z" fill="#f8f6f6" data-original="#f8f6f6" className=""></path></g><g><path d="m278.705 257.365h-167.941c-4.267 0-7.726-3.459-7.726-7.726s3.459-7.726 7.726-7.726h167.941c4.267 0 7.726 3.459 7.726 7.726 0 4.266-3.459 7.726-7.726 7.726z" fill="#f8f6f6" data-original="#f8f6f6" className=""></path></g><g><path d="m212.328 202.15h-101.564c-4.267 0-7.726-3.459-7.726-7.726s3.459-7.726 7.726-7.726h101.565c4.267 0 7.726 3.459 7.726 7.726s-3.459 7.726-7.727 7.726z" fill="#f8f6f6" data-original="#f8f6f6" className=""></path></g></g></g></svg>