<svg xmlns="http://www.w3.org/2000/svg" version="1.1" xmlns:xlink="http://www.w3.org/1999/xlink" xmlns:svgjs="http://svgjs.com/svgjs" width="512" height="512" x="0" y="0" viewBox="0 0 152 152" style="enable-background:new 0 0 512 512" xml:space="preserve" class=""><g><linearGradient xmlns="http://www.w3.org/2000/svg" id="linear-gradient" gradientUnits="userSpaceOnUse" x1="42.06" x2="64.15" y1="75.83" y2="97.92"><stop offset="0" stop-color="#b71c1c"></stop><stop offset="1" stop-color="#b71c1c" stop-opacity="0"></stop></linearGradient><linearGradient xmlns="http://www.w3.org/2000/svg" id="linear-gradient-2" x1="70.79" x2="136.52" xmlns:xlink="http://www.w3.org/1999/xlink" xlink:href="#linear-gradient" y1="57.23" y2="122.96"></linearGradient><g xmlns="http://www.w3.org/2000/svg" id="Layer_2" data-name="Layer 2"><g id="Color"><g id="_06.Dislike" data-name="06.Dislike"><circle id="Background" cx="76" cy="76" fill="#eb2540" r="76" data-original="#eb2540" class=""></circle><path d="m63.4 84.16s-5.75 11.39-5.75 20.17v.09l-22.09-22.09a6.58 6.58 0 0 0 4.57 1.83z" fill="url(#linear-gradient)" data-original="url(#linear-gradient)"></path><path d="m152 76a76 76 0 0 1 -55 73.07l-34-34a12 12 0 0 0 4.9.92c2.64 0 1.79-9.82 2.43-13.64 1-6 20.22-17 20.22-23v-38.09a4.78 4.78 0 0 0 -.93-2.84l5.83 5.83v35.06a4.88 4.88 0 0 0 4.87 4.85h13.34a4.88 4.88 0 0 0 4.86-4.85v-38.05a4.82 4.82 0 0 0 -1.37-3.35l34.8 34.79c.05 1.09.05 2.19.05 3.3z" fill="url(#linear-gradient-2)" data-original="url(#linear-gradient-2)" class=""></path><g id="Icon"><path d="m95.43 41.26a4.88 4.88 0 0 1 4.87-4.84h13.34a4.87 4.87 0 0 1 4.86 4.84v38.05a4.88 4.88 0 0 1 -4.86 4.85h-13.34a4.88 4.88 0 0 1 -4.87-4.85zm-56.79 29.81a6.63 6.63 0 0 1 2.66-11.63 6.62 6.62 0 0 1 2.64-11.63 6.64 6.64 0 0 1 4.13-11.81l37.62.42a4.86 4.86 0 0 1 4.84 4.84v38.05c0 6-19.19 17.08-20.22 23-.64 3.82.21 13.64-2.43 13.64-4.48 0-10.23-1.72-10.23-11.67 0-8.78 5.75-20.17 5.75-20.17h-23.27a6.63 6.63 0 0 1 -1.49-13.09z" fill="#ffffff" data-original="#ffffff"></path></g></g></g></g></g></svg>