<svg xmlns="http://www.w3.org/2000/svg" version="1.1" xmlns:xlink="http://www.w3.org/1999/xlink" xmlns:svgjs="http://svgjs.com/svgjs" width="512" height="512" x="0" y="0" viewBox="0 0 512.002 512.002" style="enable-background:new 0 0 512 512" xml:space="preserve" className=""><g>
<g xmlns="http://www.w3.org/2000/svg">
	<g>
		<path d="M74.909,441.222c-40.711-0.411-39.85-0.955-39.995,0.995c-0.2,2.669,5.581,0.937,6.177,5.095    c0.125,3.905-0.182,53.477-0.202,56.559c-0.465,3.321-3.717,2.985-3.193,5.027c0.218,0.856,0.885,1.125,1.761,1.125    c6.275,0,14.767,0.182,19.582,1.051C116.401,521.426,122.002,441.7,74.909,441.222z M91.044,492.948    c-5.258,12.93-31.41,18.255-37.206,8.123l-0.342-54.169C96.695,444.129,97.647,476.716,91.044,492.948z" fill="#ffb400" data-original="#000000" className=""></path>
	</g>
</g>
<g xmlns="http://www.w3.org/2000/svg">
	<g>
		<path d="M132.461,476.033c0,47.193,75.885,48.024,75.885-1.683C208.347,428.182,132.461,427.001,132.461,476.033z     M175.215,506.409c-16.82-0.024-26.634-10.314-29.161-30.493l-0.005-0.029c0-20.12,6.631-29.941,20.866-30.904    c14.281-0.959,27.332,13.536,27.333,29.275C194.541,488.066,191.474,504.841,175.215,506.409z" fill="#ffb400" data-original="#000000" className=""></path>
	</g>
</g>
<g xmlns="http://www.w3.org/2000/svg">
	<g>
		<path d="M290.507,440.31c-3.429,1.091-0.946,0.804-53.197,0.728c-1.846-0.967-4.739-2.156-5.187-0.112l-1.854,8.439    c-0.354,1.607,1.797,2.522,2.707,1.144c0.806-1.222,2.021-2.145,3.708-2.824c4.331-0.173,15.958-0.193,18.514-0.196l-0.266,56.8    c-0.004,0.084-0.119,2.051-1.949,3.166c-1.283,0.782-0.734,2.771,0.784,2.771c16.921-0.077,17.028,0.307,17.384-1.229    c0.48-2.08-2.63-1.455-2.904-4.571c-0.063-2.641-0.456-47.658-0.537-56.926l16.292,0.387c0.146,0.006,3.583,0.201,4.802,3.628    c0.546,1.538,2.844,1.197,2.902-0.447c0.08-2.241,0.179-5.389,0.228-6.991C293.371,440.823,291.57,439.976,290.507,440.31z" fill="#ffb400" data-original="#000000" className=""></path>
	</g>
</g>
<g xmlns="http://www.w3.org/2000/svg">
	<g>
		<path d="M374.812,493.886c5.591-2.254,8.15-1.026,8.021-3.286c-0.044-0.781-0.686-1.397-1.469-1.41    c-4.007-0.063-12.362-0.071-14.139-0.072l-19.867-49.12c-0.047-0.138-0.101-0.278-0.158-0.412    c-0.235-0.557-0.735-0.922-1.387-0.912c-1.448,0.012,0.641-4.022-27.471,65.116c-0.011,0.023-1.171,2.343-4,3.698    c-1.431,0.687-0.935,2.84,0.644,2.843c0.001,0,11.812,0.018,11.812,0.018c1.717,0,2.077-2.356,0.514-2.905    c-0.83-0.417-1.21-1.002-0.974-1.897c0.838-2.881,3.071-9.131,3.612-10.637l26.04,0.068l5.118,12.128    c0.021,0.051,0.075,0.277-0.094,0.529c-0.871,0.95-0.207,2.485,1.08,2.505c0.106,0.001,14.853,0.21,14.853,0.21    c0.879,0,1.515-0.695,1.515-1.495c0-1.653-1.659-1.023-3.456-3.46c-1.923-3.251-4.447-8.518-5.365-10.465    C371.52,494.97,373.2,494.742,374.812,493.886z M331.98,489.278l11.368-29.301l10.484,29.049L331.98,489.278z" fill="#ffb400" data-original="#000000" className=""></path>
	</g>
</g>
<g xmlns="http://www.w3.org/2000/svg">
	<g>
		<path d="M476.114,493.808c-2.885-0.881-2.115,6.921-9.445,7.218c-2.311,0.091-14.613,0.578-22.341,0.52    c10.024-7.645,19.944-18.429,22.391-21.492c25.854-36.977-13.461-47.198-32.69-36.462c-0.439,0.245-0.725,0.695-0.762,1.196    c-0.117,1.6,0.192,4.836,0.919,9.612c0.103,0.677,0.652,1.197,1.333,1.263c0.676,0.062,1.32-0.34,1.551-0.982    c5.62-15.667,23.922-12.177,24.57,4.66c0.893,23.156-29.789,45.352-32.214,48.383c-0.442,0.554-0.427,1.327-0.007,1.857    c0.002,1.877,2.378,2.117,2.908,0.585c5.043-0.029,32.42-0.187,37.487-0.133c3.673,0.266,5.489-1.869,5.57-4.256    C477.185,495.264,477.773,494.322,476.114,493.808z" fill="#ffb400" data-original="#000000" className=""></path>
	</g>
</g>
<g xmlns="http://www.w3.org/2000/svg">
	<g>
		<path d="M410.572,252.934l-124.149-82.207c-3.441-2.278-8.078-1.336-10.357,2.105c-2.279,3.442-1.336,8.078,2.105,10.357    l119.525,79.145c-1.31,5.505-2.538,12.866-3.29,16.283c-4.514,20.48-10.03,29.682-19.172,48.888    c-18.243,0.573-34.819,0.015-37.395,0.079c-0.997-0.981-99.972-106.652-104.819-111.23c-6.963-6.775-13.474-13.882-20.406-21.449    c-17.418-19.014-3.173-3.764-102.41-109.027l9.732-7.465l129.155,85.521c3.44,2.277,8.078,1.336,10.357-2.105    s1.336-8.078-2.105-10.357l-133.6-88.465c-2.658-1.761-6.143-1.639-8.674,0.302L94.543,79.055    c-2.843,2.18-3.739,6.072-2.133,9.277c0.743,1.484,234.798,249.768,235.737,250.675c0.532,0.516,0.969,0.941,1.474,1.367    c1.97,1.862,4.646,2.417,7.405,2.214c0,0,25.499,0.399,43.324-0.31c2.795-0.111,5.294-1.773,6.476-4.307    c10.843-23.242,18.043-34.063,23.333-61.985c2.201-11.611,2.506-11.955,3.344-14.357    C414.628,258.4,413.421,254.821,410.572,252.934z" fill="#ffb400" data-original="#000000" className=""></path>
	</g>
</g>
<g xmlns="http://www.w3.org/2000/svg">
	<g>
		<path d="M443.386,99.391c0.014,0.525,0.026,1.09,0.035,1.688c0.064,4.127,3.49,7.402,7.588,7.357    c4.127-0.064,7.42-3.462,7.356-7.588c-0.013-0.821-0.028-1.508-0.04-1.907c0.039-0.394,0.055-0.79,0.046-1.187    c-1.526-72.221-1.618-56.671-0.149-78.887c0.359-5.44-3.774-10.169-9.213-10.54l-72.794-4.98    c-49.289-3.984-26.873-3.311-159.179-3.294c-0.459,0-156.016,9.185-156.476,9.213c-5.417,0.323-9.591,4.994-9.307,10.409    c12.719,244.021,12.2,203.511,5.738,365.241c-0.189,4.728,3.015,8.95,7.622,10.04c15.977,3.778,14.604,2.313,47.876,2.338    c0.936,0.047-3.182,0.442,64.596-6.951c92.348,15.139,88.567,14.657,90.325,14.505c104.15-8.729,74.292-6.61,140.027-10.253    l38.445,7.777c6.203,1.24,11.931-3.536,11.865-9.823c-0.51-47.455-0.433-106.788,0.206-158.717c0-0.036,0-0.071,0-0.107    c-0.192-101.614-0.214-90.085-0.053-97.012l0.016-0.703l-7.471-0.17l-7.473-0.107l-0.015,0.628    c-0.056,2.374-0.1,4.269-0.124,5.562c-0.001,0.051-0.001,0.102-0.001,0.152c0.304,160.449-0.945,154.831-0.096,244.41    l-33.275-6.731c-0.624-0.126-1.261-0.172-1.895-0.136c-71.132,3.942-30.631,1.052-140.785,10.283    c-94.289-15.456-88.818-14.69-90.303-14.527l-63.926,6.973c-31.398-0.023-30.716,1.048-40.459-1.021    c6.264-156.801,7.393-107.11-5.654-357.434l150.741-8.892c137.378-0.018,89.505-1.428,225.795,7.896    c-1.188,17.963-1.123,0.7,0.442,74.721c-0.044,0.363-0.061,0.728-0.051,1.095L443.386,99.391z" fill="#ffb400" data-original="#000000" className=""></path>
	</g>
</g>
<g xmlns="http://www.w3.org/2000/svg">
	<g>
		<path d="M215.355,318.006c-3.765-5.874-30.438-33.113-39.35-41.599c-49.421-45.826-47.326-48.601-59.574-17.457    c-18.321,46.596-27.671,55.082-11.954,64.361c30.394,17.923,25.021,35.413,72.263,16.566c10.861-4.338,13.657-5.38,30.125-9.534    l0.039-0.011c3.198-0.807,4.062-1.028,4.759-1.287C216.136,327.387,217.924,322.014,215.355,318.006z M140.438,332.004    c-3.627-2.541-15.161-13.79-28.744-21.788c0.982-3.634,4.457-11.732,7.329-18.426c6.199-14.424,13.744-33.469,14.159-34.466    c1.01,0.844,34.624,30.238,62.157,60.552C168.403,325.03,153.998,336.172,140.438,332.004z" fill="#ffb400" data-original="#000000" className=""></path>
	</g>
</g>
<g xmlns="http://www.w3.org/2000/svg">
	<g>
		<path d="M380.104,86.109c-5.405-6.775-22.702-15.883-28.557-17.913c-1.843-0.64-3.863-0.533-5.629,0.298    c-11.867,5.579-13.652,6.317-27.312,9.741l-27.936,6.295c-0.095,0.021-0.188,0.044-0.282,0.069    c-0.453,0.121-0.816,0.209-1.117,0.282c-0.763,0.189-2.184,0.541-3.56,1.648c-0.64,0.514-1.188,1.129-1.625,1.817    c-1.247,1.442-1.903,3.314-1.814,5.234c0.1,2.141,1.113,4.138,2.784,5.481l18.827,15.128c9.67,7.8,40.343,30.495,49.731,36.796    c1.048,0.702,1.574,1.188,2.188,1.755c3.285,3.026,5.919,3.821,10.988,3.821c0.813,0,1.69-0.02,2.641-0.056    c3.654-0.134,6.674-2.894,7.137-6.521l6.136-48.019c0.16-0.763,0.313-1.417,0.449-1.995    C384.434,94.502,384.293,91.368,380.104,86.109z M368.603,96.566c-0.171,0.728-0.367,1.567-0.553,2.475    c-0.055,0.25-0.099,0.508-0.143,0.826l-5.03,39.358c-0.292-0.21-0.603-0.427-0.938-0.652c-9.176-6.16-39.199-28.376-48.683-36.027    l-7.567-6.08l16.292-3.671c0.058-0.013,0.116-0.027,0.173-0.041c13.531-3.391,16.756-4.502,27.155-9.343    c6.388,2.916,16.927,9.281,19.108,12.016c0.135,0.169,0.249,0.316,0.346,0.442C368.711,96.099,368.655,96.343,368.603,96.566z" fill="#ffb400" data-original="#000000" className=""></path>
	</g>
</g>
<g xmlns="http://www.w3.org/2000/svg">
</g>
<g xmlns="http://www.w3.org/2000/svg">
</g>
<g xmlns="http://www.w3.org/2000/svg">
</g>
<g xmlns="http://www.w3.org/2000/svg">
</g>
<g xmlns="http://www.w3.org/2000/svg">
</g>
<g xmlns="http://www.w3.org/2000/svg">
</g>
<g xmlns="http://www.w3.org/2000/svg">
</g>
<g xmlns="http://www.w3.org/2000/svg">
</g>
<g xmlns="http://www.w3.org/2000/svg">
</g>
<g xmlns="http://www.w3.org/2000/svg">
</g>
<g xmlns="http://www.w3.org/2000/svg">
</g>
<g xmlns="http://www.w3.org/2000/svg">
</g>
<g xmlns="http://www.w3.org/2000/svg">
</g>
<g xmlns="http://www.w3.org/2000/svg">
</g>
<g xmlns="http://www.w3.org/2000/svg">
</g>
</g></svg>