<svg xmlns="http://www.w3.org/2000/svg" version="1.1" xmlns:xlink="http://www.w3.org/1999/xlink" xmlns:svgjs="http://svgjs.com/svgjs" width="512" height="512" x="0" y="0" viewBox="0 0 512 512" style="enable-background:new 0 0 512 512" xml:space="preserve" className=""><g><g xmlns="http://www.w3.org/2000/svg"><path d="m316.047 396.427c.205-.073.407-.155.605-.246 1.821-.832 4.642-1.916 6.157-2.498.585-.225 1.026-.398 1.26-.494v.001c11.205-4.649 18.364-13.063 20.703-24.332 2.288-11.024-.172-24.197-5.845-38.338 35.583-1.886 59.966 3.316 90.599 13.231 5.448 1.761 10.306 2.47 14.6 2.469 11.213 0 18.571-4.837 22.478-8.416 8.744-8.011 12.447-20.534 9.665-32.684-3.08-13.451-13.291-23.699-28.013-28.115-26.02-7.807-79.255-23.777-137.714 4.902-5.727-7.787-11.882-15.482-18.241-22.918l103.39-85.864c.177-.147.347-.302.51-.464 3.354-3.353 5.203-7.821 5.203-12.581 0-4.761-1.849-9.229-5.205-12.584l-32.159-32.113c-6.936-6.934-18.226-6.935-25.164 0-.163.163-.317.332-.465.509l-31.548 37.931c-2.648 3.184-2.214 7.913.971 10.562s7.914 2.214 10.562-.97l31.256-37.58c1.086-.911 2.769-.858 3.787.161l32.159 32.113c.701.701.807 1.537.807 1.972 0 .399-.089 1.136-.645 1.797l-103.403 85.872c-2.885-3.155-5.788-6.243-8.691-9.247-.06-.062-.121-.123-.184-.183-3.163-3.054-6.418-6.108-9.747-9.141l31.852-38.295c2.649-3.185 2.215-7.913-.97-10.562-3.184-2.648-7.913-2.214-10.561.97l-31.582 37.969c-6.928-5.9-14.077-11.617-21.312-16.976 32.605-57.434 19.2-111.934 12.642-138.589-3.664-14.914-13.382-25.621-26.664-29.376-12.011-3.395-24.72-.324-33.166 8.014-5.211 5.144-13.153 16.753-7.793 36.694 8.621 32.161 12.57 57.712 8.145 95.269-15.253-6.521-29.491-9.488-41.27-7.042-11.269 2.339-19.683 9.494-24.332 20.69-.095.232-.269.673-.494 1.257-.582 1.515-1.666 4.334-2.499 6.153-.091.198-.173.401-.247.606l-9.499 26.687c-.01.027-.023.053-.033.08l-16.022 45.006c-.02.057-.033.115-.052.173l-23.065 64.802c-.022.057-.05.11-.07.167l-6.995 19.683-31.542 88.619c-5.795 16.324-4.06 30.031 4.738 37.759 4.73 5.356 11.677 8.087 20.085 8.087 5.365 0 11.326-1.113 17.679-3.366l88.483-31.46 19.871-7.054c.057-.02.109-.048.165-.069l64.82-23.047c.063-.021.128-.036.191-.059l45.027-16.014c.029-.01.056-.024.085-.035zm127.898-105.055c12.881 3.864 16.62 12.37 17.702 17.096 1.557 6.796-.476 13.969-5.176 18.276-5.177 4.743-13.11 5.715-22.33 2.734-33.256-10.764-60.986-16.487-102-13.561-3.715-7.097-8.063-14.327-12.874-21.557 52.441-24.658 100.853-10.135 124.678-2.988zm-253.278-216.231c-2.512-9.345-1.147-17.204 3.844-22.131 4.544-4.485 11.825-6.154 18.548-4.255 4.667 1.319 12.974 5.479 16.179 18.523 6.034 24.523 18.31 74.444-10.396 126.298-6.787-4.561-13.58-8.721-20.27-12.343 5.723-42.764 1.6-70.636-7.905-106.092zm-61.157 126.148c.994-2.211 2.108-5.111 2.72-6.702.149-.388.262-.683.325-.839.007-.016.014-.032.02-.048 2.774-6.681 7.073-10.416 13.528-11.756 9.837-2.041 23.895 1.597 40.35 9.842.37.23.765.426 1.178.59 8.993 4.595 18.679 10.542 28.776 17.682.269.226.551.442.858.633.033.021.069.034.103.054 14.659 10.448 30.149 23.364 45.604 38.277 4.453 4.61 8.721 9.222 12.807 13.816.02.025.037.052.057.077.061.074.13.138.194.209 9.725 10.952 18.369 21.785 25.75 32.191.235.402.5.776.795 1.117 7.423 10.562 13.519 20.661 18.119 29.974.177.475.398.925.662 1.346 7.46 15.47 10.675 28.681 8.729 38.06-1.339 6.453-5.077 10.751-11.763 13.525-.016.007-.032.014-.048.021-.157.063-.452.176-.842.325-1.592.611-4.492 1.725-6.705 2.718l-18.824 6.693c-9.934-31.827-37.65-66.505-54.174-85.231-2.741-3.105-7.48-3.401-10.586-.661s-3.402 7.48-.661 10.586c26.273 29.775 44.606 58.58 51.281 80.334l-32.215 11.454c-12.317-24.289-33.215-52.243-59.505-79.486-.063-.065-.127-.129-.192-.192-27.257-26.275-55.223-47.16-79.525-59.471l11.455-32.185c22.705 7.007 53.621 27.014 84.385 54.812 3.073 2.777 7.815 2.536 10.593-.537 2.777-3.073 2.537-7.816-.537-10.593-32.442-29.314-64.444-49.933-89.41-57.815zm50.023 227.756c-11.793-17.294-26.756-35.473-43.576-52.899-.063-.065-.126-.128-.191-.19-17.436-16.812-35.624-31.765-52.924-43.55l18.407-51.715c22.396 11.692 48.933 31.671 74.094 55.91 24.249 25.144 44.238 51.664 55.937 74.046zm-25.066 8.912-26.597 9.442c-8.983-11.417-18.884-22.735-29.487-33.707-.061-.062-.122-.123-.184-.183-10.976-10.597-22.3-20.492-33.721-29.469l9.361-26.34 3.798-10.67c15.6 10.925 31.903 24.483 47.622 39.629 15.15 15.705 28.713 31.997 39.644 47.587zm-88.777 31.565c-10.203 3.618-18.299 3.357-21.658-.697-.303-.366-.64-.702-1.006-1.004-4.051-3.337-4.306-11.422-.686-21.621l16.807-47.221c9.655 7.79 19.224 16.24 28.541 25.231 8.992 9.309 17.445 18.87 25.237 28.516z" fill="#8af9ad" data-original="#000000" className=""></path><path d="m387.658 63.847 18.932 13.374c.072.164.23.598.412 1.58l4.043 21.888c.355 2.336 1.222 7.516 6.148 9.521 1.129.459 2.225.648 3.268.648 3.595 0 6.561-2.242 8.052-3.368l17.54-13.507c.374-.243 1.387-.506 1.808-.49l22.011 2.929c2.325.292 7.77.977 11.101-3.27 3.284-4.186 1.45-9.138.613-11.327l-7.477-20.994c-.329-.936-.403-1.376-.42-1.541l9.701-21.097c1.067-2.139 3.371-6.92.559-11.378-2.861-4.534-8.233-4.436-10.539-4.391l-23.218.453-16.662-16.149c-1.517-1.463-5.55-5.348-10.92-3.915-5.371 1.434-6.928 6.811-7.513 8.835-.003.012-.007.023-.01.035l-6.336 22.278-20.375 11.231c-2.002 1.109-6.69 3.705-6.901 9.062-.207 5.277 4.191 8.274 6.183 9.593zm28.986-17.11c4.481-2.488 5.594-5.33 6.419-8.266l4.682-16.462 11.799 11.436.441.432c2.148 2.116 4.493 4.014 9.549 4.014.073 0 .147 0 .223-.001l17.421-.34-7.171 15.594c-2.254 4.947-1.207 9.372-.035 12.697l5.284 14.837-15.358-2.044c-4.24-.596-9.576.823-12.961 3.442l-12.323 9.488-2.86-15.487c-.591-3.195-1.892-7.81-6.381-11.015l-14.01-9.898z" fill="#8af9ad" data-original="#000000" className=""></path><path d="m281.649 75.074 15.892 9.202c2.133 1.215 4.456 1.801 6.79 1.801 4.448 0 8.933-2.13 12.194-6.097l29.323-35.296c2.4-2.885 3.38-6.732 2.687-10.555-.771-4.256-3.485-8.084-7.263-10.244l-29.232-16.886c-3.776-2.171-8.465-2.581-12.542-1.099-3.639 1.323-6.46 4.091-7.733 7.566l-15.925 42.992c-2.771 7.402-.374 15.062 5.809 18.616zm8.248-13.382 15.306-41.32 27.936 16.138-28.175 33.916c-.193.235-.376.401-.523.514l-14.731-8.53c.024-.185.078-.428.187-.718z" fill="#8af9ad" data-original="#000000" className=""></path><path d="m508.469 140.77c-3.222-3.822-8.152-6.103-13.189-6.103h-44.268c-5.031 0-9.962 2.285-13.188 6.112-2.864 3.398-4.045 7.579-3.326 11.77l10.146 59.297c1.577 9.18 8.214 15.347 16.514 15.347h24.004c8.301 0 14.937-6.167 16.516-15.356l10.114-59.285c.723-4.199-.458-8.384-3.323-11.782zm-21.575 68.537c-.238 1.389-.969 2.888-1.731 2.888h-24.004c-.852 0-1.525-1.689-1.73-2.883l-10.083-58.929c.293-.307.985-.716 1.667-.716h44.268c.686 0 1.378.405 1.669.707z" fill="#8af9ad" data-original="#000000" className=""></path><path d="m42.252 237.154c1.358 0 2.738-.178 4.118-.543l23.162-6.218c8.053-2.133 12.879-9.814 12.009-19.109l-5.585-59.913c-.399-4.245-2.635-7.979-6.295-10.517-4.106-2.846-9.452-3.762-14.282-2.453l-42.742 11.454c-4.867 1.294-9.043 4.768-11.171 9.294-1.895 4.029-1.953 8.383-.167 12.249l25.149 54.655c3.226 6.988 9.263 11.101 15.804 11.101zm-25.759-72.804.021-.006 42.766-11.46c.653-.18 1.419.037 1.775.254l5.55 59.541c.13 1.395-.182 3.02-.938 3.22l-23.162 6.218c-.828.223-1.928-1.243-2.435-2.344l-24.995-54.32c.204-.366.764-.93 1.418-1.103z" fill="#8af9ad" data-original="#000000" className=""></path><path d="m378.625 452.556-45.212-32.014c-7.247-5.165-15.908-4.842-21.555.802l-15.613 15.605c-5.651 5.647-5.974 14.31-.817 21.536l32.036 45.194c2.365 3.351 6.01 5.398 10.263 5.764.448.038.896.057 1.346.057 4.316 0 8.606-1.757 11.691-4.84l28.828-28.813c3.405-3.403 5.194-8.274 4.787-13.031-.363-4.256-2.411-7.903-5.754-10.26zm-9.635 12.68-28.828 28.814c-.226.225-.569.363-.838.42l-31.672-44.679c-.797-1.117-.892-2.012-.803-2.233l15.637-15.64c.029-.008.074-.013.133-.013.338 0 1.134.17 2.107.864l44.682 31.638c-.058.268-.196.607-.418.829z" fill="#8af9ad" data-original="#000000" className=""></path><path d="m48.647 64.259c.002.019.049.47-.497 2.011l-8.126 22.792c-.874 2.271-2.785 7.4.569 11.676 3.405 4.342 8.859 3.645 11.521 3.305l23.785-3.18c.609-.059 1.998.316 2.449.63l19.106 14.754c1.628 1.226 4.618 3.478 8.251 3.478 1.061 0 2.177-.192 3.33-.658 5.027-2.033 5.939-7.426 6.32-9.827l4.36-23.737c.308-1.623.562-2.008.617-2.057l20.704-14.639c2.215-1.477 6.639-4.496 6.409-9.884-.233-5.451-5.107-8.129-7.177-9.266l-22.332-12.321-6.97-24.428c-.601-2.121-2.195-7.723-7.679-9.199-5.49-1.479-9.689 2.58-11.272 4.112l-17.841 17.273-.426.418-25.466-.486c-2.385-.055-7.969-.184-10.896 4.447-2.883 4.561-.544 9.375.661 11.771zm25.335-23.74c5.377.11 7.763-1.816 10.117-4.15l14.07-13.632 5.388 18.882c.891 3.168 2.007 6.001 6.686 8.605l17.464 9.635-16.011 11.321c-4.63 3.245-6.022 7.861-6.726 11.566l-3.274 17.824-14.21-10.972c-3.022-2.31-7.526-3.731-11.551-3.731-.676 0-1.339.04-1.979.123l-17.759 2.374 6.086-17.07c1.236-3.489 2.351-8.155-.023-13.327l-8.209-17.829z" fill="#8af9ad" data-original="#000000" className=""></path><path d="m501.788 392.571-24.812-6.135-13.055-21.803c-1.122-1.886-4.1-6.895-9.789-6.91-.008 0-.017 0-.024 0-5.675 0-8.68 4.995-9.813 6.877-.002.004-.005.009-.008.013l-12.772 21.326-.295.497-24.829 6.139c-2.309.577-7.714 1.927-9.329 7.135-1.595 5.139 1.9 9.19 3.669 11.19l16.224 19.524c.017.044.161.478.033 2.088l-1.92 24.14c-.268 2.428-.793 7.851 3.523 11.123 4.394 3.331 9.5 1.272 12.034.249l22.186-9.249c.559-.21 1.989-.215 2.541-.013l22.312 9.289c1.445.587 3.817 1.55 6.425 1.55 1.795 0 3.701-.456 5.495-1.805 4.34-3.263 3.826-8.713 3.574-11.127l-1.951-24.154c-.127-1.613.017-2.047.044-2.093l16.241-19.521c1.765-1.996 5.255-6.038 3.659-11.182-1.617-5.212-7.033-6.566-9.363-7.148zm-22.062 28.252c-3.635 4.358-3.765 9.17-3.471 12.888l1.463 18.115-16.593-6.909c-4.178-1.745-9.812-1.749-14.049-.001l-16.577 6.911 1.442-18.127c.294-3.704.166-8.516-3.461-12.866l-12.589-15.157 19.391-4.794c5.232-1.281 7.055-3.761 8.741-6.632l10.074-16.826 9.725 16.237.351.593c1.687 2.869 3.509 5.348 8.721 6.624l19.427 4.804z" fill="#8af9ad" data-original="#000000" className=""></path></g></g></svg>