<svg xmlns="http://www.w3.org/2000/svg" version="1.1" xmlns:xlink="http://www.w3.org/1999/xlink" xmlns:svgjs="http://svgjs.com/svgjs" width="512" height="512" x="0" y="0" viewBox="0 0 340 340" style="enable-background:new 0 0 512 512" xml:space="preserve" classname=""><g><linearGradient xmlns="http://www.w3.org/2000/svg" id="linear-gradient" gradientUnits="userSpaceOnUse" x1="178.177" x2="178.177" y1="252.738" y2="149.723"><stop offset="0" stop-color="#ff9189"></stop><stop offset="1" stop-color="#ffd37e"></stop></linearGradient><linearGradient xmlns="http://www.w3.org/2000/svg" id="linear-gradient-2" x1="170.458" x2="170.458" xmlns:xlink="http://www.w3.org/1999/xlink" xlink:href="#linear-gradient" y1="22.592" y2="148.853"></linearGradient><linearGradient xmlns="http://www.w3.org/2000/svg" id="linear-gradient-3" gradientUnits="userSpaceOnUse" x1="171.849" x2="171.849" y1="-12.857" y2="155.211"><stop offset="0" stop-color="#edd0c5"></stop><stop offset="1" stop-color="#bca295"></stop></linearGradient><linearGradient xmlns="http://www.w3.org/2000/svg" id="linear-gradient-4" x1="177.738" x2="177.738" xmlns:xlink="http://www.w3.org/1999/xlink" xlink:href="#linear-gradient-3" y1="146.867" y2="216.314"></linearGradient><linearGradient xmlns="http://www.w3.org/2000/svg" id="linear-gradient-5" x1="170" x2="170" xmlns:xlink="http://www.w3.org/1999/xlink" xlink:href="#linear-gradient-3" y1="119.547" y2="345.456"></linearGradient><path xmlns="http://www.w3.org/2000/svg" d="m111.159 275.888a28.308 28.308 0 0 0 25.609-9.457c11.135-12.526 27.558-9.743 41.476-2.5 0 0 16.423-13.64 36.744-3.062s21.434 27.882 21.434 27.882l-47.322 31.961h-41.754z" fill="#34363a" data-original="#34363a" classname=""></path><path xmlns="http://www.w3.org/2000/svg" d="m144.05 139.914s19.318 8.044 19.318 30.086v94.8s.035 18.693-13.71 29c0 0 1.475 14.105 30.412 12.641s23.813-20.464 23.813-20.464c-5.025-4.395-8.83-10.875-8.83-20.425v-102.761s-.375-15.376 17.251-27v-14.25h-67.879z" fill="url(#linear-gradient)" data-original="url(#linear-gradient)"></path><path xmlns="http://www.w3.org/2000/svg" d="m162.075 160.59c7.3 2.267 22.7 7.042 32.978 10.143v-7.942s-1.1-14.643 16.386-19.389l.865-21.863h-67.879l-1.916 24.6s14.218-4.175 19.566 14.451z" fill="#34363a" data-original="#34363a" classname=""></path><path xmlns="http://www.w3.org/2000/svg" d="m50.292 116.253s-16.021-14.461-6.883-36.315c9.039-21.615 38.213-21.005 38.213-21.005s3.916-41.3 55.539-30.974c0 0 9.969-17.959 42.011-17.959s35.246 25.792 35.246 25.792 42.366-13.529 55.539 30.262c0 0 37.382 4.628 29.194 43.79l-36.314 9.256c-51.463 9.616-128.754 5.155-212.545-2.847z" fill="url(#linear-gradient-2)" data-original="url(#linear-gradient-2)" classname=""></path><path xmlns="http://www.w3.org/2000/svg" d="m149.908 313.4c14.4-2.62 21.516-17.842 24.841-28.977a1.752 1.752 0 0 1 3.428.514c-.014 10.133-1.5 24.793-8.379 37.764z" fill="#34363a" data-original="#34363a" classname=""></path><path xmlns="http://www.w3.org/2000/svg" d="m131.141 52.166c-12.8 1.867-16.243 10.877-16.243 10.877s-19.536-9.154-31.419.533c-5.556 4.524-7.731 9.424-8.473 13.347a1.954 1.954 0 0 1 -3.784.168c-1.78-5.655-1.845-13.713 6.844-21.373 15.682-13.825 34.563-1.445 34.563-1.445s6.528-9.22 18.8-4.779a1.383 1.383 0 0 1 -.288 2.672z" fill="#34363a" data-original="#34363a" classname=""></path><path xmlns="http://www.w3.org/2000/svg" d="m237.779 58.56a1.86 1.86 0 0 1 -2.839 2.26c-5.027-3.867-11.663-5.574-19.276-5.574-16.351 0-21.484 14.656-21.484 14.656-39.547-6.752-51.9 22.533-51.9 22.533-7.757-3.679-14.057-3.25-18.3-2a1.764 1.764 0 0 1 -1.684-2.994c3.3-2.984 8.756-5.713 17.252-4.4 0 0 10.515-27.863 48.907-24.137 0 0 5.342-12.459 28.61-12.556 12.093-.048 17.935 6.528 20.714 12.212z" fill="#34363a" data-original="#34363a" classname=""></path><path xmlns="http://www.w3.org/2000/svg" d="m208.274 50.974h11.226a19.383 19.383 0 0 0 3.92-16.872 48.713 48.713 0 0 0 -9 1.69s1.373 11.374-6.146 15.182z" fill="#34363a" data-original="#34363a" classname=""></path><path xmlns="http://www.w3.org/2000/svg" d="m270.3 78.966a1.354 1.354 0 0 0 2.4 1.041 27.4 27.4 0 0 0 5.594-11.716 40.086 40.086 0 0 0 -8.337-2.238 46.662 46.662 0 0 1 .343 12.913z" fill="#34363a" data-original="#34363a" classname=""></path><path xmlns="http://www.w3.org/2000/svg" d="m195.053 214.896h-31.685v20.461l31.685 9.554z" fill="#34363a" data-original="#34363a" classname=""></path><path xmlns="http://www.w3.org/2000/svg" d="m321.482 116.089c-7.892-6.6-22.355-12.672-47.663-7.066 0 0-23.474-16.061-46.021-.309a35.6 35.6 0 0 0 -40.364.656 2.833 2.833 0 0 0 -.606 4.019c1.341 1.753 3.917 3.949 8.712 4.95l4.982.555a1.021 1.021 0 0 1 .039 2.025l-5.917.892a14.945 14.945 0 0 1 -11.152-2.463l-16.951-11.83c-.281-.173-.56-.342-.843-.526a25.612 25.612 0 0 0 -15.038-4.363 40.69 40.69 0 0 0 -17.487 4.671 16.553 16.553 0 0 1 -13.871.7c-5.572-2.176-14.107-3.142-24.01 3.807 0 0-20.878-18.532-45.365-1.128a23.265 23.265 0 0 1 -13.417 4.14 16.658 16.658 0 0 0 -10.39 3.642 14.184 14.184 0 0 0 -4.061 4.958c.358 7.577 4.009 12.97 12.9 14.89l57.244-7.8 39.176 9.207 46.359-3.116 63.6 3.116 34.168-15.155 37.313 7.148c6.268-3.793 9.588-8.817 8.663-15.62z" fill="url(#linear-gradient-3)" data-original="url(#linear-gradient-3)" classname=""></path><circle xmlns="http://www.w3.org/2000/svg" cx="148.411" cy="46.347" fill="#34363a" r="3.658" data-original="#34363a" classname=""></circle><circle xmlns="http://www.w3.org/2000/svg" cx="246.415" cy="73.049" fill="#34363a" r="3.658" data-original="#34363a" classname=""></circle><circle xmlns="http://www.w3.org/2000/svg" cx="296.367" cy="214.04" fill="#34363a" r="3.658" data-original="#34363a" classname=""></circle><circle xmlns="http://www.w3.org/2000/svg" cx="176.412" cy="268.624" fill="#34363a" r="3.658" data-original="#34363a" classname=""></circle><path xmlns="http://www.w3.org/2000/svg" d="m228.055 295.173s-14.391-.661-24.167-9.208c-3.673 6.567-12.306 18.163-27.476 18.163-14.228 0-22.722-6.25-26.764-10.347a32.608 32.608 0 0 1 -13.848 5.892l13.784 17.251h78.471z" fill="#34363a" data-original="#34363a" classname=""></path><path xmlns="http://www.w3.org/2000/svg" d="m175.35 159.251 2.214 19.917a1.777 1.777 0 0 0 3.486.252l5.242-20.109z" fill="#34363a" data-original="#34363a" classname=""></path><path xmlns="http://www.w3.org/2000/svg" d="m168.214 226.935s7.336 2.69 7.336 13.2v9.775a1.366 1.366 0 0 0 2.683.36l6.378-23.34z" fill="#34363a" data-original="#34363a" classname=""></path><path xmlns="http://www.w3.org/2000/svg" d="m234.788 195.842c-17.134-6.1-24.906 4.191-24.906 4.191-10.263-7.27-18.893-5.839-24.689-2.95-.1.052-.208.1-.312.152a1.854 1.854 0 0 0 -.829 2.587l2.721 4.831a1.843 1.843 0 0 1 -2.72 2.33l-13.887-10.073.026.008c-.141-.081-.285-.156-.424-.242-14.538-8.975-27.491 1.879-27.491 1.879-19.054-8.363-25.492 3.124-25.492 3.124s-6.586 10.247 1.008 14.538c8.847 5 86.9 6.743 111.776-1.321 22.99-7.452 5.219-19.054 5.219-19.054z" fill="url(#linear-gradient-4)" data-original="url(#linear-gradient-4)"></path><path xmlns="http://www.w3.org/2000/svg" d="m10 293.864s-.674-30.382 33.314-36.795c16.17-3.052 27.063 4.755 32.889 13.87 0 0 24.433-21.547 53.3 17.713a58.567 58.567 0 0 0 39.417 23.734 88.523 88.523 0 0 0 11.432.718c14.947 0 25.444-11.437 32.413-23.738 0 0 13.357-23.7 41.038-8.718 0 0-4.659-19.7 12.334-29.405s27.407 2.5 27.407 2.5 33.439-1.667 36.456 41.057v9.558a25.5 25.5 0 0 1 -25.342 25.642h-164.932s-105.755-17.093-129.726-36.136z" fill="url(#linear-gradient-5)" data-original="url(#linear-gradient-5)"></path><g xmlns="http://www.w3.org/2000/svg" fill="#34363a"><path d="m139.726 330h-105.319a24.553 24.553 0 0 1 -24.407-24.7v-11.436c0-14.74 16.843-23.359 28.269-14.22a36.535 36.535 0 0 1 9.839 12.98s31.713-18.156 39.08 10.7a14.672 14.672 0 0 1 16.4-1.956 16.118 16.118 0 0 1 6.943 6.653 46.965 46.965 0 0 0 29.195 21.979z" fill="#34363a" data-original="#34363a" classname=""></path><path d="m279.258 280.787a1.664 1.664 0 0 1 -1.744 2.631c-23.112-5.89-30.186 12.178-30.186 12.178-4.168 12.015-10.9 15.635-15.976 16.5a2.216 2.216 0 0 1 -1.847-3.829c3.433-3.117 7.779-8.607 10.212-17.644 0 0 3.277-13.847 16.49-16.595 10.421-2.163 19.21 2.082 23.051 6.759z" fill="#34363a" data-original="#34363a" classname=""></path><path d="m283.9 248.115c-6.551 5.01-6.163 11.35-4.837 15.567a1.28 1.28 0 0 0 2.464-.09c2.062-9.529 12.019-9.852 12.019-9.852l-.087-.1a20.315 20.315 0 0 0 -9.559-5.525z" fill="#34363a" data-original="#34363a" classname=""></path><circle cx="292.098" cy="291.708" r="3.658" fill="#34363a" data-original="#34363a" classname=""></circle><path d="m272.5 212.388a143.506 143.506 0 0 1 -29.59-12.737 49.779 49.779 0 0 0 -8.123-3.806c3.147 3.621 3.805 7.936-2.5 12.349-8.879 6.214-16.83 5.6-22.192 3.782a16.036 16.036 0 0 0 -12.98 1.287c-3.631 2.03-9.289 4.089-17.9 4.946-10.861 1.082-18.722-1.5-23.551-4a18.166 18.166 0 0 0 -12.883-1.383c-20.075 5.167-25.991-11.142-25.991-11.142-12.956-6.253-21.732-2.6-26.012.363a22.608 22.608 0 0 1 -9.593 3.728 165.283 165.283 0 0 1 -23.439 1.759 2.416 2.416 0 0 0 -.625 4.75 90.588 90.588 0 0 0 18.7 2.751 26.471 26.471 0 0 1 10.625 2.846c7.988 3.986 16.2 3.625 21.766 2.587a20.233 20.233 0 0 1 12.499 1.532 30.088 30.088 0 0 0 22.255 1.456 20.459 20.459 0 0 1 14.4.8c26.582 11.861 44.248-.535 44.248-.535 8.643 2.2 14.966 1 19.284-.941a47.528 47.528 0 0 1 15.235-3.456c11.937-.323 25.755-1.355 35.868-2.227a2.415 2.415 0 0 0 .499-4.709z" fill="#34363a" data-original="#34363a" classname=""></path><path d="m322.227 116.73q-.363-.321-.746-.641c-9.017 15.862-31.116 8.262-43.187 4.663-6.835-2.038-15.607.114-19.669 2.1-23.448 11.451-33.632 12.342-39.227 9.48a9.831 9.831 0 0 0 -7.96-.245c-21.469 8.185-37.084.9-44.666-4.368a10.87 10.87 0 0 0 -11.2-.723c-22.506 11.6-39.684 1.293-49.093-4.383-8.159-4.922-13.124-3.455-17.048-1.072-18.152 11.02-32.156 8.919-38.133 7.954a12.024 12.024 0 0 0 -5.913.19c-12.311 4.364-22.16-.834-23.383-6.127-3.711 7.869 1 17.966 10.9 19.75a30.365 30.365 0 0 0 11.174-.5 16.744 16.744 0 0 1 12.248 1.168c3.342 1.771 8.668 3.345 17.046 3.345 11.561 0 19.289-4.051 23.6-7.262a1.776 1.776 0 0 0 .433-2.36s-1.673-3-4.107-4.091l-.654-.291a.733.733 0 0 1 .336-1.4l1.494.08a7.7 7.7 0 0 1 5.542 2.8s8.315 12.522 32.039 12.522a40.46 40.46 0 0 0 20.528-5.151 16.756 16.756 0 0 1 17.045.391c4.222 2.563 10.279 4.76 18.64 4.76 9.41 0 15.564-1.426 19.445-2.94a16.714 16.714 0 0 1 12.413.093 39.832 39.832 0 0 0 15.089 2.847 26.75 26.75 0 0 0 14.457-4.5l.021-.012 15.2-9.124a13.708 13.708 0 0 1 7.055-1.955h.952a.812.812 0 0 1 .262 1.581l-2.226.756a20.62 20.62 0 0 0 -5.933 3.1 24.571 24.571 0 0 0 -2.713 2.428.837.837 0 0 0 .368 1.392 16.465 16.465 0 0 1 3 1.181c3.851 1.974 9.5 3.6 17.678 3.6a20.713 20.713 0 0 0 18.285-10 23.686 23.686 0 0 0 17.581-.294 11.254 11.254 0 0 0 3.027-18.742z" fill="#34363a" data-original="#34363a" classname=""></path><path d="m157.368 224.263s5.979 2.749 5.979 8.3h1.63v-7.848z" fill="#34363a" data-original="#34363a" classname=""></path><path d="m211.219 224.9s-16.166.722-16.166 11.687h-1.99v-15.233h17.228z" fill="#34363a" data-original="#34363a" classname=""></path></g></g></svg>