<svg xmlns="http://www.w3.org/2000/svg" version="1.1" xmlns:xlink="http://www.w3.org/1999/xlink" xmlns:svgjs="http://svgjs.com/svgjs" width="512" height="512" x="0" y="0" viewBox="0 0 512.001 512.001" style="enable-background:new 0 0 512 512" xml:space="preserve" className=""><g>
<path xmlns="http://www.w3.org/2000/svg" style="" d="M55.597,384.258h64.129V127.742H55.597c-26.563,0-48.097,21.534-48.097,48.097v160.322  C7.5,362.724,29.034,384.258,55.597,384.258z" fill="#80eeff" data-original="#ff8087" className=""></path>
<path xmlns="http://www.w3.org/2000/svg" style="" d="M39.565,336.161V175.839c0-26.563,21.534-48.097,48.097-48.097H55.597  c-26.563,0-48.097,21.534-48.097,48.097v160.323c0,26.563,21.534,48.097,48.097,48.097h32.065  C61.098,384.258,39.565,362.724,39.565,336.161z" fill="#00a4b4" data-original="#e6646e" className=""></path>
<path xmlns="http://www.w3.org/2000/svg" style="" d="M456.403,127.742h-64.129v256.516h64.129c26.563,0,48.097-21.534,48.097-48.097V175.839  C504.5,149.276,482.966,127.742,456.403,127.742z" fill="#3b21ff" data-original="#a0e6ff" className=""></path>
<rect xmlns="http://www.w3.org/2000/svg" x="119.73" y="127.74" style="" width="272.55" height="256.52" fill="#5d5360" data-original="#5d5360" className=""></rect>
<rect xmlns="http://www.w3.org/2000/svg" x="151.79" y="159.81" style="" width="208.42" height="192.39" fill="#d2beff" data-original="#d2beff" className=""></rect>
<g xmlns="http://www.w3.org/2000/svg">
	<circle style="" cx="63.61" cy="207.9" r="24.05" fill="#5d5360" data-original="#5d5360" className=""></circle>
	<circle style="" cx="448.39" cy="304.1" r="24.05" fill="#5d5360" data-original="#5d5360" className=""></circle>
</g>
<circle xmlns="http://www.w3.org/2000/svg" style="" cx="256" cy="256" r="72.14" fill="#e6cdff" data-original="#e6cdff" className=""></circle>
<path xmlns="http://www.w3.org/2000/svg" d="M456.403,120.242H55.597C24.94,120.242,0,145.183,0,175.839v160.322c0,30.656,24.94,55.597,55.597,55.597h400.807  c30.656,0,55.597-24.941,55.597-55.597V175.839C512,145.183,487.06,120.242,456.403,120.242z M497,336.161  c0,22.385-18.211,40.597-40.597,40.597h-56.629V175.839c0-4.142-3.358-7.5-7.5-7.5s-7.5,3.358-7.5,7.5v200.919H127.226v-8.534  c0-4.142-3.358-7.5-7.5-7.5s-7.5,3.358-7.5,7.5v8.534H55.597C33.211,376.758,15,358.546,15,336.161V175.839  c0-22.385,18.211-40.597,40.597-40.597h56.629v200.919c0,4.142,3.358,7.5,7.5,7.5s7.5-3.358,7.5-7.5V135.242h257.548v8.532  c0,4.142,3.358,7.5,7.5,7.5s7.5-3.358,7.5-7.5v-8.532h56.629c22.385,0,40.597,18.212,40.597,40.597V336.161z" fill="#000000" data-original="#000000" className=""></path>
<path xmlns="http://www.w3.org/2000/svg" d="M360.209,152.307H151.791c-4.142,0-7.5,3.358-7.5,7.5v192.387c0,4.142,3.358,7.5,7.5,7.5H360.21c4.142,0,7.5-3.358,7.5-7.5  V159.807C367.709,155.665,364.352,152.307,360.209,152.307z M352.709,344.693H159.291V167.307H352.71v177.386H352.709z" fill="#000000" data-original="#000000" className=""></path>
<path xmlns="http://www.w3.org/2000/svg" d="M63.613,176.355c-17.396,0-31.548,14.152-31.548,31.548s14.152,31.548,31.548,31.548s31.548-14.152,31.548-31.548  S81.009,176.355,63.613,176.355z M63.613,224.452c-9.125,0-16.548-7.423-16.548-16.548s7.423-16.548,16.548-16.548  s16.548,7.423,16.548,16.548S72.738,224.452,63.613,224.452z" fill="#000000" data-original="#000000" className=""></path>
<path xmlns="http://www.w3.org/2000/svg" d="M47.581,288.581h-8.016c-4.142,0-7.5,3.358-7.5,7.5s3.358,7.5,7.5,7.5h8.016c4.142,0,7.5-3.358,7.5-7.5  S51.723,288.581,47.581,288.581z" fill="#000000" data-original="#000000" className=""></path>
<path xmlns="http://www.w3.org/2000/svg" d="M87.661,288.581h-8.016c-4.142,0-7.5,3.358-7.5,7.5s3.358,7.5,7.5,7.5h8.016c4.142,0,7.5-3.358,7.5-7.5  S91.803,288.581,87.661,288.581z" fill="#000000" data-original="#000000" className=""></path>
<path xmlns="http://www.w3.org/2000/svg" d="M63.613,264.533c-4.142,0-7.5,3.358-7.5,7.5v8.016c0,4.142,3.358,7.5,7.5,7.5s7.5-3.358,7.5-7.5v-8.016  C71.113,267.891,67.755,264.533,63.613,264.533z" fill="#000000" data-original="#000000" className=""></path>
<path xmlns="http://www.w3.org/2000/svg" d="M63.613,304.613c-4.142,0-7.5,3.358-7.5,7.5v8.016c0,4.142,3.358,7.5,7.5,7.5s7.5-3.358,7.5-7.5v-8.016  C71.113,307.971,67.755,304.613,63.613,304.613z" fill="#000000" data-original="#000000" className=""></path>
<path xmlns="http://www.w3.org/2000/svg" d="M448.387,272.548c-17.396,0-31.548,14.152-31.548,31.548s14.152,31.548,31.548,31.548s31.548-14.152,31.548-31.548  S465.783,272.548,448.387,272.548z M448.387,320.645c-9.125,0-16.548-7.423-16.548-16.548s7.423-16.548,16.548-16.548  s16.548,7.423,16.548,16.548S457.512,320.645,448.387,320.645z" fill="#000000" data-original="#000000" className=""></path>
<path xmlns="http://www.w3.org/2000/svg" d="M472.436,208.419h-8.016c-4.142,0-7.5,3.358-7.5,7.5s3.358,7.5,7.5,7.5h8.016c4.142,0,7.5-3.358,7.5-7.5  S476.578,208.419,472.436,208.419z" fill="#000000" data-original="#000000" className=""></path>
<path xmlns="http://www.w3.org/2000/svg" d="M424.339,223.419h8.016c4.142,0,7.5-3.358,7.5-7.5s-3.358-7.5-7.5-7.5h-8.016c-4.142,0-7.5,3.358-7.5,7.5  S420.197,223.419,424.339,223.419z" fill="#000000" data-original="#000000" className=""></path>
<path xmlns="http://www.w3.org/2000/svg" d="M448.387,247.468c4.142,0,7.5-3.358,7.5-7.5v-8.016c0-4.142-3.358-7.5-7.5-7.5s-7.5,3.358-7.5,7.5v8.016  C440.887,244.11,444.245,247.468,448.387,247.468z" fill="#000000" data-original="#000000" className=""></path>
<path xmlns="http://www.w3.org/2000/svg" d="M448.387,207.387c4.142,0,7.5-3.358,7.5-7.5v-8.016c0-4.142-3.358-7.5-7.5-7.5s-7.5,3.358-7.5,7.5v8.016  C440.887,204.029,444.245,207.387,448.387,207.387z" fill="#000000" data-original="#000000" className=""></path>
<g xmlns="http://www.w3.org/2000/svg">
</g>
<g xmlns="http://www.w3.org/2000/svg">
</g>
<g xmlns="http://www.w3.org/2000/svg">
</g>
<g xmlns="http://www.w3.org/2000/svg">
</g>
<g xmlns="http://www.w3.org/2000/svg">
</g>
<g xmlns="http://www.w3.org/2000/svg">
</g>
<g xmlns="http://www.w3.org/2000/svg">
</g>
<g xmlns="http://www.w3.org/2000/svg">
</g>
<g xmlns="http://www.w3.org/2000/svg">
</g>
<g xmlns="http://www.w3.org/2000/svg">
</g>
<g xmlns="http://www.w3.org/2000/svg">
</g>
<g xmlns="http://www.w3.org/2000/svg">
</g>
<g xmlns="http://www.w3.org/2000/svg">
</g>
<g xmlns="http://www.w3.org/2000/svg">
</g>
<g xmlns="http://www.w3.org/2000/svg">
</g>
</g></svg>