<svg xmlns="http://www.w3.org/2000/svg" version="1.1" xmlns:xlink="http://www.w3.org/1999/xlink" xmlns:svgjs="http://svgjs.com/svgjs" width="512" height="512" x="0" y="0" viewBox="0 0 128 128" style="enable-background:new 0 0 512 512" xml:space="preserve" className=""><g><path xmlns="http://www.w3.org/2000/svg" d="m127 125.739a1.021 1.021 0 0 1 -.27.76.99.99 0 0 1 -.73.32h-124a1.029 1.029 0 0 1 -.74-.32 1.013 1.013 0 0 1 -.26-.76l2.1-25.87c.01-.06.02-.11.03-.17 4.65-18.21 23.87-22.71 23.87-22.71l-.05.93a2.927 2.927 0 0 0 1.64 2.82c14.27 6.573 35.33 7.12 35.43 7.12s21.5-.727 35.4-7.13a2.925 2.925 0 0 0 1.63-2.83l-.05-.91s19.23 4.5 23.88 22.71c.01.06.02.11.03.17z" fill="#ffb400" data-original="#000000" className=""></path><path xmlns="http://www.w3.org/2000/svg" d="m94.47 31.749c-3.14-21.02-16.69-27.7-24.48-29.81a24.062 24.062 0 0 0 -11.98 0c-7.79 2.11-21.33 8.78-24.48 29.81-2.88 19.3-4.1 37.27-4.58 46.27a.961.961 0 0 0 .55.94c33.752 14.013 64.45 2.332 69.01-.01a1 1 0 0 0 .54-.94c-.48-9.07-1.72-27.13-4.58-46.26zm-13.26 26.9a1 1 0 0 0 -.16.53 86.883 86.883 0 0 1 -.89 10.56c-.245 1.416-.52 1.71-.54 1.72a7.057 7.057 0 0 1 -2.78 1.78.95.95 0 0 0 -.58.39 5.324 5.324 0 0 1 -.37.4c-3.885 3.623-15.945 6.863-24.15-.41a1.094 1.094 0 0 0 -.54-.38 6.725 6.725 0 0 1 -2.82-1.77c-.73-.86-1.3-7.05-1.42-12.29a1.009 1.009 0 0 0 -.17-.53c-1.32-2.01-4.75-7.93-4.75-11.03 0-3.48 0-13.74.44-17.95a52.482 52.482 0 0 1 40.39-.65c.94.37 1.82.75 2.69 1.16.4 4.48.4 14.17.4 17.44 0 4.017-4.74 11.02-4.75 11.03z" fill="#ffb400" data-original="#000000" className=""></path><path xmlns="http://www.w3.org/2000/svg" d="m79.72 42.829a6.481 6.481 0 0 1 -4.9 1.99 9.886 9.886 0 0 1 -4.47-1.11 6.317 6.317 0 0 1 -3.11-3.83 5.828 5.828 0 0 1 .5-4.58 4.746 4.746 0 0 1 2.85-2.21 5.984 5.984 0 0 1 4.18.38 13.839 13.839 0 0 1 4 2.72 6.566 6.566 0 0 1 1.89 3.26 3.768 3.768 0 0 1 -.94 3.38z" fill="#ffb400" data-original="#000000" className=""></path><path xmlns="http://www.w3.org/2000/svg" d="m77.5 61.249a1.008 1.008 0 0 1 .1 1.19l-4.25 6.82a.98.98 0 0 1 -.79.47l-8.5.54h-.12l-8.5-.54a1 1 0 0 1 -.79-.47l-4.25-6.82a1.008 1.008 0 0 1 .1-1.19 1 1 0 0 1 1.17-.249l4.32 1.99h16.02l4.32-1.99a1 1 0 0 1 1.17.249z" fill="#ffb400" data-original="#000000" className=""></path><path xmlns="http://www.w3.org/2000/svg" d="m60.18 52.729.98-2.12a3.6 3.6 0 0 1 6.53 0l.99 2.12a3.6 3.6 0 0 1 -3.27 5.11h-1.97a3.595 3.595 0 0 1 -3.26-5.11z" fill="#ffb400" data-original="#000000" className=""></path><path xmlns="http://www.w3.org/2000/svg" d="m53.18 44.819a6.481 6.481 0 0 1 -4.9-1.99 3.768 3.768 0 0 1 -.94-3.38c.44-2.24 2.64-4.47 5.89-5.98a5.979 5.979 0 0 1 4.18-.38 4.746 4.746 0 0 1 2.85 2.21 5.828 5.828 0 0 1 .5 4.58 6.317 6.317 0 0 1 -3.11 3.83 9.886 9.886 0 0 1 -4.47 1.11z" fill="#ffb400" data-original="#000000" className=""></path></g></svg>