<svg xmlns="http://www.w3.org/2000/svg" version="1.1" xmlns:xlink="http://www.w3.org/1999/xlink" xmlns:svgjs="http://svgjs.com/svgjs" width="512" height="512" x="0" y="0" viewBox="0 0 68 68" style="enable-background:new 0 0 512 512" xml:space="preserve" className=""><g><g xmlns="http://www.w3.org/2000/svg"><g><path d="m13.53139 52.056c-2.91003 2.63-3.02002 7.17004-.24005 9.95001 2.78003 2.78003 7.33002 2.66004 9.96002-.26001l12.91998-14.33997-8.06-8.56zm6.65997 6.96003c-1.09998 1.09003-2.89001 1.09998-3.98999.01001-1.10999-1.10999-1.10004-2.90002 0-4 1.09998-1.10004 2.88-1.10004 3.98999.01001 1.09003 1.09997 1.09003 2.88 0 3.97998z" fill="#ffb400" data-original="#000000" className=""></path><path d="m47.58138 34.736c.32996-.35999.83997-.5 1.31-.37 11.17306 3.0132 17.70508-6.49558 15.76951-14.41596-.18252-.74688-1.13479-.98872-1.67846-.44506l-6.21105 6.21105c-.5.5-1.31.5-1.82001 0l-5.33002-5.34003c-.5-.5-.5-1.31 0-1.82001l6.35156-6.35156c.53316-.53316.30081-1.42229-.41257-1.66643-7.01027-2.39913-17.90181 4.06235-14.70901 15.78802.13.47998 0 .97998-.37 1.31-.10415.09472-2.46694 2.24362-2.32001 2.10999l7.53003 7.09002z" fill="#ffb400" data-original="#000000" className=""></path><path d="m28.81136 23.676-6.15002 6.15002c-.04999.04999-.09998.09998-.15997.15002l29.04999 30.82001c2.24443 2.36348 5.95107 2.36894 8.20001.12 2.27002-2.28003 2.21997-5.99005-.13-8.20001z" fill="#ffb400" data-original="#000000" className=""></path><path d="m13.53597 36.12632 2.54022-2.54022c.59613-.59613.59613-1.56256 0-2.15869l-.70477-.70477c-.78894-.78894-.94012-2.07544-.2337-2.93896.81238-.9931 2.27985-1.04755 3.164-.16333l.79077.79077c.59613.59613 1.56256.59613 2.15869 0l7.73004-7.73004c.89856-.89856.89935-2.35474.00079-3.2533l-2.17511-2.17518c-1.19562-1.19562-1.20868-2.65533-.31226-3.55255 2.61725-2.61938 5.84283-4.90283 9.55701-6.91644.37726-.20453.24524-.77643-.18365-.78967-3.8363-.11816-7.35651.83185-10.63593 2.59528-3.6264 1.95001-5.66431 4.31134-13.73175 11.44836-.65863.58264-.6944 1.60437-.07263 2.22614l.49298.49298c.79938.79938.95258 2.10297.23676 2.97803-.82318 1.00635-2.31024 1.06152-3.20624.16553l-.65002-.65002c-.59613-.59613-1.56256-.59613-2.15869 0l-2.74133 2.74133c-.53308.53308-.53308 1.39734 0 1.93042l8.20441 8.20434c.53307.53307 1.39733.53307 1.93041-.00001z" fill="#ffb400" data-original="#000000" className=""></path></g></g></g></svg>