<svg xmlns="http://www.w3.org/2000/svg" version="1.1" xmlns:xlink="http://www.w3.org/1999/xlink" xmlns:svgjs="http://svgjs.com/svgjs" width="512" height="512" x="0" y="0" viewBox="0 0 512 512" style="enable-background:new 0 0 512 512" xml:space="preserve" className="hovered-paths"><g><g xmlns="http://www.w3.org/2000/svg" id="zombie_hand" data-name="zombie hand"><path d="m127.51 487.68c-21.07 6.1-15 9.09-40.63 10.7l-18.02 13.62h374.28l-23.4-14.88c-7.42-22.79-5.52-30.1-33.22-24 0 0-9.09-12-18.16-22.52s-22.62-5.94-22.63-10.46-10.62-19.54-22.67-19.5c-12.32-.53-14.95 11.94-27.56 21.11l-2.42-105.25c9.91-13 22.27-25 25.53-50.15 14.21-14 5-27.48 26.55-46.61l.95-4.05c11.16-13.26 16.06-16.6 18.07-22.23 4.51-3.31 9.76-7.26 6.7-15.75 1.24-1 5.67-23.79 6.17-25.79 0 0-4.12-15.7-5.34-19.64-4.09-9.45-3.65-6.94-10.45-12.63-2.77-3.63-6-6.65-9.57-7 0 0 3.95 7.16 2.81 11.68 2.31 35.22 9.94 35.8-22.95 59.57 0 0-11.43-.16-17.8 1.74l-4.46-7.6c2.07-5.19 7.33-18.53 9-23.63l4.09-4.94s6.25-4.85 7.91-9.07a8.69 8.69 0 0 1 6-5s3.45-25.7-.33-34.41c-1.35-3.12-7.23-11.87-7.23-11.87-3.47-5.32-13.55-20.85-17.26-25.66l-.17-.06-8.4-10.71c-11.21-3.38-4.47 5.92-.81 12-4.12 22-1.88 24.39 7 43l.69 7.2c-7.31 12.92-9.7 19.5-29.22 25l-.48-.51c-.35-19.92-2.77-83.9 2.08-102.43 0 0 1.54-26.46-3.63-32.53-5.58-6.54-2.64-27.67-6.32-24s-11 22.16-11 22.16c-5.8 6.33-9 19.51-6.77 37.25 4.44 12.39-3.06 105.37-18.94 97.7-13.57-7.34-16.09-42.25-19.84-59.47-4.91-27.67-20.56-51.61-30.34-67.77-10.12-33.66-14.17-29.07-14.72 8.71 8.52 61.51 37.87 111.46 19.56 176.54-5.46 6.34-10 12.3-17 13.92-8.12 1.9-30.85-4.1-33.51-7.16-11.47-15.38-26-34.22-39.41-35.33-8.88-8.53-6.11-8.13-18.42-11.34l5.78 11.37c-12.76 9.32 24 42.79 24.88 44.89l2.58 12 14.59 3.75s44.55 48.93 65.93 55.36c10 13 25.26 33 26.19 51 1 18.8.72 63-.41 90.92-17.44-6.62-30.72-13.8-44.28 6.4-10.49 15.1 1.58 21.08-22.51 24.18s-6 6.08-27.06 12.18z" fill="#ffb400" data-original="#000000" className="hovered-path"></path></g></g></svg>