<svg xmlns="http://www.w3.org/2000/svg" version="1.1" xmlns:xlink="http://www.w3.org/1999/xlink" xmlns:svgjs="http://svgjs.com/svgjs" width="512" height="512" x="0" y="0" viewBox="0 0 512 512" style="enable-background:new 0 0 512 512" xml:space="preserve" className=""><g>
<g xmlns="http://www.w3.org/2000/svg">
	<g>
		<path d="M402.286,323.509c-9.505-7.616-15.832-20.724-17.341-35.971l-1.523-15.129c-4.745-66.536-60.721-118.646-127.418-118.646    s-122.677,52.11-127.422,118.631c-0.088,1.084-0.674,7.177-1.421,14.763c-1.523,15.407-7.895,28.691-17.502,36.409    c-27.944,22.467-39.661,58.378-30.609,93.704c6.532,25.483,25.176,47.263,49.854,58.261c15.685,7.001,27.856,7.792,38.592,8.494    c13.445,0.879,25.044,1.626,45.593,16.096c8.441,5.948,17.94,9.836,27.915,11.878v-97.073l-25.6-25.6    c-5.858-5.858-5.858-15.349,0-21.207c5.858-5.858,15.349-5.858,21.207,0l19.392,19.391l19.392-19.391    c5.858-5.858,15.349-5.858,21.207,0c5.858,5.858,5.858,15.349,0,21.207l-25.6,25.6V512c9.975-2.042,19.474-5.93,27.915-11.878    c20.826-14.675,32.47-15.393,45.944-16.227c10.779-0.674,22.994-1.436,38.738-8.582c24.62-11.189,43.117-33.099,49.503-58.597    C441.902,381.55,430.098,345.844,402.286,323.509z M196.011,303.736c-8.283,0-14.997-6.715-14.997-14.997    c0-8.283,6.715-14.997,14.997-14.997s14.997,6.715,14.997,14.997C211.008,297.021,204.293,303.736,196.011,303.736z     M315.989,303.736c-8.283,0-14.997-6.715-14.997-14.997c0-8.283,6.715-14.997,14.997-14.997c8.282,0,14.997,6.715,14.997,14.997    C330.986,297.021,324.272,303.736,315.989,303.736z" fill="#ffb400" data-original="#000000" className=""></path>
	</g>
</g>
<g xmlns="http://www.w3.org/2000/svg">
	<g>
		<path d="M446.132,9.417c-1.509-3.734-4.452-6.723-8.173-8.26c-3.734-1.523-7.909-1.523-11.614,0.059    c-54.482,23.214-96.97,69.126-119.641,123.857c-0.948,2.291-1.538,4.687-2.41,7.003c50.581,16.505,90.548,57.498,104.218,109.707    c15.079-17.769,27.746-37.599,36.74-59.328C467.925,127.737,468.232,64.353,446.132,9.417z" fill="#ffb400" data-original="#000000" className=""></path>
	</g>
</g>
<g xmlns="http://www.w3.org/2000/svg">
	<g>
		<path d="M205.295,125.072C182.624,70.341,140.137,24.429,85.654,1.216c-3.705-1.611-7.88-1.611-11.614-0.059    c-3.72,1.538-6.664,4.525-8.173,8.26c-22.1,54.936-21.793,118.321,0.879,173.037c8.99,21.722,21.654,41.547,36.727,59.314    c13.606-52.136,53.592-93.176,104.23-109.695C206.833,129.759,206.244,127.361,205.295,125.072z" fill="#ffb400" data-original="#000000" className=""></path>
	</g>
</g>
<g xmlns="http://www.w3.org/2000/svg">
</g>
<g xmlns="http://www.w3.org/2000/svg">
</g>
<g xmlns="http://www.w3.org/2000/svg">
</g>
<g xmlns="http://www.w3.org/2000/svg">
</g>
<g xmlns="http://www.w3.org/2000/svg">
</g>
<g xmlns="http://www.w3.org/2000/svg">
</g>
<g xmlns="http://www.w3.org/2000/svg">
</g>
<g xmlns="http://www.w3.org/2000/svg">
</g>
<g xmlns="http://www.w3.org/2000/svg">
</g>
<g xmlns="http://www.w3.org/2000/svg">
</g>
<g xmlns="http://www.w3.org/2000/svg">
</g>
<g xmlns="http://www.w3.org/2000/svg">
</g>
<g xmlns="http://www.w3.org/2000/svg">
</g>
<g xmlns="http://www.w3.org/2000/svg">
</g>
<g xmlns="http://www.w3.org/2000/svg">
</g>
</g></svg>