<svg xmlns="http://www.w3.org/2000/svg" version="1.1" xmlns:xlink="http://www.w3.org/1999/xlink" xmlns:svgjs="http://svgjs.com/svgjs" width="512" height="512" x="0" y="0" viewBox="0 0 510 510" style="enable-background:new 0 0 512 512" xml:space="preserve" className=""><g><linearGradient xmlns="http://www.w3.org/2000/svg" id="lg1"><stop offset="0" stop-color="#fcb37e"></stop><stop offset="1" stop-color="#8c6239"></stop></linearGradient><linearGradient xmlns="http://www.w3.org/2000/svg" id="SVGID_1_" gradientTransform="matrix(0 -1 1 0 -1520.465 2274.257)" gradientUnits="userSpaceOnUse" x1="1956.253" x2="1956.129" xmlns:xlink="http://www.w3.org/1999/xlink" xlink:href="#lg1" y1="1579.59" y2="1580.206"></linearGradient><linearGradient xmlns="http://www.w3.org/2000/svg" id="lg2"><stop offset="0" stop-color="#ffdecf"></stop><stop offset="1" stop-color="#faa68e"></stop></linearGradient><linearGradient xmlns="http://www.w3.org/2000/svg" id="SVGID_2_" gradientUnits="userSpaceOnUse" x1="9.058" x2="304.783" xmlns:xlink="http://www.w3.org/1999/xlink" xlink:href="#lg2" y1="277.073" y2="513.653"></linearGradient><linearGradient xmlns="http://www.w3.org/2000/svg" id="SVGID_3_" gradientUnits="userSpaceOnUse" x1="212.826" x2="137.511" y1="426.121" y2="381.339"><stop offset="0" stop-color="#faa68e" stop-opacity="0"></stop><stop offset="1" stop-color="#faa68e"></stop></linearGradient><linearGradient xmlns="http://www.w3.org/2000/svg" id="SVGID_4_" gradientTransform="matrix(0 -1 1 0 -1520.465 2274.257)" gradientUnits="userSpaceOnUse" x1="2017.882" x2="1995.256" xmlns:xlink="http://www.w3.org/1999/xlink" xlink:href="#lg2" y1="1569.579" y2="1638.963"></linearGradient><linearGradient xmlns="http://www.w3.org/2000/svg" id="SVGID_5_" gradientTransform="matrix(0 -1 1 0 -1520.465 2274.257)" gradientUnits="userSpaceOnUse" x1="2041.789" x2="2023.844" xmlns:xlink="http://www.w3.org/1999/xlink" xlink:href="#lg2" y1="1622.187" y2="1711.165"></linearGradient><linearGradient xmlns="http://www.w3.org/2000/svg" id="lg3"><stop offset="0" stop-color="#ffdecf"></stop><stop offset="1" stop-color="#faa68e" stop-opacity="0"></stop></linearGradient><linearGradient xmlns="http://www.w3.org/2000/svg" id="SVGID_6_" gradientUnits="userSpaceOnUse" x1="82.622" x2="120.007" xmlns:xlink="http://www.w3.org/1999/xlink" xlink:href="#lg3" y1="273.628" y2="392.58"></linearGradient><linearGradient xmlns="http://www.w3.org/2000/svg" id="SVGID_7_" gradientTransform="matrix(0 -1 -1 0 3496.224 2274.257)" gradientUnits="userSpaceOnUse" x1="1956.253" x2="1956.129" xmlns:xlink="http://www.w3.org/1999/xlink" xlink:href="#lg1" y1="3045.349" y2="3045.965"></linearGradient><linearGradient xmlns="http://www.w3.org/2000/svg" id="SVGID_8_" gradientTransform="matrix(-1 0 0 1 -220.599 -2342.023)" gradientUnits="userSpaceOnUse" x1="-721.541" x2="-425.816" xmlns:xlink="http://www.w3.org/1999/xlink" xlink:href="#lg2" y1="2619.096" y2="2855.676"></linearGradient><linearGradient xmlns="http://www.w3.org/2000/svg" id="lg4"><stop offset="0" stop-color="#faa68e" stop-opacity="0"></stop><stop offset="1" stop-color="#b74b52"></stop></linearGradient><linearGradient xmlns="http://www.w3.org/2000/svg" id="SVGID_9_" gradientUnits="userSpaceOnUse" x1="375.368" x2="286.448" xmlns:xlink="http://www.w3.org/1999/xlink" xlink:href="#lg4" y1="439.864" y2="350.944"></linearGradient><linearGradient xmlns="http://www.w3.org/2000/svg" id="SVGID_10_" gradientUnits="userSpaceOnUse" x1="393.056" x2="304.136" xmlns:xlink="http://www.w3.org/1999/xlink" xlink:href="#lg4" y1="422.176" y2="333.256"></linearGradient><linearGradient xmlns="http://www.w3.org/2000/svg" id="SVGID_11_" gradientTransform="matrix(0 -1 -1 0 3496.224 2274.257)" gradientUnits="userSpaceOnUse" x1="2017.882" x2="1995.256" xmlns:xlink="http://www.w3.org/1999/xlink" xlink:href="#lg2" y1="3035.338" y2="3104.722"></linearGradient><linearGradient xmlns="http://www.w3.org/2000/svg" id="SVGID_12_" gradientTransform="matrix(0 -1 -1 0 3496.224 2274.257)" gradientUnits="userSpaceOnUse" x1="2041.789" x2="2023.844" xmlns:xlink="http://www.w3.org/1999/xlink" xlink:href="#lg2" y1="3087.946" y2="3176.924"></linearGradient><linearGradient xmlns="http://www.w3.org/2000/svg" id="SVGID_13_" gradientTransform="matrix(-1 0 0 1 -220.599 -2342.023)" gradientUnits="userSpaceOnUse" x1="-647.977" x2="-610.592" xmlns:xlink="http://www.w3.org/1999/xlink" xlink:href="#lg3" y1="2615.651" y2="2734.603"></linearGradient><linearGradient xmlns="http://www.w3.org/2000/svg" id="SVGID_14_" gradientUnits="userSpaceOnUse" x1="233.08" x2="186.932" xmlns:xlink="http://www.w3.org/1999/xlink" xlink:href="#lg4" y1="457.228" y2="338.48"></linearGradient><linearGradient xmlns="http://www.w3.org/2000/svg" id="SVGID_15_" gradientUnits="userSpaceOnUse" x1="214.077" x2="387.495" y1="100.132" y2="316.658"><stop offset="0" stop-color="#ff7044"></stop><stop offset="1" stop-color="#f82814"></stop></linearGradient><linearGradient xmlns="http://www.w3.org/2000/svg" id="lg5"><stop offset="0" stop-color="#f82814" stop-opacity="0"></stop><stop offset="1" stop-color="#c0272d"></stop></linearGradient><linearGradient xmlns="http://www.w3.org/2000/svg" id="SVGID_16_" gradientUnits="userSpaceOnUse" x1="313.673" x2="385.482" xmlns:xlink="http://www.w3.org/1999/xlink" xlink:href="#lg5" y1="259.067" y2="412.541"></linearGradient><linearGradient xmlns="http://www.w3.org/2000/svg" id="SVGID_17_" gradientUnits="userSpaceOnUse" x1="296.02" x2="67.763" xmlns:xlink="http://www.w3.org/1999/xlink" xlink:href="#lg5" y1="163.189" y2="-69.544"></linearGradient><linearGradient xmlns="http://www.w3.org/2000/svg" id="SVGID_18_" gradientUnits="userSpaceOnUse" x1="248.864" x2="700.219" xmlns:xlink="http://www.w3.org/1999/xlink" xlink:href="#lg2" y1="113.603" y2="777.69"></linearGradient><linearGradient xmlns="http://www.w3.org/2000/svg" id="SVGID_19_" gradientUnits="userSpaceOnUse" x1="82.622" x2="120.007" xmlns:xlink="http://www.w3.org/1999/xlink" xlink:href="#lg2" y1="273.628" y2="392.58"></linearGradient><g xmlns="http://www.w3.org/2000/svg"><g><g><path d="m59.046 318.055c.196-.018.391-.027.578-.027-.196.009-.391.018-.578.036z" fill="url(#SVGID_1_)" data-original="url(#SVGID_1_)"></path><path d="m176.763 249.929h-11.954s-122.067-11.334-121.345 11.636c.573 18.249-.585 36.578-3.373 54.742-.599 3.905-.91 7.905-.91 11.978v60.826 2.146l.077.163c.367 7.021 2.389 13.866 5.942 19.958l7.458 12.789c6.632 11.372 10.126 24.301 10.126 37.466v35.508c0 7.101 5.756 12.857 12.857 12.857h142.899c7.101 0 12.857-5.756 12.857-12.857v-35.501c0-13.07 4.13-25.807 11.801-36.39 7.671-10.583 11.801-23.319 11.801-36.39v-60.695c-.001-43.209-35.028-78.236-78.236-78.236z" fill="url(#SVGID_2_)" data-original="url(#SVGID_2_)"></path><path d="m255 328.162v60.696c0 6.542-1.033 12.991-3.026 19.126-1.993 6.146-4.946 11.979-8.775 17.269-7.669 10.58-11.801 23.31-11.801 36.384v35.497c0 7.106-5.76 12.866-12.855 12.866h-142.907c-7.095 0-12.855-5.76-12.855-12.866v-35.508c0-13.126-3.475-26.013-10.069-37.365l10.069 17.269h36.092c12.866 0 24.51-5.217 32.941-13.648s13.648-20.075 13.648-32.941c0-12.354-4.904-24.207-13.648-32.951l-19.888-19.877c-4.601-4.612-3.996-12.25 1.283-16.079l37.104-26.879c8.253-5.979 12.813-15.422 12.813-25.115 0-2.645-.34-5.31-1.037-7.931-.427-1.607 3.113-16.183 3.113-16.183h11.562c43.208.001 78.236 35.028 78.236 78.236z" fill="url(#SVGID_3_)" data-original="url(#SVGID_3_)"></path><g><path d="m71.999 210.398c11.573.107 21.519 7.526 26.429 18.299 2.099 4.599 3.282 9.821 3.282 15.336 0 .32 0 .632-.009.952l-.587 24.009-3.62 1.904-34.702 18.272c-8.602 4.528-15.292 11.654-19.321 20.131l-1.993-63.675c-.605-19.322 13.308-35.379 30.521-35.228z" fill="url(#SVGID_4_)" data-original="url(#SVGID_4_)"></path><path d="m127.917 199.023c16.075.187 28.84 12.676 28.84 27.701 0 .667-.027 1.334-.08 2.01l-1.886 25.351c-5.889-4.724-14.269-5.836-21.43-2.064l-32.247 16.973-3.62 1.904.934-42.201.116-2.72c.373-15.123 13.459-27.132 29.373-26.954z" fill="url(#SVGID_5_)" data-original="url(#SVGID_5_)"></path></g><path d="m62.782 441.53-17.584-30.153c-3.941-6.759-6.018-14.443-6.018-22.267v-60.826c0-16.41 9.091-31.469 23.612-39.113l70.568-37.147c10.02-5.274 22.411-.999 27.047 9.332 6.013 13.399 1.798 29.179-10.095 37.796l-37.106 26.883c-5.28 3.825-5.887 11.466-1.276 16.076l19.885 19.885c8.737 8.737 13.646 20.588 13.646 32.944 0 25.731-20.859 46.59-46.59 46.59z" fill="url(#SVGID_6_)" data-original="url(#SVGID_6_)"></path></g><g><path d="m450.954 318.055c-.195-.018-.391-.027-.578-.027.196.009.391.018.578.036z" fill="url(#SVGID_7_)" data-original="url(#SVGID_7_)"></path><path d="m333.237 249.929h11.954s122.067-11.334 121.345 11.636c-.573 18.249.585 36.578 3.373 54.742.599 3.905.91 7.905.91 11.978v60.826 2.146l-.077.163c-.367 7.021-2.389 13.866-5.942 19.958l-7.458 12.789c-6.632 11.372-10.126 24.301-10.126 37.466v35.508c0 7.101-5.756 12.857-12.857 12.857h-142.898c-7.101 0-12.857-5.756-12.857-12.857v-35.501c0-13.07-4.13-25.807-11.801-36.39-7.671-10.583-11.801-23.319-11.801-36.39v-60.695c0-43.209 35.027-78.236 78.235-78.236z" fill="url(#SVGID_8_)" data-original="url(#SVGID_8_)"></path><path d="m255 328.162v60.696c0 6.542 1.033 12.991 3.026 19.126 1.993 6.146 4.946 11.979 8.775 17.269 7.669 10.58 11.801 23.31 11.801 36.384v35.497c0 7.106 5.76 12.866 12.855 12.866h142.907c7.095 0 12.855-5.76 12.855-12.866v-35.508c0-13.126 3.475-26.013 10.069-37.365l-10.069 17.269h-36.092c-12.866 0-24.51-5.217-32.941-13.648s-13.648-20.075-13.648-32.941c0-12.354 4.904-24.207 13.648-32.951l19.888-19.877c4.601-4.612 3.996-12.25-1.283-16.079l-37.104-26.879c-8.253-5.979-12.813-15.422-12.813-25.115 0-2.645.34-5.31 1.037-7.931.427-1.607-3.113-16.183-3.113-16.183h-11.562c-43.208.001-78.236 35.028-78.236 78.236z" fill="url(#SVGID_9_)" data-original="url(#SVGID_9_)"></path><path d="m447.219 441.531h-36.092c-12.866 0-24.51-5.217-32.941-13.648s-13.648-20.075-13.648-32.941c0-12.354 4.904-24.207 13.648-32.951l19.888-19.877c4.601-4.612 3.996-12.25-1.283-16.079l-37.104-26.879c-8.253-5.979-12.813-15.422-12.813-25.115 0-2.645.34-5.31 1.037-7.931.427-1.607-3.113-16.183-3.113-16.183h-11.562c-43.208 0-78.236 35.028-78.236 78.236v60.696c0 6.542 1.033 12.991 3.026 19.126.554 1.707 1.189 3.387 1.889 5.04l96.975 96.975h77.475c7.095 0 12.855-5.76 12.855-12.865v-35.508c0-13.126 3.475-26.013 10.069-37.365z" fill="url(#SVGID_10_)" data-original="url(#SVGID_10_)"></path><g><path d="m438.001 210.398c-11.573.107-21.519 7.526-26.429 18.299-2.099 4.599-3.282 9.821-3.282 15.336 0 .32 0 .632.009.952l.587 24.009 3.62 1.904 34.702 18.272c8.602 4.528 15.292 11.654 19.321 20.131l1.993-63.675c.605-19.322-13.308-35.379-30.521-35.228z" fill="url(#SVGID_11_)" data-original="url(#SVGID_11_)"></path><path d="m382.083 199.023c-16.075.187-28.84 12.676-28.84 27.701 0 .667.027 1.334.08 2.01l1.886 25.351c5.889-4.724 14.269-5.836 21.43-2.064l32.247 16.973 3.62 1.904-.934-42.201-.116-2.72c-.373-15.123-13.459-27.132-29.373-26.954z" fill="url(#SVGID_12_)" data-original="url(#SVGID_12_)"></path></g><path d="m447.218 441.53 17.584-30.153c3.941-6.759 6.018-14.443 6.018-22.267v-60.826c0-16.41-9.091-31.469-23.612-39.113l-70.568-37.147c-10.02-5.274-22.411-.999-27.047 9.332-6.013 13.399-1.798 29.179 10.095 37.796l37.106 26.883c5.28 3.825 5.887 11.466 1.276 16.076l-19.885 19.885c-8.737 8.737-13.646 20.588-13.646 32.944 0 25.731 20.859 46.59 46.59 46.59z" fill="url(#SVGID_13_)" data-original="url(#SVGID_13_)"></path></g></g><path d="m112.148 329.84 120.329 120.329c1.685-8.95 5.322-17.467 10.722-24.916 3.829-5.29 6.782-11.123 8.775-17.269 1.993-6.135 3.026-12.584 3.026-19.126v-59.018z" fill="url(#SVGID_14_)" data-original="url(#SVGID_14_)"></path><g><path d="m255 412.425c-9.004 0-18.023-2.132-26.081-6.165-24.353-12.188-71.91-38.322-116.771-76.421-58.359-49.562-92.95-102.76-102.812-158.117-7.661-43.003 3.276-86.902 30.007-120.442 24.756-31.062 59.836-49.214 98.779-51.112 2.29-.112 4.61-.168 6.894-.168 36.486 0 70.929 14.061 96.985 39.593 4.706 4.612 9.046 9.506 12.998 14.642 3.954-5.136 8.293-10.031 13-14.644 26.054-25.53 60.499-39.591 96.986-39.591 2.284 0 4.605.057 6.894.168 38.943 1.898 74.024 20.05 98.78 51.114 26.731 33.54 37.667 77.439 30.005 120.441-9.861 55.356-44.452 108.555-102.811 158.117-44.86 38.097-92.415 64.233-116.771 76.421-8.059 4.033-17.078 6.164-26.082 6.164z" fill="url(#SVGID_15_)" data-original="url(#SVGID_15_)"></path><path d="m470.659 51.282c-9.28-11.644-20.01-21.473-31.85-29.313 21.616 32.1 29.997 71.888 23.039 110.938-9.861 55.356-44.452 108.555-102.811 158.117-44.86 38.097-92.415 64.233-116.771 76.421-8.059 4.033-17.078 6.165-26.082 6.165s-18.023-2.132-26.081-6.165c-24.353-12.188-71.91-38.322-116.771-76.421-1.922-1.632-3.814-3.269-5.685-4.909 12.848 14.853 27.681 29.441 44.501 43.725 44.861 38.099 92.418 64.233 116.771 76.421 8.059 4.033 17.078 6.165 26.081 6.165 9.004 0 18.023-2.131 26.081-6.165 24.356-12.188 71.911-38.324 116.771-76.421 58.359-49.562 92.95-102.761 102.811-158.117 7.663-43.002-3.273-86.901-30.004-120.441z" fill="url(#SVGID_16_)" data-original="url(#SVGID_16_)"></path><path d="m371.879.168c-2.29-.111-4.61-.168-6.894-.168-36.487 0-70.931 14.061-96.986 39.592-4.706 4.612-9.045 9.506-12.998 14.642v358.191c9.004 0 18.023-2.131 26.081-6.165 24.356-12.188 71.911-38.324 116.771-76.421 58.359-49.562 92.95-102.761 102.811-158.117 7.662-43.002-3.274-86.901-30.005-120.441-24.756-31.063-59.837-49.215-98.78-51.113z" fill="url(#SVGID_17_)" data-original="url(#SVGID_17_)"></path></g><path d="m447.218 441.53 17.584-30.153c3.941-6.759 6.018-14.443 6.018-22.267v-60.826c0-16.41-9.091-31.469-23.612-39.113l-70.568-37.147c-10.02-5.274-22.411-.999-27.047 9.332-6.013 13.399-1.798 29.179 10.095 37.796l37.106 26.883c5.28 3.825 5.887 11.466 1.276 16.076l-19.885 19.885c-8.737 8.737-13.646 20.588-13.646 32.944 0 25.731 20.859 46.59 46.59 46.59z" fill="url(#SVGID_18_)" data-original="url(#SVGID_18_)"></path><path d="m62.782 441.53-17.584-30.153c-3.941-6.759-6.018-14.443-6.018-22.267v-60.826c0-16.41 9.091-31.469 23.612-39.113l70.568-37.147c10.02-5.274 22.411-.999 27.047 9.332 6.013 13.399 1.798 29.179-10.095 37.796l-37.106 26.883c-5.28 3.825-5.887 11.466-1.276 16.076l19.885 19.885c8.737 8.737 13.646 20.588 13.646 32.944 0 25.731-20.859 46.59-46.59 46.59z" fill="url(#SVGID_19_)" data-original="url(#SVGID_19_)"></path><path d="m62.782 441.53-17.584-30.153c-3.941-6.759-6.018-14.443-6.018-22.267v-60.826c0-16.41 9.091-31.469 23.612-39.113l70.568-37.147c10.02-5.274 22.411-.999 27.047 9.332 6.013 13.399 1.798 29.179-10.095 37.796l-37.106 26.883c-5.28 3.825-5.887 11.466-1.276 16.076l19.885 19.885c8.737 8.737 13.646 20.588 13.646 32.944 0 25.731-20.859 46.59-46.59 46.59z" fill="url(#SVGID_6_)" data-original="url(#SVGID_6_)"></path><path d="m447.218 441.53 17.584-30.153c3.941-6.759 6.018-14.443 6.018-22.267v-60.826c0-16.41-9.091-31.469-23.612-39.113l-70.568-37.147c-10.02-5.274-22.411-.999-27.047 9.332-6.013 13.399-1.798 29.179 10.095 37.796l37.106 26.883c5.28 3.825 5.887 11.466 1.276 16.076l-19.885 19.885c-8.737 8.737-13.646 20.588-13.646 32.944 0 25.731 20.859 46.59 46.59 46.59z" fill="url(#SVGID_13_)" data-original="url(#SVGID_13_)"></path></g></g></svg>