<svg xmlns="http://www.w3.org/2000/svg" version="1.1" xmlns:xlink="http://www.w3.org/1999/xlink" xmlns:svgjs="http://svgjs.com/svgjs" width="512" height="512" x="0" y="0" viewBox="0 0 512 512.001" style="enable-background:new 0 0 512 512" xml:space="preserve" className=""><g><path xmlns="http://www.w3.org/2000/svg" d="m157.171875 105.933594h42.753906c19.820313-8.351563 33.738281-27.957032 33.738281-50.816406 0-30.441407-24.675781-55.117188-55.117187-55.117188-30.4375 0-55.117187 24.675781-55.117187 55.117188 0 22.859374 13.917968 42.464843 33.742187 50.816406zm0 0" fill="#ffb400" data-original="#000000" className=""></path><path xmlns="http://www.w3.org/2000/svg" d="m115.964844 488.226562c0 13.109376 10.667968 23.773438 23.777344 23.773438 13.109374 0 23.773437-10.664062 23.773437-23.773438v-160.734374h30.0625v160.734374c0 13.109376 10.667969 23.773438 23.777344 23.773438s23.773437-10.664062 23.773437-23.773438v-212.660156l-125.164062-.058594zm0 0" fill="#ffb400" data-original="#000000" className=""></path><path xmlns="http://www.w3.org/2000/svg" d="m271.285156 258.097656 47.394532-60.574218c3.238281-4.054688 2.628906-10.0625-1.355469-13.386719l-44.601563-37.203125c-8.847656-7.382813-20.0625-11.445313-31.582031-11.445313h-125.183594c-11.523437 0-22.738281 4.0625-31.585937 11.445313l-44.601563 37.203125c-3.984375 3.324219-4.59375 9.332031-1.355469 13.386719l47.488282 59.855468v-79.753906h30.0625v67.820312l125.257812.058594v-67.984375h30.0625zm0 0" fill="#ffb400" data-original="#000000" className=""></path><path xmlns="http://www.w3.org/2000/svg" d="m319.277344 251.144531-48.085938 61.441407v64.515624h86.527344zm0 0" fill="#ffb400" data-original="#000000" className=""></path><path xmlns="http://www.w3.org/2000/svg" d="m0 377.101562h85.902344v-65.832031l-50.574219-63.722656zm0 0" fill="#ffb400" data-original="#000000" className=""></path></g></svg>