<svg xmlns="http://www.w3.org/2000/svg" version="1.1" xmlns:xlink="http://www.w3.org/1999/xlink" xmlns:svgjs="http://svgjs.com/svgjs" width="512" height="512" x="0" y="0" viewBox="0 0 49.655 49.655" style="enable-background:new 0 0 512 512" xml:space="preserve" className=""><g>
<g xmlns="http://www.w3.org/2000/svg">
	<path style="" d="M49.655,26.826c0,5.551-2.193,10.511-5.636,13.816c1.959-3.321,3.103-8.283,3.103-15.725   c0-4.641-1.41-8.957-3.821-12.538C47.15,15.661,49.655,20.901,49.655,26.826z M6.354,12.378C2.505,15.662,0,20.901,0,26.825   c0,5.679,2.297,10.737,5.878,14.039c-2.096-3.32-3.345-8.34-3.345-15.948C2.533,20.274,3.943,15.958,6.354,12.378z M40.532,10.487   c-3.894-4.286-9.479-6.991-15.706-6.991S13.014,6.201,9.12,10.487c-3.46,3.809-5.589,8.862-5.589,14.428   C3.533,35.077,5.694,40.413,9.224,43.22c0.642,0.511,1.326,0.943,2.054,1.299c-0.283-0.23-0.554-0.474-0.814-0.73   c-2.133-2.093-3.47-4.986-3.495-8.172c-0.133-3.289-0.195-5.494-0.268-8.047c-0.038-1.347-0.079-2.784-0.135-4.549   c0-6.649,6.922-11.617,13.111-11.617h4.126h2.047h4.126c7.504,0,13.111,6.133,13.111,11.649c-0.055,1.73-0.096,3.165-0.134,4.51   c-0.073,2.555-0.135,4.762-0.267,8.022c-0.026,3.205-1.366,6.109-3.504,8.207c-0.281,0.276-0.577,0.535-0.884,0.782   c0.801-0.384,1.554-0.851,2.252-1.421c3.46-2.826,5.571-8.16,5.571-18.237C46.121,19.35,43.992,14.295,40.532,10.487z    M36.58,44.567c-1.635,1.004-3.552,1.592-5.607,1.592c-1.638,0-3.004,0-4.279,0c-2.55,0-4.735,0-8.012,0   c-2.055,0-3.973-0.588-5.608-1.592c-3.031-1.861-5.075-5.175-5.106-8.99c-0.203-5.031-0.242-7.562-0.401-12.556   c0-5.864,6.248-10.617,12.111-10.617c1.939,0,3.421,0,4.877,0c0.181,0,0.364,0,0.545,0c1.456,0,2.937,0,4.877,0   c5.864,0,12.111,4.753,12.111,10.617c-0.159,4.994-0.199,7.525-0.402,12.556C41.655,39.392,39.611,42.706,36.58,44.567z    M20.279,27.875c0-1.436-0.763-2.686-1.9-3.391c-0.612-0.38-1.327-0.609-2.1-0.609c-2.209,0-4,1.791-4,4s1.791,4,4,4   c0.907,0,1.734-0.314,2.405-0.823C19.647,30.322,20.279,29.177,20.279,27.875z M37.375,27.875c0-2.209-1.791-4-4-4   c-0.773,0-1.488,0.229-2.1,0.609c-1.137,0.705-1.9,1.955-1.9,3.391c0,1.301,0.632,2.447,1.595,3.177   c0.671,0.509,1.498,0.823,2.405,0.823C35.584,31.875,37.375,30.084,37.375,27.875z" fill="#8af9ad" data-original="#1d1c1a" className=""></path>
</g>
<g xmlns="http://www.w3.org/2000/svg">
</g>
<g xmlns="http://www.w3.org/2000/svg">
</g>
<g xmlns="http://www.w3.org/2000/svg">
</g>
<g xmlns="http://www.w3.org/2000/svg">
</g>
<g xmlns="http://www.w3.org/2000/svg">
</g>
<g xmlns="http://www.w3.org/2000/svg">
</g>
<g xmlns="http://www.w3.org/2000/svg">
</g>
<g xmlns="http://www.w3.org/2000/svg">
</g>
<g xmlns="http://www.w3.org/2000/svg">
</g>
<g xmlns="http://www.w3.org/2000/svg">
</g>
<g xmlns="http://www.w3.org/2000/svg">
</g>
<g xmlns="http://www.w3.org/2000/svg">
</g>
<g xmlns="http://www.w3.org/2000/svg">
</g>
<g xmlns="http://www.w3.org/2000/svg">
</g>
<g xmlns="http://www.w3.org/2000/svg">
</g>
</g></svg>