<svg xmlns="http://www.w3.org/2000/svg" version="1.1" xmlns:xlink="http://www.w3.org/1999/xlink" xmlns:svgjs="http://svgjs.com/svgjs" width="512" height="512" x="0" y="0" viewBox="0 0 512 512" style="enable-background:new 0 0 512 512" xml:space="preserve" className=""><g><g xmlns="http://www.w3.org/2000/svg"><path d="m256 73.794c-37.784 80.016-102.19 144.422-182.206 182.206 80.016 37.784 144.421 102.19 182.206 182.206 37.784-80.016 102.19-144.422 182.206-182.206-80.016-37.784-144.422-102.19-182.206-182.206zm16.622 247.539h-30v-30h30zm53.045-53.045h-30v-30h30z" fill="#ffb400" data-original="#000000" className=""></path><path d="m85.801 340.397c-.155.328-.311.656-.468.983-17.853 37.224-47.982 67.181-85.333 84.819.328.155.656.311.983.468 36.897 17.697 66.654 47.454 84.351 84.351.157.327.313.654.468.982v-.001c17.638-37.351 47.594-67.479 84.818-85.333.327-.157.655-.313.983-.468-.312-.148-.624-.296-.936-.445-36.934-17.702-66.718-47.486-84.42-84.42-.15-.311-.298-.623-.446-.936z" fill="#ffb400" data-original="#000000" className=""></path><path d="m426.199 0s0 .001 0 0c-.246.52-.493 1.038-.743 1.555-1.495 3.089-3.074 6.127-4.736 9.112-18.042 32.417-45.728 58.546-79.34 74.667-.327.157-.654.313-.983.468.313.148.625.296.936.445 36.934 17.702 66.718 47.486 84.42 84.42.149.311.298.623.445.936.155-.328.311-.656.468-.983 16.121-33.611 42.249-61.297 74.667-79.339 2.793-1.554 5.632-3.037 8.515-4.446.714-.349 1.431-.693 2.151-1.033-.328-.155-.656-.311-.983-.468-36.896-17.698-66.653-47.454-84.35-84.352-.156-.326-.312-.654-.467-.982z" fill="#ffb400" data-original="#000000" className=""></path></g></g></svg>