<svg xmlns="http://www.w3.org/2000/svg" version="1.1" xmlns:xlink="http://www.w3.org/1999/xlink" xmlns:svgjs="http://svgjs.com/svgjs" width="512" height="512" x="0" y="0" viewBox="0 0 58 58" style="enable-background:new 0 0 512 512" xml:space="preserve" className=""><g><g xmlns="http://www.w3.org/2000/svg" id="Page-1" fill="none" fill-rule="evenodd"><g id="077---Staff" fill="rgb(0,0,0)" fill-rule="nonzero"><path id="Shape" d="m11.63 6.188c.32.039.6.071.833.083 1.466.09 2.6-1.645 3.558-2.953.2246357-.30177435.5996308-.45194037.9704673-.38862167s.674758.32940672.7865327.68862167c.433 1.4 1.035 3.19 2.621 3.824.48.192 1.033.35 1.617.518 2.305.661 4.919 1.41 5.77 4.583.2656624 1.0840321.468335 2.1825371.607 3.29.562 3.852 1.261 8.646 6.879 14.977 6.973 7.856 12.557 15.733 12.613 15.812.2468458.3444291.6839767.4958824 1.091.378.2351809-.047933.4390341-.1932829.561-.4.2061667-.3430283.5979495-.5289548.9940557-.4717443s.7192672.3463979.8199443.7337443l.109.405c.5 1.855 3.822 5.977 6.515 9.2l-1.77 1.505c-2.126-1.959-7.559-7.063-12.079-12.157-3.353-3.777-6.523-6.787-9.072-9.206-1.8-1.705-3.349-3.178-4.5-4.471-1.655-1.863-4.711-2.26-7.409-2.611-2.246-.292-4.569-.594-5.015-1.638-.0509672-.1197932-.0921029-.2435348-.123-.37.5283778-.2667987 1.0952244-.4493368 1.68-.541 1.7-.393 4.019-.933 5.448-3.031 2.178-3.2.781-5.348-.452-7.245-.4696646-.6815236-.8798428-1.4021792-1.226-2.154-.737-1.722-2.777-3.313-5.325-4.152-2.890026-1.04086385-6.0872441-.79593183-8.785.673-3.524 2.068-1.843 5.771-.616 8.475.7 1.543 1.495 3.292 1.049 4.068-.024.043-.034.059-.116.071-.72.091-2.587-.855-4.788-2.907-3.38182419-3.1385554-3.83042008-8.3309339-1.037-12.003 2.598-3.192 5.85-2.811 7.791-2.585z" fill="#ffb400" data-original="#000000" className=""></path><path id="Shape" d="m9.105 30.553-3 6c-.15969772.3197527-.13667846.7004141.06038664.9985927.19706511.2981787.53823718.4685741.895.447.35676283-.021574.67491564-.23184.83461336-.5515927l3-6c.2468713-.4942948.0462948-1.0951287-.448-1.342-.49429485-.2468713-1.09512871-.0462948-1.342.448z" fill="#ffb400" data-original="#000000" className=""></path><path id="Shape" d="m14 33v6c0 .5522847.4477153 1 1 1s1-.4477153 1-1v-6c0-.5522847-.4477153-1-1-1s-1 .4477153-1 1z" fill="#ffb400" data-original="#000000" className=""></path><path id="Shape" d="m.071 30.371c.15181018.3799891.51980808.6291502.929.629.12708668.000464.25306465-.023645.371-.071l5-2c.33189974-.1325455.56787554-.4320891.61903761-.7857954.05116207-.3537064-.09026233-.7078392-.371-.929-.28073767-.2211609-.65813788-.2757501-.99003761-.1432046l-5 2c-.24644542.0983216-.44371242.2905559-.54836866.5343787-.10465625.2438228-.10812097.519243-.00963134.7656213z" fill="#ffb400" data-original="#000000" className=""></path><path id="Shape" d="m33 11c.1547895-.0000102.3074634-.0359537.446-.105l6-3c.4942948-.24687129.6948712-.84770515.448-1.34199998-.2468713-.49429484-.8477052-.69487128-1.342-.44800002l-6 3c-.415621.20714245-.6339515.67314892-.5271118 1.1250715.1068398.4519227.5107327.7708283.9751118.7699285z" fill="#ffb400" data-original="#000000" className=""></path><path id="Shape" d="m35 16h6c.5522847 0 1-.4477153 1-1s-.4477153-1-1-1h-6c-.5522847 0-1 .4477153-1 1s.4477153 1 1 1z" fill="#ffb400" data-original="#000000" className=""></path><path id="Shape" d="m32.371.071c-.2463783-.09848963-.5217985-.09502491-.7656213.00963134-.2438228.10465624-.4360571.30192324-.5343787.54836866l-2 5c-.0984896.24637831-.0950249.52179853.0096313.76562132.1046563.24382278.3019233.43605711.5483687.53437868.1179353.04735497.2439133.07146396.371.071.4091919.00015022.7771898-.2490109.929-.629l2-5c.0984896-.24637831.0950249-.52179853-.0096313-.76562132-.1046563-.24382278-.3019233-.4360571-.5483687-.53437868z" fill="#ffb400" data-original="#000000" className=""></path><ellipse id="Oval" cx="17.041" cy="18.426" rx="2.141" ry="4.273" transform="matrix(.601 -.799 .799 .601 -7.929 20.96)" fill="#ffb400" data-original="#000000" className=""></ellipse></g></g></g></svg>