<svg xmlns="http://www.w3.org/2000/svg" version="1.1" xmlns:xlink="http://www.w3.org/1999/xlink" xmlns:svgjs="http://svgjs.com/svgjs" width="512" height="512" x="0" y="0" viewBox="0 0 128 128" style="enable-background:new 0 0 512 512" xml:space="preserve" className=""><g><g xmlns="http://www.w3.org/2000/svg"><g><path d="m67.301 121.5h17.65l13.959-51.8-6.408-21.14-20.728 13.89z" fill="#0044e2" data-original="#3ba9fd" className=""></path><path d="m60.699 121.5h-17.65l-13.959-51.8 6.408-21.14 20.728 13.89z" fill="#0044e2" data-original="#3ba9fd" className=""></path><path d="m56.625 121.5-8.958-91.881 11.333-23.119 21.333 23.119-7.5 91.881z" fill="#9334cc" data-original="#b560e8" className=""></path></g><g fill="#051720"><path d="m103.787 119.75h-16.553l3.283-12.182a1.75 1.75 0 0 0 -3.379-.911l-3.529 13.093h-2.317l8.391-42.935 6.462-3.581-4.793 17.788a1.749 1.749 0 1 0 3.378.911l5.87-21.777a1.746 1.746 0 0 0 -.015-.964l-6.41-21.14a1.75 1.75 0 0 0 -2.649-.946l-11.493 7.7.5-6.129a1.75 1.75 0 1 0 -3.488-.285l-5.825 71.358h-7.207l-3.213-78.519 17.543-8.673-.473 5.793a1.75 1.75 0 0 0 3.489.284l.723-8.874a1.746 1.746 0 0 0 -.458-1.328l-21.338-23.12a1.75 1.75 0 0 0 -2.857.416l-11.329 23.12a1.743 1.743 0 0 0 -.17.94l3.5 35.914-8.3 6.718-3.26-20.17 4.551 3.049a1.75 1.75 0 0 0 1.949-2.9l-7.9-5.29a1.751 1.751 0 0 0 -2.649.946l-6.41 21.14a1.755 1.755 0 0 0 -.015.964l13.369 49.59h-16.552a1.75 1.75 0 1 0 0 3.5h79.574a1.75 1.75 0 0 0 0-3.5zm-43.037-108.773 16.711 18.11-16.711 8.262zm-3.5 25.17-7.44-6.924 7.44-15.177zm-2.55 83.603h-4.426l-8.474-43.371 8.035-6.5zm-19.723-63.435 2.6 16.089-6.4-3.549zm-3.122 16.918 6.463 3.582 8.391 42.935h-2.318zm18-39.185 7.424 6.91 3.231 78.792h-2.3zm46.97 34.807-6.4 3.548 2.6-16.087zm-6.691-16.6-3.26 20.165-7.766-6.289.561-6.87zm-11.37 18.1 7.436 6.023-8.474 43.372h-2.994z" fill="#051720" data-original="#051720" className=""></path><path d="m92 95.323a1.752 1.752 0 0 0 -2.145 1.235l-1.237 4.592a1.75 1.75 0 1 0 3.379.911l1.237-4.593a1.75 1.75 0 0 0 -1.234-2.145z" fill="#051720" data-original="#051720" className=""></path><path d="m69.666 65.043-.52 6.378a1.749 1.749 0 0 0 1.6 1.887c.049 0 .1.006.145.006a1.749 1.749 0 0 0 1.742-1.607l.52-6.378a1.75 1.75 0 0 0 -3.488-.286z" fill="#051720" data-original="#051720" className=""></path></g></g></g></svg>