<svg xmlns="http://www.w3.org/2000/svg" version="1.1" xmlns:xlink="http://www.w3.org/1999/xlink" xmlns:svgjs="http://svgjs.com/svgjs" width="512" height="512" x="0" y="0" viewBox="0 0 512 512" style="enable-background:new 0 0 512 512" xml:space="preserve" className="hovered-paths"><g><g xmlns="http://www.w3.org/2000/svg"><path d="m121 121v158.789l158.789-158.789z" fill="#ffb400" data-original="#000000" className="hovered-path"></path><path d="m391 391v-158.789l-158.789 158.789z" fill="#ffb400" data-original="#000000" className="hovered-path"></path><circle cx="406" cy="106" r="15" fill="#ffb400" data-original="#000000" className="hovered-path"></circle><circle cx="106" cy="406" r="15" fill="#ffb400" data-original="#000000" className="hovered-path"></circle><path d="m467 0h-422c-24.814 0-45 20.186-45 45v422c0 24.814 20.186 45 45 45h422c24.814 0 45-20.186 45-45v-422c0-24.814-20.186-45-45-45zm-376 91h261.211l-261.211 261.211zm15 360c-24.814 0-45-20.186-45-45s20.186-45 45-45 45 20.186 45 45-20.186 45-45 45zm315-30h-261.211l261.211-261.211zm-15-270c-24.814 0-45-20.186-45-45s20.186-45 45-45 45 20.186 45 45-20.186 45-45 45z" fill="#ffb400" data-original="#000000" className="hovered-path"></path></g></g></svg>