<svg xmlns="http://www.w3.org/2000/svg" version="1.1" xmlns:xlink="http://www.w3.org/1999/xlink" xmlns:svgjs="http://svgjs.com/svgjs" width="512" height="512" x="0" y="0" viewBox="0 0 128 128" style="enable-background:new 0 0 512 512" xml:space="preserve" className=""><g><path xmlns="http://www.w3.org/2000/svg" d="m85.786 111.408v10.149a4.013 4.013 0 0 1 -4.017 4.017h-76.14a4.013 4.013 0 0 1 -4.017-4.017v-10.149a4.009 4.009 0 0 1 4.017-4h76.14a4.01 4.01 0 0 1 4.017 4z" fill="#ffc943" data-original="#ffc943" className=""></path><path xmlns="http://www.w3.org/2000/svg" d="m85.785 111.419v10.15a4.018 4.018 0 0 1 -4.012 4.012h-76.144a4.017 4.017 0 0 1 -4.012-4.012v-1.94h73.272a4.006 4.006 0 0 0 4.012-4.012v-8.21h2.873a4.006 4.006 0 0 1 4.011 4.012z" fill="#f7b521" data-original="#f7b521" className=""></path><rect xmlns="http://www.w3.org/2000/svg" fill="#ffc943" height="18.17" rx="4.009" width="84.162" x="1.621" y="89.228" data-original="#ffc943" className=""></rect><path xmlns="http://www.w3.org/2000/svg" d="m85.785 93.242v10.15a4.018 4.018 0 0 1 -4.012 4.012h-76.144a4.017 4.017 0 0 1 -4.012-4.012v-1.94h73.272a4.006 4.006 0 0 0 4.011-4.011v-8.21h2.873a4.006 4.006 0 0 1 4.012 4.011z" fill="#f7b521" data-original="#f7b521" className=""></path><rect xmlns="http://www.w3.org/2000/svg" fill="#ffc943" height="18.17" rx="4.009" width="84.162" x="1.621" y="71.052" data-original="#ffc943" className=""></rect><path xmlns="http://www.w3.org/2000/svg" d="m85.785 75.066v10.15a4.018 4.018 0 0 1 -4.012 4.012h-76.144a4.017 4.017 0 0 1 -4.012-4.012v-1.94h73.272a4.006 4.006 0 0 0 4.011-4.012v-8.21h2.873a4.006 4.006 0 0 1 4.012 4.012z" fill="#f7b521" data-original="#f7b521" className=""></path><rect xmlns="http://www.w3.org/2000/svg" fill="#ffc943" height="18.17" rx="4.009" width="84.162" x="1.621" y="52.876" data-original="#ffc943" className=""></rect><path xmlns="http://www.w3.org/2000/svg" d="m85.785 56.89v10.15a4.018 4.018 0 0 1 -4.012 4.012h-76.144a4.017 4.017 0 0 1 -4.012-4.012v-1.94h73.272a4.006 4.006 0 0 0 4.011-4.012v-8.21h2.873a4.006 4.006 0 0 1 4.012 4.012z" fill="#f7b521" data-original="#f7b521" className=""></path><rect xmlns="http://www.w3.org/2000/svg" fill="#ffc943" height="18.17" rx="4.009" width="84.162" x="1.621" y="34.351" data-original="#ffc943" className=""></rect><path xmlns="http://www.w3.org/2000/svg" d="m85.785 38.365v10.15a4.018 4.018 0 0 1 -4.012 4.012h-76.144a4.017 4.017 0 0 1 -4.012-4.012v-1.94h73.272a4.006 4.006 0 0 0 4.011-4.011v-8.21h2.873a4.006 4.006 0 0 1 4.012 4.011z" fill="#f7b521" data-original="#f7b521" className=""></path><path xmlns="http://www.w3.org/2000/svg" d="m85.786 19.841v10.149a4.009 4.009 0 0 1 -4.017 4h-76.14a4.009 4.009 0 0 1 -4.017-4v-10.149a4.023 4.023 0 0 1 4.017-4.017h76.14a4.023 4.023 0 0 1 4.017 4.017z" fill="#ffc943" data-original="#ffc943" className=""></path><path xmlns="http://www.w3.org/2000/svg" d="m85.785 19.841v10.15a4.018 4.018 0 0 1 -4.012 4.009h-76.144a4.017 4.017 0 0 1 -4.012-4.012v-1.938h73.272a4.006 4.006 0 0 0 4.011-4.011v-8.21h2.873a4.006 4.006 0 0 1 4.012 4.012z" fill="#f7b521" data-original="#f7b521" className=""></path><g xmlns="http://www.w3.org/2000/svg" opacity=".35"><path d="m10.794 15.824h4.872v109.749h-4.872z" fill="#ffffff" data-original="#ffffff" className=""></path></g><g xmlns="http://www.w3.org/2000/svg" opacity=".35"><path d="m19.747 15.824h9.722v109.749h-9.722z" fill="#ffffff" data-original="#ffffff" className=""></path></g><g xmlns="http://www.w3.org/2000/svg" fill="#2f3a5a"><path d="m81.773 53.521h-76.143a5.015 5.015 0 0 1 -5.01-5.009v-10.151a5.015 5.015 0 0 1 5.01-5.01h76.143a5.015 5.015 0 0 1 5.01 5.01v10.151a5.015 5.015 0 0 1 -5.01 5.009zm-76.143-18.17a3.013 3.013 0 0 0 -3.01 3.01v10.151a3.013 3.013 0 0 0 3.01 3.009h76.143a3.013 3.013 0 0 0 3.01-3.009v-10.151a3.013 3.013 0 0 0 -3.01-3.01z" fill="#2f3a5a" data-original="#2f3a5a" className=""></path><path d="m81.773 35h-76.143a5.015 5.015 0 0 1 -5.01-5.013v-10.151a5.015 5.015 0 0 1 5.01-5.01h76.143a5.015 5.015 0 0 1 5.01 5.01v10.151a5.015 5.015 0 0 1 -5.01 5.013zm-76.143-18.174a3.013 3.013 0 0 0 -3.01 3.01v10.151a3.013 3.013 0 0 0 3.01 3.013h76.143a3.013 3.013 0 0 0 3.01-3.009v-10.155a3.013 3.013 0 0 0 -3.01-3.01z" fill="#2f3a5a" data-original="#2f3a5a" className=""></path><path d="m81.773 126.574h-76.143a5.015 5.015 0 0 1 -5.01-5.01v-10.15a5.015 5.015 0 0 1 5.01-5.014h76.143a5.015 5.015 0 0 1 5.01 5.009v10.151a5.015 5.015 0 0 1 -5.01 5.014zm-76.143-18.174a3.013 3.013 0 0 0 -3.01 3.009v10.151a3.013 3.013 0 0 0 3.01 3.01h76.143a3.013 3.013 0 0 0 3.01-3.01v-10.146a3.013 3.013 0 0 0 -3.01-3.009z" fill="#2f3a5a" data-original="#2f3a5a" className=""></path><path d="m81.773 108.4h-76.143a5.015 5.015 0 0 1 -5.01-5.009v-10.153a5.015 5.015 0 0 1 5.01-5.01h76.143a5.015 5.015 0 0 1 5.01 5.01v10.151a5.015 5.015 0 0 1 -5.01 5.011zm-76.143-18.172a3.013 3.013 0 0 0 -3.01 3.01v10.151a3.013 3.013 0 0 0 3.01 3.011h76.143a3.013 3.013 0 0 0 3.01-3.009v-10.153a3.013 3.013 0 0 0 -3.01-3.01z" fill="#2f3a5a" data-original="#2f3a5a" className=""></path><path d="m81.773 90.222h-76.143a5.015 5.015 0 0 1 -5.01-5.01v-10.15a5.015 5.015 0 0 1 5.01-5.009h76.143a5.015 5.015 0 0 1 5.01 5.009v10.15a5.015 5.015 0 0 1 -5.01 5.01zm-76.143-18.17a3.013 3.013 0 0 0 -3.01 3.009v10.151a3.013 3.013 0 0 0 3.01 3.009h76.143a3.013 3.013 0 0 0 3.01-3.009v-10.15a3.013 3.013 0 0 0 -3.01-3.009z" fill="#2f3a5a" data-original="#2f3a5a" className=""></path><path d="m81.773 72.046h-76.143a5.015 5.015 0 0 1 -5.01-5.01v-10.151a5.015 5.015 0 0 1 5.01-5.009h76.143a5.015 5.015 0 0 1 5.01 5.009v10.151a5.015 5.015 0 0 1 -5.01 5.01zm-76.143-18.17a3.013 3.013 0 0 0 -3.01 3.009v10.151a3.013 3.013 0 0 0 3.01 3.01h76.143a3.013 3.013 0 0 0 3.01-3.01v-10.151a3.013 3.013 0 0 0 -3.01-3.009z" fill="#2f3a5a" data-original="#2f3a5a" className=""></path></g><circle xmlns="http://www.w3.org/2000/svg" cx="84.607" cy="85.22" fill="#ffc943" r="41.78" data-original="#ffc943" className=""></circle><circle xmlns="http://www.w3.org/2000/svg" cx="84.607" cy="85.22" fill="#ffc943" r="32.806" data-original="#ffc943" className=""></circle><path xmlns="http://www.w3.org/2000/svg" d="m84.607 119.025a33.806 33.806 0 1 1 33.806-33.805 33.844 33.844 0 0 1 -33.806 33.805zm0-65.611a31.806 31.806 0 1 0 31.806 31.806 31.842 31.842 0 0 0 -31.806-31.806z" fill="#2f3a5a" data-original="#2f3a5a" className=""></path><path xmlns="http://www.w3.org/2000/svg" d="m84.607 128a42.781 42.781 0 1 1 42.78-42.78 42.829 42.829 0 0 1 -42.78 42.78zm0-83.561a40.781 40.781 0 1 0 40.78 40.781 40.827 40.827 0 0 0 -40.78-40.781z" fill="#2f3a5a" data-original="#2f3a5a" className=""></path><path xmlns="http://www.w3.org/2000/svg" d="m84.607 86.22a10.305 10.305 0 1 1 10.3-10.305 1 1 0 1 1 -2 0 8.305 8.305 0 1 0 -8.3 8.305 1 1 0 0 1 0 2z" fill="#2f3a5a" data-original="#2f3a5a" className=""></path><path xmlns="http://www.w3.org/2000/svg" d="m84.607 104.83a10.317 10.317 0 0 1 -10.307-10.305 1 1 0 0 1 2 0 8.305 8.305 0 1 0 8.306-8.305 1 1 0 0 1 0-2 10.305 10.305 0 0 1 0 20.61z" fill="#2f3a5a" data-original="#2f3a5a" className=""></path><path xmlns="http://www.w3.org/2000/svg" d="m84.607 104.83a1 1 0 0 1 -1-1v-41.83a1 1 0 1 1 2 0v41.83a1 1 0 0 1 -1 1z" fill="#2f3a5a" data-original="#2f3a5a" className=""></path><path xmlns="http://www.w3.org/2000/svg" d="m84.607 109.439a1 1 0 0 1 -1-1v-4.609a1 1 0 1 1 2 0v4.609a1 1 0 0 1 -1 1z" fill="#2f3a5a" data-original="#2f3a5a" className=""></path><path xmlns="http://www.w3.org/2000/svg" d="m78.451 9.865-4.849-8.865-4.848 8.865-8.865 4.848 8.865 4.848 4.848 8.865 4.849-8.865 8.864-4.848z" fill="#ffffff" data-original="#ffffff" className=""></path><path xmlns="http://www.w3.org/2000/svg" d="m73.6 29.426a1 1 0 0 1 -.877-.52l-4.705-8.606-8.608-4.71a1 1 0 0 1 0-1.755l8.607-4.708 4.709-8.607a1 1 0 0 1 .874-.52 1 1 0 0 1 .877.52l4.708 8.608 8.607 4.708a1 1 0 0 1 0 1.755l-8.604 4.709-4.708 8.608a1 1 0 0 1 -.88.518zm-11.626-14.713 7.26 3.971a1 1 0 0 1 .4.4l3.966 7.258 3.971-7.261a1 1 0 0 1 .4-.4l7.261-3.971-7.261-3.971a1 1 0 0 1 -.4-.4l-3.971-7.255-3.972 7.261a1 1 0 0 1 -.4.4z" fill="#2f3a5a" data-original="#2f3a5a" className=""></path><path xmlns="http://www.w3.org/2000/svg" d="m109.591 47.566-4.849-8.865-4.848 8.865-8.865 4.848 8.865 4.848 4.848 8.865 4.849-8.865 8.864-4.848z" fill="#ffffff" data-original="#ffffff" className=""></path><path xmlns="http://www.w3.org/2000/svg" d="m104.742 67.127a1 1 0 0 1 -.877-.52l-4.708-8.607-8.607-4.708a1 1 0 0 1 0-1.755l8.607-4.708 4.708-8.608a1.04 1.04 0 0 1 1.754 0l4.708 8.608 8.607 4.708a1 1 0 0 1 0 1.755l-8.607 4.708-4.708 8.608a1 1 0 0 1 -.877.519zm-11.629-14.713 7.261 3.971a1 1 0 0 1 .4.4l3.971 7.261 3.972-7.261a1 1 0 0 1 .4-.4l7.26-3.971-7.26-3.971a1 1 0 0 1 -.4-.4l-3.972-7.261-3.971 7.261a1 1 0 0 1 -.4.4z" fill="#2f3a5a" data-original="#2f3a5a" className=""></path></g></svg>