<svg xmlns="http://www.w3.org/2000/svg" version="1.1" xmlns:xlink="http://www.w3.org/1999/xlink" xmlns:svgjs="http://svgjs.com/svgjs" width="512" height="512" x="0" y="0" viewBox="0 0 512 512.00112" style="enable-background:new 0 0 512 512" xml:space="preserve" className=""><g><path xmlns="http://www.w3.org/2000/svg" d="m441.320312 74.632812-15.179687-67.410156c-.976563-4.253906-4.777344-7.253906-9.140625-7.222656-27.453125-.160156-49.859375 21.921875-50.09375 49.371094-.101562 18.253906-14.960938 32.980468-33.214844 32.914062h-155.429687c-18.25.0625-33.105469-14.664062-33.207031-32.914062-.238282-27.460938-22.660157-49.546875-50.121094-49.371094-4.386719-.0078125-8.191406 3.035156-9.144532 7.316406l-15.257812 67.839844-70.402344 426.25c-.453125 2.617188.292969 5.300781 2.03125 7.3125 1.800782 2.09375 4.425782 3.292969 7.1875 3.28125h493.257813c2.773437.011719 5.410156-1.199219 7.210937-3.308594 1.738282-2.011718 2.484375-4.695312 2.03125-7.3125zm-163.804687 143.304688c.128906-.558594.3125-1.101562.550781-1.625.402344-.644531.882813-1.234375 1.433594-1.757812.246094-.316407.507812-.621094.785156-.914063l103.964844-84.542969.074219-.0625c.308593-.191406.632812-.359375.96875-.503906.660156-.46875 1.378906-.84375 2.136719-1.125 1.152343-.148438 2.308593-.269531 3.46875-.355469 1.023437.109375 2.019531.394531 2.953124.839844.144532.066406.300782.054687.4375.128906l.164063.089844c33.363281 17.320313 50.746094 55.050781 42.234375 91.667969-8.511719 36.613281-40.757812 62.804687-78.339844 63.628906-37.582031.828125-70.945312-23.921875-81.058594-60.128906v-.109375c-.054687-.394531-.082031-.789063-.082031-1.1875-.15625-.753907-.210937-1.527344-.167969-2.292969.101563-.597656.261719-1.183594.476563-1.75zm-159.898437-89.882812.109374-.054688.117188-.070312c.453125-.171876.917969-.304688 1.390625-.394532.613281-.253906 1.257813-.4375 1.910156-.550781.695313-.027344 1.394531.03125 2.078125.167969 1.292969-.023438 2.554688.421875 3.546875 1.261718.335938.144532.660157.3125.976563.5l.136718.109376 103.917969 83.136718.164063.128906c.28125.285157.542968.589844.777344.914063.546874.515625 1.035156 1.089844 1.445312 1.71875.242188.527344.433594 1.074219.578125 1.636719.230469.542968.40625 1.105468.519531 1.683594.054688.746093.015625 1.496093-.117187 2.230468.007812.410156-.011719.816406-.066407 1.222656v.25c-9.5625 36.53125-42.765624 61.863282-80.527343 61.4375-37.757813-.425781-70.382813-26.496093-79.125-63.234374-8.742188-36.734376 8.644531-74.707032 42.167969-92.09375zm317.148437 360.375c-1.503906 3.230468-4.742187 5.289062-8.304687 5.285156-.367188.003906-.730469-.019532-1.097657-.0625-3.929687-.476563-7.105469-3.429688-7.871093-7.316406 0 0-3.472657-9.472657-25.070313-18.996094-.21875-.121094-.464844-.175782-.683594-.304688-21.988281-9.542968-62.308593-19.035156-135.761719-19.035156-73.21875 0-113.519531 9.371094-135.5625 18.84375-.550781.320312-1.132812.578125-1.738281.777344-20.742187 9.328125-24.179687 18.523437-24.21875 18.707031-.757812 3.886719-3.933593 6.839844-7.867187 7.320313-3.929688.480468-7.722656-1.628907-9.394532-5.21875-1.289062-2.742188-31.175781-68.523438 3.136719-122.332032 20.855469-32.683594 60.398438-53.027344 117.777344-60.753906.164063 0 .339844 0 .503906-.0625 1.199219-.164062 2.421875-.300781 3.65625-.457031h.121094c17.78125-2.125 35.675781-3.164063 53.585937-3.109375 89.296876 0 148.386719 21.660156 175.640626 64.382812 34.316406 53.808594 4.472656 119.554688 3.148437 122.332032zm0 0" fill="#ffb400" data-original="#000000" className=""></path><path xmlns="http://www.w3.org/2000/svg" d="m122.984375 446.582031c11.039063-3.804687 22.34375-6.785156 33.828125-8.914062l-42.625-56.820313zm0 0" fill="#ffb400" data-original="#000000" className=""></path><path xmlns="http://www.w3.org/2000/svg" d="m155.402344 265.144531c27.035156-.042969 51.113281-17.105469 60.117187-42.597656l-23.773437-19.027344c-1.148438 18.496094-15.976563 33.191407-34.480469 34.175781-18.5.984376-34.804687-12.054687-37.910156-30.320312-3.105469-18.269531 7.972656-35.964844 25.761719-41.148438l-23.835938-19.027343c-24.070312 15.1875-35.195312 44.464843-27.285156 71.804687s32.945312 46.152344 61.40625 46.140625zm0 0" fill="#ffb400" data-original="#000000" className=""></path><path xmlns="http://www.w3.org/2000/svg" d="m88.339844 465.371094c5.234375-4.492188 11.003906-8.320313 17.179687-11.390625l-10.3125-77.136719c-19.171875 31.03125-12.828125 68.148438-6.867187 88.527344zm0 0" fill="#ffb400" data-original="#000000" className=""></path><path xmlns="http://www.w3.org/2000/svg" d="m173.691406 201.144531c0 10.097657-8.1875 18.285157-18.289062 18.285157-10.097656 0-18.285156-8.1875-18.285156-18.285157 0-10.097656 8.1875-18.285156 18.285156-18.285156 10.101562 0 18.289062 8.1875 18.289062 18.285156zm0 0" fill="#ffb400" data-original="#000000" className=""></path><path xmlns="http://www.w3.org/2000/svg" d="m374.832031 201.144531c0 10.097657-8.1875 18.285157-18.285156 18.285157s-18.285156-8.1875-18.285156-18.285157c0-10.097656 8.1875-18.285156 18.285156-18.285156s18.285156 8.1875 18.285156 18.285156zm0 0" fill="#ffb400" data-original="#000000" className=""></path><path xmlns="http://www.w3.org/2000/svg" d="m356.546875 265.144531c28.441406.035157 53.484375-18.726562 61.441406-46.03125 7.957031-27.308593-3.089843-56.585937-27.101562-71.828125l-23.515625 19.117188c17.5 5.382812 28.292968 22.90625 25.230468 40.957031-3.0625 18.046875-19.03125 31.03125-37.324218 30.34375-18.292969-.6875-33.246094-14.828125-34.945313-33.058594l-23.460937 19.074219c9.355468 24.863281 33.109375 41.351562 59.675781 41.425781zm0 0" fill="#ffb400" data-original="#000000" className=""></path><path xmlns="http://www.w3.org/2000/svg" d="m176.570312 433.527344 13.53125-108.523438c-26.460937 3.414063-51.691406 13.214844-73.519531 28.5625zm0 0" fill="#ffb400" data-original="#000000" className=""></path><path xmlns="http://www.w3.org/2000/svg" d="m321.851562 325.003906 13.53125 108.523438 59.984376-79.960938c-21.824219-15.347656-47.058594-25.148437-73.515626-28.5625zm0 0" fill="#ffb400" data-original="#000000" className=""></path><path xmlns="http://www.w3.org/2000/svg" d="m388.96875 446.582031 8.792969-65.726562-42.621094 56.8125c11.480469 2.128906 22.789063 5.109375 33.828125 8.914062zm0 0" fill="#ffb400" data-original="#000000" className=""></path><path xmlns="http://www.w3.org/2000/svg" d="m195.140625 432.359375c13.976563-1.308594 29.574219-2.179687 47.039063-2.480469l-36.207032-84.398437zm0 0" fill="#ffb400" data-original="#000000" className=""></path><path xmlns="http://www.w3.org/2000/svg" d="m406.429688 454.015625c6.175781 3.0625 11.945312 6.875 17.179687 11.355469 5.96875-20.414063 12.304687-57.535156-6.875-88.527344zm0 0" fill="#ffb400" data-original="#000000" className=""></path><path xmlns="http://www.w3.org/2000/svg" d="m269.773438 429.878906c17.460937.300782 33.058593 1.171875 47.039062 2.480469l-10.835938-86.859375zm0 0" fill="#ffb400" data-original="#000000" className=""></path><path xmlns="http://www.w3.org/2000/svg" d="m255.976562 320c-14.320312 0-27.714843.605469-40.292968 1.730469l40.292968 93.941406 40.292969-93.941406c-12.582031-1.125-25.976562-1.730469-40.292969-1.730469zm0 0" fill="#ffb400" data-original="#000000" className=""></path></g></svg>