<svg xmlns="http://www.w3.org/2000/svg" version="1.1" xmlns:xlink="http://www.w3.org/1999/xlink" xmlns:svgjs="http://svgjs.com/svgjs" width="512" height="512" x="0" y="0" viewBox="0 0 511.99 511.99" style="enable-background:new 0 0 512 512" xml:space="preserve" class=""><g><g xmlns="http://www.w3.org/2000/svg"><g><g><path d="m322.206 504.497h-244.972l5.976-29.105c4.915-23.965 23.588-42.178 46.757-47.083 4.069-.867 8.281-1.316 12.584-1.316h114.338c4.293 0 8.505.449 12.574 1.316 23.17 4.905 41.852 23.118 46.767 47.083z" fill="#eb2540" data-original="#dd636e" class=""></path><path d="m167.159 426.987c-2.45 0-4.85.45-7.17 1.32-13.19 4.91-23.82 23.12-26.62 47.08l-3.4 29.11h-52.74l5.97-29.11c4.92-23.96 23.59-42.17 46.76-47.08 4.07-.87 8.28-1.32 12.58-1.32z" fill="#700209" data-original="#da4a54" class=""></path><path d="m233.607 370.395v56.598c0 18.713-15.174 33.887-33.887 33.887-18.723 0-33.898-15.174-33.898-33.887v-56.598z" fill="#ffcbbe" data-original="#ffcbbe" class=""></path><g fill="#eaac9d"><path d="m210.787 459.033c-3.467 1.193-7.189 1.846-11.065 1.846-18.723 0-33.898-15.174-33.898-33.887v-56.598h22.129v56.598c.001 14.847 9.546 27.462 22.834 32.041z" fill="#eaac9d" data-original="#eaac9d" class=""></path><path d="m58.135 323.267c-24.435 0-44.244-19.809-44.244-44.244 0-3.363.375-6.638 1.086-9.787 5.74-25.42 43.158-21.251 43.158 4.809h283.163c0-26.06 37.418-30.229 43.158-4.809.711 3.148 1.086 6.424 1.086 9.787 0 24.435-19.809 44.244-44.244 44.244" fill="#eaac9d" data-original="#eaac9d" class=""></path><path d="m165.822 370.395h67.785v52.142h-67.785z" fill="#eaac9d" data-original="#eaac9d" class=""></path></g><path d="m238.106 404.596h-76.779c-56.992 0-103.192-46.201-103.192-103.192v-145.538h283.163v145.538c.001 56.991-46.2 103.192-103.192 103.192z" fill="#ffcbbe" data-original="#ffcbbe" class=""></path><path d="m229.112 404.596h-67.785c-56.986 0-103.192-46.206-103.192-103.192v-145.544h67.785v145.544c0 56.985 46.197 103.192 103.192 103.192z" fill="#eaac9d" data-original="#eaac9d" class=""></path><g fill="#e490b7"><ellipse cx="293.116" cy="298.74" rx="23.176" ry="14.092" fill="#b71c1c" data-original="#e490b7" class=""></ellipse><ellipse cx="106.318" cy="298.74" rx="23.176" ry="14.092" fill="#b71c1c" data-original="#e490b7" class=""></ellipse></g><path d="m128.749 54.843h-43.817c-27.222 0-49.29 22.068-49.29 49.29v66.75c0 13.572 11.002 24.574 24.574 24.574h30.805c40.577 0 73.471-32.894 73.471-73.471v-31.401c-.001-19.74-16.003-35.742-35.743-35.742z" fill="#ffc250" data-original="#ffc250" class=""></path><path d="m128.484 54.836c-27.218 0-49.286 22.068-49.286 49.296v91.322h-18.982c-13.572 0-24.574-11.002-24.574-24.574v-66.748c0-27.228 22.068-49.296 49.286-49.296z" fill="#ebb044" data-original="#ebb044" class=""></path><path d="m275.855 183.454h-68.232c-36.942 0-66.89-29.948-66.89-66.89v-42.17c0-36.942 29.948-66.89 66.89-66.89h199.678v44.503c0 72.596-58.85 131.447-131.446 131.447z" fill="#ffc250" data-original="#ffc250" class=""></path><path d="m266.605 183.45h-58.984c-36.947 0-66.888-29.941-66.888-66.888v-42.168c0-36.947 29.941-66.888 66.888-66.888h58.984c-36.947 0-66.888 29.941-66.888 66.888v42.168c0 36.947 29.941 66.888 66.888 66.888z" fill="#ebb044" data-original="#ebb044" class=""></path></g><path d="m288.871 177.364c1.142 10.421 9.584 18.563 20.044 19.295.865.061 1.725.122 2.585.178 6.378.432 11.337 5.729 11.337 12.124v24.171c0 8.131 9.307 12.745 15.774 7.82 11.802-8.99 27.504-22.363 37.138-36.228 2.28-3.283 6.045-5.197 10.044-5.175 29.661.15 59.323-.804 88.984-2.89 8.269-.577 15.291-5.774 18.419-13.084.832-1.919 1.387-3.993 1.625-6.162 4.393-40.127 4.393-80.26 0-120.392-1.143-10.41-9.589-18.513-20.033-19.245-44.187-3.1-88.368-3.722-132.55-1.864-11.104.46-22.213 1.081-33.316 1.864-10.449.732-18.902 8.835-20.044 19.245-4.394 40.117-4.394 80.227-.007 120.343z" fill="#eb2540" data-original="#dd636e" class=""></path><path d="m370.176 121.648 25.477 43.739c2.879 4.942 8.981 6.975 14.248 4.746 5.651-2.391 8.384-8.837 6.173-14.561l-9.928-25.706 21.233-2.45c9.516-1.098 16.185-9.922 14.645-19.376l-3.878-23.806c-1.293-7.936-8.031-13.841-16.069-14.081l-69.287-2.068v54.09z" fill="#ffcbbe" data-original="#ffcbbe" class=""></path></g><g><path d="m185.719 289.892h27.997c4.143 0 7.5-3.358 7.5-7.5s-3.357-7.5-7.5-7.5h-27.997c-4.143 0-7.5 3.358-7.5 7.5s3.357 7.5 7.5 7.5z" fill="#000000" data-original="#000000" class=""></path><path d="m199.718 301.42c-14.77 0-28.021 8.797-33.763 22.412-1.609 3.817.181 8.215 3.997 9.825 3.818 1.61 8.217-.18 9.825-3.997 3.391-8.043 11.218-13.24 19.94-13.24s16.549 5.197 19.939 13.24c1.209 2.865 3.988 4.588 6.914 4.588.972 0 1.96-.19 2.911-.591 3.816-1.609 5.606-6.008 3.997-9.825-5.74-13.614-18.992-22.412-33.76-22.412z" fill="#000000" data-original="#000000" class=""></path><path d="m158.007 228.158c-22.176 0-34.602-16.348-35.181-17.127-2.438-3.333-7.115-4.069-10.458-1.641-3.353 2.433-4.098 7.123-1.665 10.475.359.494 5.011 6.761 13.602 12.669-6.035 2.128-10.577 11.042-10.577 21.688 0 12.226 5.99 22.173 13.354 22.173s13.354-9.947 13.354-22.173c0-5.784-1.342-11.055-3.534-15.007 6.049 2.348 13.093 3.944 21.105 3.944 4.143 0 7.5-3.358 7.5-7.5s-3.358-7.501-7.5-7.501z" fill="#000000" data-original="#000000" class=""></path><path d="m287.085 209.426c-3.328-2.441-8.014-1.718-10.473 1.598-.518.7-12.95 17.133-35.185 17.133-4.143 0-7.5 3.358-7.5 7.5s3.357 7.5 7.5 7.5c8.013 0 15.056-1.596 21.105-3.944-2.192 3.952-3.534 9.224-3.534 15.007 0 12.226 5.99 22.173 13.354 22.173s13.354-9.947 13.354-22.173c0-10.645-4.542-19.56-10.577-21.688 8.592-5.909 13.244-12.175 13.602-12.669 2.424-3.34 1.683-7.996-1.646-10.437z" fill="#000000" data-original="#000000" class=""></path><path d="m502.275 56.203c-1.539-14.025-12.879-24.921-26.963-25.908-20.081-1.409-40.29-2.303-60.51-2.691v-20.104c0-4.142-3.357-7.5-7.5-7.5h-196.52c-4.143 0-7.5 3.358-7.5 7.5s3.357 7.5 7.5 7.5h189.02v12.405c-19.342-.13-38.668.207-57.876 1.014-11.139.462-22.421 1.093-33.53 1.876-14.091.987-25.436 11.883-26.975 25.91-4.345 39.676-4.42 79.907-.247 119.622-1.773.075-3.548.124-5.322.124h-68.229c-32.748 0-59.39-26.642-59.39-59.39v-42.171c0-23.976 14.282-45.473 36.387-54.767 3.818-1.605 5.612-6.002 4.007-9.82-1.606-3.819-6.006-5.614-9.821-4.007-19.308 8.118-33.841 23.675-40.874 42.531-2.994-.648-6.059-.984-9.175-.984h-43.82c-31.314 0-56.79 25.476-56.79 56.79v66.75c0 14.351 9.47 26.53 22.487 30.616v46.775c-3.301-1.763-7.032-2.939-11.093-3.392-15.357-1.719-28.475 7.623-31.879 22.702-.843 3.732-1.271 7.581-1.271 11.439 0 27.328 21.298 49.761 48.166 51.606 12.599 45.975 54.164 80.096 103.768 81.422v7.439h-15.782c-4.776 0-9.537.5-14.132 1.482-26.479 5.6-47.107 26.368-52.555 52.911l-5.97 29.1c-.453 2.208.11 4.501 1.535 6.248 1.424 1.746 3.558 2.759 5.812 2.759h180.119c4.143 0 7.5-3.358 7.5-7.5s-3.357-7.5-7.5-7.5h-170.925l4.122-20.092c4.248-20.694 20.327-36.886 40.98-41.253 3.583-.766 7.288-1.154 11.013-1.154h16.476c3.54 19.254 20.437 33.894 40.699 33.894s37.158-14.639 40.698-33.894h16.467c3.725 0 7.43.388 11.028 1.158 20.646 4.366 36.726 20.557 40.965 41.252l4.129 20.09h-25.652c-4.143 0-7.5 3.358-7.5 7.5s3.357 7.5 7.5 7.5h34.851c2.254 0 4.389-1.014 5.813-2.76 1.425-1.747 1.987-4.042 1.534-6.25l-5.979-29.095c-5.438-26.542-26.066-47.311-52.54-52.91-4.61-.985-9.371-1.485-14.147-1.485h-15.773v-7.439c49.601-1.329 91.162-35.449 103.761-81.421 26.871-1.842 48.173-24.277 48.173-51.607 0-3.858-.428-7.707-1.271-11.438-3.404-15.08-16.519-24.416-31.879-22.702-4.063.453-7.797 1.631-11.1 3.396v-5.771c11.164-8.949 24.396-20.958 33.115-33.506.85-1.224 2.273-1.952 3.817-1.952h.027c29.831.146 59.958-.828 89.543-2.908 10.97-.765 20.471-7.515 24.779-17.582 1.14-2.628 1.88-5.429 2.199-8.33 4.432-40.483 4.432-81.538 0-122.028zm-459.129 114.68v-66.75c0-23.043 18.747-41.79 41.79-41.79h43.82c1.823 0 3.617.176 5.374.515-.588 3.774-.897 7.626-.897 11.532v42.17c0 15.464 4.747 29.839 12.855 41.751-12.155 18.4-32.844 29.652-55.072 29.652h-30.8c-9.412 0-17.07-7.662-17.07-17.08zm-21.755 108.14c0-2.749.304-5.485.901-8.135 2.087-9.241 9.705-11.752 15.586-11.098 5.876.655 12.734 4.772 12.755 14.213v.827c-6.029-2.686-12.362-2.897-18.288-.505-3.842 1.549-5.699 5.92-4.149 9.761 1.549 3.84 5.92 5.699 9.761 4.149 5.262-2.121 10.322 2.351 12.677 4.926v8.242c0 4.655.292 9.244.853 13.75-17.096-3.139-30.096-18.14-30.096-36.13zm178.327 174.361c-14.553 0-26.393-11.84-26.393-26.393v-14.895h52.784v14.758c-.001.046-.007.09-.007.136 0 .03.004.06.005.09-.049 14.512-11.867 26.304-26.389 26.304zm38.385-56.291h-76.779c-52.764 0-95.69-42.926-95.69-95.69v-10.985c0-.027 0-.054 0-.082v-16.291h.002c0-.03-.002-.06-.002-.09v-70.993h25.383c25.813 0 49.929-12.364 65.086-32.819 13.379 12.869 31.535 20.806 51.521 20.806h68.229c3.301 0 6.61-.129 9.894-.36 4.832 7.662 13.106 12.883 22.641 13.551l.183.013c.818.058 1.631.115 2.423.167 2.436.165 4.343 2.204 4.343 4.641v24.17c0 6.633 3.691 12.583 9.635 15.527 2.458 1.218 5.092 1.818 7.709 1.818.372 0 .743-.021 1.114-.045v50.972c-.001 52.764-42.928 95.69-95.692 95.69zm110.696-123.048c0-9.472 6.872-13.6 12.757-14.255 5.877-.656 13.499 1.856 15.586 11.099.598 2.649.901 5.386.901 8.134 0 17.992-13.003 32.995-30.103 36.131.561-4.506.854-9.095.854-13.751v-8.234c2.351-2.575 7.417-7.059 12.684-4.935 3.84 1.55 8.211-.309 9.761-4.149 1.55-3.841-.308-8.212-4.149-9.761-5.928-2.394-12.264-2.18-18.295.508v-.788h.004zm138.566-97.454c-.154 1.403-.508 2.75-1.064 4.034-2.1 4.904-6.716 8.181-12.052 8.553-29.216 2.054-58.956 3.025-88.415 2.871-.037 0-.074 0-.112 0-6.455 0-12.48 3.134-16.133 8.395-9.127 13.135-24.355 26.034-35.522 34.541-.996.759-1.955.473-2.437.234-.483-.24-1.294-.829-1.294-2.087v-24.17c0-10.298-8.051-18.911-18.352-19.608-.785-.051-1.569-.106-2.358-.162l-.188-.014c-6.848-.479-12.362-5.791-13.112-12.631v.002c-4.308-39.394-4.306-79.334.006-118.709.748-6.811 6.263-12.102 13.116-12.582 10.969-.773 22.105-1.396 33.104-1.852 43.694-1.836 88.008-1.214 131.71 1.852 6.845.48 12.354 5.771 13.103 12.58 4.312 39.404 4.312 79.361 0 118.753z" fill="#000000" data-original="#000000" class=""></path><path d="m445.55 83.028c-1.867-11.458-11.644-20.025-23.247-20.372l-69.288-2.068c-2.033-.069-3.993.703-5.447 2.115-1.455 1.413-2.276 3.354-2.276 5.382v54.09c0 2.028.821 3.97 2.277 5.383s3.442 2.184 5.449 2.114l12.925-.391 23.229 39.881c3.466 5.951 9.789 9.365 16.336 9.365 2.453 0 4.939-.48 7.316-1.485 9.438-3.994 13.938-14.61 10.246-24.17l-6.436-16.665 11.604-1.339c6.659-.769 12.552-4.136 16.593-9.483s5.673-11.935 4.596-18.55zm-12.685 33.311c-1.545 2.045-3.799 3.333-6.345 3.626l-21.233 2.45c-2.306.266-4.358 1.584-5.56 3.571-1.2 1.986-1.414 4.417-.577 6.582l9.928 25.707c.756 1.958-.166 4.133-2.099 4.951-1.788.755-3.87.063-4.846-1.614l-25.477-43.738c-1.346-2.311-3.816-3.725-6.479-3.725-.076 0-.152.001-.228.003l-9.659.292v-38.632l61.564 1.838c4.438.132 8.176 3.409 8.89 7.791l3.878 23.806c.413 2.528-.211 5.047-1.757 7.092z" fill="#000000" data-original="#000000" class=""></path></g></g></g></svg>