<svg xmlns="http://www.w3.org/2000/svg" version="1.1" xmlns:xlink="http://www.w3.org/1999/xlink" xmlns:svgjs="http://svgjs.com/svgjs" width="512" height="512" x="0" y="0" viewBox="0 0 512 512" style="enable-background:new 0 0 512 512" xml:space="preserve" className=""><g><g xmlns="http://www.w3.org/2000/svg"><g><path d="m470.704 119.867v.11c-.02.21-.11.42-.27.59-17.23 17.57-26.88 41.2-26.88 65.81v102.761l-77.15-.33-130.4-.56-31.8-.14-148.1-.63v-80.881c-.5-22.49.53-101.781 57.88-156.991 6.31-6.07 12.96-11.52 19.91-16.38.73-.51 1.47-1.03 2.23-1.53 18.97-12.83 40.04-21.38 62.05-26.33 54.95-12.38 115.8-2.31 164.74 19.65 2.49 1.11 2.42 4.67-.1 5.71l-19.97 8.21c-2.98 1.23-2.35 5.62.86 5.96l9.69 1.04c52.17 5.57 95.56 36.65 117.2 73.5.07.13.1.28.1.43.01.001.01.001.01.001z" fill="#ffb400" data-original="#ff7e50" className=""></path><path d="m470.704 119.867v.11c-.02.21-.11.42-.27.59-17.23 17.57-26.88 41.2-26.88 65.81v102.761l-77.15-.33-130.4-.56c-48.92-60.04-84.19-108.781-69.77-108.781 48.48 0 117.8 28.94 163.32 28.94 51.58 0 77.38-17.03 77.38-17.03 0-24.61 10.28-49.27 27.51-66.84-21.64-36.85-65.5-68.03-117.67-73.601l-9.69-1.04c-3.21-.34-3.84-4.73-.86-5.96l19.97-8.21c2.52-1.04 2.59-4.6.1-5.71-38.26-17.17-83.81-27.07-128.12-24.65 54.95-12.38 115.8-2.31 164.74 19.65 2.49 1.11 2.42 4.67-.1 5.71l-19.97 8.21c-2.98 1.23-2.35 5.62.86 5.96l9.69 1.04c52.17 5.57 95.56 36.65 117.2 73.5.07.13.1.28.1.43.01.001.01.001.01.001z" fill="#d49500" data-original="#ff6247" className=""></path><path d="m204.204 186.738v101.371l-148.1-.63v-80.881c-.5-22.49.53-101.781 57.88-156.991 6.31-6.07 12.96-11.52 19.91-16.38-59.35 42.15-14.76 122.93 70.31 153.511z" fill="#ffdb84" data-original="#ffa68a" className=""></path><path d="m470.704 119.867v.11c-.02.21-.11.42-.27.59-17.23 17.57-26.88 41.2-26.88 65.81v102.761l-77.15-.33v-62.74s-.42-8.7 1.54-21.13c4.04-25.48 18.12-66.62 66.5-80.4 10.41-2.971 22.42-4.671 36.26-4.671z" fill="#ffdb84" data-original="#ffa68a" className=""></path><path d="m470.704 119.867v.11c-.02.21-.11.42-.27.59-17.23 17.57-26.88 41.2-26.88 65.81v102.761l-77.15-.33v-62.74s-.42-8.7 1.54-21.13c25.99-4.98 38.99-13.56 38.99-13.56 0-24.61 10.28-49.27 27.51-66.84 10.41-2.971 22.42-4.671 36.26-4.671z" fill="#ffb400" data-original="#ff7e50" className=""></path><g fill="#fab684"><path d="m93.646 336.016c-3.427.913-7.027 1.4-10.742 1.4-22.979 0-41.608-18.629-41.608-41.608s18.629-41.608 41.608-41.608c4.059 0 7.983.581 11.692 1.665z" fill="#fab684" data-original="#fab684"></path><path d="m405.153 336.283c3.108.741 6.352 1.134 9.687 1.134 22.979 0 41.608-18.629 41.608-41.608s-18.628-41.609-41.607-41.609c-4.059 0-7.983.581-11.692 1.665z" fill="#fab684" data-original="#fab684"></path></g><path d="m409.504 354.139c0 38.12-32.46 83.671-96.52 135.401-17.95 14.57-40.41 22.52-63.57 22.46-3.25.01-6.49-.15-9.7-.46-19.71-1.86-38.5-9.49-53.95-22.04-64.01-51.71-96.47-97.251-96.47-135.361 0-4.05.15-8.1.5-11.99.41-4.2 1.37-12.03 1.65-22.19-.02-17.6-.16-32.61-.27-45.51-.05-6.08-.1-11.69-.13-16.88-.32-49.38 45.45-87.981 95.91-75.901 45.17 10.83 60.85 32.5 116.21 44.51 31.47 6.83 61.4 1.75 87.07-6.14 8.17-2.51 16.42 3.62 16.43 12.16.01 13.51-.02 38.65-.02 86.761.18 10.13 1.96 18.96 2.37 23.09.33 3.99.49 8.04.49 12.09z" fill="#ffe8c8" data-original="#ffe8c8"></path><g><path d="m91.043 278.564c.007 1.148.014.229.023-2.461-.02.817-.028 1.638-.023 2.461z" fill="#ffe8c8" data-original="#ffe8c8"></path><path d="m409.504 354.139c0 38.12-32.46 83.671-96.52 135.401-17.95 14.57-40.41 22.52-63.57 22.46-3.25.01-6.49-.15-9.7-.46 16.89-2.9 32.84-10.09 46.27-21 64.06-51.73 96.52-97.281 96.52-135.401 0-4.05-.16-8.1-.49-12.09-.41-4.13-2.19-12.96-2.37-23.09 0-20.54 0-36.89.01-49.94 0-12.47-11.03-21.98-23.38-20.26-16.81 2.34-34.7 2.42-53.11-1.58-55.36-12.01-71.04-33.68-116.21-44.51-48.71-11.66-93.04 23.9-95.78 70.78-.05-6.08-.1-11.69-.13-16.88-.32-49.38 45.45-87.981 95.91-75.901 45.17 10.83 60.85 32.5 116.21 44.51 31.47 6.83 61.4 1.75 87.07-6.14 8.17-2.51 16.42 3.62 16.43 12.16.01 13.51-.02 38.65-.02 86.761.18 10.13 1.96 18.96 2.37 23.09.33 3.99.49 8.04.49 12.09z" fill="#fdd9b4" data-original="#fdd9b4"></path></g><path d="m248.864 345.757c-12.634 0-22.913 10.279-22.913 22.913 0 4.142 3.358 7.5 7.5 7.5s7.5-3.358 7.5-7.5c0-4.363 3.55-7.913 7.913-7.913 4.364 0 7.914 3.55 7.914 7.913 0 4.142 3.358 7.5 7.5 7.5s7.5-3.358 7.5-7.5c-.001-12.634-10.28-22.913-22.914-22.913z" fill="#fab684" data-original="#fab684"></path><g><g><g><path d="m229.319 298.478c0 12.693-7.397 23.924-18.696 30.669-7.06 4.227-15.638 6.7-24.902 6.7-24.07 0-43.586-16.74-43.586-37.37 0-20.641 19.517-37.37 43.586-37.37 9.084 0 17.515 2.383 24.497 6.464 11.535 6.714 19.101 18.057 19.101 30.907z" fill="#ffffff" data-original="#ffffff" className=""></path></g><path d="m229.319 298.478c0 12.693-7.397 23.924-18.696 30.669-16.357-.753-29.399-14.255-29.399-30.804 0-16.414 12.827-29.826 28.994-30.77 11.535 6.712 19.101 18.055 19.101 30.905z" fill="#003343" data-original="#003343" className=""></path></g></g><g><g><g><path d="m355.592 298.478c0 12.693-7.397 23.924-18.696 30.669-7.06 4.227-15.638 6.7-24.902 6.7-24.07 0-43.586-16.74-43.586-37.37 0-20.641 19.517-37.37 43.586-37.37 9.084 0 17.516 2.383 24.497 6.464 11.535 6.714 19.101 18.057 19.101 30.907z" fill="#ffffff" data-original="#ffffff" className=""></path></g><path d="m355.592 298.478c0 12.693-7.397 23.924-18.696 30.669-16.357-.753-29.399-14.255-29.399-30.804 0-16.414 12.827-29.826 28.994-30.77 11.535 6.712 19.101 18.055 19.101 30.905z" fill="#003343" data-original="#003343" className=""></path></g></g></g><path d="m184.834 414.699c0 4.142 3.357 7.5 7.5 7.5h113.061c4.143 0 7.5-3.358 7.5-7.5s-3.357-7.5-7.5-7.5h-113.061c-4.142 0-7.5 3.358-7.5 7.5z" fill="#fab684" data-original="#fab684"></path></g></g></svg>