<svg xmlns="http://www.w3.org/2000/svg" version="1.1" xmlns:xlink="http://www.w3.org/1999/xlink" xmlns:svgjs="http://svgjs.com/svgjs" width="512" height="512" x="0" y="0" viewBox="0 0 512 512" style="enable-background:new 0 0 512 512" xml:space="preserve" className=""><g><path xmlns="http://www.w3.org/2000/svg" d="m226 271c8.289062 0 15 6.710938 15 15 0 8.277344 6.722656 15 15 15s15-6.722656 15-15c0-8.289062 6.710938-15 15-15 8.277344 0 15-6.722656 15-15s-6.722656-15-15-15c-8.289062 0-15-6.710938-15-15 0-29.03125-11.265625-45-15-45s-15 15.96875-15 45c0 8.289062-6.710938 15-15 15-8.277344 0-15 6.722656-15 15s6.722656 15 15 15zm0 0" fill="#ffb400" data-original="#000000" className=""></path><path xmlns="http://www.w3.org/2000/svg" d="m444.847656 293.308594-45.632812-152.140625-76.503906 38.25c-7.488282 3.71875-16.441407.644531-20.128907-6.707031-3.707031-7.414063-.703125-16.421876 6.707031-20.128907l81.179688-40.585937-4.230469-14.09375c-17.386719-57.964844-69.726562-97.902344-130.238281-97.902344s-112.851562 39.9375-130.238281 97.898438l-4.230469 14.09375 81.179688 40.589843c7.410156 3.703125 10.414062 12.714844 6.707031 20.125-3.691407 7.363281-12.648438 10.421875-20.128907 6.710938l-76.503906-38.253907-45.632812 152.132813c-4.085938 13.605469-6.152344 27.699219-6.152344 41.890625 0 67.371094 46.171875 126.507812 110.945312 142.375 9.785157 20.652344 30.867188 34.4375 54.054688 34.4375 10.574219 0 20.902344-2.855469 30-8.1875 9.097656 5.332031 19.425781 8.1875 30 8.1875 23.1875 0 44.269531-13.785156 54.054688-34.4375 64.773437-15.867188 110.945312-75.003906 110.945312-142.375 0-14.191406-2.066406-28.285156-6.152344-41.878906zm-233.261718-79.9375c3.398437-36.324219 21.355468-62.371094 44.414062-62.371094s41.015625 26.046875 44.414062 62.371094c17.769532 6.023437 30.585938 22.855468 30.585938 42.628906 0 20.273438-13.476562 37.457031-31.933594 43.066406-5.609375 18.457032-22.792968 31.933594-43.066406 31.933594s-37.457031-13.476562-43.066406-31.933594c-18.457032-5.609375-31.933594-22.792968-31.933594-43.066406 0-19.773438 12.816406-36.605469 30.585938-42.628906zm145.019531 203.234375c-19.25 19.25-27.15625-25.605469-83.027344-25.605469h-35.15625c-23.011719 0-45.542969 9.332031-61.816406 25.605469-5.859375 5.859375-15.351563 5.859375-21.210938 0s-5.859375-15.351563 0-21.210938c10.445313-10.445312 22.882813-18.597656 36.316407-24.433593l-9.128907-18.253907c-3.707031-7.410156-.703125-16.421875 6.707031-20.125 7.398438-3.664062 16.421876-.703125 20.128907 6.707031l11.726562 23.441407c5.722657-.867188 11.457031-1.730469 17.277344-1.730469h35.15625c5.820313 0 11.554687.863281 17.277344 1.730469l11.726562-23.441407c3.722657-7.410156 12.730469-10.371093 20.128907-6.707031 7.410156 3.703125 10.414062 12.714844 6.707031 20.125l-9.128907 18.253907c13.433594 5.835937 25.875 13.988281 36.316407 24.433593 5.859375 5.859375 5.859375 15.351563 0 21.210938zm0 0" fill="#ffb400" data-original="#000000" className=""></path><path xmlns="http://www.w3.org/2000/svg" d="m490.289062 62.582031-72.582031 35.792969 49.90625 166.402344c27.050781-25.109375 44.386719-60.546875 44.386719-98.777344v-90c0-5.199219-2.695312-10.019531-7.117188-12.757812-4.410156-2.753907-9.949218-2.988282-14.59375-.660157zm0 0" fill="#ffb400" data-original="#000000" className=""></path><path xmlns="http://www.w3.org/2000/svg" d="m94.292969 98.375-72.582031-35.792969c-4.644532-2.3125-10.167969-2.09375-14.59375.660157-4.421876 2.738281-7.117188 7.558593-7.117188 12.757812v90c0 38.234375 17.339844 73.671875 44.390625 98.785156zm0 0" fill="#ffb400" data-original="#000000" className=""></path></g></svg>