<svg xmlns="http://www.w3.org/2000/svg" version="1.1" xmlns:xlink="http://www.w3.org/1999/xlink" xmlns:svgjs="http://svgjs.com/svgjs" width="512" height="512" x="0" y="0" viewBox="0 0 32 32" style="enable-background:new 0 0 512 512" xml:space="preserve" className=""><g><g xmlns="http://www.w3.org/2000/svg" id="planet_x2C__earth_x2C__heart_x2C__love_x2C__world_x2C__peace"><g id="earth_x2C__globe_x2C__planet"><g id="XMLID_1497_"><g id="XMLID_2935_"><g id="XMLID_2938_"><path d="m15 30.5c-7.444 0-13.5-6.056-13.5-13.5s6.056-13.5 13.5-13.5 13.5 6.056 13.5 13.5-6.056 13.5-13.5 13.5z" fill="#80d8ff" data-original="#80d8ff" className=""></path></g></g><g id="XMLID_1504_"><path d="m25.678 8.771c.613 1.541.96 3.214.96 4.97 0 7.444-6.056 13.5-13.5 13.5-4.345 0-8.207-2.073-10.678-5.271 1.985 4.988 6.852 8.53 12.54 8.53 7.444 0 13.5-6.056 13.5-13.5 0-3.099-1.06-5.948-2.822-8.229z" fill="#65c7ea" data-original="#65c7ea"></path></g><g id="XMLID_1503_"><path d="m28.5 17c0-4.235-1.968-8.009-5.03-10.486-.194-.157-.46-.203-.699-.127l-2.35.743c-.192.06-.352.197-.442.376l-.692 1.387c-.064.126-.162.233-.284.306l-1.858 1.115c-.18.107-.307.287-.348.492-.207 1.037.586 2.005 1.643 2.005h4.302c.527 0 .889.533.692 1.022l-.404 1.008c-.48.871-1.725.962-2.318.104-.126-.183-.352-.272-.574-.272h-4.717c-.262 0-.505.137-.639.362l-.554.923c-.311.519-.033 1.191.554 1.337 0 0 .683.461.683.875v1.819c0 .174.061.344.173.477l1.931 2.318c.142.17.352.268.573.268h2.405c.305 0 .58.186.692.468l.744 1.859 2.69.475c.263.046.536-.047.706-.252 1.943-2.338 3.121-5.331 3.121-8.602z" fill="#55fb9b" data-original="#55fb9b" className=""></path></g><g id="XMLID_1502_"><path d="m25.678 8.771c.613 1.541.96 3.214.96 4.97 0 4.265-1.994 8.068-5.092 10.544l.438 1.094 2.69.475c.263.046.536-.047.706-.252.022-.026.057-.055.081-.082 1.897-2.326 3.039-5.291 3.039-8.52 0-3.099-1.06-5.948-2.822-8.229z" fill="#43e886" data-original="#43e886" className=""></path></g><g id="XMLID_1501_"><path d="m1.527 16.463c.121.042.248.072.385.072h.262c.656.001 1.187.533 1.186 1.189v.417c-.001.654-.532 1.186-1.188 1.186h-.457c.585 3.345 2.399 6.266 4.966 8.283l1.21-2.443c.083-.167.202-.311.351-.422.346-.26 1.006-.754 1.373-1.03.173-.131.305-.301.385-.502.192-.48.559-1.397.725-1.813.056-.14.084-.284.084-.435 0-.226 0-.604 0-1.03 0-.995-1.152-1.549-1.929-.926l-.073.058c-.211.168-.473.26-.742.26h-.517c-.546 0-1.021-.371-1.152-.899l-.113-.449c-.082-.327-.02-.674.168-.953l.609-.9c.221-.327.589-.522.983-.522h.113c.941 0 1.507-1.045.995-1.835l-.01-.019c-.128-.197-.193-.419-.193-.648v-1.419c0-.449.252-.859.654-1.061.355-.178.797-.399 1.17-.586.507-.253.788-.836.613-1.375-.249-.774-.784-1.409-1.505-1.437h-4.164c-2.468 2.346-4.045 5.608-4.189 9.239z" fill="#55fb9b" data-original="#55fb9b" className=""></path></g><g id="XMLID_2799_"><path d="m9.021 4.915 4.357 1.089c.587.147 1.157-.297 1.157-.904v-1.577c-1.976.069-3.841.561-5.514 1.392z" fill="#55fb9b" data-original="#55fb9b" className=""></path></g><g id="XMLID_1500_"><path d="m22.961 27.878-3.163-1.055c-.873-.291-1.825.129-2.198.97l-1.168 2.628c2.427-.256 4.657-1.17 6.529-2.543z" fill="#43e886" data-original="#43e886" className=""></path></g><g id="XMLID_1499_"><path d="m7.491 25.977c-1.979-.921-3.708-2.295-5.031-4.007.887 2.229 2.352 4.166 4.206 5.63.005.004.011.007.016.011z" fill="#43e886" data-original="#43e886" className=""></path></g><g id="XMLID_1498_"><path d="m1.965 18.396c0-7.444 6.057-13.5 13.5-13.5 5.685 0 10.55 3.537 12.536 8.521-1.574-5.708-6.798-9.917-13.001-9.917-7.444 0-13.5 6.056-13.5 13.5 0 1.759.348 3.436.964 4.979-.317-1.143-.499-2.34-.499-3.583z" fill="#ffffff" data-original="#ffffff"></path></g></g><g id="XMLID_1587_"><g id="XMLID_1588_"><g id="heart_x2C__love_4_"><g id="XMLID_1592_"><path d="m27.007 1.5c-1.202 0-2.262.607-2.891 1.532-.629-.925-1.688-1.532-2.891-1.532-1.929 0-3.493 1.564-3.493 3.493 0 4.095 6.384 7.507 6.384 7.507s6.384-3.412 6.384-7.507c0-1.929-1.564-3.493-3.493-3.493z" fill="#ff8a80" data-original="#ff8a80"></path></g><g id="XMLID_1591_"><path d="m27.007 1.5c-1.202 0-2.262.607-2.891 1.532-.629-.925-1.688-1.532-2.891-1.532-1.929 0-3.493 1.564-3.493 3.493 0 4.095 6.384 7.507 6.384 7.507s6.384-3.412 6.384-7.507c0-1.929-1.564-3.493-3.493-3.493z" fill="#ffffff" data-original="#ffffff"></path></g><g id="XMLID_1590_"><path d="m30.484 4.641c-.009-.031-.02-.062-.028-.093-.602-1.053-1.723-1.772-3.023-1.772-.899 0-1.719.34-2.338.898-.308.279-.788.288-1.096.008-.595-.541-1.378-.878-2.239-.905-1.002-.03-1.932.455-2.616 1.189-.992 1.064-1.088 2.064-.918 3.024 1.487 3.149 5.891 5.51 5.891 5.51s6.752-3.609 6.367-7.859z" fill="#ff8a80" data-original="#ff8a80"></path></g><g id="XMLID_1589_"><path d="m30.03 3.272c.019.147.044.292.044.445 0 1.958-1.46 3.761-2.985 5.108-1.949 1.724-4.868 1.708-6.813-.021-.976-.869-1.926-1.927-2.476-3.092.67 3.768 6.316 6.788 6.316 6.788s6.384-3.412 6.384-7.507c0-.629-.18-1.211-.47-1.721z" fill="#f27670" data-original="#f27670"></path></g></g></g></g></g><g id="XMLID_1595_"><g id="XMLID_1483_"><g id="XMLID_1496_"><path d="m21.052 13.311h-2.612c-.654 0-1.267-.29-1.682-.796-.416-.506-.58-1.165-.452-1.807.068-.344.281-.645.582-.824l.585-.351c.237-.142.544-.065.686.171.142.237.065.544-.171.686l-.586.352c-.06.036-.101.094-.115.161-.069.347.02.704.244.977s.556.43.909.43h2.611c.276 0 .5.224.5.5s-.223.501-.499.501z" fill="#455a64" data-original="#455a64" className=""></path></g><g id="XMLID_1561_"><path d="m24.806 26.366c-.073 0-.146-.006-.22-.02l-2.689-.474c-.171-.03-.313-.146-.378-.307l-.744-1.859c-.037-.092-.128-.154-.228-.154h-2.405c-.37 0-.719-.163-.957-.447l-1.932-2.319c-.186-.221-.289-.505-.289-.797v-1.819c-.02-.073-.211-.274-.404-.419-.388-.126-.695-.411-.854-.792-.172-.415-.139-.873.092-1.258l.554-.923c.223-.373.632-.604 1.068-.604h4.717c.406 0 .774.183.985.488.178.258.458.405.758.381.3-.015.565-.181.71-.442l.157-.4c.103-.256.394-.382.65-.278.256.103.381.394.278.65l-.183.456c-.339.623-.913.981-1.562 1.014-.641.024-1.257-.272-1.631-.813-.019-.027-.082-.056-.162-.056h-4.717c-.086 0-.167.045-.21.118l-.554.924c-.066.11-.076.242-.026.36.049.118.148.204.272.234.057.014.111.038.159.071.212.143.903.659.903 1.29v1.819c0 .058.02.113.056.156l1.932 2.319c.046.056.115.088.188.088h2.405c.514 0 .967.308 1.157.784l.64 1.6 2.416.427c.087.015.182-.016.235-.08.177-.212.492-.24.704-.064.212.177.241.492.064.704-.234.282-.587.442-.955.442z" fill="#455a64" data-original="#455a64" className=""></path></g><g id="XMLID_1494_"><path d="m6.682 28.11c-.111 0-.22-.037-.309-.107-2.727-2.142-4.556-5.193-5.15-8.59-.025-.146.015-.294.11-.408.095-.113.235-.178.383-.178h.458c.336 0 .629-.25.68-.582.042-.272.294-.461.57-.418.272.042.46.297.418.57-.12.778-.746 1.356-1.518 1.423.605 2.72 2.071 5.17 4.19 7.002l.93-1.878c.119-.238.292-.446.501-.601l1.371-1.029c.101-.076.175-.173.221-.288l.725-1.812c.033-.083.049-.164.049-.25v-1.03c0-.271-.146-.502-.39-.619-.245-.118-.517-.085-.727.083-.372.297-.746.428-1.127.428h-.519c-.776 0-1.45-.526-1.638-1.278l-.112-.448c-.116-.465-.029-.958.239-1.355l.61-.901c.313-.464.836-.742 1.397-.742h.113c.255 0 .48-.134.603-.359.123-.226.112-.489-.027-.704-.189-.292-.284-.611-.284-.938v-1.419c0-.643.356-1.22.93-1.508l1.17-.586c.3-.15.455-.483.361-.774-.166-.514-.529-1.07-1.05-1.09h-1.817c-.276 0-.5-.224-.5-.5s.224-.5.5-.5h1.836c.886.033 1.638.716 1.981 1.784.245.756-.126 1.606-.865 1.976l-1.17.586c-.232.117-.377.352-.377.614v1.419c0 .135.038.262.112.375.354.546.379 1.191.079 1.744-.3.552-.854.882-1.481.882h-.114c-.229 0-.441.113-.569.302l-.61.901c-.109.162-.145.363-.097.552l.112.448c.077.308.351.521.667.521h.518c.155 0 .308-.054.43-.151.583-.468 1.268-.545 1.857-.262.59.283.957.866.957 1.521v1.03c0 .211-.041.42-.12.62l-.725 1.813c-.113.283-.303.53-.548.716l-1.374 1.031c-.087.065-.155.147-.205.246l-1.207 2.44c-.067.135-.191.233-.338.266-.037.008-.074.012-.11.012z" fill="#455a64" data-original="#455a64" className=""></path></g><g id="XMLID_1493_"><path d="m2.958 17.332c-.118 0-.237-.042-.332-.126-.222-.164-.298-.5-.134-.723s.449-.292.669-.128c.044.032.087.066.129.103.207.183.225.499.042.706-.098.111-.236.168-.374.168z" fill="#455a64" data-original="#455a64" className=""></path></g><g id="XMLID_1492_"><path d="m11.047 5.921c-.041 0-.082-.005-.123-.015l-.347-.087c-.268-.067-.43-.339-.363-.607.067-.269.338-.43.607-.363l.347.087c.268.067.43.339.363.607-.056.228-.26.378-.484.378z" fill="#455a64" data-original="#455a64" className=""></path></g><g id="XMLID_1491_"><path d="m13.607 6.533c-.117 0-.235-.015-.351-.044l-1.131-.283c-.268-.067-.431-.338-.364-.606.066-.268.336-.433.606-.364l1.132.283c.128.032.265.003.37-.078.105-.083.166-.207.166-.341v-1.577c0-.276.224-.5.5-.5s.5.224.5.5v1.577c0 .444-.201.856-.551 1.129-.255.199-.563.304-.877.304z" fill="#455a64" data-original="#455a64" className=""></path></g><g id="XMLID_1490_"><path d="m16.431 30.922c-.068 0-.137-.014-.203-.043-.252-.112-.366-.408-.254-.66l1.168-2.628c.48-1.082 1.689-1.618 2.813-1.241l1.323.441c.262.087.403.37.316.632-.087.261-.368.405-.632.316l-1.323-.441c-.632-.21-1.312.089-1.583.699l-1.168 2.628c-.083.187-.265.297-.457.297z" fill="#455a64" data-original="#455a64" className=""></path></g><g id="XMLID_1560_"><path d="m15 31c-7.72 0-14-6.28-14-14s6.28-14 14-14c.279 0 .556.008.831.024.276.016.486.253.47.528s-.261.485-.528.47c-.256-.015-.514-.022-.773-.022-7.168 0-13 5.832-13 13s5.832 13 13 13 13-5.832 13-13c0-1.489-.25-2.949-.745-4.339-.092-.26.043-.546.304-.639.258-.092.546.043.639.304.532 1.498.802 3.071.802 4.674 0 7.72-6.28 14-14 14z" fill="#455a64" data-original="#455a64" className=""></path></g><g id="XMLID_1487_"><path d="m24.776 21.782c-.276 0-.5-.224-.5-.5s.224-.546.5-.546.5.177.5.454v.093c0 .276-.224.499-.5.499z" fill="#455a64" data-original="#455a64" className=""></path></g><g id="XMLID_1486_"><path d="m8.948 26.438c-.276 0-.5-.224-.5-.5s.224-.546.5-.546.5.177.5.454v.093c0 .275-.223.499-.5.499z" fill="#455a64" data-original="#455a64" className=""></path></g><g id="XMLID_1485_"><path d="m15.465 11.541c-.276 0-.5-.224-.5-.5s.224-.546.5-.546.5.177.5.454v.093c0 .275-.223.499-.5.499z" fill="#455a64" data-original="#455a64" className=""></path></g><g id="XMLID_1484_"><path d="m25.294 19.065c-.09 0-.182-.024-.264-.076-.523-.327-.943-.794-1.215-1.351-.121-.248-.018-.547.23-.668.249-.122.548-.018.668.23.19.389.482.714.846.941.234.146.306.455.16.689-.095.151-.258.235-.425.235z" fill="#455a64" data-original="#455a64" className=""></path></g><g id="XMLID_1585_"><g id="XMLID_1586_"><path d="m24.116 13c-.081 0-.162-.02-.236-.059-.271-.145-6.648-3.604-6.648-7.948 0-2.201 1.791-3.993 3.993-3.993 1.102 0 2.143.454 2.891 1.239.748-.785 1.789-1.239 2.891-1.239 1.75 0 3.28 1.12 3.808 2.787.123.39.185.796.185 1.206 0 4.344-6.376 7.803-6.648 7.948-.074.039-.155.059-.236.059zm-2.891-11c-1.65 0-2.993 1.343-2.993 2.993 0 3.32 4.759 6.28 5.884 6.933 1.125-.653 5.884-3.613 5.884-6.933 0-.308-.047-.613-.139-.905-.395-1.249-1.542-2.088-2.854-2.088-.992 0-1.918.491-2.477 1.313-.187.273-.641.273-.827 0-.559-.822-1.486-1.313-2.478-1.313z" fill="#455a64" data-original="#455a64" className=""></path></g></g></g></g></g></g></svg>