<svg xmlns="http://www.w3.org/2000/svg" version="1.1" xmlns:xlink="http://www.w3.org/1999/xlink" xmlns:svgjs="http://svgjs.com/svgjs" width="512" height="512" x="0" y="0" viewBox="0 0 511.999 511.999" style="enable-background:new 0 0 512 512" xml:space="preserve" className=""><g>
<g xmlns="http://www.w3.org/2000/svg">
	<g>
		<path d="M458.529,340.171l-33.374-7.974v-11.723c18.434-10.89,30.833-30.956,30.833-53.874v-44.247    c0-34.483-28.055-62.537-62.538-62.537h-6.916c-18.411,0-34.985,8.001-46.439,20.704c-11.093-35.905-44.595-62.068-84.095-62.068    s-73.002,26.161-84.095,62.068c-11.454-12.703-28.028-20.704-46.439-20.704h-6.916c-34.483,0-62.539,28.054-62.539,62.537V266.6    c0,22.917,12.399,42.984,30.833,53.874v11.723l-33.374,7.974c-31.474,7.52-53.456,35.371-53.456,67.73v30.102    c0,5.522,4.478,9.999,9.999,9.999h80.762c-0.506,3.942-0.767,7.955-0.767,12.02V492H30.012c-5.522,0-9.999,4.478-9.999,9.999    c0,5.522,4.478,9.999,9.999,9.999h451.974c5.522,0,9.999-4.478,9.999-9.999c0-5.522-4.478-9.999-9.999-9.999H421.99v-31.93    c0-4.083-0.263-8.111-0.773-12.067h80.768c5.522,0,9.999-4.478,9.999-9.999v-30.102    C511.985,375.542,490.002,347.69,458.529,340.171z M343.996,222.353c-0.001-23.456,19.082-42.539,42.539-42.539h6.916    c23.457,0,42.54,19.083,42.54,42.539v2.564c-14.43-0.176-28.423-4.428-40.522-12.345c-3.326-2.178-7.625-2.178-10.95,0    c-12.099,7.918-26.092,12.17-40.522,12.345V222.353z M343.995,258.444v-13.526c16.19-0.156,31.952-4.372,45.997-12.283    c14.045,7.912,29.807,12.127,45.997,12.283v21.683c0,23.457-19.083,42.54-42.54,42.54h-6.916c-23.457,0-42.54-19.083-42.54-42.54    V258.444z M363.173,373.54c-4.063-1.599-8.272-2.946-12.625-3.986l-31.78-7.593c2.358-0.969,4.795-1.765,7.299-2.365l31.587-7.57    L363.173,373.54z M354.895,320.513v11.61l-33.489,8.025c-7.241,1.735-14.101,4.603-20.358,8.471v-14.614    c13.706-8.203,25.005-20.025,32.568-34.138C338.955,308.33,346.261,315.427,354.895,320.513z M323.997,258.444    c0,37.493-30.503,67.996-67.996,67.996s-67.996-30.503-67.996-67.996v-29.292h10.99v0c28.073,0,54.819-8.958,76.807-25.226    l2.292,3.425c9.13,13.65,24.388,21.801,40.811,21.801h5.093V258.444z M188.003,206.446c0-37.492,30.503-67.995,67.996-67.995    c37.493,0,67.996,30.503,67.996,67.996v2.706h-5.093c-9.733,0-18.776-4.83-24.188-12.921l-3.698-5.528    c2.998-3.042,5.87-6.239,8.59-9.604c3.472-4.295,2.804-10.591-1.492-14.062c-4.292-3.472-10.59-2.805-14.062,1.492    c-20.863,25.816-51.865,40.622-85.058,40.622h-10.991V206.446z M178.383,299.867c7.58,14.145,18.913,25.989,32.66,34.193v14.615    c-6.282-3.897-13.174-6.782-20.451-8.526l-33.488-8.025v-11.61C165.737,315.427,173.043,308.33,178.383,299.867z M193.121,361.917    l-31.736,7.605c-4.326,1.037-8.509,2.376-12.547,3.965l5.507-21.459l31.586,7.57C188.396,360.188,190.797,360.968,193.121,361.917    z M76.011,222.353c-0.001-23.456,19.082-42.539,42.539-42.539h6.916c23.457,0,42.54,19.083,42.54,42.539v2.564    c-14.43-0.176-28.423-4.428-40.522-12.345c-3.326-2.178-7.625-2.178-10.95,0c-12.099,7.918-26.091,12.17-40.522,12.345V222.353z     M76.01,266.601v-21.683c16.19-0.156,31.952-4.372,45.997-12.283c14.045,7.912,29.807,12.127,45.997,12.283v13.526v8.157    c0,23.457-19.083,42.54-42.54,42.54h-6.916C95.093,309.141,76.01,290.058,76.01,266.601z M95.65,428.007H20.013v-0.002v-20.103    c0-23.066,15.669-42.92,38.103-48.278l31.485-7.522l14.875,57.982C100.916,415.692,97.949,421.695,95.65,428.007z     M106.844,328.024c3.794,0.722,7.704,1.115,11.705,1.115h6.916c3.979,0,7.866-0.389,11.64-1.103v10.71l-12.53,48.835    c-1.464,1.179-2.902,2.388-4.287,3.65l-13.444-52.405V328.024z M110.008,492.001v-31.976c0-24.249,11.775-46.086,30.536-59.464    l91.44,91.44H110.008z M159.23,390.964c2.221-0.763,4.491-1.437,6.816-1.994l47.756-11.444l23.471,91.481L159.23,390.964z     M231.041,364.246V342.83c7.916,2.345,16.291,3.611,24.958,3.611c8.7,0,17.106-1.275,25.05-3.638v21.558l-24.988,97.401    L231.041,364.246z M298.29,377.632l47.612,11.374c2.395,0.572,4.73,1.269,7.016,2.06l-78.113,78.114L298.29,377.632z     M401.991,492.001H280.266l91.306-91.307c18.693,13.381,30.419,35.174,30.419,59.377V492.001z M405.157,338.828L405.157,338.828    l-13.454,52.441c-1.378-1.255-2.808-2.457-4.264-3.63l-12.544-48.891v-10.71c3.774,0.714,7.662,1.103,11.64,1.103h6.916    c4.002,0,7.912-0.393,11.706-1.115V338.828z M491.986,428.005h-75.652c-2.299-6.302-5.264-12.293-8.819-17.893l14.882-58.011    l31.485,7.522c22.435,5.359,38.103,25.213,38.103,48.278V428.005z" fill="#ffb400" data-original="#000000" className=""></path>
	</g>
</g>
<g xmlns="http://www.w3.org/2000/svg">
	<g>
		<path d="M255.999,0C250.478,0,246,4.478,246,9.999v42.814c0,5.523,4.477,9.999,9.999,9.999c5.522,0,9.999-4.478,9.999-9.999V9.999    C265.999,4.478,261.521,0,255.999,0z" fill="#ffb400" data-original="#000000" className=""></path>
	</g>
</g>
<g xmlns="http://www.w3.org/2000/svg">
	<g>
		<path d="M263.068,80.515c-1.859-1.859-4.439-2.93-7.069-2.93c-2.641,0-5.21,1.07-7.07,2.93c-1.86,1.86-2.93,4.431-2.93,7.07    c0,2.63,1.069,5.21,2.93,7.07c1.86,1.86,4.44,2.93,7.07,2.93c2.63,0,5.21-1.07,7.069-2.93c1.86-1.87,2.931-4.44,2.931-7.07    C265.999,84.945,264.929,82.375,263.068,80.515z" fill="#ffb400" data-original="#000000" className=""></path>
	</g>
</g>
<g xmlns="http://www.w3.org/2000/svg">
	<g>
		<path d="M189.504,82.784l-37.051-37.043c-3.905-3.905-10.236-3.903-14.142,0.002c-3.904,3.905-3.903,10.236,0.002,14.142    l37.052,37.043c1.952,1.952,4.512,2.928,7.07,2.928c2.56,0,5.119-0.977,7.072-2.93C193.41,93.022,193.409,86.69,189.504,82.784z" fill="#ffb400" data-original="#000000" className=""></path>
	</g>
</g>
<g xmlns="http://www.w3.org/2000/svg">
	<g>
		<path d="M375.182,44.187c-3.905-3.902-10.234-3.904-14.142,0l-39.308,39.307c-3.905,3.905-3.905,10.236,0,14.142    c1.954,1.953,4.513,2.929,7.072,2.929s5.118-0.977,7.071-2.929l39.308-39.307C379.087,54.424,379.087,48.092,375.182,44.187z" fill="#ffb400" data-original="#000000" className=""></path>
	</g>
</g>
<g xmlns="http://www.w3.org/2000/svg">
</g>
<g xmlns="http://www.w3.org/2000/svg">
</g>
<g xmlns="http://www.w3.org/2000/svg">
</g>
<g xmlns="http://www.w3.org/2000/svg">
</g>
<g xmlns="http://www.w3.org/2000/svg">
</g>
<g xmlns="http://www.w3.org/2000/svg">
</g>
<g xmlns="http://www.w3.org/2000/svg">
</g>
<g xmlns="http://www.w3.org/2000/svg">
</g>
<g xmlns="http://www.w3.org/2000/svg">
</g>
<g xmlns="http://www.w3.org/2000/svg">
</g>
<g xmlns="http://www.w3.org/2000/svg">
</g>
<g xmlns="http://www.w3.org/2000/svg">
</g>
<g xmlns="http://www.w3.org/2000/svg">
</g>
<g xmlns="http://www.w3.org/2000/svg">
</g>
<g xmlns="http://www.w3.org/2000/svg">
</g>
</g></svg>