<svg xmlns="http://www.w3.org/2000/svg" version="1.1" xmlns:xlink="http://www.w3.org/1999/xlink" xmlns:svgjs="http://svgjs.com/svgjs" width="512" height="512" x="0" y="0" viewBox="0 0 128 128" style="enable-background:new 0 0 512 512" xml:space="preserve" className=""><g><g xmlns="http://www.w3.org/2000/svg"><g><circle cx="31.04" cy="31.04" fill="#e2f685" r="24.54" data-original="#fbd62e" className=""></circle><circle cx="53.542" cy="112.5" fill="#8af9ad" r="9" data-original="#f7502f" className=""></circle><circle cx="109" cy="91.808" fill="#e2f685" r="12.5" data-original="#fbd62e" className=""></circle><circle cx="64" cy="64" fill="#8af9ad" r="28.75" data-original="#f7502f" className=""></circle><g fill="#d93922"><circle cx="107.257" cy="49.27" r="3" fill="#22d93d" data-original="#d93922" className=""></circle><circle cx="24.297" cy="75.364" r="3" fill="#22d93d" data-original="#d93922" className=""></circle><circle cx="76.458" cy="58" r="6" fill="#22d93d" data-original="#d93922" className=""></circle><circle cx="54.042" cy="73.613" r="3" fill="#22d93d" data-original="#d93922" className=""></circle><circle cx="55.579" cy="52" r="3" fill="#22d93d" data-original="#d93922" className=""></circle></g></g><g fill="#051720"><path d="m45.94 104.9a10.75 10.75 0 1 0 15.2 0 10.764 10.764 0 0 0 -15.2 0zm12.728 12.729a7.247 7.247 0 1 1 0-10.254 7.26 7.26 0 0 1 0 10.252z" fill="#051720" data-original="#051720" className=""></path><path d="m122.423 87.013a1.75 1.75 0 1 0 -3.3 1.175 10.81 10.81 0 0 1 -2.523 11.221 10.739 10.739 0 0 1 -18.266-8.851h8.406a1.75 1.75 0 0 0 0-3.5h-7.374a10.721 10.721 0 0 1 14.221-4.977 1.75 1.75 0 1 0 1.492-3.166 14.25 14.25 0 1 0 7.344 8.1z" fill="#051720" data-original="#051720" className=""></path><path d="m31.682 25.712a1.75 1.75 0 1 0 0-3.5h-10.243a1.75 1.75 0 0 0 0 3.5z" fill="#051720" data-original="#051720" className=""></path><path d="m12.857 35.962a1.75 1.75 0 0 0 1.75 1.75h10.242a1.75 1.75 0 1 0 0-3.5h-10.242a1.75 1.75 0 0 0 -1.75 1.75z" fill="#051720" data-original="#051720" className=""></path><path d="m44.376 31.712a1.75 1.75 0 0 0 0-3.5h-17.071a1.75 1.75 0 0 0 0 3.5z" fill="#051720" data-original="#051720" className=""></path><path d="m74.547 88.863a26.889 26.889 0 0 1 -3.676 1.252 1.751 1.751 0 0 0 .442 3.444 1.8 1.8 0 0 0 .445-.057 30.572 30.572 0 0 0 4.154-1.416 1.75 1.75 0 0 0 -1.365-3.223z" fill="#051720" data-original="#051720" className=""></path><path d="m70.877 44.053a1.75 1.75 0 0 0 .527-3.419 24.38 24.38 0 0 0 -4.923-1.01 1.75 1.75 0 1 0 -.347 3.482 20.915 20.915 0 0 1 4.216.866 1.785 1.785 0 0 0 .527.081z" fill="#051720" data-original="#051720" className=""></path><path d="m105.923 53.829a4.73 4.73 0 0 0 5.306-7.123c1.988-3.642 2.354-6.707 1.045-9.118-4.36-7.954-23.186-2.443-31.952.654a30.519 30.519 0 0 0 -44.93 15.158 22.778 22.778 0 0 1 -20.464-38.47 22.792 22.792 0 0 1 38.793 13.87 1.75 1.75 0 0 0 3.483-.34 26.416 26.416 0 1 0 -22.921 28.665 30.71 30.71 0 0 0 -.78 6.742c-3.013 2.348-5.714 4.662-8.063 6.9a4.73 4.73 0 0 0 -5.654 6.066c-4.516 5.674-5.886 10.24-4.061 13.579 1.662 3.03 5.422 4.107 9.925 4.107 7.327 0 16.613-2.848 22.039-4.765a30.645 30.645 0 0 0 16.325 4.746c.305 0 .611 0 .916-.014a1.75 1.75 0 1 0 -.107-3.5 26.782 26.782 0 0 1 -12.9-2.822 178.125 178.125 0 0 0 20.116-9.464 177.806 177.806 0 0 0 18.79-11.812 26.872 26.872 0 0 1 -7.737 16.208 27.468 27.468 0 0 1 -3.842 3.2 1.75 1.75 0 0 0 1.98 2.885 30.817 30.817 0 0 0 4.336-3.607 30.3 30.3 0 0 0 8.934-21.437 93.26 93.26 0 0 0 11.423-10.308zm2.533-4.208a1.248 1.248 0 1 1 -.1-.952 1.254 1.254 0 0 1 .1.953zm.746-10.356c.652 1.2.341 3.092-.848 5.4a4.724 4.724 0 0 0 -5.187 6.993 87.247 87.247 0 0 1 -8.947 8.229 30.263 30.263 0 0 0 -8.654-17.454c-.587-.588-1.2-1.138-1.819-1.667 15.246-5.066 23.853-4.421 25.453-1.501zm-86.102 35.747a1.25 1.25 0 1 1 .848 1.551 1.252 1.252 0 0 1 -.848-1.551zm-4.3 13.718c-1-1.826.2-5.121 3.3-9.161a4.695 4.695 0 0 0 2.2.545 4.756 4.756 0 0 0 4.56-3.415 4.723 4.723 0 0 0 -.542-3.831c1.655-1.554 3.469-3.143 5.466-4.76a30.256 30.256 0 0 0 8.654 17.459c.583.584 1.2 1.135 1.821 1.666-15.251 5.067-23.859 4.422-25.459 1.497zm51.56-13.105a170.878 170.878 0 0 1 -22.219 10.236 27.742 27.742 0 0 1 -3.233-2.769 27 27 0 1 1 46.03-20.641 170.885 170.885 0 0 1 -20.578 13.174z" fill="#051720" data-original="#051720" className=""></path><path d="m81.938 52.521a7.75 7.75 0 1 0 0 10.958 7.7 7.7 0 0 0 0-10.958zm-2.474 8.484a4.25 4.25 0 1 1 0-6.01 4.222 4.222 0 0 1 0 6.01z" fill="#051720" data-original="#051720" className=""></path><path d="m54.042 68.863a4.75 4.75 0 1 0 3.358 8.109 4.751 4.751 0 0 0 -3.359-8.109zm.883 5.634a1.278 1.278 0 0 1 -1.767 0 1.251 1.251 0 1 1 1.767 0z" fill="#051720" data-original="#051720" className=""></path><path d="m55.579 47.25a4.75 4.75 0 1 0 3.359 8.108 4.75 4.75 0 0 0 -3.359-8.108zm.884 5.634a1.28 1.28 0 0 1 -1.768 0 1.25 1.25 0 1 1 1.768 0z" fill="#051720" data-original="#051720" className=""></path><path d="m106.063 93.058a1.75 1.75 0 0 0 0 3.5h7.687a1.75 1.75 0 0 0 0-3.5z" fill="#051720" data-original="#051720" className=""></path></g></g></g></svg>