<svg xmlns="http://www.w3.org/2000/svg" version="1.1" xmlns:xlink="http://www.w3.org/1999/xlink" xmlns:svgjs="http://svgjs.com/svgjs" width="512" height="512" x="0" y="0" viewBox="0 0 512 512" style="enable-background:new 0 0 512 512" xml:space="preserve" className=""><g><g xmlns="http://www.w3.org/2000/svg"><path d="m459.174 414.476h-80.144l60.871-16.254c13.986-9.952 21.74-29.027 18.525-47.26-4.677-26.521-29.967-44.23-56.489-39.554l-29.279 5.163c4.789-9.191 6.744-19.95 4.805-30.945-4.677-26.521-29.967-44.23-56.489-39.553l-16.006 2.826-.754-16.374c-3.776-21.413-32.993-45.243-48.385-66.455l-11.581-6.908c-19.051 11.741-47.282 43.001-38.661 93.068l-78.624 108.923-21.285 5.294c-44.826 8.291-85.737 39.902-85.737 96.791 0 26.931 21.831 40.394 48.762 40.394h390.473l36.344-7.884c7.722-8.627 12.418-20.02 12.418-32.51-.002-26.93-21.833-48.762-48.764-48.762z" fill="#ffffff" data-original="#a46a5a" className=""></path><path d="m247.873 119.405c-4.492 0-8.127-3.639-8.127-8.127 0-15.242 4.984-23.147 9.381-30.123 3.841-6.095 6.873-10.909 6.873-21.453 0-10.548-3.032-15.361-6.873-21.456-4.397-6.976-9.381-14.881-9.381-30.119 0-4.488 3.635-8.127 8.127-8.127s8.127 3.639 8.127 8.127c0 10.544 3.032 15.357 6.873 21.452 4.397 6.976 9.381 14.881 9.381 30.123 0 15.238-4.984 23.143-9.381 30.119-3.841 6.096-6.873 10.909-6.873 21.457 0 4.488-3.635 8.127-8.127 8.127z" fill="#ffffff" data-original="#f8ebcc" className=""></path><path d="m207.238 138.159c-4.492 0-8.127-3.639-8.127-8.127 0-17.27 4.825-26.317 9.079-34.302 3.849-7.214 7.175-13.444 7.175-26.651 0-4.488 3.635-8.127 8.127-8.127s8.127 3.639 8.127 8.127c0 17.27-4.825 26.317-9.079 34.302-3.849 7.214-7.175 13.444-7.175 26.651 0 4.488-3.635 8.127-8.127 8.127z" fill="#ffffff" data-original="#fff6e8" className=""></path><path d="m280.381 138.159c-4.492 0-8.127-3.639-8.127-8.127 0-17.27 4.825-26.317 9.079-34.302 3.849-7.214 7.175-13.444 7.175-26.651 0-4.488 3.635-8.127 8.127-8.127s8.127 3.639 8.127 8.127c0 17.27-4.825 26.317-9.079 34.302-3.849 7.214-7.175 13.444-7.175 26.651 0 4.488-3.635 8.127-8.127 8.127z" fill="#ffffff" data-original="#fff6e8" className=""></path><g fill="#845252"><path d="m125.968 495.746c-26.336 0-48.568-21.564-48.759-47.9-.222-30.706 11.435-54.085 29.214-70.475 12.886-11.879 29.444-19.009 46.703-22.056l152.245-26.877c4.349-.768 7.518-4.547 7.518-8.962 0-5.592-4.996-9.861-10.52-8.989l-108.355 17.109c-6.865 1.084-13.333-3.529-14.544-10.373-.3-1.703-.508-3.401-.627-5.088-1.653-23.457 16.299-43.844 39.456-47.933l86.669-15.302c.207-5.083-.068-12.471-.754-16.374l-50.504 8.918c-18.421 3.253-33.323-14.541-27.238-32.23 6.075-17.66 17.676-32.591 29.357-43.143-1.757-2.424-3.356-4.842-4.693-7.19-2.267-3.98-7.192-5.493-11.092-3.089-19.051 11.742-66.432 46.411-57.811 96.479v.116c.608 3.447 3.352 11.163 5.774 17.164l-40.129 7.085c-26.097 4.608-45.401 28.599-41.858 54.862 1.597 11.842 7.308 21.999 15.406 29.414l-31.626 5.535c-44.853 8.296-85.785 39.94-85.736 96.892.023 26.872 21.89 48.66 48.762 48.66l406.349.001c14.424 0 27.415-6.3 36.342-16.254z" fill="#ffffff" data-original="#845252" className=""></path><path d="m150.349 406.349c0 4.488 3.639 8.127 8.127 8.127h251.936s20.356-10.432 29.488-16.254h-281.424c-4.488 0-8.127 3.639-8.127 8.127z" fill="#ffffff" data-original="#845252" className=""></path></g></g></g></svg>