<svg xmlns="http://www.w3.org/2000/svg" version="1.1" xmlns:xlink="http://www.w3.org/1999/xlink" xmlns:svgjs="http://svgjs.com/svgjs" width="512" height="512" x="0" y="0" viewBox="0 0 512 512" style="enable-background:new 0 0 512 512" xml:space="preserve" className=""><g><radialGradient xmlns="http://www.w3.org/2000/svg" id="radial-gradient" cx="284.15" cy="371.77" gradientUnits="userSpaceOnUse" r="83.79"><stop offset="0"></stop><stop offset="1" stop-color="#4a1900"></stop></radialGradient><clipPath xmlns="http://www.w3.org/2000/svg" id="clip-path"><path d="m220.74 335.35h37.8c2.93 0 4.09 1.51 4.09 4.09v25.71c0 27.82-45.69 28.81-45.69-1v-25.6c0-2.12 1.46-3.2 3.8-3.2z" fill="#000000" data-original="#000000" className=""></path></clipPath><linearGradient xmlns="http://www.w3.org/2000/svg" id="linear-gradient" gradientUnits="userSpaceOnUse" x1="242.48" x2="261.43" y1="378.93" y2="388.86"><stop offset="0" stop-color="#fd536e"></stop><stop offset=".32" stop-color="#fd3e52"></stop><stop offset=".76" stop-color="#fe2732"></stop><stop offset="1" stop-color="#fe1e26"></stop></linearGradient><path xmlns="http://www.w3.org/2000/svg" d="m79.37 363.16c-8.65 35.47 2.7 70.27 77 81.13 52.34 7.65 172.12-4.66 205.87-17.06 20.07-7.38 48.84-27.71 42.76-64.07s-64.68-49.46-79.88-49.11-151.78 1.11-189 6.19c-27.12 3.71-51.27 20.43-56.75 42.92z" fill="#754c29" data-original="#754c29" className=""></path><path xmlns="http://www.w3.org/2000/svg" d="m299.77 334.2c15.83 1.53 42.18-4.65 30.37 9.3s-57.29 20.16-118.14 20.16c-74.24 0-91.12-17.06-84.37-32.56 7.14-16.41 45.57-3.1 81-3.1s59.07 3.1 91.14 6.2z" fill="#603913" data-original="#603913" className=""></path><path xmlns="http://www.w3.org/2000/svg" d="m368.31 320.25c7.19-33.13-25.31-99.25-61.8-99.25-17.3 0-73.77 33.44-111.37 26.36-28.69-3.1-72.39 2.79-83.59 26.31-19.29 40.51 12.15 61.52 76.06 69.9 51.21 6.75 169.39 28.75 180.7-23.32z" fill="#754c29" data-original="#754c29" className=""></path><path xmlns="http://www.w3.org/2000/svg" d="m227.2 241.17s-33.74 26.36-18.56 37.21 60.75 20.16 114.75-1.55c23-9.24 34.05-45.29-11.82-55.82-13.49-3.1-84.37 20.16-84.37 20.16z" fill="#603913" data-original="#603913" className=""></path><path xmlns="http://www.w3.org/2000/svg" d="m245.76 190c-40.93-1-91.12 12.41-86.06 55.82 3.95 33.88 51.17 24.42 89.44 23.26 36.36-1.11 76-5.16 84.37-40.32 2.49-10.64-29.1-37.33-87.75-38.76z" fill="#754c29" data-original="#754c29" className=""></path><path xmlns="http://www.w3.org/2000/svg" d="m293 128c19.48-5.51 59.06 51.17 42.19 96.13-10.14 27-60.75 20.17-74.25-4.65 30.38-41.89 10.13-85.3 32.06-91.48z" fill="#754c29" data-original="#754c29" className=""></path><path xmlns="http://www.w3.org/2000/svg" d="m115.37 124.82c4.19-1.39 8.53 2.13 11.61 6.31 3.54 4.81 5.58 10.48-1.42 13-2.23.82-6.63-.13-9.17-2.64-5.09-5.02-7.55-14.49-1.02-16.67z" fill="#000000" data-original="#000000" className=""></path><path xmlns="http://www.w3.org/2000/svg" d="m331.52 67.63c-3.52-11.81-23.75 8.37-17.52 15.13 3.58 3.84 21.09-3.23 17.52-15.13z" fill="#000000" data-original="#000000" className=""></path><path xmlns="http://www.w3.org/2000/svg" d="m124.85 126.24c-.17-10.87.94-30.64 11.69-25.86 12.65 5.63.92 28.78-9.16 34.21-1.6.87-2.47-4.4-2.53-8.35z" fill="#c2b59b" data-original="#c2b59b" className=""></path><path xmlns="http://www.w3.org/2000/svg" d="m86 139.49c1.37-17.91 19.07-7.85 28.43-3.34 1.71.83 2.65 2.6.3 3.83-8.82 4.64-29.81 14.14-28.73-.49z" fill="#e6e7e8" data-original="#e6e7e8"></path><path xmlns="http://www.w3.org/2000/svg" d="m215.38 380.72c-3.23-2.24-19.23 4.89-13.44 8.91 7.54 5.23 16.68-6.63 13.44-8.91z" fill="#603913" data-original="#603913" className=""></path><path xmlns="http://www.w3.org/2000/svg" d="m381.68 353.91c-3 2.46 1.36 18.3 6.8 13.88 7.08-5.73-3.77-16.34-6.8-13.88z" fill="#603913" data-original="#603913" className=""></path><path xmlns="http://www.w3.org/2000/svg" d="m316.36 404.64c-9.81 5.45-13.59 17.59-3 13.34s8.72-16.53 3-13.34z" fill="#603913" data-original="#603913" className=""></path><path xmlns="http://www.w3.org/2000/svg" d="m110.36 386.06c-5.76 7.89-2.83 19.55 4.21 12.45s-.86-17.05-4.21-12.45z" fill="#603913" data-original="#603913" className=""></path><path xmlns="http://www.w3.org/2000/svg" d="m166.45 289.23c6.9-.9 1.7 12.41-10.12 12.41s-1.69-10.85 10.12-12.41z" fill="#603913" data-original="#603913" className=""></path><g xmlns="http://www.w3.org/2000/svg" fill="#754c29"><path d="m274.62 281.88c9.9-1.3 2.42 17.84-14.56 17.84s-2.43-15.61 14.56-17.84z" fill="#754c29" data-original="#754c29" className=""></path><path d="m186.7 431.89c9.9-1.3 2.42 17.83-14.56 17.83s-2.43-15.6 14.56-17.83z" fill="#754c29" data-original="#754c29" className=""></path><path d="m354.89 269.21c3.24-8.69 18.4 6.12 10.68 20s-16.24-5.09-10.68-20z" fill="#754c29" data-original="#754c29" className=""></path><path d="m172.55 359.29c-4.91-8 17.21-8.54 23.36 6s-14.91 7.71-23.36-6z" fill="#754c29" data-original="#754c29" className=""></path><path d="m81.87 369.6c18.44-3.25 22-30.88 11.52-27.21-17.9 6.29-29.96 30.45-11.52 27.21z" fill="#754c29" data-original="#754c29" className=""></path><path d="m371.67 401.16c-4.9-8 17.22-8.54 23.37 6s-14.96 7.72-23.37-6z" fill="#754c29" data-original="#754c29" className=""></path><path d="m206.3 193.37c-4.9-8 17.21-8.54 23.37 6s-14.95 7.74-23.37-6z" fill="#754c29" data-original="#754c29" className=""></path></g><path xmlns="http://www.w3.org/2000/svg" d="m310 315c-7 7.52-5.64 19.61 2.6 13s1.46-17.43-2.6-13z" fill="#603913" data-original="#603913" className=""></path><path xmlns="http://www.w3.org/2000/svg" d="m212 222.56c6.9-.9 1.7 12.4-10.12 12.4s-1.68-10.85 10.12-12.4z" fill="#603913" data-original="#603913" className=""></path><path xmlns="http://www.w3.org/2000/svg" d="m256.23 238.32c-4.62 7.47.34 17.48 6.4 10.6s-3.72-14.92-6.4-10.6z" fill="#603913" data-original="#603913" className=""></path><path xmlns="http://www.w3.org/2000/svg" d="m319.35 181.82c-8.33 3.87-10.23 14.72-1 12.08s5.86-14.33 1-12.08z" fill="#603913" data-original="#603913" className=""></path><path xmlns="http://www.w3.org/2000/svg" d="m126 139.69c.8-1.36 6.94-3.6 7.13 1.22s-11.25 5.7-7.13-1.22z" fill="#000000" data-original="#000000" className=""></path><path xmlns="http://www.w3.org/2000/svg" d="m126.14 146.91c-3.74 2.06-6.75-4.27-3.8-5.78 3.66-1.84 9.42 2.68 3.8 5.78z" fill="#000000" data-original="#000000" className=""></path><path xmlns="http://www.w3.org/2000/svg" d="m447 235c-4.19-1.4-10.66 1.62-13.75 5.8-3.55 4.81-4.25 8.44 2.75 11 2.23.82 6.18 1.29 8.72-1.22 5.09-5.06 8.79-13.4 2.28-15.58z" fill="#000000" data-original="#000000" className=""></path><path xmlns="http://www.w3.org/2000/svg" d="m436.26 235.3c.17-10.87-.95-30.63-11.69-25.84-12.66 5.61-.93 28.78 9.16 34.2 1.59.86 2.46-4.41 2.53-8.36z" fill="#f1f2f2" data-original="#f1f2f2"></path><path xmlns="http://www.w3.org/2000/svg" d="m475.06 248.54c-1.38-17.91-19.07-7.85-28.44-3.34-1.71.82-2.65 2.61-.3 3.84 8.88 4.63 29.87 14.13 28.74-.5z" fill="#e6e7e8" data-original="#e6e7e8"></path><path xmlns="http://www.w3.org/2000/svg" d="m435.15 248.75c-.8-1.37-6.93-3.6-7.13 1.22s11.21 5.7 7.13-1.22z" fill="#000000" data-original="#000000" className=""></path><path xmlns="http://www.w3.org/2000/svg" d="m435 256c3.74 2.06 6.75-4.27 3.81-5.77-3.67-1.89-9.48 2.64-3.81 5.77z" fill="#000000" data-original="#000000" className=""></path><path xmlns="http://www.w3.org/2000/svg" d="m310.91 83.49c-2.6-3.32 3.68-8.64 7.33-6.28s-4.45 9.94-7.33 6.28z" fill="#000000" data-original="#000000" className=""></path><path xmlns="http://www.w3.org/2000/svg" d="m316.46 87.65c-4.39-1.56-1.67-10.25 3.15-10.22s1.71 11.94-3.15 10.22z" fill="#000000" data-original="#000000" className=""></path><path xmlns="http://www.w3.org/2000/svg" d="m316.81 48.58c6 4.71 4.66 24.29 2.93 25.12s-11.28-9.21-14.42-16 5.85-13.54 11.49-9.12z" fill="#c2b59b" data-original="#c2b59b" className=""></path><path xmlns="http://www.w3.org/2000/svg" d="m323.83 76.1c.54-1.82 13.44-15.5 21.73-14.41 7.54 1 8.94 12.69 2 14.61-7.62 2.14-24.74 3.28-23.73-.2z" fill="#e6e7e8" data-original="#e6e7e8"></path><path xmlns="http://www.w3.org/2000/svg" d="m293.89 207.44h4v32.98h-4z" transform="matrix(.129 -.992 .992 .129 35.77 488.58)" fill="#000000" data-original="#000000" className=""></path><path xmlns="http://www.w3.org/2000/svg" d="m162.44 221.72h38.43v4h-38.43z" transform="matrix(.836 -.549 .549 .836 -93.04 136.59)" fill="#000000" data-original="#000000" className=""></path><circle xmlns="http://www.w3.org/2000/svg" cx="183.63" cy="282.66" fill="#ffffff" r="44.73" data-original="#ffffff" className=""></circle><circle xmlns="http://www.w3.org/2000/svg" cx="183.22" cy="280.35" r="25.86" fill="#000000" data-original="#000000" className=""></circle><path xmlns="http://www.w3.org/2000/svg" d="m162.82 266.86c1.26 1.23 3.59.87 5.2-.79s1.91-4 .65-5.23-3.59-.87-5.21.79-1.9 4.01-.64 5.23z" fill="#ffffff" data-original="#ffffff" className=""></path><circle xmlns="http://www.w3.org/2000/svg" cx="301.41" cy="282.66" fill="#ffffff" r="44.73" data-original="#ffffff" className=""></circle><circle xmlns="http://www.w3.org/2000/svg" cx="301.01" cy="280.35" r="25.86" fill="#000000" data-original="#000000" className=""></circle><path xmlns="http://www.w3.org/2000/svg" d="m280.61 266.86c1.25 1.23 3.59.87 5.2-.79s1.9-4 .65-5.23-3.59-.87-5.21.79-1.9 4.01-.64 5.23z" fill="#ffffff" data-original="#ffffff" className=""></path><path xmlns="http://www.w3.org/2000/svg" d="m220.74 335.35h37.8c2.93 0 4.09 1.51 4.09 4.09v25.71c0 27.82-45.69 28.81-45.69-1v-25.6c0-2.12 1.46-3.2 3.8-3.2z" fill="url(#radial-gradient)" data-original="url(#radial-gradient)"></path><g xmlns="http://www.w3.org/2000/svg" clip-path="url(#clip-path)"><path d="m237.15 393.95c-7-13.18 4.69-33.4 25.15-24.82 18.04 7.56-14.49 44.8-25.15 24.82z" fill="url(#linear-gradient)" data-original="url(#linear-gradient)"></path><g fill="#fff"><path d="m213.52 330.86c6.06-6.06 16.42-3.67 18.41 3.29 1.31 4.6-3.29 18.4-11.83 17.09-8.04-1.24-10.52-16.43-6.58-20.38z" fill="#ffffff" data-original="#ffffff" className=""></path><path d="m231.6 330.86c6.06-6.06 16.42-3.67 18.41 3.29 1.32 4.6-3.29 18.4-11.83 17.09-8.04-1.24-10.52-16.43-6.58-20.38z" fill="#ffffff" data-original="#ffffff" className=""></path><path d="m249.68 330.86c6.06-6.06 16.42-3.67 18.41 3.29 1.31 4.6-3.28 18.4-11.83 17.09-8.04-1.24-10.53-16.43-6.58-20.38z" fill="#ffffff" data-original="#ffffff" className=""></path></g></g></g></svg>