<svg xmlns="http://www.w3.org/2000/svg" version="1.1" xmlns:xlink="http://www.w3.org/1999/xlink" xmlns:svgjs="http://svgjs.com/svgjs" width="512" height="512" x="0" y="0" viewBox="0 0 512 512" style="enable-background:new 0 0 512 512" xml:space="preserve" className=""><g><g xmlns="http://www.w3.org/2000/svg"><g><path d="m260.912 453.044h-58.572v29.435c0 12.162 9.859 22.021 22.021 22.021h41.6c9.377 0 16.979-7.602 16.979-16.979v-12.449c0-12.166-9.862-22.028-22.028-22.028z" fill="#07ac00" data-original="#ff6f7f" className=""></path><path d="m143.189 453.044h59.123l29.561-42.864-29.561-42.863h-59.123z" fill="#6a647f" data-original="#6a647f" className=""></path><path d="m202.312 367.317h59.122v85.727h-59.122z" fill="#5c586f" data-original="#5c586f"></path><path d="m201.761 453.044h-58.572v29.435c0 12.162 9.859 22.021 22.021 22.021h41.6c9.377 0 16.979-7.602 16.979-16.979v-12.449c0-12.166-9.862-22.028-22.028-22.028z" fill="#4be900" data-original="#ff8997" className=""></path><path d="m397.208 295.665c0 16.473-13.35 29.822-29.822 29.822h-22.009l-19.849-29.822 19.849-29.822h22.009c16.472-.001 29.822 13.349 29.822 29.822z" fill="#ffd3bc" data-original="#ffd3bc" className=""></path><path d="m96.273 233.884-5.707 37.705-36.446 4.621c-6.734-6.778-12.395-13.295-17.123-19.292-4.37-5.542-6.42-12.027-6.42-18.436 0-11.354 6.463-22.426 17.937-27.437 12.395-5.411 28.555-5.45 36.938 5.167 3.362 4.262 5.855 12.629 10.821 17.672z" fill="#ffd3bc" data-original="#ffd3bc" className=""></path><path d="m149.211 378.161h104.274l22.406-48.761-33.251-51.979h-82.584l-39.664 55.414z" fill="#ffffff" data-original="#ffffff" className=""></path><path d="m135.569 265.69c-1.536-1.54-3.247-2.944-5.135-4.164-14.261-9.218-25.506-18.848-34.16-27.643l-42.153 42.327c11.549 11.647 26.233 24.053 44.669 35.874.487.313.984.597 1.481.878-8.837 18.219-14.902 35.886-18.799 49.243-3.426 11.745 5.409 23.481 17.644 23.481h42.572c10.144 0 18.368-8.224 18.368-18.368v-89.896z" fill="#4be900" data-original="#ff8997" className=""></path><path d="m308.591 90.648c16.264.011 24.778-19.454 13.619-31.299-29.72-31.538-71.72-51.395-118.27-51.841-91.512-.893-166.4 74.975-166.4 166.486z" fill="#6a647f" data-original="#6a647f" className=""></path><path d="m240.572 11.993c-11.777-2.811-24.036-4.364-36.633-4.485-91.511-.893-166.399 74.975-166.399 166.487l64.397-19.802c8.125-69.402 64.541-125.928 138.635-142.2z" fill="#5c586f" data-original="#5c586f"></path><path d="m242.64 277.421v89.896c0 10.144 8.224 18.368 18.368 18.368h42.572c12.234 0 21.069-11.736 17.644-23.481-2.993-10.263-7.268-23.071-13.094-36.717h37.247v-59.645h-63.077c-3.174 0-6.23.501-9.1 1.42z" fill="#4be900" data-original="#ff8997" className=""></path><path d="m328.981 172.263c0 70.283-57.23 127.197-127.633 126.675-18.017-.131-35.12-4.006-50.568-10.876-44.351-19.683-75.138-64.078-75.138-115.799 0-14.668 2.494-28.75 7.079-41.848 8.373-23.918 31.167-39.767 56.508-39.767h169.361c18.595 22.045 20.391 50.524 20.391 81.615z" fill="#ffd3bc" data-original="#ffd3bc" className=""></path><g><ellipse cx="228.028" cy="176.172" fill="#423e4f" rx="14.188" ry="15.877" data-original="#423e4f"></ellipse></g><path d="m406.134 148.124-109.882 45.438c-11.007 4.552-17.403 16.11-15.414 27.854l7.012 41.398c1.989 11.744 11.835 20.551 23.727 21.224l118.717 6.717 13.405-75.632z" fill="#93bbe7" data-original="#93bbe7" className=""></path><path d="m420.737 258.325c-54.885 0-100.955-29.451-113.719-69.215l-10.767 4.452c-11.007 4.552-17.403 16.11-15.414 27.854l7.012 41.398c1.989 11.744 11.835 20.551 23.727 21.224l118.717 6.717 5.888-33.221c-5.054.518-10.208.791-15.444.791z" fill="#69a2de" data-original="#69a2de" className=""></path><path d="m481.262 282.121-24.159-142.63c-2.384-14.075-15.727-23.552-29.801-21.168-14.075 2.384-23.552 15.727-21.168 29.801l24.159 142.63c2.384 14.075 15.727 23.552 29.801 21.168 14.075-2.384 23.552-15.726 21.168-29.801z" fill="#4be900" data-original="#ff8997" className=""></path><path d="m100.922 171.509c0-28.529 8.132-55.356 22.427-78.734-18.598 5.069-34.055 18.868-40.628 37.64-.235.673-.462 1.35-.686 2.027-2.432-.708-5.255-1.094-8.568-1.094-23.802 0-43.096 19.295-43.096 43.096 0 23.802 19.295 43.097 43.096 43.097 3.943 0 7.201-.54 9.914-1.532 11.797 32.192 36.242 58.226 67.4 72.053 2.68 1.192 5.413 2.287 8.189 3.295-35.722-29.968-58.048-72.572-58.048-119.848z" fill="#ffbe9c" data-original="#ffbe9c" className=""></path><path d="m475.442 247.761c-15.211 6.278-32.401 10.019-50.653 10.503l5.503 32.49c2.384 14.075 15.727 23.552 29.801 21.168 14.075-2.384 23.552-15.727 21.168-29.802z" fill="#07ac00" data-original="#ff6f7f" className=""></path></g><g><path d="m160.064 174.323c4.142 0 7.499-3.358 7.499-7.499v-11.451c0-4.142-3.358-7.499-7.499-7.499-4.142 0-7.499 3.358-7.499 7.499v11.451c-.001 4.141 3.357 7.499 7.499 7.499z" fill="#000000" data-original="#000000" className=""></path><path d="m228.029 199.529c11.958 0 21.686-10.485 21.686-23.375 0-12.888-9.729-23.375-21.686-23.375-11.958 0-21.686 10.486-21.686 23.375s9.728 23.375 21.686 23.375zm0-31.751c3.625 0 6.688 3.836 6.688 8.376 0 4.541-3.063 8.376-6.688 8.376s-6.688-3.836-6.688-8.376 3.063-8.376 6.688-8.376z" fill="#000000" data-original="#000000" className=""></path><path d="m295.994 174.323c4.142 0 7.499-3.358 7.499-7.499v-11.451c0-4.142-3.358-7.499-7.499-7.499-4.142 0-7.499 3.358-7.499 7.499v11.451c0 4.141 3.358 7.499 7.499 7.499z" fill="#000000" data-original="#000000" className=""></path><path d="m31.128 261.535c16.488 20.913 37.06 39.209 59.561 54.176-7.85 17.209-13.194 33.364-16.401 44.357-4.83 16.562 7.601 33.078 24.841 33.078h36.57v89.284c0 16.277 13.242 29.519 29.518 29.519 41.149-.452 42.999 1.063 49.952-1.471 7.643 2.515 10.818 1.054 50.789 1.471 13.496 0 24.476-10.98 24.476-24.477v-12.447c0-13.5-9.111-24.904-21.504-28.409v-53.47h34.643c17.257 0 29.667-16.53 24.841-33.078-2.696-9.24-5.762-18.321-9.154-27.113h48.112c20.191 0 36.677-16.121 37.289-36.167l19.793 1.12c9.196 25.201 43.007 29.602 58.485 7.811 5.158-7.261 7.179-16.097 5.691-24.878l-24.157-142.616c-4.986-29.439-43.037-37.706-60.06-13.741-3.957 5.572-6.06 12.071-6.156 18.76l-61.796 25.554c-.122-26.574-1.882-52.146-15.414-73.76 5.037-2.71 9.114-7.081 11.535-12.683 4.19-9.695 2.303-20.483-4.924-28.155-32.505-34.494-76.416-53.739-123.642-54.192-29.316-.277-58.399 7.126-84.11 21.435-3.619 2.014-4.92 6.581-2.906 10.2s6.581 4.92 10.2 2.906c23.442-13.045 49.955-19.783 76.672-19.542 43.108.414 83.193 17.986 112.872 49.48 3.101 3.291 3.876 7.747 2.073 11.919-1.823 4.218-5.642 6.735-10.224 6.735-.002 0-.006 0-.008 0h-169.346c-27.017 0-51.572 16.111-62.052 40.831-8.386-.611-17.433.911-25.553 4.8 8.971-30.2 26.8-57.293 51.458-77.731 3.189-2.643 3.631-7.371.988-10.559-2.644-3.189-7.371-3.631-10.559-.988-32.361 26.82-53.955 64.14-60.969 105.249-6.068 8.344-9.66 18.6-9.66 29.684 0 13.552 5.366 25.867 14.073 34.958-15.633 12.676-18.717 35.816-5.837 52.15zm18.317-42.594c8.444 4.57 18.501 6.83 28.793 5.851.404.508.82 1.025 1.246 1.547 1.373 3.122 2.878 6.216 4.5 9.248-6.362 6.388.503-.505-29.749 29.872-4.002-4.306-7.796-8.73-11.328-13.211-8.65-10.967-5.141-26.685 6.538-33.307zm.959-71.589c6.172-5.269 13.922-8.251 21.946-8.486-2.8 10.92-4.19 22.24-4.19 33.38 0 12.505 1.731 25.281 5.382 37.773-18.002.462-35.65-14.818-35.65-35.592-.001-10.862 4.896-20.576 12.512-27.075zm38.283 216.915c3.419-11.722 9.377-29.576 18.344-48.065 1.728-3.562.389-7.853-3.057-9.801-7.649-4.317-25.382-17.239-39.179-30.292 3.03-3.042 24.785-24.887 27.232-27.344 15.583 22.528 37.136 38.888 60.536 48.15-.043 75.629.287 71.219-.536 73.72-1.477 4.468-5.657 7.513-10.331 7.513h-42.566c-7.229-.001-12.472-6.924-10.443-13.881zm146.453-61.915c.108 65.761-.207 65.019.215 68.271-7.749 0-59.509 0-68.007 0 .418-3.226.115-2.345.215-68.733 22.281 5.946 46.168 5.934 67.577.462zm-84.442 89.175c3.441-1.281 6.635-3.342 9.216-5.905h34.902v59.877h-44.118zm59.116 53.972v-59.877h32.975c3.062 3.041 6.881 5.318 11.143 6.532v53.345zm-44.597 51.451c-8.006 0-14.52-6.514-14.52-14.52v-21.932c55.09.025 52.301-.236 55.113.585 5.947 1.676 10.481 7.273 10.481 13.942-.046 12.846.504 14.304-1.429 17.427-1.666 2.688-4.663 4.498-8.049 4.498zm110.219-21.926v12.447c0 5.227-4.252 9.478-9.478 9.478h-36.58c3.006-7.129 1.481-11.931 1.911-21.926 0-4.879-1.228-10.011-3.758-14.527h33.378c8.01.001 14.527 6.518 14.527 14.528zm38.58-110.757c2.025 6.941-3.195 13.879-10.442 13.879-44.991.022-43.603.248-46.045-.581-4.399-1.487-7.39-5.678-7.39-10.286v-69.649c13.123-5.03 25.301-12.084 35.651-20.351 5.264 7.677 13.682 12.957 23.571 14.063 1.899.209.622.067 28.505 1.665v24.948h-29.744c-2.519 0-4.87 1.264-6.258 3.367-3.996 6.05 1.75 7.289 12.152 42.945zm53.356-46.312h-14.507v-24.099c6.828.386 29.988 1.697 36.825 2.084-.163 12.167-10.112 22.015-22.318 22.015zm61.163-192.251c9.994-1.691 19.458 5.022 21.152 15.024l24.157 142.616c.818 4.832-.294 9.692-3.132 13.688-9.404 13.239-30.319 8.54-33.045-7.56l-6.4-37.783c-1.119-6.607-9.673-8.489-13.508-3.091-3.137 4.416-.354 6.856 3.549 34.107-114.802-6.494-110.471-6.022-113.431-6.907h-.001c-6.231-1.866-10.745-6.898-12.26-12.58-.391-1.45-7.492-43.504-7.586-44.639-.643-7.799 3.763-15.081 11.081-18.107l101.182-41.841 11.189 66.056c.688 4.064 4.54 6.837 8.646 6.142 4.084-.692 6.833-4.563 6.141-8.647l-12.759-75.327c-1.693-9.996 5.027-19.456 15.025-21.151zm-123.556-27.567c15.5 20.504 17.118 50.111 16.459 76.872l-28.058 11.602c-14.331 5.926-22.531 20.743-19.941 36.033l6.741 39.797c-77.053 66.642-197.022 11.945-197.022-90.197 0-14.841 3.135-30.582 7.376-41.294 7.722-19.514 26.903-32.814 48.705-32.814h165.74z" fill="#000000" data-original="#000000" className=""></path></g></g></g></svg>