<svg xmlns="http://www.w3.org/2000/svg" version="1.1" xmlns:xlink="http://www.w3.org/1999/xlink" xmlns:svgjs="http://svgjs.com/svgjs" width="512" height="512" x="0" y="0" viewBox="0 0 64 64" style="enable-background:new 0 0 512 512" xml:space="preserve" className=""><g><g xmlns="http://www.w3.org/2000/svg"><path d="m60 1h-50c-1.654 0-3 1.346-3 3v15.586l-.586-.586h-.414c-2.757 0-5 2.243-5 5v.414l5.178 5.178c-.113.456-.178.926-.178 1.408 0 1.165.34 2.278.972 3.225-1.152.46-1.972 1.581-1.972 2.896 0 .834.324 1.618.914 2.207l9.758 9.758c.581.581 1.385.914 2.207.914 1.271 0 2.363-.766 2.849-1.858l8.749 8.749 7.055 2.016 5.117 4.093h.351c1.654 0 3-1.346 3-3v-.351l-4.094-5.118-2.016-7.055-.475-.476h21.585c1.654 0 3-1.346 3-3v-40c0-1.654-1.346-3-3-3zm-50 2h50c.552 0 1 .449 1 1v5h-52v-5c0-.551.448-1 1-1zm-6.975 20.611c.175-1.344 1.243-2.411 2.586-2.586l4.041 4.041c-.274.192-.535.403-.773.641l-1.172 1.172c-.24.24-.451.499-.643.771zm26.975 30.975-1.586-1.586 6.586-6.586 1.586 1.586zm-3-3-6.913-6.913s-.001-.001-.001-.001l-9.758-9.758-1.207-1.207c-.723-.723-1.121-1.685-1.121-2.707s.398-1.984 1.121-2.707l1.172-1.172c.713-.712 1.699-1.121 2.707-1.121s1.994.409 2.707 1.121l17.879 17.879zm-9.121-3.586c-.295 0-.584-.12-.793-.328l-9.758-9.758c-.212-.212-.328-.493-.328-.793 0-.618.503-1.121 1.121-1.121.295 0 .584.12.793.328l9.758 9.758c.212.212.328.493.328.793 0 .618-.503 1.121-1.121 1.121zm22.038 8.497 3.038 3.798c-.097.314-.346.563-.66.66l-3.798-3.039zm-3.208.38-4.8-1.371 5.597-5.597 1.372 4.8zm23.291-11.877h-23.586l-19.293-19.293c-1.085-1.085-2.587-1.707-4.121-1.707-.476 0-.946.067-1.405.181l-2.595-2.595v-10.586h52v33c0 .551-.448 1-1 1z" fill="#ffb400" data-original="#000000" className=""></path><path d="m19 5h2v2h-2z" fill="#ffb400" data-original="#000000" className=""></path><path d="m15 5h2v2h-2z" fill="#ffb400" data-original="#000000" className=""></path><path d="m11 5h2v2h-2z" fill="#ffb400" data-original="#000000" className=""></path><path d="m31 33h28v-20h-28zm2-2v-2h6.293c2.013 0 3.905-.784 5.328-2.208l2.172-2.171c1.046-1.045 2.436-1.621 3.914-1.621 1.253 0 2.481.431 3.458 1.213l2.835 2.268v4.519zm24-16v8.919l-1.585-1.268c-1.33-1.065-3.002-1.651-4.708-1.651-2.013 0-3.905.784-5.328 2.208l-2.172 2.171c-1.046 1.045-2.436 1.621-3.914 1.621h-6.293v-12z" fill="#ffb400" data-original="#000000" className=""></path><path d="m38 23c1.654 0 3-1.346 3-3s-1.346-3-3-3-3 1.346-3 3 1.346 3 3 3zm0-4c.552 0 1 .449 1 1s-.448 1-1 1-1-.449-1-1 .448-1 1-1z" fill="#ffb400" data-original="#000000" className=""></path><path d="m11 13h2v2h-2z" fill="#ffb400" data-original="#000000" className=""></path><path d="m15 13h14v2h-14z" fill="#ffb400" data-original="#000000" className=""></path><path d="m11 17h18v2h-18z" fill="#ffb400" data-original="#000000" className=""></path><path d="m11 21h18v2h-18z" fill="#ffb400" data-original="#000000" className=""></path><path d="m37 35h22v2h-22z" fill="#ffb400" data-original="#000000" className=""></path><path d="m57 39h2v2h-2z" fill="#ffb400" data-original="#000000" className=""></path><path d="m37 39h18v2h-18z" fill="#ffb400" data-original="#000000" className=""></path></g></g></svg>