<svg width="35" height="35" viewBox="0 0 35 35" fill="none" xmlns="http://www.w3.org/2000/svg">
<path d="M22.3104 19.302C23.4229 18.5841 23.9137 17.0568 24.1182 16.1059C23.0842 15.8859 21.5191 15.7607 20.4645 16.4411C19.3519 17.159 18.8612 18.6864 18.6566 19.6372C19.6908 19.8574 21.2557 19.9825 22.3104 19.302Z" fill="url(#paint0_linear_12_166)"/>
<path d="M17.5 6.15234C11.2429 6.15234 6.15234 11.2429 6.15234 17.5C6.15234 23.4115 10.6962 28.2808 16.4746 28.8008V21.7001C16.2464 21.7427 15.9978 21.7813 15.735 21.8104C15.4034 21.8472 15.0801 21.8655 14.7664 21.8655C13.5274 21.8655 12.4382 21.5804 11.5777 21.0252C10.4994 20.3293 9.65952 19.1314 9.14915 17.5608C8.78172 16.4304 8.70591 15.4813 8.70283 15.4415L8.64336 14.6651L9.37528 14.3994C9.41288 14.3858 10.3088 14.0638 11.4902 13.9328C13.1314 13.7504 14.569 14.0223 15.6474 14.718C16.3869 15.1951 17.0141 15.9086 17.5 16.8163C17.9858 15.9086 18.6131 15.1951 19.3526 14.718C20.431 14.0221 21.8691 13.7504 23.5098 13.9328C24.6912 14.0638 25.5872 14.3858 25.6247 14.3994L26.3566 14.6651L26.2972 15.4415C26.2941 15.4813 26.2183 16.4304 25.8509 17.5608C25.3404 19.1314 24.5006 20.3293 23.4223 21.0252C22.5619 21.5804 21.4726 21.8655 20.2336 21.8655C19.9199 21.8655 19.5967 21.8472 19.265 21.8104C19.0022 21.7812 18.7536 21.7426 18.5254 21.7001V28.8008C24.3038 28.2808 28.8477 23.4115 28.8477 17.5C28.8477 11.2429 23.7571 6.15234 17.5 6.15234Z" fill="url(#paint1_linear_12_166)"/>
<path d="M14.5355 16.4412C13.4799 15.76 11.9127 15.8862 10.8776 16.107C11.1027 17.14 11.6336 18.6206 12.6896 19.302C13.802 20.0197 15.3959 19.8376 16.3467 19.6322C16.1211 18.5993 15.5902 17.1217 14.5355 16.4412Z" fill="url(#paint2_linear_12_166)"/>
<path d="M29.8744 5.12559C26.569 1.82034 22.1744 0 17.5 0C12.8256 0 8.43097 1.82034 5.12559 5.12559C1.82034 8.43097 0 12.8256 0 17.5C0 22.1744 1.82034 26.569 5.12559 29.8744C8.43097 33.1797 12.8256 35 17.5 35C22.1744 35 26.569 33.1797 29.8744 29.8744C33.1797 26.569 35 22.1744 35 17.5C35 12.8256 33.1797 8.43097 29.8744 5.12559ZM17.5 30.8984C10.1121 30.8984 4.10156 24.8879 4.10156 17.5C4.10156 10.1121 10.1121 4.10156 17.5 4.10156C24.8879 4.10156 30.8984 10.1121 30.8984 17.5C30.8984 24.8879 24.8879 30.8984 17.5 30.8984Z" fill="url(#paint3_linear_12_166)"/>
<defs>
<linearGradient id="paint0_linear_12_166" x1="8.24607" y1="3.54083e-06" x2="37.7921" y2="8.22561" gradientUnits="userSpaceOnUse">
<stop stop-color="#E2F685"/>
<stop offset="1" stop-color="#8AF9AD"/>
</linearGradient>
<linearGradient id="paint1_linear_12_166" x1="8.24607" y1="3.54083e-06" x2="37.7921" y2="8.22561" gradientUnits="userSpaceOnUse">
<stop stop-color="#E2F685"/>
<stop offset="1" stop-color="#8AF9AD"/>
</linearGradient>
<linearGradient id="paint2_linear_12_166" x1="8.24607" y1="3.54083e-06" x2="37.7921" y2="8.22561" gradientUnits="userSpaceOnUse">
<stop stop-color="#E2F685"/>
<stop offset="1" stop-color="#8AF9AD"/>
</linearGradient>
<linearGradient id="paint3_linear_12_166" x1="8.24607" y1="3.54083e-06" x2="37.7921" y2="8.22561" gradientUnits="userSpaceOnUse">
<stop stop-color="#E2F685"/>
<stop offset="1" stop-color="#8AF9AD"/>
</linearGradient>
</defs>
</svg>
