<svg xmlns="http://www.w3.org/2000/svg" version="1.1" xmlns:xlink="http://www.w3.org/1999/xlink" xmlns:svgjs="http://svgjs.com/svgjs" width="512" height="512" x="0" y="0" viewBox="0 0 56 45" style="enable-background:new 0 0 512 512" xml:space="preserve" className=""><g><g xmlns="http://www.w3.org/2000/svg" id="Page-1" fill="none" fill-rule="evenodd"><g id="015---Rat" fill="rgb(0,0,0)" fill-rule="nonzero"><path id="Shape" d="m27.463 43.111c3.265-.1 6.635-.2 10.252-.2h.622c4.5.021 9.506.214 12.514 1.483.2126296.0958214.4626786.0011296.5585-.2115s.0011296-.4626786-.2115-.5585c-4.5-2.2-14.206-2.473-22.769-2.716-6.019-.172-11.7-.334-15.379-1.113-.858-.181-2.921-.7-3.521-1.608-1.314-1.839-1.565-5.3-1.61-6.316-.00737414-.5541699-.24985007-1.0791102-.667-1.444-.59605696-.5157098-1.44627819-.6159553-2.14593236-.2530165-.69965417.3629387-1.10737213 1.1157277-1.02906764 1.9000165.06.6.152 1.3.285 2.033 0 .015 0 .032.009.047.536 2.932 1.768 6.515 4.6 7.711 3.821 1.689 10.297 1.493 18.492 1.246z" fill="#ffb400" data-original="#000000" className=""></path><path id="Shape" d="m2.087 32.1c-.12948543-2.0956315 1.42334008-3.9176488 3.513-4.122 1.08580768-.1082266 2.16766039.2404433 2.98592984.9623342.81826946.7218908 1.29908934 1.7518366 1.32707016 2.8426658.025.554.084 1.179.174 1.81 1.6749625-.444751 3.3166594-1.0064633 4.913-1.681-.471-.818-.82-1.346-.828-1.357-.1982824-.297245-.2229246-.6776931-.0646441-.9980332s.4754371-.5319049.832-.555.6983617.1457882.8966441.4430332c.045.068.717 1.082 1.478 2.515.006.013.018.021.024.034.000467.0063247.000467.0126753 0 .019.5135181.9614632.9680255 1.9532979 1.361 2.97l8.841.017c-.675-1.329-1.529-2-2.54-2-1.666 0-4.326-.008-4.888-2.836-.006-.028-.01-.055-.014-.083-.0654018-.356613-.0982038-.7184394-.098-1.081.0791075-1.2889423.3486997-2.5590585.8-3.769.7-2.233 1.422-4.543.3-6.784-1.808-3.627-7.451-5.447-10.1-5.447-.5522847 0-1-.4477153-1-1s.4477153-1 1-1c3 0 9.579 1.922 11.9 6.553 1.481 2.963.559 5.909-.183 8.276-.2286126.6941711-.4221902 1.3993941-.58 2.113 1.4598383-1.2033297 3.1941329-2.0277122 5.049-2.4-.1751901-.2514168-.2232513-.570099-.13-.862.0837568-.2517272.2641089-.4598559.501359-.5785747.2372502-.1187189.5119521-.1382971.763641-.0544253.254.085 6.26 2.111 9.391 5.242 1.1079385 1.0866305 1.974731 2.394315 2.544 3.838.372.869.372.869.749.869h4.8c-.3266858-.9876271-1.1152252-1.7533914-2.112-2.051-2.77-.923-5.184-5.581-6.6-9.376-.01-.025-.019-.048-.027-.073-.3999194-1.0668565-.7433947-2.1540277-1.029-3.257-.0897157-.3475751.0137487-.7165715.2710941-.9668327.2573454-.2502613.6290855-.3433879.9740215-.2440075.3449361.0993804.6101421.3760192.6948844.7248402.126.5.28 1.037.455 1.588.7046015-.7767916 1.2562573-1.6795935 1.626-2.661 1.142-3.453 2.52-4.68 7.942-4.68 3.88 0 7.127-3.514 7.844-5.355-.447-.111-.929-.146-1.137.062-.3923789.37897221-1.0160848.37355237-1.4018186-.01218142-.3857338-.3857338-.3911536-1.00943969-.0121814-1.40181858.1151465-.11214002.2410916-.21262819.376-.3-1-.38-2.126-.756-2.985-1.042-1.847501-.56829912-3.7671859-.86770262-5.7-.889-.0533504.51935198-.4990397.90914553-1.0208699.89283834-.5218303-.0163072-.9423117-.43316859-.9631301-.95483834 0-.183-.064-4-3-4-.4512665-.0112159-.8698382.23450121-1.08.634-.3343387.62596637-.4952279 1.32994287-.466 2.039 0 2.047 1.046 4.327 2.546 4.327.5522847 0 1 .44771525 1 1s-.4477153 1-1 1c-2.167 0-3.668-1.867-4.261-4.13-.353.13-.71.27-1.078.413-1.7642339.73609567-3.593564 1.30525033-5.464 1.7-2.1786597.45314377-4.4341228.37839598-6.578-.218-2.1674179-.52094689-4.3898922-.77781241-6.619-.765-6.932 0-17 5.843-17 15 0 6.469.882 9.517 2.087 11.1zm43.913-26.1h1c.5522847 0 1 .44771525 1 1s-.4477153 1-1 1h-1c-.5522847 0-1-.44771525-1-1s.4477153-1 1-1z" fill="#ffb400" data-original="#000000" className=""></path></g></g></g></svg>