<svg xmlns="http://www.w3.org/2000/svg" version="1.1" xmlns:xlink="http://www.w3.org/1999/xlink" xmlns:svgjs="http://svgjs.com/svgjs" width="512" height="512" x="0" y="0" viewBox="0 0 512 512" style="enable-background:new 0 0 512 512" xml:space="preserve" className=""><g><g xmlns="http://www.w3.org/2000/svg"><path d="m256 0c-141.159 0-256 114.841-256 256s114.841 256 256 256 256-114.841 256-256-114.841-256-256-256zm0 482c-124.617 0-226-101.383-226-226s101.383-226 226-226 226 101.383 226 226-101.383 226-226 226z" fill="#8af9ad" data-original="#000000" className=""></path><path d="m256 287.245c-41.94 0-81.384 22.35-102.938 58.327-4.258 7.106-1.948 16.319 5.158 20.576 7.107 4.26 16.318 1.948 20.576-5.158 16.166-26.982 45.749-43.745 77.204-43.745 31.544 0 61.17 16.834 77.316 43.933 2.807 4.71 7.788 7.325 12.9 7.325 2.611 0 5.257-.683 7.663-2.116 7.117-4.241 9.448-13.447 5.208-20.564-21.527-36.133-61.028-58.578-103.087-58.578z" fill="#8af9ad" data-original="#000000" className=""></path><path d="m223.272 203.714c2.683-7.837-1.496-16.366-9.333-19.049-7.839-2.683-16.367 1.496-19.05 9.333-4.913 14.356-18.41 24.002-33.585 24.002-15.185 0-28.686-9.655-33.594-24.024-2.678-7.838-11.202-12.024-19.043-9.346-7.84 2.678-12.023 11.204-9.346 19.043 9.056 26.513 33.965 44.327 61.983 44.327 27.998 0 52.901-17.797 61.968-44.286z" fill="#8af9ad" data-original="#000000" className=""></path><path d="m403.425 184.665c-7.834-2.681-16.365 1.496-19.05 9.333-4.915 14.356-18.412 24.002-33.586 24.002-15.186 0-28.687-9.655-33.595-24.024-2.678-7.838-11.2-12.024-19.043-9.346-7.84 2.678-12.023 11.204-9.346 19.043 9.056 26.513 33.966 44.327 61.984 44.327 27.997 0 52.9-17.796 61.969-44.284 2.683-7.839-1.495-16.367-9.333-19.051z" fill="#8af9ad" data-original="#000000" className=""></path></g></g></svg>