<svg xmlns="http://www.w3.org/2000/svg" version="1.1" xmlns:xlink="http://www.w3.org/1999/xlink" xmlns:svgjs="http://svgjs.com/svgjs" width="512" height="512" x="0" y="0" viewBox="0 0 58 52" style="enable-background:new 0 0 512 512" xml:space="preserve" classname=""><g><g xmlns="http://www.w3.org/2000/svg" id="067---Cute-Sad" fill="none"><ellipse id="Oval" cx="29" cy="26" fill="#fccb55" rx="29" ry="26" data-original="#fccb55" classname=""></ellipse><path id="Path" d="m49.2 17.07c3.2901553 3.4248404 3.7153478 8.6922372 1.0171295 12.6004684-2.6982183 3.9082313-7.7743809 5.3775271-12.1430054 3.5147942-4.3686244-1.8627329-6.8227428-6.5428569-5.8706497-11.1956165.9520932-4.6527597 5.0473526-7.992686 9.7965256-7.9896461.9933718-.0033582 1.98143.1450191 2.93.44z" fill="#383838" data-original="#383838" classname=""></path><path id="Path" d="m13.07 14.44c.94857-.2949809 1.9366282-.4433582 2.93-.44 4.7619371-.0077014 8.8709462 3.3384272 9.8278786 8.0032299.9569324 4.6648028-1.5028088 9.3584373-5.8831794 11.2261787-4.3803706 1.8677413-9.4701751.3931492-12.17373323-3.5269118-2.70355811-3.9200609-2.2733218-9.2016733 1.02903403-12.6324968z" fill="#383838" data-original="#383838" classname=""></path><g fill="#fff"><path id="Path" d="m12.46 15.03c2.1355457.2472288 3.6937483 2.1382396 3.5281077 4.2816576-.1656405 2.1434181-1.995877 3.7725748-4.1440514 3.6887633-2.14817437-.0838115-3.84591685-1.850613-3.8440563-4.0004209-.00186347-.4321263.06913122-.8614751.21-1.27z" fill="#ffffff" data-original="#ffffff"></path><circle id="Oval" cx="45" cy="26" r="2" fill="#ffffff" data-original="#ffffff"></circle><circle id="Oval" cx="18" cy="26" r="2" fill="#ffffff" data-original="#ffffff"></circle><path id="Path" d="m42 19c0 2.209139-1.790861 4-4 4s-4-1.790861-4-4c-.0018635-.4321263.0691312-.8614751.21-1.27.8946008-1.1109658 2.0163237-2.0178907 3.29-2.66.0336792-.0225816.0708413-.0394735.11-.05.13-.01.26-.02.39-.02 1.060866 0 2.0782816.4214274 2.8284271 1.1715729s1.1715729 1.7675611 1.1715729 2.8284271z" fill="#ffffff" data-original="#ffffff"></path><path id="Path" d="m37.61 15.02c-.0391587.0105265-.0763208.0274184-.11.05l.07-.05z" fill="#ffffff" data-original="#ffffff"></path></g><path id="Path" d="m32 38c-.2918017-.0000227-.5690371-.1274998-.759-.349-.6403834-.4874747-1.4391084-.7195006-2.241-.651-.8018916-.0685006-1.6006166.1635253-2.241.651-.2275866.2869618-.5938406.4265481-.9546891.3638502-.3608486-.0626979-.6585514-.3176476-.7760016-.66456-.1174502-.3469123-.0358542-.7302769.2126907-.9992902 1.0145233-.9470775 2.3736982-1.4355705 3.759-1.351 1.3850128-.0851069 2.7441486.4026489 3.759 1.349.254258.2964694.3126466.7138343.1495088 1.0686967-.1631378.3548623-.5179435.5822729-.9085088.5823033z" fill="#ce9549" data-original="#ce9549" classname=""></path><path id="Path" d="m30 41h-2c-.5522847 0-1-.4477153-1-1s.4477153-1 1-1h2c.5522847 0 1 .4477153 1 1s-.4477153 1-1 1z" fill="#ce9549" data-original="#ce9549" classname=""></path><path id="Path" d="m52.232 18.524c-4.7459678.0426935-8.9831522-2.9661228-10.507-7.461-.1246425-.3383645-.0574651-.7176288.1758143-.9925961.2332793-.27496741.5965278-.40304815.9506804-.33520814s.6443544.32109304.7595053.66280424c.6313579 1.8453602 1.8364013 3.4404046 3.439 4.552 1.6097239 1.1026506 3.533623 1.653539 5.483 1.57.5446783.0020145.9947782.425458 1.03.969.0083504.2652516-.0890783.5229444-.2708278.7163229s-.4329127.3065816-.6981722.3146771c-.121.002-.241.004-.362.004z" fill="#4f3e29" data-original="#4f3e29"></path><path id="Path" d="m5.768 18.524c-.121 0-.241 0-.362 0-.26525949-.0080955-.51642267-.1212986-.6981722-.3146771s-.27917818-.4510713-.2708278-.7163229c.03426364-.543993.48493003-.9679694 1.03-.969 1.94868278.0777213 3.87078583-.4726529 5.483-1.57 1.6029378-1.1121141 2.8080158-2.7079051 3.439-4.554.1151509-.3417112.4053527-.59496423.7595053-.66280424s.7174011.06024073.9506804.33520814c.2332794.2749673.3004568.6542316.1758143.9925961-.7710253 2.2455469-2.240773 4.1852353-4.194 5.535-1.8600442 1.2677051-4.06208435 1.9388164-6.313 1.924z" fill="#4f3e29" data-original="#4f3e29"></path><path id="Path" d="m12.149 9c-.4342099.00084953-.8193499-.27860577-.9532335-.69166038-.1338835-.41305462.0140878-.86530748.3662335-1.11933962 3.3535922-2.39757464 7.2013216-4.01409253 11.261-4.731.3550224-.07135613.7208825.05479535.9564767.32980083.2355941.27500549.3041071.65589096.179115.995758s-.4239573.58560597-.7815917.64244117c-3.7645877.66354862-7.3328569 2.16151782-10.443 4.384-.1700077.12359028-.3748164.19010935-.585.19z" fill="#ffebc0" data-original="#ffebc0"></path><path id="Path" d="m8.761 11.966c-.39918584.0001591-.76022657-.2371036-.9184699-.6035848-.15824333-.3664811-.08337164-.791967.1904699-1.0824152l.252-.262c.25008591-.25544491.61745306-.35806649.96371779-.26920819.34626474.08885831.6188212.35569679.71500002.69999999.09617879.3443032.00136812.7137633-.24871781.9692082l-.226.235c-.18921013.2001329-.45258485.3133695-.728.313z" fill="#ffebc0" data-original="#ffebc0"></path><path id="Path" d="m58 26c0 14.36-12.98 26-29 26-11.27 0-21.04-5.76-25.83-14.18 5.80085037 7.1936776 14.5898666 11.3171019 23.83 11.18 16.02 0 29-11.64 29-26-.0026012-4.1497155-1.095783-8.2258701-3.17-11.82 3.3318004 4.2230337 5.1520724 9.4409121 5.17 14.82z" fill="#eaae57" data-original="#eaae57"></path></g></g></svg>