<svg xmlns="http://www.w3.org/2000/svg" version="1.1" xmlns:xlink="http://www.w3.org/1999/xlink" xmlns:svgjs="http://svgjs.com/svgjs" width="512" height="512" x="0" y="0" viewBox="0 0 512.14 512.14" style="enable-background:new 0 0 512 512" xml:space="preserve" className=""><g><g xmlns="http://www.w3.org/2000/svg"><g id="Page-1_24_"><g id="_x30_25---Bot-Confused" transform="translate(-1 -1)"><path id="Shape_190_" d="m163.204 180.34c-70.692 0-128 57.308-128 128s57.308 128 128 128h187.733c70.692 0 128-57.308 128-128s-57.308-128-128-128zm298.666 128c-.071 61.238-49.696 110.863-110.933 110.933h-187.733c-61.267 0-110.933-49.667-110.933-110.933s49.667-110.933 110.933-110.933h187.733c61.238.07 110.863 49.696 110.933 110.933z" fill="#8af9ad" data-original="#000000" className=""></path><path id="Shape_189_" d="m231.47 163.274h51.2c4.713 0 8.533-3.82 8.533-8.533s-3.821-8.533-8.533-8.533h-51.2c-4.713 0-8.533 3.821-8.533 8.533s3.821 8.533 8.533 8.533z" fill="#8af9ad" data-original="#000000" className=""></path><path id="Shape_188_" d="m248.537 137.674h17.067c4.713 0 8.533-3.821 8.533-8.533 0-4.713-3.82-8.533-8.533-8.533h-17.067c-4.713 0-8.533 3.821-8.533 8.533s3.82 8.533 8.533 8.533z" fill="#8af9ad" data-original="#000000" className=""></path><path id="Shape_187_" d="m461.87 50.77c11.755-4.156 18.806-16.176 16.698-28.465s-12.763-21.271-25.231-21.271-23.123 8.982-25.231 21.271 4.943 24.309 16.698 28.465v35.84c-46.951-54.728-115.627-85.995-187.734-85.47-72.1-.533-140.776 30.72-187.733 85.436v-35.84c11.755-4.156 18.806-16.176 16.698-28.465s-12.763-21.271-25.231-21.271-23.123 8.982-25.232 21.271c-2.108 12.289 4.943 24.309 16.698 28.465v57.754c-34.159 50.473-52.028 110.203-51.2 171.144 0 152.764 88.525 233.506 256 233.506s256-80.742 256-233.506c.822-60.929-17.047-120.646-51.2-171.11zm-8.533-32.563c4.713 0 8.533 3.821 8.533 8.533s-3.82 8.533-8.533 8.533-8.533-3.821-8.533-8.533 3.82-8.533 8.533-8.533zm-392.533 0c4.713 0 8.533 3.821 8.533 8.533s-3.82 8.533-8.533 8.533-8.533-3.821-8.533-8.533 3.82-8.533 8.533-8.533zm196.266 477.867c-108.996 0-238.933-37.547-238.933-216.439 0-149.035 102.724-261.427 238.933-261.427s238.933 112.393 238.933 261.427c.001 178.892-129.936 216.439-238.933 216.439z" fill="#8af9ad" data-original="#000000" className=""></path><path id="Shape_186_" d="m180.27 282.74c0-23.564-19.103-42.667-42.667-42.667s-42.667 19.103-42.667 42.667 19.103 42.667 42.667 42.667c23.553-.028 42.639-19.114 42.667-42.667zm-68.266 0c0-14.138 11.462-25.6 25.6-25.6 14.139 0 25.6 11.462 25.6 25.6s-11.462 25.6-25.6 25.6c-14.139 0-25.6-11.461-25.6-25.6z" fill="#8af9ad" data-original="#000000" className=""></path><path id="Shape_185_" d="m333.87 282.74c0 23.564 19.103 42.667 42.667 42.667s42.667-19.103 42.667-42.667-19.103-42.667-42.667-42.667c-23.552.029-42.638 19.115-42.667 42.667zm42.667-25.6c14.138 0 25.6 11.462 25.6 25.6s-11.462 25.6-25.6 25.6-25.6-11.462-25.6-25.6 11.462-25.6 25.6-25.6z" fill="#8af9ad" data-original="#000000" className=""></path><path id="Shape_184_" d="m371.238 355.111c-6.828-8.523-17.361-13.21-28.263-12.576s-20.821 6.51-26.615 15.767l-2.56 4.045c-3.041 4.845-8.359 7.787-14.08 7.787s-11.039-2.941-14.08-7.787c-6.156-9.862-16.961-15.855-28.587-15.855s-22.431 5.993-28.587 15.855c-3.041 4.845-8.359 7.787-14.08 7.787s-11.039-2.941-14.08-7.787l-2.56-4.036c-5.789-9.263-15.709-15.145-26.614-15.779s-21.44 4.058-28.264 12.588l-11.947 14.95c-1.927 2.379-2.431 5.608-1.323 8.461 1.109 2.853 3.661 4.894 6.689 5.348 3.027.454 6.066-.749 7.963-3.151l11.947-14.95c3.365-4.211 8.565-6.528 13.946-6.215 5.382.314 10.277 3.219 13.13 7.793l2.56 4.036c6.153 9.867 16.959 15.863 28.587 15.863s22.434-5.996 28.587-15.863c3.044-4.841 8.361-7.779 14.08-7.779s11.036 2.938 14.08 7.779c6.153 9.867 16.959 15.863 28.587 15.863s22.434-5.996 28.587-15.863l2.56-4.036c2.853-4.574 7.748-7.479 13.13-7.793s10.581 2.003 13.947 6.215l11.947 14.95c1.897 2.403 4.936 3.605 7.963 3.151s5.58-2.495 6.689-5.348.604-6.082-1.323-8.461z" fill="#8af9ad" data-original="#000000" className=""></path></g></g></g></g></svg>