<svg xmlns="http://www.w3.org/2000/svg" version="1.1" xmlns:xlink="http://www.w3.org/1999/xlink" xmlns:svgjs="http://svgjs.com/svgjs" width="512" height="512" x="0" y="0" viewBox="0 0 512 512" style="enable-background:new 0 0 512 512" xml:space="preserve" className=""><g><g xmlns="http://www.w3.org/2000/svg"><path d="m456.881 388.344c-9.535-16.598-21.323-32.045-35.222-45.945-6.581-6.581-13.51-12.685-20.741-18.307v40.465z" fill="#ffb400" data-original="#000000" className=""></path><path d="m209.746 376.926v-47.422c-19.866-7.008-37.688-18.387-52.289-32.991-5.549 2.423-10.997 5.078-16.333 7.964v79.954l-103.96 44.186c-7.14 21.774-10.853 44.782-10.853 68.362v15.021h194.11l-24.266-81.271z" fill="#ffb400" data-original="#000000" className=""></path><path d="m370.876 384.431v-79.954c-5.336-2.886-10.784-5.542-16.333-7.964-14.601 14.604-32.423 25.984-52.289 32.991v47.422l13.59 53.803-24.266 81.271h194.11v-15.021c0-23.58-3.713-46.588-10.853-68.363z" fill="#ffb400" data-original="#000000" className=""></path><path d="m275.535 393.814h-39.07l-9.156 36.25 24.465 81.936h8.452l24.465-81.936z" fill="#ffb400" data-original="#000000" className=""></path><path d="m111.083 324.092c-7.231 5.622-14.161 11.726-20.742 18.307-13.9 13.9-25.687 29.347-35.223 45.945l55.964-23.787v-40.465z" fill="#ffb400" data-original="#000000" className=""></path><path d="m256 337.401c-5.484 0-10.892-.329-16.212-.948v27.319h32.424v-27.319c-5.32.62-10.728.948-16.212.948z" fill="#ffb400" data-original="#000000" className=""></path><path d="m366.413 197.988v-7.655c-4.748.875-9.632 1.355-14.63 1.355h-163.015c-15.331 0-29.93-3.183-43.181-8.913v15.213c0 60.883 49.531 110.413 110.413 110.413s110.413-49.53 110.413-110.413z" fill="#ffb400" data-original="#000000" className=""></path><path d="m188.768 162.689h163.016c28.452 0 51.599-23.147 51.599-51.599 0-21.348-13.422-40.752-33.399-48.284l-152.944-57.655c-24.62-9.281-52.234-5.884-73.869 9.083-21.637 14.967-34.554 39.609-34.554 65.917v2.385c-.001 44.197 35.955 80.153 80.151 80.153z" fill="#ffb400" data-original="#000000" className=""></path></g></g></svg>