<svg xmlns="http://www.w3.org/2000/svg" version="1.1" xmlns:xlink="http://www.w3.org/1999/xlink" xmlns:svgjs="http://svgjs.com/svgjs" width="512" height="512" x="0" y="0" viewBox="0 0 64 64" style="enable-background:new 0 0 512 512" xml:space="preserve" className=""><g><linearGradient xmlns="http://www.w3.org/2000/svg" id="linear-gradient" gradientUnits="userSpaceOnUse" x1="3.25" x2="60.75" y1="32" y2="32"><stop offset="0" stop-color="#69b0e0"></stop><stop offset=".4" stop-color="#5199d1"></stop><stop offset="1" stop-color="#307abe"></stop></linearGradient><g xmlns="http://www.w3.org/2000/svg" id="Layer_30" data-name="Layer 30"><path d="m34.83 37.46-1.75-4.71h2.65l1.89 5.08a1.37 1.37 0 0 1 -2.74-.09 1.19 1.19 0 0 0 -.05-.28zm-.22 11.61v-5.22h-5.22v5.22zm4.52-11.33a1.37 1.37 0 0 0 2.74.09l-1.87-5.08h-2.67l1.75 4.71a1.37 1.37 0 0 1 .05.28zm.63 11.33v-8.59a2.81 2.81 0 0 1 -1.38-.84 2.85 2.85 0 0 1 -4.25 0 2.86 2.86 0 0 1 -4.26 0 2.85 2.85 0 0 1 -4.25 0 2.81 2.81 0 0 1 -1.38.84v8.59h3.65v-6a.75.75 0 0 1 .75-.75h6.72a.75.75 0 0 1 .75.75v6zm-12-10a1.37 1.37 0 0 0 1.37-1.35 1.19 1.19 0 0 1 .05-.28l1.75-4.71h-2.66l-1.89 5.08a1.37 1.37 0 0 0 1.37 1.28zm-2.88-1.35a1.19 1.19 0 0 1 .05-.28l1.75-4.71h-2.68l-1.88 5.08a1.37 1.37 0 0 0 2.74-.09zm35.87-5.72a28.75 28.75 0 1 1 -28.75-28.75 28.79 28.79 0 0 1 28.75 28.75zm-18 17.82a.75.75 0 0 0 -.75-.75h-.74v-8.59a2.85 2.85 0 0 0 2.12-2.72 1.54 1.54 0 0 0 0-.3l-2.13-5.72a.74.74 0 0 0 -.7-.49h-17a.74.74 0 0 0 -.7.49l-2.13 5.72a1.54 1.54 0 0 0 0 .3 2.85 2.85 0 0 0 2.12 2.72v8.59h-.84a.75.75 0 0 0 -.75.75v2.18a.76.76 0 0 0 .75.75h20a.76.76 0 0 0 .75-.75zm9.96-17.82a11.36 11.36 0 0 0 -9.56-11.17 11.28 11.28 0 0 0 -22.3 0 11.13 11.13 0 0 0 -3.38 1.08 11.31 11.31 0 0 0 3.91 21.29.75.75 0 0 0 .16-1.5 9.8 9.8 0 1 1 5.46-18.48.76.76 0 0 0 1-.33.75.75 0 0 0 -.32-1 11.3 11.3 0 0 0 -5.33-1.22 9.8 9.8 0 0 1 19.24 0 11.4 11.4 0 0 0 -5.33 1.22.75.75 0 0 0 -.33 1 .76.76 0 0 0 1 .33 9.81 9.81 0 0 1 5.46-1l.46.06a9.87 9.87 0 0 1 8.36 9.72 9.76 9.76 0 0 1 -8.75 9.74.75.75 0 0 0 .16 1.5 11.28 11.28 0 0 0 10.09-11.24z" fill="url(#linear-gradient)" data-original="url(#linear-gradient)" className=""></path></g></g></svg>