<svg xmlns="http://www.w3.org/2000/svg" version="1.1" xmlns:xlink="http://www.w3.org/1999/xlink" xmlns:svgjs="http://svgjs.com/svgjs" width="512" height="512" x="0" y="0" viewBox="0 0 512 512" style="enable-background:new 0 0 512 512" xml:space="preserve" className=""><g><path xmlns="http://www.w3.org/2000/svg" d="m119.464844 94.316406v77.972656l-3.363282 53.140626c-1.667968 26.335937 19.242188 48.609374 45.628907 48.609374h140.453125c26.386718 0 47.296875-22.273437 45.632812-48.609374l-3.367187-53.140626v-77.972656c0-47.949218-38.867188-86.816406-86.8125-86.816406h-51.355469c-47.949219 0-86.816406 38.867188-86.816406 86.816406zm0 0" fill="#ffb123" data-original="#ffb123" className=""></path><path xmlns="http://www.w3.org/2000/svg" d="m347.8125 225.429688-3.363281-53.140626v-77.972656c0-47.949218-38.867188-86.816406-86.816407-86.816406h-49.804687c47.949219 0 86.816406 38.867188 86.816406 86.816406v77.972656l3.363281 53.140626c1.667969 26.335937-19.242187 48.609374-45.628906 48.609374h49.804688c26.386718 0 47.296875-22.273437 45.628906-48.609374zm0 0" fill="#ff901d" data-original="#ff901d" className=""></path><path xmlns="http://www.w3.org/2000/svg" d="m295.074219 304.472656c-9.878907-2.324218-16.984375-15.734375-16.984375-27.523437v-52.546875h-92.261719v52.546875c0 11.789062-7.105469 25.199219-16.984375 27.523437-48.1875 15.425782-60.488281 77.902344-21.742188 110.441406h169.714844c38.746094-32.539062 26.445313-95.015624-21.742187-110.441406zm0 0" fill="#ffe7cf" data-original="#ffe7cf" className=""></path><path xmlns="http://www.w3.org/2000/svg" d="m295.074219 304.472656c-9.878907-2.324218-16.988281-15.734375-16.988281-27.523437v-52.546875h-50.132813v72.664062c0 11.792969 7.109375 25.203125 16.984375 27.527344 39.480469 12.636719 54.863281 56.855469 37.828125 90.320312h34.046875c38.75-32.539062 26.449219-95.015624-21.738281-110.441406zm0 0" fill="#efd5bd" data-original="#efd5bd" className=""></path><path xmlns="http://www.w3.org/2000/svg" d="m456.152344 483.1875-17.796875-104.203125c-4.277344-25.039063-22.617188-45.363281-47.085938-52.183594l-34.351562-9.792969c-23.042969-6.570312-46.921875-9.765624-70.882813-9.507812-31.125.332031-77.03125.332031-108.15625 0-23.964844-.257812-47.839844 2.9375-70.886718 9.507812l-34.347657 9.792969c-24.46875 6.820313-42.808593 27.144531-47.085937 52.183594l-17.796875 104.203125c-1.902344 11.140625 6.679687 21.3125 17.980469 21.3125h412.429687c11.300781 0 19.882813-10.171875 17.980469-21.3125zm0 0" fill="#f9644b" data-original="#f9644b"></path><path xmlns="http://www.w3.org/2000/svg" d="m456.152344 483.1875-17.796875-104.203125c-4.277344-25.039063-22.617188-45.363281-47.085938-52.183594l-34.351562-9.792969c-23.042969-6.570312-46.921875-9.765624-70.882813-9.507812-10.851562.113281-23.507812.191406-36.703125.226562 17.65625.839844 35.167969 3.699219 52.195313 8.554688l36.898437 10.519531c24.472657 6.820313 42.808594 27.144531 47.085938 52.183594l21.441406 125.515625h31.21875c11.300781 0 19.882813-10.171875 17.980469-21.3125zm0 0" fill="#db3f2e" data-original="#db3f2e"></path><path xmlns="http://www.w3.org/2000/svg" d="m295.378906 46.769531c-14.878906-12.808593-35.792968-23.992187-63.421875-24.300781-27.628906.308594-48.542969 11.492188-63.421875 24.300781-18.976562 16.339844-29.257812 40.609375-29.257812 65.652344v60.785156c0 25.042969 31.476562 91.472657 92.679687 91.472657 61.207031 0 92.683594-66.429688 92.683594-91.472657v-60.785156c0-25.042969-10.28125-49.308594-29.261719-65.652344zm0 0" fill="#ffe7cf" data-original="#ffe7cf" className=""></path><path xmlns="http://www.w3.org/2000/svg" d="m295.378906 46.769531c-14.878906-12.808593-35.792968-23.992187-63.421875-24.300781-9.007812.101562-17.296875 1.363281-24.902343 3.453125 15.71875 4.324219 28.492187 12.214844 38.519531 20.847656 18.980469 16.34375 29.261719 40.609375 29.261719 65.65625v60.78125c0 21.386719-22.960938 72.945313-67.777344 87.550781 7.664062 2.5 15.960937 3.925782 24.898437 3.925782 61.207031 0 92.683594-66.429688 92.683594-91.472656v-60.785157c0-25.046875-10.28125-49.3125-29.261719-65.65625zm0 0" fill="#efd5bd" data-original="#efd5bd" className=""></path><path xmlns="http://www.w3.org/2000/svg" d="m253.109375 239.648438h-14.707031c-6.980469 0-12.640625-5.660157-12.640625-12.640626 0-6.980468 5.660156-12.640624 12.640625-12.640624h14.707031c6.980469 0 12.640625 5.660156 12.640625 12.640624 0 6.980469-5.660156 12.640626-12.640625 12.640626zm0 0" fill="#395f80" data-original="#395f80"></path><path xmlns="http://www.w3.org/2000/svg" d="m396.636719 479.578125h-329.359375l-10.078125-162.847656c-.558594-8.988281 6.582031-16.582031 15.585937-16.582031h318.347656c9.003907 0 16.140626 7.59375 15.585938 16.582031zm0 0" fill="#e1effb" data-original="#e1effb" className=""></path><path xmlns="http://www.w3.org/2000/svg" d="m391.132812 300.148438h-49.972656c9.003906 0 16.144532 7.59375 15.585938 16.582031l-10.078125 162.847656h49.96875l10.082031-162.847656c.554688-8.988281-6.582031-16.582031-15.585938-16.582031zm0 0" fill="#baced8" data-original="#baced8" className=""></path><path xmlns="http://www.w3.org/2000/svg" d="m409.191406 475.125h-354.464844c-8.113281 0-14.691406 6.574219-14.691406 14.6875s6.578125 14.6875 14.691406 14.6875h354.464844c8.113282 0 14.6875-6.574219 14.6875-14.6875s-6.574218-14.6875-14.6875-14.6875zm0 0" fill="#baced8" data-original="#baced8" className=""></path><path xmlns="http://www.w3.org/2000/svg" d="m409.191406 475.125h-35.117187v29.375h35.117187c8.113282 0 14.6875-6.574219 14.6875-14.6875s-6.574218-14.6875-14.6875-14.6875zm0 0" fill="#a3bbc4" data-original="#a3bbc4"></path><path xmlns="http://www.w3.org/2000/svg" d="m276.523438 345.292969c-24.617188-24.613281-64.523438-24.613281-89.136719 0-24.613281 24.617187-24.613281 64.523437 0 89.136719 24.613281 24.613281 64.519531 24.613281 89.136719 0 24.613281-24.613282 24.613281-64.519532 0-89.136719zm0 0" fill="#24d9de" data-original="#24d9de" className=""></path><path xmlns="http://www.w3.org/2000/svg" d="m262.363281 380.617188c-1.09375-1.09375-2.867187-1.09375-3.960937 0l-16.722656 16.722656c-4.203126 4.199218-11.015626 4.199218-15.21875 0v-.003906c-4.203126-4.199219-4.203126-11.011719-.003907-15.214844 5.746094-5.742188 13.21875-13.214844 16.726563-16.722656 1.09375-1.09375 1.09375-2.867188 0-3.964844l-1.777344-1.773438c-.644531-.644531-1.558594-.933594-2.457031-.78125l-28.875 4.984375c-3.210938.554688-5.765625 2.996094-6.472657 6.175781l-3.363281 25.972657c-.863281 6.691406-3.921875 12.910156-8.695312 17.683593l-11.664063 11.664063c2.183594 3.191406 4.675782 6.238281 7.507813 9.070313 3.535156 3.535156 7.394531 6.546874 11.472656 9.066406l11.246094-11.242188c4.769531-4.773437 10.988281-7.832031 17.683593-8.695312l25.96875-3.363282c3.183594-.707031 5.621094-3.261718 6.175782-6.472656l4.984375-28.875c.15625-.898437-.136719-1.8125-.78125-2.457031zm0 0" fill="#e1effb" data-original="#e1effb" className=""></path><path xmlns="http://www.w3.org/2000/svg" d="m136.472656 177.519531h-12.945312c-10.542969 0-19.085938-8.546875-19.085938-19.085937v-29.71875c0-10.539063 8.542969-19.085938 19.085938-19.085938h12.945312c1.902344 0 3.445313 1.542969 3.445313 3.445313v61c0 1.902343-1.542969 3.445312-3.445313 3.445312zm0 0" fill="#f9644b" data-original="#f9644b"></path><path xmlns="http://www.w3.org/2000/svg" d="m327.445312 177.519531h12.941407c10.542969 0 19.089843-8.546875 19.089843-19.085937v-29.71875c0-10.539063-8.546874-19.085938-19.089843-19.085938h-12.941407c-1.902343 0-3.445312 1.542969-3.445312 3.445313v61c0 1.902343 1.542969 3.445312 3.445312 3.445312zm0 0" fill="#f9644b" data-original="#f9644b"></path><path xmlns="http://www.w3.org/2000/svg" d="m344.449219 134.03125v-39.714844c0-47.949218-38.867188-86.816406-86.8125-86.816406h-51.355469c-47.949219 0-86.816406 38.867188-86.816406 86.816406v28.164063c0 3.042969 1.75 5.863281 4.535156 7.085937 4.167969 1.828125 8.933594 2.761719 14.242188 2.554688 39.710937-1.539063 50.640624-34.394532 53.519531-48.632813.417969-2.078125 3.09375-2.652343 4.328125-.929687 11.230468 15.703125 49.582031 53.960937 127.515625 58.996094 1.835937.121093 6.679687.210937 12.957031.277343 4.34375.046875 7.886719-3.460937 7.886719-7.800781zm0 0" fill="#ffb123" data-original="#ffb123" className=""></path><path xmlns="http://www.w3.org/2000/svg" d="m257.636719 7.5h-49.464844c47.945313 0 86.816406 38.867188 86.816406 86.816406v39.714844c0 1.367188-.355469 2.652344-.972656 3.769531 9.15625 1.769531 19.003906 3.070313 29.589844 3.753907 1.835937.121093 6.679687.210937 12.957031.277343 4.34375.046875 7.886719-3.457031 7.886719-7.796875v-39.71875c0-47.949218-38.867188-86.816406-86.8125-86.816406zm0 0" fill="#ff901d" data-original="#ff901d" className=""></path><path xmlns="http://www.w3.org/2000/svg" d="m181.523438 439.164062c.1875.191407.375.382813.5625.570313.113281.113281.226562.226563.34375.339844.027343.03125.0625.0625.09375.089843.089843.09375.183593.183594.277343.273438.011719.011719.023438.023438.03125.03125 13.65625 13.261719 31.390625 19.890625 49.125 19.890625 18.0625 0 36.121094-6.875 49.871094-20.625 27.5-27.5 27.5-72.246094 0-99.742187-27.5-27.5-72.242187-27.5-99.742187 0-27.304688 27.304687-27.496094 71.609374-.578126 99.15625.007813.003906.011719.011718.015626.015624zm16.453124-5.390624c-1.628906-1.257813-3.183593-2.601563-4.652343-4.027344-.003907-.003906-.007813-.007813-.011719-.011719-.085938-.082031-.171875-.164063-.257812-.246094-.027344-.027343-.054688-.054687-.082032-.082031-.09375-.09375-.1875-.183594-.28125-.277344-.117187-.117187-.234375-.238281-.351562-.355468-.007813-.011719-.019532-.019532-.03125-.03125-.855469-.875-1.683594-1.78125-2.488282-2.71875l7.027344-7.027344c5.914063-5.910156 9.757813-13.730469 10.832032-22.023438l3.289062-25.4375c.078125-.144531.214844-.25.382812-.277344l18.574219-3.207031-8.769531 8.769531c-3.449219 3.449219-5.347656 8.03125-5.347656 12.910157 0 4.878906 1.898437 9.460937 5.347656 12.910156s8.035156 5.351563 12.914062 5.351563c4.875 0 9.460938-1.898438 12.910157-5.351563l8.769531-8.769531-3.207031 18.574218c-.027344.167969-.132813.308594-.277344.382813l-25.4375 3.292969c-8.292969 1.070312-16.113281 4.917968-22.027344 10.828125zm-21.546874-43.910157c0-14.832031 5.773437-28.777343 16.261718-39.265625 10.828125-10.824218 25.046875-16.238281 39.265625-16.238281 14.222657 0 28.441407 5.414063 39.265625 16.238281 21.648438 21.652344 21.648438 56.878906 0 78.53125-10.488281 10.488282-24.433594 16.261719-39.265625 16.261719-7.132812 0-14.058593-1.335937-20.496093-3.886719l3.949218-3.945312c3.582032-3.582032 8.320313-5.910156 13.339844-6.5625l25.972656-3.359375c.222656-.027344.445313-.066407.664063-.117188 6.175781-1.371093 10.863281-6.285156 11.9375-12.519531l4.988281-28.875c.566406-3.292969-.503906-6.671875-2.871094-9.035156l-1.773437-1.777344c-4.015625-4.015625-10.550781-4.015625-14.570313 0l-16.722656 16.722656c-.832031.832032-1.800781.957032-2.304688.957032-.503906 0-1.472656-.125-2.304687-.957032-1.273437-1.269531-1.273437-3.339844 0-4.609375l16.722656-16.722656c4.015625-4.019531 4.015625-10.554687 0-14.570313l-1.777343-1.773437c-2.363282-2.367187-5.746094-3.4375-9.035157-2.867187l-28.875 4.984374c-6.230469 1.078126-11.144531 5.761719-12.519531 11.9375-.046875.21875-.085938.441407-.117188.664063l-3.359374 25.972656c-.648438 5.023438-2.980469 9.761719-6.5625 13.34375l-4.734376 4.738281c-3.328124-7.203124-5.078124-15.101562-5.078124-23.269531zm0 0" fill="#000000" data-original="#000000" className=""></path><path xmlns="http://www.w3.org/2000/svg" d="m463.546875 481.925781-17.800781-104.203125c-3.464844-20.292968-15.121094-37.914062-32.253906-49.019531l.710937-11.511719c.394531-6.339844-1.875-12.628906-6.226563-17.257812-4.351562-4.628906-10.492187-7.285156-16.84375-7.285156h-100.328124c-2.285157-2.996094-4.003907-7.019532-4.773438-11.109376h16.152344c14.855468 0 28.636718-5.964843 38.804687-16.796874 10.167969-10.828126 15.25-24.960938 14.3125-39.785157l-2.71875-42.902343c8.542969-4.425782 14.394531-13.355469 14.394531-23.621094v-29.714844c0-10.292969-6.046874-19.558594-15.027343-23.929688v-10.472656c0-2.773437-.121094-5.574218-.363281-8.320312-.359376-4.125-3.992188-7.175782-8.125-6.816406-4.125.359374-7.175782 4-6.816407 8.125.203125 2.3125.304688 4.671874.304688 7.011718v15.632813.265625 23.816406c0 .039062 0 .125-.085938.210938-.089843.089843-.167969.09375-.21875.085937-7.953125-.082031-11.03125-.179687-12.222656-.242187-.023437 0-.046875 0-.070313-.003907-.101562-.003906-.1875-.011719-.261718-.015625-81.769532-5.28125-115.890625-47.46875-121.898438-55.871094-2.296875-3.214843-6.277344-4.761718-10.132812-3.933593-3.863282.824219-6.863282 3.863281-7.648438 7.738281-6.90625 34.171875-29.976562 41.441406-44.449218 42.511719-.015626 0-.027344 0-.042969 0-.347657 0-.6875.023437-1.019531.066406-.320313.019531-.636719.035156-.945313.046875-3.984375.152344-7.667969-.496094-10.910156-1.914062-.015625-.011719-.078125-.097657-.078125-.234376v-12.265624c.003906-.089844.003906-.179688 0-.265626v-15.628906c0-43.734375 35.582031-79.316406 79.316406-79.316406h51.355469c29.402343 0 56.253906 16.140625 70.074219 42.125 1.945312 3.660156 6.488281 5.046875 10.144531 3.101562 3.65625-1.945312 5.046875-6.488281 3.101562-10.144531-16.433593-30.890625-48.359375-50.082031-83.320312-50.082031h-51.355469c-52.007812 0-94.316406 42.308594-94.316406 94.316406v10.472656c-8.976563 4.367188-15.023438 13.636719-15.023438 23.929688v29.714844c0 10.265625 5.847656 19.191406 14.390625 23.621094l-2.714843 42.898437c-.9375 14.828125 4.144531 28.957031 14.3125 39.789063 10.164062 10.832031 23.945312 16.796874 38.800781 16.796874h16.152343c-.769531 4.089844-2.484374 8.109376-4.773437 11.109376h-100.324219c-6.355468 0-12.492187 2.65625-16.84375 7.28125-4.351562 4.628906-6.621094 10.921874-6.230468 17.261718l.714843 11.511719c-17.132812 11.105469-28.789062 28.726563-32.257812 49.019531l-17.796875 104.203125c-1.28125 7.492188.796875 15.121094 5.699218 20.933594 4.902344 5.808594 12.070313 9.140625 19.671876 9.140625h412.429687c7.601563 0 14.773437-3.332031 19.675781-9.140625 4.902344-5.8125 6.976563-13.441406 5.699219-20.933594zm-133.496094-227.449219c-7.300781 7.78125-17.199219 12.0625-27.867187 12.0625h-16.59375v-12.378906c8.070312-6 14.664062-12.757812 19.851562-19.066406.160156-.195312.320313-.390625.476563-.582031h21.550781c5.3125 0 10.046875-2.628907 12.933594-6.683594.144531 9.9375-3.492188 19.339844-10.351563 26.648437zm1.449219-105.207031c1.480469.019531 3.140625.042969 4.984375.0625h.167969c4.054687 0 7.871094-1.566406 10.761718-4.425781 2.925782-2.894531 4.535157-6.757812 4.535157-10.875v-6.066406c.019531.25.027343.5.027343.753906v29.714844c0 5.347656-3.644531 9.859375-8.578124 11.1875-.25.046875-.496094.105468-.738282.175781-.738281.148437-1.496094.222656-2.273437.222656h-8.886719zm-1.300781 37.839844-1.863281 31.578125c-.027344.460938-.40625.820312-.867188.820312h-11.046875c6.851563-11.390624 11.410156-22.832031 13.777344-32.398437zm-182.78125-13.035156v-35.316407c15.363281-2.425781 27.875-9.648437 37.277343-21.539062 5.792969-7.324219 9.464844-15.289062 11.792969-22.332031 14.574219 16.101562 51.273438 47.433593 120.011719 53.636719v25.550781c0 .996093.132812 1.964843.386719 2.886719-1.273438 10.535156-7.351563 27.09375-18.390625 42.546874h-26.695313c-2.980469-7.402343-10.234375-12.644531-18.691406-12.644531h-14.707031c-11.105469 0-20.140625 9.039063-20.140625 20.144531 0 11.105469 9.035156 20.140626 20.140625 20.140626h14.707031c8.457031 0 15.710937-5.238282 18.691406-12.640626h13.792969c-3.414062 3.277344-7.253906 6.488282-11.535156 9.417969-.125.082031-.246094.164063-.363282.25-11 7.445313-24.863281 13.003907-41.738281 13.003907s-30.738281-5.558594-41.738281-13.003907c-.117188-.085937-.238281-.167969-.363281-.25-8.175781-5.597656-14.753907-12.230469-19.792969-18.359375-13.992188-17.023437-21.59375-36.675781-23.035156-48.605468.253906-.917969.390625-1.886719.390625-2.886719zm110.832031 52.933593c0 2.835938-2.308594 5.140626-5.140625 5.140626h-14.707031c-2.835938 0-5.140625-2.304688-5.140625-5.140626 0-2.835937 2.304687-5.140624 5.140625-5.140624h14.707031c2.835937 0 5.140625 2.304687 5.140625 5.140624zm15.5 65.640626h-83.585938c2.023438-4.964844 3.164063-10.40625 3.164063-15.699219v-13.628907c10.933594 5.335938 23.777344 8.859376 38.628906 8.859376 14.855469 0 27.695313-3.523438 38.632813-8.859376v13.628907c0 5.292969 1.136718 10.734375 3.160156 15.699219zm-152.492188-122.851563c-.242187-.070313-.488281-.128906-.742187-.175781-4.933594-1.328125-8.574219-5.839844-8.574219-11.191406v-29.714844c0-1.003906.132813-1.988282.378906-2.929688 1.027344 4.695313 4.207032 8.691406 8.667969 10.648438 3.585938 1.574218 7.414063 2.574218 11.429688 2.988281v30.597656h-8.890625c-.777344 0-1.535156-.078125-2.269532-.222656zm40.472657 96.742187c-10.667969 0-20.5625-4.285156-27.867188-12.0625-7.300781-7.777343-10.949219-17.925781-10.277343-28.574218l2.589843-40.882813h7.054688c3.136719 14.261719 11.433593 33.273438 25.246093 50.074219 5.183594 6.304688 11.777344 13.066406 19.851563 19.0625v12.382812zm-128 230.460938h-7.988281c-3.171876 0-6.164063-1.390625-8.207032-3.816406-2.046875-2.421875-2.914062-5.605469-2.378906-8.734375l17.796875-104.203125c2.25-13.164063 8.835937-24.910156 18.582031-33.585938l7.492188 120.964844h-4.300782c-12.234374 0-22.1875 9.953125-22.1875 22.1875-.003906 2.515625.417969 4.933594 1.191407 7.1875zm375.460937 0h-354.464844c-3.964843 0-7.191406-3.226562-7.191406-7.1875 0-3.964844 3.226563-7.1875 7.191406-7.1875h44.015626c4.144531 0 7.5-3.359375 7.5-7.5 0-4.144531-3.355469-7.5-7.5-7.5h-24.6875l-9.371094-151.359375c-.140625-2.257813.636718-4.410156 2.1875-6.0625 1.546875-1.648437 3.648437-2.554687 5.910156-2.554687h318.351562c2.261719 0 4.363282.90625 5.910157 2.554687 1.550781 1.652344 2.328125 3.804687 2.1875 6.0625l-9.371094 151.359375h-256.585937c-4.144532 0-7.5 3.355469-7.5 7.5 0 4.140625 3.355468 7.5 7.5 7.5h275.917968c3.960938 0 7.1875 3.222656 7.1875 7.1875s-3.226562 7.1875-7.1875 7.1875zm37.191406-3.816406c-2.046874 2.425781-5.039062 3.816406-8.210937 3.816406h-7.988281c.773437-2.253906 1.195312-4.671875 1.195312-7.1875 0-12.234375-9.953125-22.1875-22.1875-22.1875h-4.300781l7.488281-120.964844c9.75 8.671875 16.332032 20.421875 18.582032 33.585938l17.800781 104.203125c.53125 3.128906-.332031 6.3125-2.378907 8.734375zm0 0" fill="#000000" data-original="#000000" className=""></path></g></svg>