<svg xmlns="http://www.w3.org/2000/svg" version="1.1" xmlns:xlink="http://www.w3.org/1999/xlink" xmlns:svgjs="http://svgjs.com/svgjs" width="512" height="512" x="0" y="0" viewBox="0 0 512 512" style="enable-background:new 0 0 512 512" xml:space="preserve" class="hovered-paths"><g><g xmlns="http://www.w3.org/2000/svg"><g><g><path d="m78.734 258.443c3.313-1.385 5.912-4.193 6.661-7.704 3.789-17.772-37.576-22.286-33.322-41.525 5.271-23.839 28.719-42.818 27.29-30.756s6.379 37.013 20.04 40.471 22.581-6.5 15.248-30.606c-7.334-24.106-42.514-43.768-13.473-65.198s59.301-34.839 41.589-66.563c-15.396-27.576-28.665-37.774-18.258-53.076 2.771-4.074 8.546-4.697 12.05-1.233 7.887 7.798 23.341 20.888 42.182 25.83 27.572 7.233 50.001 40.436 14.949 64.416s-9.425 61.723 6.406 57.458 25.483-18.6 21.762-32.436c-3.72-13.836 5.762-17.007 17.611-9.952 7.803 4.646 35.343 23.47 30.096 50.009-1.683 8.512-11.471 20.067.332 29.205 10.288 7.965 44.679 13.83 36.109-33.489-2.59-14.3-23.913-45.482 1.724-55.452 17.921-6.969 51.654 6.137 51.403-20.086s32.969-6.168 19.694 26.512-49.443 43.171-15.423 84.813c27.087 33.155 45.34 54.62 42.685 89.065-.765 9.923 12.541 14.184 17.636 5.634 2.513-4.217 4.557-8.934 5.672-14.099 1.154-5.344 6.509-8.655 11.777-7.194 3.765 1.044 6.506 4.292 6.88 8.181 1.203 12.485 1.625 39.996-15.018 56.288-12.105 11.849-17.14 30.605-13.873 57.152 6.648 54.012-43.758 34.101-46.321 42.461-4.204 13.715 29.079 22.324 22.195 35.223-46.221 86.605-301.387 49.382-324.987-22.722-13.251-40.486 54.3-49.654 2.586-94.371-19.018-16.445-25.246-41.894-17.877-61.918 4.856-13.189 18.331-21.979 23.975-24.338z" fill="#e1a514" data-original="#fb1466" class=""></path></g><g><path d="m433.037 326.959c-12.105 11.847-17.142 30.607-13.877 57.144 6.655 54.012-43.752 34.109-46.317 42.464-4.203 13.712 29.082 22.324 22.2 35.222-16.442 30.802-59.318 45.946-108.808 49.418 33.78-9.89 61.842-28.031 76.553-55.599 6.882-12.898-26.403-21.51-22.2-35.222 2.565-8.355 52.972 11.548 46.327-42.464-3.276-26.537 1.762-45.297 13.866-57.144 9.076-8.89 13.083-21.119 14.639-32.42 3.132.124 6.336-1.267 8.303-4.574 2.514-4.224 4.564-8.942 5.676-14.103 1.154-5.347 6.511-8.653 11.775-7.191 1.885.515 3.513 1.586 4.718 3.018s1.978 3.214 2.163 5.161c1.207 12.487 1.629 39.992-15.018 56.29z" fill="#ffc946" data-original="#e01058" class="hovered-path"></path></g><g><path d="m406.252 275.388c-.155.412-.278.845-.371 1.288-1.174 5.481-3.348 10.498-6.016 14.968-5.419 9.086-19.543 4.564-18.739-5.985 2.823-36.582-16.565-59.38-45.338-94.591-36.129-44.236 2.287-55.372 16.39-90.089 1.607-3.966 2.575-7.747 3.029-11.311 2.514-2.586 3.976-6.367 3.925-11.909-.247-26.228 32.976-6.171 19.697 26.507-13.279 32.677-49.438 43.175-15.422 84.815 26.352 32.253 44.349 53.455 42.845 86.307z" fill="#ffc946" data-original="#e01058" class="hovered-path"></path></g><g><path d="m442.195 228.431c-8.153 0-20.977-8.829-17.613-21.863 3.863-14.971 12.859-19.113 12.859-29.834s25.729-6.476 22.535 24.596c-1.338 13.017-5.122 27.101-17.781 27.101z" fill="#ffc946" data-original="#e01058" class="hovered-path"></path></g><g><path d="m316.922 62.856c-8.364 0-21.52-9.058-18.069-22.43 3.963-15.358 13.192-19.608 13.192-30.607s26.396-6.643 23.119 25.233c-1.373 13.354-5.255 27.804-18.242 27.804z" fill="#e1a514" data-original="#fb1466" class=""></path></g><g><path d="m67.456 86.725c7.677 2.638 22.608-1.526 23.658-14.887 1.206-15.346-5.923-22.157-2.454-32.252s-22.131-14.422-29.178 15.868c-2.951 12.689-3.946 27.175 7.974 31.271z" fill="#ffb400" data-original="#fc5a95" class=""></path></g></g><g><g><path d="m246.008 216.05c-103.39.218-121.625 82.845-121.625 142.664 0 45.061 35.246 51.217 35.246 51.217 8.042 1.754 14.442 7.832 16.609 15.773l4.625 16.947c.984 3.605 4.259 6.106 7.996 6.106h8.209c4.049 0 7.505-2.925 8.174-6.918l1.756-10.471c.67-3.993 4.126-6.918 8.174-6.918h4.128c4.018 0 7.458 2.882 8.161 6.838l3.368 18.95c.703 3.956 4.143 6.838 8.161 6.838h14.035c4.018 0 7.458-2.882 8.161-6.838l3.368-18.95c.703-3.956 4.143-6.838 8.161-6.838h4.128c4.049 0 7.505 2.925 8.174 6.918l1.756 10.471c.67 3.993 4.126 6.918 8.174 6.918h8.209c3.737 0 7.012-2.501 7.996-6.106l4.625-16.947c2.167-7.94 8.568-14.019 16.609-15.773s35.246-6.155 35.246-51.217c.001-59.819-18.234-142.445-121.624-142.664z" fill="#f2eff2" data-original="#f2eff2" class=""></path><path d="m367.629 358.719c0 22.53-8.808 35.335-17.616 42.505-8.818 7.17-17.626 8.705-17.626 8.705-8.046 1.751-14.443 7.829-16.606 15.772l-4.626 16.947c-.989 3.606-4.265 6.109-7.994 6.109h-8.211c-4.049 0-7.51-2.926-8.18-6.923l-1.751-10.467c-.103-.618-.278-1.216-.515-1.772l1.906-6.985c2.163-7.943 8.561-14.021 16.607-15.772 0 0 8.808-1.535 17.616-8.705 8.818-7.17 17.626-19.975 17.626-42.505 0-53.013-14.32-123.941-89.544-139.548 101 1.638 118.914 83.342 118.914 142.639z" fill="#e1dde1" data-original="#e1dde1" class=""></path></g><g><g><ellipse cx="193.174" cy="326.835" fill="#e1a514" rx="32.62" ry="30.534" transform="matrix(.707 -.707 .707 .707 -174.528 232.322)" data-original="#fb1466" class=""></ellipse></g><g><ellipse cx="298.843" cy="326.835" fill="#e1a514" rx="30.534" ry="32.62" transform="matrix(.707 -.707 .707 .707 -143.578 307.041)" data-original="#fb1466" class=""></ellipse></g></g><g><path d="m262.269 370.087c-2.51-4.385-5.752-8.299-9.561-11.575-3.832-3.295-9.587-3.294-13.416.004-3.803 3.275-7.041 7.189-9.549 11.573-3.976 6.951 1.186 15.604 9.194 15.604h14.139c8.009 0 13.172-8.656 9.193-15.606z" fill="#e1a514" data-original="#fb1466" class=""></path></g></g><g><path d="m193.118 251.574c8.364 0 21.52-9.058 18.069-22.43-3.963-15.358-13.192-19.608-13.192-30.607s-26.396-6.643-23.119 25.233c1.373 13.354 5.255 27.804 18.242 27.804z" fill="#ffb400" data-original="#fc5a95" class=""></path></g></g></g></svg>