<svg xmlns="http://www.w3.org/2000/svg" version="1.1" xmlns:xlink="http://www.w3.org/1999/xlink" xmlns:svgjs="http://svgjs.com/svgjs" width="512" height="512" x="0" y="0" viewBox="0 0 512 512" style="enable-background:new 0 0 512 512" xml:space="preserve" className=""><g><linearGradient xmlns="http://www.w3.org/2000/svg" id="SVGID_1_" gradientUnits="userSpaceOnUse" x1="7.829" x2="504.191" y1="499.526" y2="3.164"><stop stop-opacity="1" stop-color="#8af9ad" offset="0"></stop><stop stop-opacity="1" stop-color="#8af9ad" offset="0.21042471042471042"></stop><stop stop-opacity="1" stop-color="#8af9ad" offset="0.7316602316602316"></stop><stop stop-opacity="1" stop-color="#8af9ad" offset="1"></stop><stop stop-opacity="1" stop-color="#ff5a7d" offset="1"></stop></linearGradient><g xmlns="http://www.w3.org/2000/svg" id="_x31_8_Sword"><g><path d="m512 91.37c.092 2.024-.736 4.047-2.3 5.427-.276.828-253.884 230.335-316.343 286.356-7.175-7.175-17.109-17.109-27.32-27.32l177.535-177.627c2.667-2.667 2.667-6.991 0-9.751-2.667-2.667-7.083-2.667-9.751 0l-177.535 177.627c-10.211-10.21-20.145-20.145-27.413-27.32 95.483-105.51 190.506-210.467 286.356-316.436 1.38-1.564 3.403-2.392 5.427-2.3l81.316 3.496c3.588.092 6.439 3.036 6.531 6.623zm-286.908 316.067c-2.667-2.668-6.991-2.668-9.751 0-6.347 6.347-17.386 6.347-23.733 0-2.392-2.392-87.019-86.928-87.019-86.928-3.128-3.22-4.876-7.451-4.876-11.958 0-4.508 1.748-8.647 4.876-11.867 2.667-2.667 2.667-7.083 0-9.751-2.668-2.667-7.083-2.667-9.751 0-5.795 5.795-8.923 13.43-8.923 21.617 0 5.979 1.656 11.682 4.876 16.558l-5.887 5.795c-8.279 8.371-8.279 21.801 0 30.171l7.543 7.451-56.94 74.418c-9.475-.276-18.582 3.403-25.296 10.118-13.522 13.43-13.614 35.231 0 48.845 13.43 13.43 35.323 13.43 48.845 0 6.715-6.715 10.302-16.006 10.026-25.389l74.418-56.94 7.543 7.543c8.279 8.371 21.709 8.371 30.079 0l5.795-5.795c4.968 3.128 10.579 4.876 16.558 4.876 8.186 0 15.822-3.219 21.617-9.015 2.76-2.666 2.76-7.081 0-9.749zm-133.749-407.41-81.316 3.495c-3.588.092-6.439 3.036-6.531 6.623l-3.496 81.225c-.092 2.024.735 4.047 2.3 5.427.184.46 83.34 75.889 166.129 150.767l32.931-36.427-32.931-32.932c-2.668-2.667-2.668-6.991 0-9.751 2.667-2.667 7.083-2.667 9.751 0l32.471 32.472 32.932-36.335c-48.846-53.996-97.691-107.992-146.813-162.265-1.379-1.563-3.403-2.392-5.427-2.299zm178.363 339.064c20.697 18.674 37.899 34.127 48.937 44.062 7.175-7.175 17.11-17.109 27.32-27.32l-44.982-44.981c-10.946 9.841-21.433 19.316-31.275 28.239zm72.485-65.495c-10.486 9.475-20.789 18.766-30.908 27.964l44.43 44.521c10.21-10.21 20.145-20.145 27.412-27.32-13.613-15.085-27.319-30.171-40.934-45.165zm-55.242 143.592c5.795 5.795 13.43 9.015 21.617 9.015 5.979 0 11.59-1.748 16.558-4.876l5.795 5.795c8.371 8.371 21.801 8.371 30.079 0l7.543-7.543 74.418 56.94c-.276 9.383 3.311 18.674 10.026 25.389 13.522 13.43 35.415 13.43 48.845 0 13.614-13.614 13.522-35.415 0-48.845-6.715-6.715-15.822-10.395-25.296-10.118l-56.94-74.418 7.543-7.451c8.279-8.371 8.279-21.801 0-30.171l-5.887-5.795c3.22-4.876 4.876-10.579 4.876-16.558 0-8.187-3.128-15.822-8.923-21.617-2.667-2.667-7.083-2.667-9.751 0-2.667 2.668-2.667 7.083 0 9.751 3.128 3.22 4.876 7.359 4.876 11.867 0 4.507-1.748 8.738-4.876 11.958 0 0-84.628 84.536-87.019 86.928-6.347 6.347-17.386 6.347-23.733 0-2.759-2.668-7.083-2.668-9.751 0-2.76 2.666-2.76 7.081 0 9.749z" fill="url(#SVGID_1_)" data-original="url(#SVGID_1_)"></path></g></g></g></svg>