<svg xmlns="http://www.w3.org/2000/svg" version="1.1" xmlns:xlink="http://www.w3.org/1999/xlink" xmlns:svgjs="http://svgjs.com/svgjs" width="512" height="512" x="0" y="0" viewBox="0 0 128 128" style="enable-background:new 0 0 512 512" xml:space="preserve" className=""><g><linearGradient xmlns="http://www.w3.org/2000/svg" id="a" gradientUnits="userSpaceOnUse" x1="78.233" x2="47.434" y1="80.814" y2="50.015"><stop offset="0" stop-color="#ff3d58"></stop><stop offset="1" stop-color="#ffe270"></stop></linearGradient><path xmlns="http://www.w3.org/2000/svg" d="m43.514 67.483a1.75 1.75 0 0 1 .2-2.466l.724-.615a1.75 1.75 0 0 1 2.264 2.67l-.725.615a1.749 1.749 0 0 1 -2.466-.2zm29.529-1.022-28.186 33.251-16.518-.3-.3-16.519 13.012-11.028a1.75 1.75 0 0 0 -2.263-2.67l-13.644 11.566a1.748 1.748 0 0 0 -.618 1.366l.345 19.036a1.751 1.751 0 0 0 1.717 1.719l19.036.345h.031a1.749 1.749 0 0 0 1.335-.619l28.723-33.883a1.75 1.75 0 0 0 -2.67-2.264zm29.325-35.917-4.668-4.663a3.728 3.728 0 0 0 -2.829-1.1l-3.425.143a3.8 3.8 0 0 0 -3.617 3.618l-.06 1.432-13.334 12.142-3.214-3.216a1.75 1.75 0 1 0 -2.475 2.475l21.373 21.376-3.719 4.657-13.029-13.026-12.531-12.53 5.881-4.7a1.75 1.75 0 0 0 -2.184-2.734l-7.41 5.919a1.749 1.749 0 0 0 -.145 2.6l5.862 5.863-13.259 11.243a1.75 1.75 0 0 0 2.264 2.67l13.478-11.426 4.331 4.331-27.007 27.008a1.75 1.75 0 0 0 2.474 2.474l27.008-27.007 13.174 13.174a1.748 1.748 0 0 0 1.237.512h.1a1.741 1.741 0 0 0 1.269-.655l5.919-7.409a1.749 1.749 0 0 0 -.13-2.329l-16.79-16.792 13.758-12.529a1.743 1.743 0 0 0 .569-1.221l.09-2.16a.279.279 0 0 1 .268-.268l3.424-.143a.322.322 0 0 1 .208.082l4.663 4.663a.283.283 0 0 1 .083.21l-.142 3.423a.283.283 0 0 1 -.267.268l-2.161.09a1.743 1.743 0 0 0 -1.221.569l-3.14 3.447a1.751 1.751 0 1 0 2.588 2.358l2.647-2.908 1.433-.06a3.8 3.8 0 0 0 3.617-3.618l.142-3.425a3.791 3.791 0 0 0 -1.103-2.828zm-14.329 15.978-1.1 1.21a1.75 1.75 0 1 0 2.588 2.356l1.1-1.21a1.75 1.75 0 0 0 -2.588-2.356z" fill="url(#a)" data-original="url(#a)" className=""></path></g></svg>