<svg xmlns="http://www.w3.org/2000/svg" version="1.1" xmlns:xlink="http://www.w3.org/1999/xlink" xmlns:svgjs="http://svgjs.com/svgjs" width="512" height="512" x="0" y="0" viewBox="0 0 512 512" style="enable-background:new 0 0 512 512" xml:space="preserve" className=""><g><g xmlns="http://www.w3.org/2000/svg"><circle cx="416.57" cy="442" r="10" fill="#f7b521" data-original="#000000" className=""></circle><path d="m501.75 231.25c-4.247-4.247-9.396-7.259-15.012-8.876-1.669-26.959-11.318-48.253-28.749-63.383-12.437-10.796-28.755-17.964-47.951-21.234l12.032-10.096c4.231-3.55 4.783-9.858 1.233-14.088-3.55-4.231-9.858-4.783-14.088-1.233l-30.642 25.711c-4.231 3.55-4.783 9.858-1.233 14.088l25.711 30.642c1.978 2.357 4.812 3.572 7.666 3.572 2.268 0 4.549-.768 6.422-2.339 4.231-3.55 4.783-9.858 1.233-14.088l-10.215-12.175c26.163 4.887 54.61 20.251 58.408 63.249h-111.565v-126c0-19.3-15.7-35-35-35h-285c-19.3 0-35 15.7-35 35v161c0 15.92 10.687 29.381 25.261 33.611 1.666 26.966 11.316 48.266 28.75 63.398 12.437 10.796 28.755 17.964 47.951 21.234l-12.032 10.096c-4.231 3.55-4.783 9.858-1.233 14.088 1.978 2.357 4.812 3.573 7.666 3.572 2.268 0 4.549-.768 6.422-2.339l30.642-25.711c4.231-3.55 4.783-9.858 1.233-14.088l-25.711-30.642c-3.55-4.23-9.857-4.783-14.088-1.233s-4.783 9.858-1.233 14.088l10.215 12.175c-26.163-4.887-54.61-20.251-58.408-63.249h111.565v126c0 9.35 3.64 18.14 10.25 24.75s15.4 10.25 24.75 10.25h179.57c5.52 0 10-4.49 10-10s-4.48-10-10-10h-179.57c-8.26-.02-14.98-6.75-15-15v-86h315v86c-.02 8.25-6.75 14.98-15 15h-15.43c-5.51 0-10 4.49-10 10s4.49 10 10 10h15.43c9.35 0 18.14-3.64 24.75-10.25s10.25-15.4 10.25-24.75v-161c0-9.35-3.64-18.14-10.25-24.75zm-24.75 9.75c8.25.02 14.98 6.74 15 15v15h-315v-15c.02-8.26 6.74-14.98 15-15zm-457-111h315v20h-315zm15-50h285c8.27 0 15 6.73 15 15v15h-315v-15c0-8.27 6.73-15 15-15zm-15 176v-86h315v51h-143c-9.35 0-18.14 3.64-24.75 10.25s-10.25 15.4-10.25 24.75v15h-122c-8.27 0-15-6.73-15-15zm157 55v-20h315v20z" fill="#f7b521" data-original="#000000" className=""></path><circle cx="417" cy="361" r="10" fill="#f7b521" data-original="#000000" className=""></circle><circle cx="372" cy="361" r="10" fill="#f7b521" data-original="#000000" className=""></circle><circle cx="462" cy="361" r="10" fill="#f7b521" data-original="#000000" className=""></circle></g></g></svg>