<svg xmlns="http://www.w3.org/2000/svg" version="1.1" xmlns:xlink="http://www.w3.org/1999/xlink" xmlns:svgjs="http://svgjs.com/svgjs" width="512" height="512" x="0" y="0" viewBox="0 0 512 512" style="enable-background:new 0 0 512 512" xml:space="preserve" className=""><g><path xmlns="http://www.w3.org/2000/svg" d="m181 377.553c0 9.31.86 18.48 2.53 27.43h-137.53c-8.28 0-15-6.72-15-15v-60c0-8.28 6.72-15 15-15h135z" fill="#ffb400" data-original="#000000" className=""></path><path xmlns="http://www.w3.org/2000/svg" d="m481 329.983v60c0 8.28-6.72 15-15 15h-137.53c1.67-8.95 2.53-18.12 2.53-27.43v-62.57h135c8.28 0 15 6.72 15 15z" fill="#ffb400" data-original="#000000" className=""></path><path xmlns="http://www.w3.org/2000/svg" d="m181 149.923v135.06h-114.75c14.432-60.815 57.036-110.954 114.75-135.06z" fill="#ffb400" data-original="#000000" className=""></path><path xmlns="http://www.w3.org/2000/svg" d="m445.75 284.983h-114.75v-135.06c57.676 24.091 100.309 74.204 114.75 135.06z" fill="#ffb400" data-original="#000000" className=""></path><path xmlns="http://www.w3.org/2000/svg" d="m256 464.983c-3.839 0-7.678-1.464-10.606-4.394-22.18-22.178-34.394-51.666-34.394-83.032v-257.574c0-8.284 6.716-15 15-15h60c8.284 0 15 6.716 15 15v257.574c0 31.366-12.214 60.854-34.394 83.033-2.928 2.929-6.767 4.393-10.606 4.393z" fill="#ffb400" data-original="#000000" className=""></path><path xmlns="http://www.w3.org/2000/svg" d="m107.4 71.553c-11.38 13.82-17.4 30.21-17.4 47.4 0 16.34 5.33 31.87 14.68 44.53-28.446 25.776-49.171 57.91-61.3 92.91-26.95-22.31-43.38-55.85-43.38-92.44 0-56.068 38.883-103.871 92.37-116.53 6.27-1.49 12.78 1.2 16.19 6.66 3.4 5.47 2.94 12.5-1.16 17.47z" fill="#ffb400" data-original="#000000" className=""></path><path xmlns="http://www.w3.org/2000/svg" d="m512 163.953c0 36.59-16.43 70.13-43.38 92.44-12.195-35.191-33.1-67.408-61.29-92.91 9.34-12.66 14.67-28.19 14.67-44.53 0-17.19-6.02-33.58-17.4-47.4-4.1-4.97-4.56-12-1.16-17.47 3.41-5.46 9.92-8.14 16.19-6.66 53.485 12.658 92.37 60.46 92.37 116.53z" fill="#ffb400" data-original="#000000" className=""></path></g></svg>