<svg xmlns="http://www.w3.org/2000/svg" version="1.1" xmlns:xlink="http://www.w3.org/1999/xlink" xmlns:svgjs="http://svgjs.com/svgjs" width="512" height="512" x="0" y="0" viewBox="0 0 512 512" style="enable-background:new 0 0 512 512" xml:space="preserve" className=""><g>
<g xmlns="http://www.w3.org/2000/svg">
	<g>
		<path fill="#21315f" d="M369.539,106.99l-11.18,87.83h-7.39v-29c0-9.87-1.53-19.4-4.36-28.36H238.95    c-23.71,0-45.09-10.04-60.101-26.1c-10.91,15.43-17.34,34.23-17.34,54.46v29h-7.87l-11.18-87.83    c-1.69-13.32,4.62-25.74,15.979-34.89C157.3,66.65,156.7,61,156.7,55.21V38.95c0-10.47,8.489-18.95,18.949-18.95h88.74    c35.01,0,65.59,18.95,82.04,47.16C362.17,76.48,371.57,91.09,369.539,106.99z" data-original="#21315f"></path>
		<path fill="#f2b7a2" d="M408.979,486.439V492H103.49v-5.561c0-2.039,0.04-4.129,0.13-6.17c0.09-1.869,0.17-3.779,0.3-5.649    c0.13-1.729,0.31-3.431,0.53-5.12c0.13-1.48,0.34-2.96,0.56-4.43c0-0.4,0.09-0.74,0.13-1.131c0.221-1.39,0.431-2.739,0.7-4.129    c0.08-0.57,0.17-1.091,0.26-1.65c0.21-1.04,0.431-2.09,0.65-3.131c0.26-1.299,0.52-2.56,0.82-3.819c0.09-0.44,0.22-0.87,0.31-1.26    c0.26-1.091,0.56-2.22,0.87-3.3c0.26-0.961,0.52-1.92,0.78-2.871c2.04-7.079,4.6-13.899,7.6-20.459c0.74-1.61,1.52-3.221,2.3-4.78    c0.79-1.57,1.57-3.13,2.44-4.69c0.779-1.479,1.6-2.959,2.47-4.39c0-0.09,0.05-0.181,0.13-0.22c0.87-1.48,1.78-2.95,2.7-4.43    c0.729-1.131,1.47-2.261,2.21-3.391c3.17-4.73,6.61-9.3,10.3-13.6c1.04-1.301,2.17-2.561,3.3-3.78    c3.69-4.08,7.601-7.99,11.73-11.64c1.43-1.26,2.87-2.521,4.34-3.73c1.48-1.22,3-2.391,4.521-3.57c1.52-1.17,3.04-2.3,4.609-3.39    c1.561-1.13,3.17-2.21,4.78-3.25c1.56-1,3.12-2,4.729-2.96c0.091-0.04,0.171-0.09,0.221-0.13c1.26-0.74,2.47-1.479,3.729-2.13    c2.311-1.34,4.65-2.561,7-3.73c4.95-2.439,10.08-4.65,15.33-6.56c7.521-2.74,13.82-7.56,18.29-13.771    c3.21-4.359,5.49-9.34,6.67-14.68c-38.899-11.79-67.42-48.07-67.42-90.69v-57.99c0-20.23,6.43-39.03,17.34-54.46    c15.011,16.06,36.391,26.1,60.101,26.1h107.659c2.83,8.96,4.36,18.49,4.36,28.36v57.99c0,42.61-28.511,78.879-67.39,90.68    c1.18,5.35,3.449,10.33,6.629,14.689c4.521,6.211,10.82,11.03,18.291,13.771c5.25,1.909,10.38,4.12,15.33,6.56    c2.35,1.17,4.699,2.391,7,3.73c1.26,0.65,2.47,1.39,3.729,2.13c0.05,0.04,0.13,0.09,0.22,0.13c1.61,0.96,3.17,1.96,4.74,2.96    c1.6,1.04,3.21,2.12,4.78,3.25c1.56,1.09,3.08,2.22,4.6,3.39c1.521,1.18,3.04,2.351,4.521,3.57c1.479,1.21,2.91,2.471,4.34,3.73    c4.13,3.649,8.04,7.56,11.73,11.64c1.129,1.22,2.26,2.479,3.299,3.78c3.701,4.3,7.131,8.869,10.301,13.6    c0.74,1.13,1.48,2.26,2.22,3.391c0.91,1.479,1.82,2.949,2.69,4.43c0.09,0.039,0.13,0.13,0.13,0.22    c0.87,1.431,1.69,2.91,2.479,4.39c0.86,1.561,1.65,3.12,2.43,4.69c0.781,1.56,1.561,3.17,2.301,4.78c3,6.56,5.56,13.38,7.6,20.459    c0.26,0.951,0.52,1.91,0.79,2.871c0.3,1.08,0.601,2.209,0.86,3.3c0.09,0.39,0.22,0.819,0.31,1.26c0.3,1.26,0.56,2.521,0.82,3.819    l0.66,3.131c0.079,0.56,0.17,1.08,0.26,1.65c0.26,1.39,0.47,2.739,0.69,4.129c0.05,0.391,0.129,0.73,0.129,1.131    c0.221,1.47,0.44,2.949,0.57,4.43c0.211,1.689,0.391,3.391,0.521,5.12c0.13,1.87,0.21,3.78,0.3,5.649    C408.939,482.311,408.979,484.4,408.979,486.439z" data-original="#f2b7a2"></path>
		<path fill="#da795c" d="M290.207,329.175c-10.078,5.518-21.634,8.688-33.971,8.688c-12.339,0-23.895-3.171-33.974-8.688    c3.215-4.345,5.475-9.341,6.647-14.684c8.646,2.606,17.854,4.04,27.326,4.04c9.514,0,18.724-1.434,27.369-4.084    C284.734,319.791,287.036,324.787,290.207,329.175z" data-original="#da795c"></path>
		<path fill="#5045e6" d="M408.982,486.439V492H103.489v-5.561c0-2.042,0.044-4.127,0.13-6.169c0.088-1.868,0.175-3.779,0.305-5.647    c0.131-1.738,0.305-3.432,0.521-5.127c0.131-1.477,0.348-2.953,0.564-4.431c0-0.392,0.087-0.739,0.131-1.13    c0.218-1.39,0.435-2.736,0.694-4.127c0.087-0.564,0.174-1.086,0.261-1.65c0.218-1.043,0.436-2.086,0.652-3.128    c0.26-1.304,0.521-2.563,0.825-3.823c0.087-0.435,0.217-0.869,0.305-1.26c0.26-1.086,0.564-2.216,0.869-3.302    c0.26-0.956,0.521-1.911,0.781-2.867c2.042-7.081,4.605-13.901,7.603-20.462c0.738-1.607,1.521-3.215,2.303-4.779    c0.781-1.563,1.563-3.127,2.433-4.691c0.782-1.477,1.607-2.954,2.476-4.388c0-0.087,0.044-0.174,0.131-0.218    c0.868-1.477,1.781-2.953,2.693-4.431c0.738-1.13,1.477-2.259,2.216-3.389c3.172-4.735,6.604-9.297,10.296-13.598    c1.043-1.304,2.172-2.563,3.302-3.779c3.693-4.084,7.603-7.994,11.729-11.643c1.434-1.26,2.868-2.521,4.344-3.736    c1.478-1.217,2.998-2.39,4.519-3.563c1.521-1.173,3.041-2.303,4.605-3.389c1.563-1.13,3.171-2.216,4.778-3.259    c1.564-0.998,3.129-1.998,4.735-2.953c0.087-0.044,0.174-0.088,0.218-0.131c1.26-0.738,2.477-1.477,3.735-2.129    c2.303-1.347,4.648-2.563,6.994-3.736c10.948,26.544,37.102,45.225,67.599,45.225c30.54,0,56.649-18.681,67.598-45.225    c2.346,1.174,4.691,2.39,6.994,3.736c1.26,0.652,2.476,1.391,3.736,2.129c0.043,0.043,0.13,0.087,0.217,0.131    c1.607,0.955,3.172,1.955,4.734,2.953c1.608,1.043,3.215,2.129,4.779,3.259c1.564,1.086,3.084,2.216,4.605,3.389    c1.52,1.173,3.041,2.346,4.518,3.563c1.477,1.216,2.911,2.477,4.344,3.736c4.127,3.648,8.037,7.559,11.729,11.643    c1.131,1.216,2.259,2.476,3.304,3.779c3.691,4.301,7.123,8.862,10.295,13.598c0.738,1.13,1.478,2.259,2.215,3.389    c0.912,1.478,1.825,2.954,2.695,4.431c0.086,0.044,0.129,0.131,0.129,0.218c0.869,1.434,1.695,2.911,2.477,4.388    c0.869,1.564,1.651,3.128,2.434,4.691c0.781,1.564,1.563,3.172,2.302,4.779c2.997,6.561,5.562,13.381,7.603,20.462    c0.262,0.956,0.521,1.911,0.781,2.867c0.305,1.086,0.608,2.216,0.869,3.302c0.087,0.391,0.218,0.825,0.305,1.26    c0.305,1.26,0.564,2.52,0.825,3.823l0.652,3.128c0.087,0.564,0.174,1.086,0.26,1.65c0.261,1.391,0.478,2.737,0.696,4.127    c0.043,0.391,0.13,0.738,0.13,1.13c0.216,1.478,0.434,2.954,0.563,4.431c0.219,1.695,0.393,3.389,0.522,5.127    c0.13,1.868,0.216,3.779,0.304,5.647C408.938,482.313,408.982,484.397,408.982,486.439z" data-original="#e67445" className=""></path>
	</g>
	<g>
		<path fill="#ebc847" d="M370.455,222.958h-19.633c-3.619,0-6.553-2.934-6.553-6.553v-43.184c0-3.619,2.934-6.553,6.553-6.553    h19.633c3.619,0,6.553,2.934,6.553,6.553v43.184C377.008,220.024,374.074,222.958,370.455,222.958z" data-original="#ebc847"></path>
		<path fill="#ebc847" d="M161.19,222.958h-19.633c-3.619,0-6.554-2.934-6.554-6.553v-43.184c0-3.619,2.935-6.553,6.554-6.553    h19.633c3.619,0,6.553,2.934,6.553,6.553v43.184C167.743,220.024,164.81,222.958,161.19,222.958z" data-original="#ebc847"></path>
		<path fill="#119612" d="M360.639,160.114v69.397c0,3.63-2.936,6.553-6.553,6.553h-71.395c-2.973,0-5.643-1.984-6.332-4.876    c-2.197-9.208-10.479-16.054-20.359-16.054s-18.162,6.847-20.359,16.054c-0.69,2.892-3.359,4.876-6.333,4.876h-71.381    c-3.617,0-6.553-2.923-6.553-6.553v-69.397c0-3.619,2.934-6.553,6.553-6.553h196.159    C357.705,153.562,360.639,156.495,360.639,160.114z" data-original="#4e73de" className=""></path>
		<path fill="#94e398" d="M347.533,166.667v56.291h-60.105c-0.498-1.192-1.049-2.346-1.664-3.46    c-1.402-2.542-3.119-4.862-5.085-6.933c-3.028-3.185-6.658-5.753-10.682-7.549c-4.286-1.926-9.03-2.988-13.997-2.988    c-13.972,0-26.226,8.375-31.429,20.93H164.48v-56.291H347.533z" data-original="#8cabff" className=""></path>
		<polygon fill="#ecffd9" points="242.226,166.667 185.935,222.958 167.704,222.958 223.995,166.667   " data-original="#d9e5ff" className=""></polygon>
		<polygon fill="#ecffd9" points="263.339,166.667 207.049,222.958 197.939,222.958 254.23,166.667   " data-original="#d9e5ff" className=""></polygon>
		<path fill="#ecffd9" d="M326.576,166.667l-45.897,45.897c-3.028-3.185-6.658-5.753-10.682-7.549l38.361-38.348H326.576z" data-original="#d9e5ff" className=""></path>
		<path fill="#ecffd9" d="M347.533,166.667v0.17l-56.121,56.12h-3.984c-0.498-1.192-1.049-2.346-1.664-3.46l52.817-52.831H347.533z" data-original="#d9e5ff" className=""></path>
	</g>
	<g>
		<g opacity="0.47">
			<path fill="#119612" d="M408.982,314.447c43.82,13.246,71.215,32.113,71.215,53.052c0,40.08-100.377,72.571-224.197,72.571     S31.803,407.579,31.803,367.499c0-20.938,27.394-39.806,71.213-53.052V162.083c-43.819,13.246-71.213,32.112-71.213,53.051     c0,40.08,100.377,72.571,224.197,72.571s224.197-32.491,224.197-72.571c0-20.938-27.395-39.806-71.215-53.051V314.447z" data-original="#4e73de" className=""></path>
			<path fill="#94e398" d="M480.192,215.134v152.372c0,40.078-100.366,72.568-224.192,72.568s-224.193-32.49-224.193-72.568V215.134     c0,20.931,27.393,39.804,71.206,53.04c40.065,12.11,93.853,19.528,152.987,19.528s112.922-7.418,152.987-19.528     C452.801,254.938,480.192,236.064,480.192,215.134z" data-original="#94a9e3" className=""></path>
		</g>
		<path fill="#ffffff" d="M386.006,329.316h-38.473c-2.762,0-5-2.239-5-5c0-2.762,2.238-5,5-5h38.473c2.762,0,5,2.238,5,5    C391.006,327.077,388.768,329.316,386.006,329.316z" data-original="#ffffff" className=""></path>
		<path fill="#ffffff" d="M408.982,348.107h-61.449c-2.762,0-5-2.238-5-5c0-2.761,2.238-5,5-5h61.449c2.761,0,5,2.239,5,5    C413.982,345.869,411.743,348.107,408.982,348.107z" data-original="#ffffff" className=""></path>
		<path fill="#2babaa" d="M167.743,381.663h-41.634c-2.761,0-5-2.239-5-5s2.239-5,5-5h41.634c2.762,0,5,2.239,5,5    S170.505,381.663,167.743,381.663z" data-original="#2babaa" className=""></path>
		<path fill="#2babaa" d="M167.743,400.455h-41.634c-2.761,0-5-2.239-5-5c0-2.762,2.239-5,5-5h41.634c2.762,0,5,2.238,5,5    C172.743,398.216,170.505,400.455,167.743,400.455z" data-original="#2babaa" className=""></path>
	</g>
	<g>
		<path fill="#119612" d="M212.002,338.683c-2.761,0-5-2.239-5-5v-15.304c0-2.761,2.239-5,5-5h15.253c2.762,0,5,2.239,5,5    c0,2.762-2.238,5-5,5h-10.253v10.304C217.002,336.443,214.764,338.683,212.002,338.683z" data-original="#4e73de" className=""></path>
		<path fill="#119612" d="M227.449,411.859h-15.447c-2.761,0-5-2.238-5-5v-15.332c0-2.762,2.239-5,5-5c2.762,0,5,2.238,5,5v10.332    h10.447c2.762,0,5,2.238,5,5S230.211,411.859,227.449,411.859z" data-original="#4e73de" className=""></path>
		<path fill="#119612" d="M300.481,411.859h-15.304c-2.761,0-5-2.238-5-5s2.239-5,5-5h10.304v-10.332c0-2.762,2.239-5,5-5    s5,2.238,5,5v15.332C305.481,409.621,303.242,411.859,300.481,411.859z" data-original="#4e73de" className=""></path>
		<path fill="#119612" d="M300.481,338.683c-2.761,0-5-2.239-5-5v-10.304h-10.424c-2.761,0-5-2.238-5-5c0-2.761,2.239-5,5-5h15.424    c2.761,0,5,2.239,5,5v15.304C305.481,336.443,303.242,338.683,300.481,338.683z" data-original="#4e73de" className=""></path>
		<polygon fill="#678fff" points="256.286,362.735 256.204,391.527 231.148,377.061 231.229,348.27   " data-original="#678fff" className=""></polygon>
		<polygon fill="#94e398" points="256.286,362.735 281.335,348.178 281.254,376.97 256.204,391.527   " data-original="#8cabff" className=""></polygon>
		<polygon fill="#efec7d" points="231.229,348.27 256.279,333.712 281.335,348.178 256.286,362.735   " data-original="#7da0ef" className=""></polygon>
	</g>
</g>
</g></svg>