<svg xmlns="http://www.w3.org/2000/svg" version="1.1" xmlns:xlink="http://www.w3.org/1999/xlink" xmlns:svgjs="http://svgjs.com/svgjs" width="512" height="512" x="0" y="0" viewBox="0 0 512 512" style="enable-background:new 0 0 512 512" xml:space="preserve" className=""><g><path xmlns="http://www.w3.org/2000/svg" id="Dark_castle" d="m97.978 509.354c-2.1.858-4.184 1.745-6.263 2.646h376.985c-9-6.086-42.318-22.539-51.651-27.836-.394-.224-.758-.464-1.113-.707-4.4-.667-8.8-1.326-13.186-2.019l2.19-34.145s28.193-1.565 38.215-1.565c-17.227-6.264-36.334-41.973-36.334-41.973l32.888-98.98s5.015 2.506 33.2 12.528c-11.591-20.985-19.107-105.872-20.672-145.964-46.984 43.226-125.3 60.765-125.3 60.765l9.713-35.081a239.008 239.008 0 0 1 25.372-8.458c-98.513-31.323-68.285-117.774-68.285-117.774s.941-.313 25.371-.313c-14.401-5.015-42.593-34.144-46.035-70.478-2.51 37.274-46.989 69.538-46.989 69.538s24.435.312 29.446.312c22.237 85.2-78.308 119.968-78.308 119.968l29.13 5.011s7.2 31.011 9.71 43.855c-24.431 9.4-102.425 6.888-114.328-5.011-9.086 60.452-62.646 104.927-62.646 104.927l56.381-2.5 19.108 42.6-28.817 59.2 39.78-11.9 12.527 51.055-9.709 20.045s-24.585 9.886-30.38 12.254zm277.056-35.933-27.886-1 3.983-31.367 29.378 5.48zm4.649-120.495-5.8 27.084-11.557-2.595 7.016-26.257zm-9.028-6.681 1.6-5.976c2.611-9.758 8.384-16.624 13.876-17.438l-5.384 25.139zm18.6 37.218-10.434-2.343 5.855-27.34 9.7 1.659zm6.912-37.823-.88 4.818-9.55-1.633 5.33-24.892c3.549 2.358 5.725 8.014 5.725 15.011a37.3 37.3 0 0 1 -.622 6.696zm24.635-61.179a14.875 14.875 0 0 1 -8.661-13.514c0-.431.023-.856.058-1.278l12.149 3.989zm-7.314-19.7a14.893 14.893 0 0 1 16.537-8.393l-4.1 12.477zm13.534 21.061c-.445 0-.883-.023-1.318-.061l3.456-10.525 10.558 3.466a14.867 14.867 0 0 1 -12.693 7.122zm14.565-11.836-10.848-3.561 4.006-12.2a14.9 14.9 0 0 1 6.842 15.762zm-3.482-83.265c-1.781 3.382-45.38 79.059-84.535 103.714-5.564-1.173-8.773-1.669-8.773-1.669s66.955-55.566 93.311-102.043zm-135.279 138.325h-23.365v-13.246l22.381-1.37zm-1.476-21.929-21.889 1.34v-17.876l20.689-1.267zm-21.889-23.88v-21.8a23.144 23.144 0 0 1 12.791 6.528 25.935 25.935 0 0 1 7.248 14.045zm-4.052-64.359-.644-20.726 19.027-.591a24.281 24.281 0 0 1 -18.383 21.317zm17.81-29.29-18.7.581-.582-18.757a24.29 24.29 0 0 1 19.282 18.176zm-19.662-126a7.049 7.049 0 1 1 -7.049 7.048 7.046 7.046 0 0 1 7.049-7.05zm-22.71 246.623 1.209-17.95 19.962-1.223v17.877zm21.171 6.047v12.79h-22.44l.772-11.463zm-19.465-31.371v-.054c.8-11.893 9.135-21.219 19.462-23.235v22.1zm13.386-113.587.594 19.116-20.809.646a24.29 24.29 0 0 1 20.215-19.762zm.843 27.1.654 21.073a24.283 24.283 0 0 1 -21.8-20.416zm9.561 203.161c18.807 0 32.123 16.915 31.482 35.478a50.67 50.67 0 0 1 -.628 7.156l-7.817 36.6h-46.075l-7.817-36.6c-2.174-21.957 9.649-42.634 30.855-42.634zm-134.8-66.679a15.314 15.314 0 0 1 15.044 12.635l.022.122-12.728 2.014zm4.749 30.014-1.579-9.983 12.826-2.03 1.722 9.711zm28.076-20.728a16.159 16.159 0 0 1 9.189-16.759l2.363 14.932zm12.383 3.432 1.769 11.177-11.22 1.992-2.016-11.354zm-8.4 73.264 1.317 16.853-13.458 1.051c-.32-8.268 4.699-15.645 12.14-17.904zm-11.541 23.067 13.262-1.036.92 11.781-12.617.985zm3.645 27.344-1.4-10.53 12.339-.964.805 10.307zm13.564-51.1c8.259.455 15.118 7.174 16.2 15.933l-14.864 1.161zm4.708-94.192a16.076 16.076 0 0 1 17.53 13.137l-15.074 2.385zm-2.969 116.464 14.85-1.16.816 11.789-14.747 1.152zm2.114 27.062-.8-10.176 14.7-1.148.681 9.849zm5.895-111.667-1.752-11.078 15.174-2.4 1.909 10.758zm-99.867-41.792c29.133 5.639 113.7-22.553 113.7-22.553-37.582 26.628-88.8 28.192-113.7 22.553zm42.4 19.75 2.322 14.686-12.254 1.939a15.31 15.31 0 0 1 9.932-16.625zm-7.188 32.146-1.824-10.276 12.167-1.925 1.595 10.082z" data-name="Dark castle" fill="#ffb400" data-original="#000000" className=""></path></g></svg>