<svg xmlns="http://www.w3.org/2000/svg" version="1.1" xmlns:xlink="http://www.w3.org/1999/xlink" xmlns:svgjs="http://svgjs.com/svgjs" width="512" height="512" x="0" y="0" viewBox="0 0 512 512" style="enable-background:new 0 0 512 512" xml:space="preserve" className="hovered-paths"><g><g xmlns="http://www.w3.org/2000/svg"><path d="m28.206 390 70.884-71.206-62.344-31.187 36.226-28.982 121.538 17.352-38.145 114.433 103.052-68.716v76.978l71.309-53.482 21.738 32.608-43.198 134.202-37.178-53.782-61.787 53.782-33.487-58.982-106.113 35.376 32.901-98.394z" fill="#ffb400" data-original="#000000" className="hovered-path"></path><path d="m338.108 302.153 42.609 63.926c4.215-14.971 7.885-28.484 11.019-40.122 17.007-63.281 20.625-74.18 48.721-87.905l18.457-9.229c18.105-9.053 27.979-29.238 24.009-49.087l-11.558-57.773-69.873 34.951c-4.878 2.505-10.356 2.3-14.912-.483-2.153-1.304-7.163-5.171-7.163-12.759 0-5.728 3.325-11.03 8.481-13.506l46.641-23.32c18.091-9.053 27.964-29.224 23.994-49.072l-11.557-57.774-89.648 44.824c-12.202-4.087-24.917-6.152-37.91-6.152-49.922 0-93.794 30.293-111.738 76.23l-82.603 20.64 45.22 45.22-65.182 52.148 129.21 18.457-21.855 65.581 76.948-51.299v73.022zm-12.48-182.475-21.211 21.211-21.211-21.211 21.211-21.211z" fill="#ffb400" data-original="#000000" className="hovered-path"></path></g></g></svg>