<svg xmlns="http://www.w3.org/2000/svg" version="1.1" xmlns:xlink="http://www.w3.org/1999/xlink" xmlns:svgjs="http://svgjs.com/svgjs" width="512" height="512" x="0" y="0" viewBox="0 0 64 64" style="enable-background:new 0 0 512 512" xml:space="preserve" className=""><g><path xmlns="http://www.w3.org/2000/svg" d="M12.051,16,9.334,43H15V40a1,1,0,0,1,2,0v3h4V40a1,1,0,0,1,2,0v3h4V40a1,1,0,0,1,2,0v3h4V40a1,1,0,0,1,2,0v3h4V40a1,1,0,0,1,2,0v3h4V40a1,1,0,0,1,2,0v3h4V40a1,1,0,0,1,2,0v3h6.051L56.334,16V8a4.013,4.013,0,0,0-4.026-4H4l8.051,6L4,12ZM42,20c3.314,0,6,3.582,6,8s-2.686,8-6,8-6-3.582-6-8S38.686,20,42,20ZM26,20c3.314,0,6,3.582,6,8s-2.686,8-6,8-6-3.582-6-8S22.686,20,26,20Z" fill="#ffb400" data-original="#000000" className=""></path><path xmlns="http://www.w3.org/2000/svg" d="M59.253,45H53v3a1,1,0,0,1-2,0V45H47v3a1,1,0,0,1-2,0V45H41v3a1,1,0,0,1-2,0V45H35v3a1,1,0,0,1-2,0V45H29v3a1,1,0,0,1-2,0V45H23v3a1,1,0,0,1-2,0V45H17v3a1,1,0,0,1-2,0V45H9.133l-.727,7.225A4.005,4.005,0,0,0,11.8,56.577L34,60l22.586-3.423a4.005,4.005,0,0,0,3.394-4.352Z" fill="#ffb400" data-original="#000000" className=""></path></g></svg>