<svg xmlns="http://www.w3.org/2000/svg" version="1.1" xmlns:xlink="http://www.w3.org/1999/xlink" xmlns:svgjs="http://svgjs.com/svgjs" width="512" height="512" x="0" y="0" viewBox="0 0 512 512" style="enable-background:new 0 0 512 512" xml:space="preserve" className=""><g>
<g xmlns="http://www.w3.org/2000/svg">
	<g>
		<g>
			<path d="M291.862,315.889c-2.992-0.613-6.083,0.421-8.104,2.711c-2.302,2.72-5.363,4.693-8.792,5.667     c-1.589-0.204-3.141-0.635-4.608-1.279l-1.458-0.529c-6.186-2.165-12.829-2.682-19.275-1.5c-2.298,0.467-4.559,1.098-6.767,1.888     c-1.862,0.754-3.825,1.232-5.825,1.421c-3.432-0.964-6.496-2.939-8.792-5.667c-2.023-2.285-5.112-3.315-8.101-2.702     c-2.989,0.613-5.423,2.777-6.383,5.673c-0.959,2.897-0.298,6.085,1.734,8.362c5.446,6.431,13.161,10.514,21.542,11.4     c3.85-0.131,7.65-0.91,11.242-2.304c1.443-0.53,2.922-0.959,4.425-1.283c3.516-0.647,7.14-0.37,10.517,0.804l1.267,0.458     c3.324,1.406,6.877,2.193,10.483,2.325c8.38-0.886,16.096-4.969,21.542-11.4c2.036-2.276,2.701-5.467,1.742-8.366     C297.29,318.667,294.854,316.502,291.862,315.889z" fill="#ffb400" data-original="#000000" className=""></path>
			<path d="M215.831,287.635c1.6,1.6,3.771,2.499,6.035,2.499c2.263,0.001,4.434-0.898,6.035-2.499c1.6-1.6,2.499-3.771,2.499-6.035     v-51.2c-0.053-0.571-0.167-1.135-0.34-1.683c-0.284-5.638-2.962-10.887-7.36-14.425c-7.817-5.588-17.392-2.321-28.492,1.458     c-8.872,3.549-18.266,5.615-27.808,6.117c-9.542-0.502-18.937-2.568-27.808-6.117c-11.092-3.779-20.667-7.046-28.492-1.458     c-5.681,5.167-8.544,12.742-7.7,20.375c0,0.607,0.074,1.195,0.091,1.798c-0.009,0.158-0.091,0.291-0.091,0.452v42.667     c0,4.713,3.82,8.533,8.533,8.533s8.533-3.82,8.533-8.533v-1.551c2.609,2.82,5.465,5.402,8.533,7.714V307.2     c0,4.713,3.82,8.533,8.533,8.533s8.533-3.82,8.533-8.533v-12.267c24.082,8.648,51.001,1.983,68.267-16.901v3.568     C213.332,283.863,214.231,286.034,215.831,287.635z M166.399,281.6c-25.908-0.031-46.903-21.026-46.933-46.933     c-0.096-2.126,0.14-4.255,0.7-6.308h0.009c4.416,0.71,8.741,1.897,12.9,3.541c10.637,4.191,21.902,6.569,33.325,7.034     c11.423-0.465,22.688-2.842,33.325-7.033c4.159-1.644,8.484-2.831,12.9-3.541h0.009c0.56,2.053,0.796,4.182,0.7,6.308     C213.302,260.574,192.307,281.569,166.399,281.6z" fill="#ffb400" data-original="#000000" className=""></path>
			<path d="M354.133,179.2c-33.114,0.046-60.735,25.322-63.711,58.302c-0.139,0.467-0.236,0.946-0.289,1.431v51.2     c0,4.713,3.82,8.533,8.533,8.533s8.533-3.82,8.533-8.533v-3.568c4.905,5.328,10.675,9.79,17.067,13.196v15.972     c0,4.713,3.821,8.533,8.533,8.533c4.713,0,8.533-3.82,8.533-8.533v-9.823c23.914,4.881,48.522-4.264,63.445-23.578     s17.561-45.433,6.803-67.341C400.822,193.082,378.54,179.2,354.133,179.2z M354.133,290.133     c-18.983,0-36.096-11.435-43.361-28.973c-7.264-17.538-3.249-37.725,10.174-51.148s33.61-17.438,51.148-10.174     c17.538,7.264,28.973,24.378,28.973,43.361C401.035,269.108,380.04,290.103,354.133,290.133z" fill="#ffb400" data-original="#000000" className=""></path>
			<path d="M504.333,226.563c-7.221-8.514-17.862-13.364-29.025-13.229h-14.508v-42.667c-0.002-4.687-3.787-8.493-8.474-8.521     l0.19-27.162c-0.115-12.626-7.22-24.148-18.45-29.921l-2.742-10.942c-3.688-14.824-16.789-25.383-32.058-25.837l-0.458-1.833     c-4.728-19.007-21.806-32.34-41.392-32.317h-5.417c-4.521-0.011-8.854-1.806-12.058-4.996l-3.108-3.113     c-11.182-11.234-26.391-17.532-42.242-17.492h-47.058c-0.855,0.038-1.699,0.209-2.503,0.505l-13.064-7.826     c-1.335-0.753-2.852-1.121-4.383-1.065V0h-56.917C95.319,0.063,34.242,61.103,34.133,136.45v77.153     c-10.232,0.486-19.809,5.175-26.467,12.959c-6.214,7.373-8.817,17.133-7.1,26.621l10.658,58.321     c2.616,12.69,13.966,21.67,26.917,21.296h13.058v14.763c-0.015,4.96,0.39,9.912,1.208,14.804     c3.671,20.506,14.342,39.103,30.192,52.621l64.517,56.663c29.609,26.014,67.677,40.358,107.091,40.35h3.584     c39.414,0.008,77.482-14.336,107.092-40.35l64.542-56.683c15.808-13.48,26.459-32.02,30.142-52.467     c0.834-4.935,1.246-9.932,1.233-14.937V332.8h13.058c12.935,0.378,24.278-8.579,26.908-21.25l10.667-58.342     C513.153,243.712,510.55,233.943,504.333,226.563z M294.591,25.6c11.32-0.03,22.182,4.468,30.167,12.492l3.108,3.108     c1.532,1.521,3.206,2.891,5,4.092V51.2c-0.005,4.711-3.822,8.529-8.533,8.533c-4.713,0-8.533,3.82-8.533,8.533     s3.82,8.533,8.533,8.533c14.132-0.015,25.585-11.468,25.6-25.6v-0.207c0.693,0.043,1.37,0.207,2.067,0.207h5.417     c11.747-0.014,21.992,7.981,24.833,19.379l0.717,2.867c0.312,0.965,0.719,1.896,1.216,2.78c-0.014,0.2-0.116,0.37-0.116,0.574     v17.067c-0.005,4.711-3.822,8.529-8.533,8.533c-4.713,0-8.533,3.82-8.533,8.533s3.82,8.533,8.533,8.533     c14.132-0.015,25.585-11.468,25.6-25.6v-8.28c6.657,1.15,12.007,6.121,13.642,12.676l2.842,11.366     c1.125,4.559,4.196,8.394,8.4,10.487c5.688,2.808,9.33,8.561,9.433,14.904l-0.143,20.364l-4.932-7.422     c-4.064-6.163-10.624-10.236-17.95-11.146c-1.098-0.211-2.215-0.306-3.334-0.283h-50.608c-4.711-0.005-8.529-3.822-8.533-8.533     v-8.533c-0.015-14.132-11.468-25.585-25.6-25.6h-11.35c-3.156-0.004-5.713-2.561-5.717-5.717V76.8     c-0.015-14.132-11.468-25.585-25.6-25.6h-12.283c-2.64,0.011-5.135-1.207-6.75-3.296c-1.572-1.974-2.167-4.554-1.617-7.017     c0.033-0.125,0.242-0.85,0.275-0.975c1.147-4.735,0.923-9.699-0.646-14.313H294.591z M51.199,315.733H38.141     c-4.667,0.289-8.895-2.739-10.125-7.25l-10.667-58.392c-0.82-4.508,0.442-9.146,3.433-12.617c3.41-3.92,8.207-6.365,13.383-6.818     c0.135,10.695,6.94,20.165,17.033,23.704V315.733z M53.649,236.229c-1.589-1.554-2.474-3.69-2.45-5.913V136.45     C51.296,70.524,104.74,17.118,170.666,17.067h54.557l15.634,9.367c3.133,1.848,4.734,5.492,3.975,9.05     c-0.033,0.104-0.242,0.808-0.267,0.912c-1.937,7.656-0.231,15.778,4.623,22.008s12.313,9.87,20.21,9.863h12.283     c4.711,0.005,8.529,3.822,8.533,8.533v11.35c0.024,6.943,3.23,13.493,8.699,17.77l-1.616,1.934     c-1.629,1.956-4.046,3.085-6.592,3.079H144.899c-11.742-0.02-23.219,3.49-32.942,10.075     c-9.747,6.526-17.275,15.865-21.583,26.775l-35.725,89.333C54.293,236.847,53.959,236.55,53.649,236.229z M353.616,458.825     c-26.492,23.281-60.556,36.117-95.824,36.108h-3.584c-35.268,0.008-69.333-12.828-95.825-36.108l-64.492-56.642     c-8.461-7.378-15.236-16.49-19.866-26.717h45.441V384c0.015,14.132,11.468,25.585,25.6,25.6h8.533     c3.911-0.024,7.763-0.956,11.254-2.72c-1.765,3.49-2.696,7.343-2.72,11.254v8.533c0.015,14.132,11.468,25.585,25.6,25.6h8.533     c4.411-0.028,8.738-1.209,12.551-3.425c4.664,7.427,12.812,11.942,21.582,11.959h8.533c6.319-0.02,12.404-2.394,17.067-6.658     c4.663,4.265,10.748,6.639,17.067,6.658h8.533c8.77-0.017,16.918-4.532,21.582-11.959c3.813,2.217,8.14,3.398,12.551,3.425h8.533     c14.132-0.015,25.585-11.468,25.6-25.6v-8.533c0-0.081-0.023-0.157-0.024-0.238c7.347,5.656,16.352,8.739,25.624,8.771h14.766     L353.616,458.825z M136.533,384v-8.533h25.6V384c-0.005,4.711-3.823,8.529-8.533,8.533h-8.533     C140.355,392.529,136.537,388.711,136.533,384z M187.733,409.6h8.533c4.711,0.005,8.529,3.822,8.533,8.533v8.533     c-0.005,4.711-3.822,8.529-8.533,8.533h-8.533c-4.711-0.005-8.529-3.822-8.533-8.533v-8.533     C179.204,413.422,183.022,409.605,187.733,409.6z M179.199,384v-8.533h25.6V384c-0.005,4.711-3.822,8.529-8.533,8.533h-8.533     C183.022,392.529,179.204,388.711,179.199,384z M230.399,409.6h8.533c4.711,0.005,8.529,3.822,8.533,8.533V435.2     c-0.005,4.711-3.822,8.529-8.533,8.533h-8.533c-4.711-0.005-8.529-3.822-8.533-8.533v-8.533v-8.533     C221.871,413.422,225.688,409.605,230.399,409.6z M221.866,384v-8.533h25.6V384c-0.005,4.711-3.822,8.529-8.533,8.533h-8.533     C225.688,392.529,221.871,388.711,221.866,384z M273.066,409.6h8.533c4.711,0.005,8.529,3.822,8.533,8.533V435.2     c-0.005,4.711-3.822,8.529-8.533,8.533h-8.533c-4.711-0.005-8.529-3.822-8.533-8.533v-17.067     C264.537,413.422,268.355,409.605,273.066,409.6z M264.533,384v-8.533h25.6V384c-0.005,4.711-3.822,8.529-8.533,8.533h-8.533     C268.355,392.529,264.537,388.711,264.533,384z M315.733,409.6h8.533c4.711,0.005,8.529,3.822,8.533,8.533v8.533     c-0.005,4.711-3.822,8.529-8.533,8.533h-8.533c-4.711-0.005-8.529-3.822-8.533-8.533v-8.533     C307.204,413.422,311.022,409.605,315.733,409.6z M307.199,384v-8.533h25.6V384c-0.005,4.711-3.822,8.529-8.533,8.533h-8.533     C311.022,392.529,307.204,388.711,307.199,384z M443.733,347.563c0.012,4.076-0.325,8.145-1.008,12.162     c-3.045,16.563-11.735,31.56-24.592,42.437l-8.481,7.448l-0.053-0.01h-34.133c-14.132-0.015-25.585-11.468-25.6-25.6v-17.067     c0.001-2.263-0.898-4.434-2.499-6.035c-1.6-1.6-3.771-2.499-6.035-2.499H69.1c-0.552-3.586-0.831-7.209-0.834-10.837V249.02     l37.975-94.945c3.048-7.715,8.376-14.318,15.275-18.925c6.9-4.676,15.048-7.168,23.384-7.15h111.167v17.067     c0,4.713,3.82,8.533,8.533,8.533s8.533-3.821,8.533-8.533V128h17.067v42.667c0,4.713,3.82,8.533,8.533,8.533     s8.533-3.82,8.533-8.533v-48.857c1.128-0.912,2.176-1.919,3.133-3.009l6.577-7.867h7.373c4.711,0.005,8.529,3.822,8.533,8.533     V128c0.015,14.132,11.468,25.585,25.6,25.6l50.8,0.004c0.267,0.054,0.533,0.092,0.808,0.121c2.466,0.247,4.688,1.592,6.05,3.662     l6.967,10.475c4.587,6.772,12.12,10.959,20.292,11.28c0.097,0.004,0.177,0.057,0.274,0.057h0.058V347.563z M494.649,250.117     l-10.675,58.412c-1.246,4.49-5.466,7.495-10.117,7.204h-13.058V230.4h14.508c6.091-0.124,11.921,2.469,15.908,7.075     C494.211,240.954,495.473,245.601,494.649,250.117z" fill="#ffb400" data-original="#000000" className=""></path>
		</g>
	</g>
</g>
<g xmlns="http://www.w3.org/2000/svg">
</g>
<g xmlns="http://www.w3.org/2000/svg">
</g>
<g xmlns="http://www.w3.org/2000/svg">
</g>
<g xmlns="http://www.w3.org/2000/svg">
</g>
<g xmlns="http://www.w3.org/2000/svg">
</g>
<g xmlns="http://www.w3.org/2000/svg">
</g>
<g xmlns="http://www.w3.org/2000/svg">
</g>
<g xmlns="http://www.w3.org/2000/svg">
</g>
<g xmlns="http://www.w3.org/2000/svg">
</g>
<g xmlns="http://www.w3.org/2000/svg">
</g>
<g xmlns="http://www.w3.org/2000/svg">
</g>
<g xmlns="http://www.w3.org/2000/svg">
</g>
<g xmlns="http://www.w3.org/2000/svg">
</g>
<g xmlns="http://www.w3.org/2000/svg">
</g>
<g xmlns="http://www.w3.org/2000/svg">
</g>
</g></svg>