<svg xmlns="http://www.w3.org/2000/svg" version="1.1" xmlns:xlink="http://www.w3.org/1999/xlink" xmlns:svgjs="http://svgjs.com/svgjs" width="512" height="512" x="0" y="0" viewBox="0 0 512 512" style="enable-background:new 0 0 512 512" xml:space="preserve" className=""><g><g xmlns="http://www.w3.org/2000/svg"><g><circle cx="256" cy="256" fill="#162680" r="256" data-original="#162680"></circle></g><g><path d="m171.27 418.909c-12.853 0-23.273 10.42-23.273 23.273s-10.419 23.273-23.273 23.273h-15.931c41.641 29.319 92.41 46.545 147.207 46.545 79.496 0 150.529-36.236 197.483-93.091z" fill="#1d319b" data-original="#1d319b" className=""></path></g><g><path d="m256 0c79.496 0 150.529 36.236 197.483 93.091h-220.316c-12.61 0-22.833-10.223-22.833-22.833v-.879c0-12.61-10.223-22.833-22.833-22.833h-78.707c41.64-29.32 92.409-46.546 147.206-46.546z" fill="#1d319b" data-original="#1d319b" className=""></path></g><g><path d="m301.5 264.047c0-12.853 10.42-23.273 23.273-23.273h186.771c-.938-15.953-3.343-31.51-7.073-46.545h-44.471c-12.853 0-23.273-10.42-23.273-23.273 0-12.853-10.42-23.273-23.273-23.273h-301.827c-12.611 0-22.833 10.223-22.833 22.833v.879c0 12.61-10.223 22.833-22.833 22.833h-58.44c-3.726 15.035-6.122 30.593-7.058 46.545h12.37c12.611 0 22.833 10.223 22.833 22.833v.879c0 12.61 10.223 22.833 22.833 22.833h126.703c12.611 0 22.833 10.223 22.833 22.833v.879c0 12.61-10.223 22.833-22.833 22.833h-173.128c5.194 16.285 11.974 31.858 20.158 46.546h447.537c15.704-28.185 26.239-59.641 30.324-93.091h-185.32c-12.853.002-23.273-10.418-23.273-23.271z" fill="#1d319b" data-original="#1d319b" class=""></path></g><g><g><path d="m512 343.805c0-46.383-18.801-88.375-49.197-118.771l-192.388-192.389c-9.371-9.371-24.564-9.371-33.935 0-9.371 9.371-9.371 24.564 0 33.935l31.047 31.047c9.371 9.371 9.371 24.564 0 33.935-9.371 9.371-24.564 9.371-33.935 0l-124.306-124.307c-9.371-9.371-24.564-9.371-33.935 0-9.371 9.371-9.371 24.564 0 33.935l43.78 43.78c9.371 9.371 9.371 24.564 0 33.935-9.371 9.371-9.371 24.564 0 33.935l29.533 29.533c9.371 9.371 9.371 24.564 0 33.935-9.371 9.371-24.564 9.371-33.935 0l-11.771-11.771c-9.371-9.371-24.564-9.371-33.935 0-9.371 9.371-9.371 24.564 0 33.935l38.19 38.19c9.371 9.371 9.371 24.564 0 33.935-9.371 9.371-9.371 24.564 0 33.935l118.047 118.044c30.396 30.396 72.389 49.197 118.771 49.197 92.767 0 167.969-75.202 167.969-167.968z" fill="#61b6ff" data-original="#61b6ff" className=""></path></g><g><path d="m427.948 258.047-96.411-96.411c-9.273-9.273-24.307-9.273-33.58 0l-.354.354c-9.273 9.273-9.273 24.307 0 33.58l1.583 1.583c11.639 11.639 8.152 31.213-6.712 38.284-.161.076-.321.153-.481.23-9.011 4.337-19.799 2.364-26.87-4.708l-37.067-37.067c-9.273-9.273-24.307-9.273-33.58 0l-.354.354c-9.273 9.273-9.273 24.307 0 33.58l37.067 37.067c7.072 7.072 9.044 17.859 4.708 26.87-.077.16-.154.321-.23.481-7.071 14.864-26.645 18.351-38.284 6.712l-1.583-1.583c-9.273-9.273-24.307-9.273-33.58 0l-.354.354c-9.273 9.273-9.273 24.307 0 33.58l97.332 97.332c46.954 46.954 123.144 46.854 169.973-.301 46.722-47.046 45.664-123.403-1.223-170.291z" fill="#83d3fc" data-original="#83d3fc" className=""></path></g><g><path d="m40.963 74.671 31.692 31.692c9.371 9.371 9.371 24.564 0 33.935-9.371 9.371-24.564 9.371-33.935 0l-31.692-31.693c-9.371-9.371-9.371-24.564 0-33.935 9.371-9.37 24.564-9.37 33.935.001z" fill="#61b6ff" data-original="#61b6ff" className=""></path></g><g><circle cx="408.214" cy="112.476" fill="#61b6ff" r="19.982" data-original="#61b6ff" className=""></circle></g><g><circle cx="53.03" cy="290.346" fill="#61b6ff" r="19.982" data-original="#61b6ff" className=""></circle></g><g><circle cx="347.486" cy="351.724" fill="#d0f6fa" r="75.03" data-original="#d0f6fa" className=""></circle></g><g><path d="m377.486 396.755c-41.438 0-75.031-33.592-75.031-75.03 0-13.005 3.312-25.234 9.133-35.898-23.314 12.728-39.133 37.464-39.133 65.898 0 41.438 33.592 75.03 75.03 75.03 28.434 0 53.17-15.818 65.898-39.133-10.662 5.821-22.892 9.133-35.897 9.133z" fill="#b9e9fd" data-original="#b9e9fd" className=""></path></g></g></g></g></svg>