<svg xmlns="http://www.w3.org/2000/svg" version="1.1" xmlns:xlink="http://www.w3.org/1999/xlink" xmlns:svgjs="http://svgjs.com/svgjs" width="512" height="512" x="0" y="0" viewBox="0 0 32 32" style="enable-background:new 0 0 512 512" xml:space="preserve" className=""><g><g xmlns="http://www.w3.org/2000/svg" id="Virtual_realty"><g><g fill="#263238"><path d="m26 23.5c0 3.033-3.141 5.5-7 5.5h-6c-3.86 0-7-2.467-7-5.5v-3.5h-2v3.5c0 4.136 4.038 7.5 9 7.5h6c4.963 0 9-3.364 9-7.5v-3.5h-2z" fill="#ffffff" data-original="#263238" className=""></path><path d="m11.715 23.201-1.431 1.397c1.513 1.549 3.543 2.402 5.716 2.402 2.174 0 4.203-.853 5.716-2.401l-1.432-1.397c-1.132 1.159-2.653 1.798-4.284 1.798-1.63 0-3.152-.639-4.285-1.799z" fill="#ffffff" data-original="#263238" className=""></path><path d="m4.818 8.636 1.863.728c1.509-3.866 5.167-6.364 9.319-6.364h11.719l-1.689 6.757 1.939.485 2.312-9.242h-14.281c-2.587 0-5.011.814-7 2.241v-2.241h-2v3h-3v2h2.25c-.573.803-1.06 1.683-1.432 2.636z" fill="#ffffff" data-original="#263238" className=""></path></g><g fill="#e67e22"><path d="m20 15.586 1-1v-.586h-1z" fill="#e67e22" data-original="#e67e22" className=""></path><path d="m27 8h-22c-2.206 0-4 1.794-4 4v6c0 2.206 1.794 4 4 4h22c2.206 0 4-1.794 4-4v-6c0-2.206-1.794-4-4-4zm-14.323 10h-2.354l-2.251-5.628 1.857-.743 1.571 3.929 1.571-3.929 1.857.743zm9.616.707-2.293-2.293v1.586h-2v-6h5v3.414l-.586.586 1.293 1.293z" fill="#e67e22" data-original="#e67e22" className=""></path></g></g></g></g></svg>