<svg xmlns="http://www.w3.org/2000/svg" version="1.1" xmlns:xlink="http://www.w3.org/1999/xlink" xmlns:svgjs="http://svgjs.com/svgjs" width="512" height="512" x="0" y="0" viewBox="0 0 512 512" style="enable-background:new 0 0 512 512" xml:space="preserve" class=""><g>
<path xmlns="http://www.w3.org/2000/svg" d="M256,496C123.664,496,16,388.336,16,256S123.664,16,256,16s240,107.664,240,240S388.336,496,256,496z" fill="#000000" data-original="#000000" class=""></path>
<path xmlns="http://www.w3.org/2000/svg" d="M256,32c123.512,0,224,100.488,224,224S379.512,480,256,480S32,379.512,32,256S132.488,32,256,32 M256,0  C114.616,0,0,114.616,0,256s114.616,256,256,256s256-114.616,256-256S397.384,0,256,0L256,0z" fill="#000000" data-original="#000000" class=""></path>
<g xmlns="http://www.w3.org/2000/svg">
	<path style="" d="M108.896,230.416H87.92l27.776-44l-26.424-42.368h21.56l15.4,28.128l15.832-28.128h20.856   l-26.424,41.664l28.064,44.704h-21.912l-16.408-29.448L108.896,230.416z" fill="#f91e1e" data-original="#f91e1e" class=""></path>
	<path style="" d="M239.552,153.248c2.64,3.672,3.96,8.064,3.96,13.184c0,5.272-1.328,9.512-3.992,12.712   c-1.496,1.8-3.688,3.448-6.592,4.928c4.408,1.6,7.736,4.144,9.976,7.608c2.24,3.488,3.368,7.704,3.368,12.656   c0,5.128-1.28,9.712-3.84,13.776c-1.632,2.696-3.672,4.96-6.12,6.8c-2.76,2.112-6.008,3.552-9.76,4.336s-7.824,1.168-12.2,1.168   H175.44v-86.368h41.736C227.704,144.2,235.168,147.272,239.552,153.248z M192.656,159.048v19.04h20.992   c3.752,0,6.8-0.712,9.136-2.136c2.344-1.424,3.512-3.96,3.512-7.592c0-4.024-1.544-6.68-4.64-7.968   c-2.672-0.896-6.072-1.344-10.208-1.344L192.656,159.048L192.656,159.048z M192.656,192.384v23.032h20.968   c3.752,0,6.664-0.504,8.752-1.52c3.784-1.872,5.672-5.472,5.672-10.784c0-4.496-1.832-7.576-5.504-9.256   c-2.048-0.936-4.92-1.424-8.632-1.472H192.656z" fill="#f91e1e" data-original="#f91e1e" class=""></path>
	<path style="" d="M328.304,222.744c-6.52,6.72-15.952,10.08-28.296,10.08s-21.784-3.36-28.296-10.08   c-8.76-8.24-13.128-20.12-13.128-35.624c0-15.824,4.368-27.696,13.128-35.632c6.512-6.72,15.952-10.08,28.296-10.08   s21.776,3.36,28.296,10.08c8.712,7.928,13.072,19.808,13.072,35.632C341.376,202.624,337.016,214.496,328.304,222.744z    M317.032,209.616c4.192-5.28,6.296-12.784,6.296-22.496c0-9.688-2.104-17.176-6.296-22.48c-4.2-5.288-9.872-7.936-17.024-7.936   s-12.848,2.64-17.112,7.912s-6.392,12.776-6.392,22.504c0,9.72,2.136,17.216,6.392,22.496c4.256,5.264,9.96,7.904,17.112,7.904   S312.832,214.88,317.032,209.616z" fill="#f91e1e" data-original="#f91e1e" class=""></path>
	<path style="" d="M368.944,230.416h-20.976l27.776-44l-26.424-42.368h21.56l15.4,28.128l15.832-28.128h20.856   l-26.424,41.664l28.064,44.704h-21.912l-16.408-29.448L368.944,230.416z" fill="#f91e1e" data-original="#f91e1e" class=""></path>
</g>
<g xmlns="http://www.w3.org/2000/svg">
	<path style="" d="M201.616,360.024c-6.52,6.72-15.952,10.08-28.296,10.08s-21.784-3.36-28.296-10.08   c-8.76-8.24-13.128-20.12-13.128-35.624c0-15.824,4.368-27.696,13.128-35.624c6.512-6.72,15.952-10.08,28.296-10.08   s21.776,3.36,28.296,10.08c8.712,7.928,13.072,19.808,13.072,35.624C214.688,339.904,210.328,351.784,201.616,360.024z    M190.344,346.896c4.192-5.28,6.296-12.784,6.296-22.496c0-9.688-2.104-17.176-6.296-22.48c-4.2-5.288-9.872-7.936-17.024-7.936   s-12.848,2.64-17.112,7.912s-6.392,12.776-6.392,22.496s2.136,17.216,6.392,22.496c4.256,5.264,9.96,7.904,17.112,7.904   S186.144,352.168,190.344,346.896z" fill="#ffffff" data-original="#ffffff"></path>
	<path style="" d="M228.168,281.336h18.92l34.28,60.216v-60.216h16.824v86.36h-18.048l-35.16-61.28v61.28H228.16   v-86.36H228.168z" fill="#ffffff" data-original="#ffffff"></path>
	<path style="" d="M378.984,296.624H333.28v18.336h41.952v15H333.28v22.2h47.816v15.528h-65.448v-86.352h63.336   V296.624z" fill="#ffffff" data-original="#ffffff"></path>
</g>
<g xmlns="http://www.w3.org/2000/svg">
</g>
<g xmlns="http://www.w3.org/2000/svg">
</g>
<g xmlns="http://www.w3.org/2000/svg">
</g>
<g xmlns="http://www.w3.org/2000/svg">
</g>
<g xmlns="http://www.w3.org/2000/svg">
</g>
<g xmlns="http://www.w3.org/2000/svg">
</g>
<g xmlns="http://www.w3.org/2000/svg">
</g>
<g xmlns="http://www.w3.org/2000/svg">
</g>
<g xmlns="http://www.w3.org/2000/svg">
</g>
<g xmlns="http://www.w3.org/2000/svg">
</g>
<g xmlns="http://www.w3.org/2000/svg">
</g>
<g xmlns="http://www.w3.org/2000/svg">
</g>
<g xmlns="http://www.w3.org/2000/svg">
</g>
<g xmlns="http://www.w3.org/2000/svg">
</g>
<g xmlns="http://www.w3.org/2000/svg">
</g>
</g></svg>